<mxfile host="app.diagrams.net" agent="Mozilla/5.0 (Macintosh; Intel Mac OS X 10_15_7) AppleWebKit/537.36 (KHTML, like Gecko) Chrome/132.0.0.0 Safari/537.36" version="26.0.11">
  <diagram name="Page-1" id="9O5_x4W_DbiE08nA1CkK">
    <mxGraphModel dx="853" dy="553" grid="1" gridSize="10" guides="1" tooltips="1" connect="1" arrows="1" fold="1" page="1" pageScale="1" pageWidth="850" pageHeight="1100" math="0" shadow="0">
      <root>
        <mxCell id="0" />
        <mxCell id="1" parent="0" />
        <mxCell id="ItvUEO7hq5XVIe8wMghT-2" value="" style="shape=image;verticalLabelPosition=bottom;labelBackgroundColor=default;verticalAlign=top;aspect=fixed;imageAspect=0;image=data:image/png,iVBORw0KGgoAAAANSUhEUgAAAgAAAAIACAYAAAD0eNT6AAAAAXNSR0IArs4c6QAAAERlWElmTU0AKgAAAAgAAYdpAAQAAAABAAAAGgAAAAAAA6ABAAMAAAABAAEAAKACAAQAAAABAAACAKADAAQAAAABAAACAAAAAAAL+LWFAABAAElEQVR4Ae2dB5wdVb34z5l777ZkN70QElIICSGFFKoIJNIDPAuQR8BsAigoIvL+FlSeGlGfD7EDKhZKQAJLE1ECyhNERESK9E42gdASUjbZZMu9c/5nQspm9+7uLVPOzPnO57OfvXPmnF/5/mbu/O6Zc84IwQYBCEAAAhCAAAQgAAEIQAACEIAABCAAAQhAAAIQgAAEIAABCEAAAhCAAAQgAAEIQAACEIAABCAAAQhAAAIQgAAEIAABCEAAAhCAAAQgAAEIQAACEIAABCAAAQhAAAIQgAAEIAABCEAAAhCAAAQgAAEIQAACEIAABCAAAQhAAAIQgAAEIAABCEAAAhCAAAQgAAEIQAACEIAABCAAAQhAAAIQgAAEIAABCEAAAhCAAAQgAAEIQAACEIAABCAAAQhAAAIQgAAEIAABCEAAAhCAAAQgAAEIQAACEIAABCAAAQhAAAIQgAAEIAABCEAAAhCAAAQgAAEIQAACEIAABCAAAQhAAAIQgAAEIAABCEAAAhCAAAQgAAEIQAACEIAABCAAAQhAAAIQgAAEIAABCEAAAhCAAAQgAAEIQAACEIAABCAAAQhAAAIQgAAEIAABCEAAAhAomoAsugUNIBBTAmNmL6pym50RmVxuQExdCNXsnCtzbsZpSmVlLpfd0pSu6Ou+9tgvN4RqBMogAIHACJAABIYWwZETOOWU1NiXao4QKXWyUPJwbc94/edEble8DWjT5r+thHrD+6+/QFYJ5bzuSvcZR2SeW/7Eb1bE2z2sh4A9BEgA7Im1TZ7KsTPqTxJCfkc7PcEmxw3wtUnb8KwU8iklxN+FSD1AUmBAVDABAnkIkADkgUJRfAmM27d+gpLOEiHVgfH1InGWrxRKPCCE+qvKOH9o/Nc1byfOQxyCQAwJkADEMGiYnJ/A2OmLjtI3/pv0UZ7x50dkQqmrjXhCSvmHrJINK5+4+jkTjMIGCNhIgATAxqgn0OdxMxbO113OS7Rr6QS6l1iXdMyedYS6yhGp61554urViXUUxyBgIAESAAODgknFERgza8GB0nXu162qimtJbYMIeIML73SF+s2K8Vv+JG6+OWeQbZgCgUQSIAFIZFjtcWrM/ouGy6x6XHu8mz1eJ97TV5SQPxD9xDWN91/TknhvcRACERFIRaQXtRDwhcCA4dN+qEf7e1P82JJDYKD+ZXKCbBXnDBwxo0+fgbOealr9xJbkuIcnEDCDAD0AZsQBK0ogMGbWor2lq57WTXnuXwK/2DRRYqOQ8tLNudwP33nquubY2I2hEDCcAD0AhgcI87onMGC3fX+sj07vvgZHEkFAikrtx5yMI88YMGL6xukTBzzZ2NjozSZggwAEyiBAD0AZ8GgaHYHxB55el2tLe/PJq6OzAs0REXheSfe/Gh+/7p6I9KMWAokgwLKoiQijfU7k2jPec39u/vaF3vN4klTO3WOnL7xz5L71u9uJAK8hUD4BEoDyGSIhAgJKqYMjUItKkwhIcYJ+LPDUuBmLztRm0ZtpUmywJRYESABiESaM7EzAUWLvzmXsW0lgoH4x0W/Gzlj4p1EzzhxhJQGchkCJBEgASgRHs2gJKCkGR2sB2g0jcGRa5J4cO3PRiYbZhTkQMJYACYCxocGwXgjw/L8XQBYeHiyUukP3BvxkzOxFrApp4QmAy8URIAEojhe1zSHAM19zYmGSJd55cb7coB4cP+30kSYZhi0QMI0ACYBpEcEeCEDADwKzcqn0I957IvwQhgwIJJEACUASo4pPEICAR2A3/ZKov46ZXr8QHBCAQFcCJABdmVACAQgkh0CllPKacTMXLU6OS3gCAX8IkAD4wxEpEICAwQT0uhHf0AsHXS7EYr7zDI4TpoVLgIshXN5ogwAEoiIgxWfGTl9+7ezZs3l5VFQxQK9RBEgAjAoHxkAAAoESkOLjKzaMXjpr1tmZQPUgHAIxIEACEIMgYSIEIOArgZPXuq1LxSmn8DZUX7EiLG4ESADiFjHshQAE/CBw0rhXavSYADYI2EuABMDe2OM5BKwmoIT41JgZC//Hagg4bzUBEgCrw4/zELCbgF428CtjZi66wG4KeG8rARIAWyOP3xCAwFYCUqkfjJu+8HhwQMA2AiQAtkUcfyEAgc4EHP12yevHTjtzYucD7EMgyQRIAJIc3ST7pmQ2ye7hW+gE+otU7vdjpi/qH7pmFEIgIgIkABGBR22ZBKRqLVMCzSHQmcAEKdR1upA3TXYmw34iCZAAJDKsVjjVZoWXOBkuASlOGDtj0XnhKkUbBKIhQAIQDXe0lk9gc/kikACBfATU98bOrJ+W7whlEEgSARKAJEXTIl+UEu9Z5C6uhkugSiq5dMSss2vCVYs2CIRLgAQgXN5o84mAdNQan0QhBgJdCOhFgvapdFu/2+UABRBIEAESgAQF0yZXlJAkADYFPBpfPzN23/oDolGNVggET4AEIHjGaAiAgKPE6wGIRSQEOhJICUf+ijcHdkTC5yQRIAFIUjQt8sWVcrlF7uJqdASmrc21fi469WiGQHAESACCY4vkAAnItjQJQIB8Ed2BgBSL9fsCDupQwkcIJIIAC14kIoxWOiHHzli4Tnvez0rvcTpsAq5W+LNURfaiV/7526awlaMPAkEQoAcgCKrIDIOAHqgtngpDETogoAl435Xn5drST+vlgmdDBAJJIEACkIQo2uvDk/a6jucREdhDSvV/Y2bUf3f27NnpiGxALQR8IUAC4AtGhERDQL4bjV60Wk7AkUJ+uXHDHvdMmDV/sOUscD/GBBgDEOPg2Wy6fv5/lvb/F/qPX2E2nwiR+65W5ERq7sonrn4uclMwAAJFEqAHoEhgVI+egO5+vVBb8Sv9x80/+nBYboEcnRLug2NnLjrUchC4H0MC9ADEMGgWmyzHzVj0cyXUORYzwHUzCWx2XXXCiieX3GemeVgFga4E6AHoyoQSQwnoN7Rdws3f0OBgVo3jyDvpCeBEiBMBegDiFC2LbdU3//OEkpdZjADX40GgSUh16PLHlzBFNR7xstpKEgCrwx8P58dNX3Sakup6bS3nazxCZrmVaoVKOwc1/uuaty0HgfuGE+ARgOEBst280TMXTNI3f2/AHzd/20+G2PgvR8usuFGcckoqNiZjqJUEOEGtDHs8nB4ze1GV0yLu1vf+UfGwGCshsIPAmAFrM876t59kUOAOJHwwjQA9AKZFBHt2EJAb1CX65r/vjgI+QCBeBL665/QzPhAvk7HWJgJ0q9oU7Rj5OnpG/cGOkH/XJnOOxihumNqFwNM1bZv3e/bZm9u6HKEAAhEToAcg4gCgPj8BffO/VB/h5p8fD6XxITC1OVP96fiYi6U2EeAL1qZox8TXcTMXfUwpdWtMzMVMCPRGYF0u277nyqdv8F5fzQYBYwjQA2BMKDBkKwE9clrf/L8LDQgkiMCAVCpNL0CCApoUV0gAkhLJhPgx7uU+x2hXJiTEHdyAwPsEpPycN6sFHBAwiQAJgEnRwBYhHPVJMEAggQSGOuvFxxLoFy7FmAAJQIyDlzTTx+y/aLhS4vik+YU/ENhKQKqPQwICJhEgATApGpbb4mTd0zSCjOUYcD+hBJQQR+1+QP2ghLqHWzEkQAIQw6Al1WQl5Oyk+oZfENAE0hVZeQQkIGAKARIAUyJhvR2LvXPxEOsxACDZBJQ4KtkO4l2cCJAAxClaCbZ17MzXpmj3BibYRVyDgEdgPzBAwBQCJACmRMJyO5TrzLQcAe7bQWDSrFlnM87Fjlgb7yUJgPEhssNAR6jd7PAULy0nULnayfJ2S8tPAlPcJwEwJRKW26EkCYDlp4A17mfa1XBrnMVRowmQABgdHouMU3KYRd7iqsUEXOkOtth9XDeIAAmAQcGw2hQp+1ntP85bQ0BKmbbGWRw1mgAJgNHhscc4JdycPd7iqdUElOItrFafAOY4TwJgTiystkQKucVqADhvDQHlio3WOIujRhMgATA6PBYZJ+U7FnmLqxYTUFK+a7H7uG4QARIAg4JhtSlKvWW1/zhvDYGcdEgArIm22Y6SAJgdH3usk6rRHmfx1GICLa8/scfbFvuP6wYRIAEwKBg2m+K4crnN/uO7JQSkWiHEYtcSb3HTcAIkAIYHyBbzWlU0PQApKZl9YMtJZoKfymk0wQxsgIBHgASA88AIAm88ueRNbUhLmMYMrKlY++A3Dn959KCa18PUiy57CUih6OmyN/zGeU4CYFxIrDVIac9Xhun9kk/v92JNRWrv2y44MLXHYJKAMNnbqssV0fR02cobv3smQALQMx+OhkogvHEA8w4Y8c9Rg6oP9txLp5wRt19woKAnINRg26lMikY7HcdrEwmQAJgYFUtt0sujNYbhet+qdNOFH957dEddaccZ9bv/d3DlvqP6vdixnM8Q8JOAHnHCIwA/gSKrLAIkAGXho7GfBFzhhvLleNUnZj6VlnJ4Z9sdKYZe+6lZww6dOPipzsfYh4AfBJyIBrv6YTsykkeABCB5MY2vRyF0j+43rv9zE0fUHtIdJP2ilv6XL9x373OOGPdgd3Uoh0CJBJpffeo6FgEqER7N/CdAAuA/UySWSCCM7tEfnDatXZvX28tYKs49YuwHf3HG9L8yTbDEYNKsCwE9yrWxSyEFEIiQAAlAhPBRvSuBoLtHP7rf7o/0r8nsu6vW7vcO3mvQ4ff992HPDO9fyXsKusfEkQIJSMXz/wJRUS0kAiQAIYFGTe8EtnWPNvdes/gaKSeV/cp/7DW42Jb9qtP7LvvCB1NHTxv6eLFtqQ+BXQiE8IhrF33sQKAXAiQAvQDicLgEguom/exRY/5RmU6NK8UbxxGDLz116oxrztnvAb1uQCAJSil20SZ2BBpjZzEGJ5oACUCiwxs/54LoJvV+/S84dI+Sbv4dCMoZo/sd9revHf7e4RMHPdmhnI8QKIiAHmAayiyXgoyhEgQ0ARIATgOzCATQTVp/6Mh/6nn+u/vhaDol9/jpwunTbv3cQX8fXFex2g+ZyLCDQC4XzjRXO2jipR8ESAD8oIgMPwk0+inMk3X2h8YO8lmmHD+szyH3XvjBzJdPnPjXTMpp81k+4hJIQLnZxgS6hUsxJkACEOPgJdF0v1cD9Abv1WRSewfBylszYP7BIw9/ePHha84/as+/MWUwCMqJkblh5dM3rEuMNziSCAIkAIkIY3KcyDmOr89Jv3z8BD2uMNjNe5fAWXPGHPrQNw9/rf7Q0Q+RCATLO6bSfT2vY8oAsw0jQAJgWEBsN0e1tfr2RTlxtz6vDaqtnBkW06p0aq/PHzf+A49cPGfV/ztu/AM1lWlmDIQF33A9MoCxLYa7jHkxIEACEIMg2WTitm7SDX74/Jkjx6/Ucnpb9c8PVbvI8AYKLjx09GEPff0w15s6uM/I2ld2qcCOfQRcVgG0L+jme5w230QstI+A9850WfCKffn46Ofz6pCJg8fnOxZWmbah1ps6uPTcA0Rr1n31/udXv3H5n18bt3LN5lFh2YAeMwi4klUAzYgEVnQkQALQkQafjSDgzZdWSpSVAHxon8FPph0x3QiHtBGVaWfPY6YO8/7cza3u84+tWPvu0ofeGPjQy2unKKVC76UwhYstdnjntC2+4md8CJAAxCdW9ljqdZeWeUs8Z87YTYYCc2oqnUmHThjs/QlXiXdXrd3y6v0vrGm/56m3hz+3qnlczs1xXRoavFLNYgxAqeRoFyQBvmiCpIvskgh43aXl3P+rM87mCSNqjfn13xMER4qhowZVD11wyCjh/emtVfcQvLziveb3nlvVlHvhzY2VL765acDy1c3Dm1qy/XqSxTFzCWQ2OY3mWodlthIgAbA18gb7rW/+jeWYd+S0Yc9qGfuXIyPCtpVeD8GkEbXC++u0teZcd327KzZsbs02K1eq9lwu155T2U712PWZwCV/eKnP315cM61EsWtefPGqjSW2pRkEAiNAAhAYWgSXTEDqQYBlPBY/ab/dt5Ss2+yGlSnHGZZyxLCqdMU2SzNmW5wQ686eM+YBnQCU6k1jqQ1pB4EgCTANMEi6yC6JQEVzuqwBU1NH1o0pSTGNINANgckj68Z2c6j3YmYA9M6IGpEQIAGIBDtKeyKwrbv0vZ7qdHds3LA+jd48/O6OUw6BUgikHDlqzOAab12JEjZvWisbBMwjQAJgXkyw6H0CJfUCzDtg5AoAQiAIAicdsHtjKXKlYgpgKdxoEzwBEoDgGaOhFAIldpvOmTS4phR1tIFAbwSOmjK0src6+Y7nBD0A+bhQFj0BEoDoY4AFeQmU9qU5tK5yTF5xFEKgTALD+1XtVYoI6fMLrkqxgTYQyEeABCAfFcoiJyBLWDt99wGVbzqOHBK58RiQSAJ6MZ+Buw+sfrNI51SbqFhZZBuqQyAUAiQAoWBGSbEEciU8Ajh4/ODXi9VDfQgUQ+DgPQcWe4698+Zjv9xcjA7qQiAsAiQAYZFGT3EEvLUAitwO2XtgUuf/F0mC6kEROHhC0edYSYNZg7IfuRDoSIAEoCMNPhtDIFfZ0qiNUcUYNHVk/77F1KcuBIolMGX3uj7FtNEncGMx9akLgTAJkACESRtdBRN44x83e7/m3ym4ga44oG9mZDH1qQuBYgkM7ldZ7KucG4vVQX0IhEWABCAs0ugphUBjoY0yKactLeXQQutTDwKlENDnmF6GOVXwoybWACiFMm3CIkACEBZp9BRNQHefLi+00chB1W/pupzPhQKjXqkE5IhBVQX3TEnpFnwOl2oQ7SBQKgG+MEslR7swCDQWqmTckJq1hdalHgTKIbDnkL7rCm2vE4DGQutSDwJhEyABCJs4+gomUEz36fjhtc0FC6YiBMogMG5oTaHnmiubBhQ7bbAMy2gKgeIIkAAUx4va4RJoLFTdhGF9soXWpR4EyiEwvvBzbdUrr1zWWo4u2kIgSAIkAEHSRXZZBBwnW/Dz0+EDqlNlKaMxBAokMGJgTaHnWmOBIqkGgUgIkABEgh2lhRCoam1dqeu5hdTtW+EU+qVciDjqQKBbAn0rCz7XCk5gu1XGAQgESIAEIEC4iC6PwLPP3tymJRS09nplJkUCUB5uWhdIoDKdShdSVbIIUCGYqBMhARKACOGjuiACBf2KqkjJTEHSqASBMglUpApLAFwlCzp3yzSH5hAomQAJQMnoaBgSgYK+RDOZFAlASAGxXU1luuBks9F2VvhvNgESALPjY711hXajpukBsP5cCQtAKi0rCtElZaqg5LUQWdSBQBAESACCoIpM3wgU2o2akYV9KftmGIKsJZB2ZGUBzmdH93t1VQH1qAKByAiQAESGHsUFEmgsqJ5kGeCCOFGpbAJSSN0x1ev2+v3338/aFL1iokKUBEgAoqSP7kIINBZSiToQMImAEoruf5MCgi15CZAA5MVCoSkEGvdqfl3b0m6KPdgBgQIJNBZYj2oQiIwACUBk6FFcEIGbb87pem8UVJdKEDCEgH4i1WiIKZgBgW4JkAB0i4YDphCgO9WUSGBHwQR4DXDBqKgYHYGCVrSKzjw0Q0AIPehql+epmZTTNmfS4GfmHTxy47ghfer6VmZqMyk5GlYQCIOAnnI64pGL57y6uTW78ZV3mjfc/Miqvn95dvXU9py7Y3qgHibYGIYt6IBAOQRIAMqhR9uwCDR6irwb//nH7PnwaYeM2ist5cywlKMHAp0IZCrTzp6V6Qqx/zjvb4DIKvXmzQ+vevlHd798YGu7W+W05xo7tWEXAsYRIAEwLiQY1IWAVI0Th9e+uuTT++eq0s5hXY5TAIGICeiEdMT8g0eO+Nj+I1791FVPbL719gEFvcMiYrNRbzmBQuazWo4I96Mm8Mx1V35i9ODqnyghaqK2Bf0QKIBAq5SyvvbYBQ0F1KUKBCIjQAIQGXoUF0Jgw7JrP67HAFyj6/K2v0KAUccUAjmh1Nl1cxdeZYpB2AGBzgRIADoTYd8YAhvvWvIhJcWftEHc/I2JCoYUQSCnlDqx39yFy4poQ1UIhEaABCA01CgqhsDaPy/ZI50Vj+k2g4tpR10IGEZgbU7kZg047oxGw+zCHAiwfjrngJkE0u3iCm0ZN38zw4NVhRMYmBKpnxdenZoQCI8ACwGFxxpNBRLYeNe1J+vJ/ycUWJ1qEDCdwLEbly051XQjsc8+AjwCsC/mRnusGhpSG2tbntNGTjDaUIyDQHEEXqmtGjVJzpnDGwKL40btAAnQAxAgXEQXT2BTXetJuhU3/+LR0cJsAuObWl+fZ7aJWGcbARIA2yJuuL961PQFhpuIeRAoiYBU4jMlNaQRBAIiwCOAgMAitngC6++6Zk9HOi/rlpyXxeOjRRwIuGpi3fELX4qDqdiYfAL0ACQ/xrHxMCWd+dpYbv6xiRiGFktArxB4SrFtqA+BoAiQAARFFrlFE1BSHlV0IxpAIEYE9MJWR8TIXExNOAESgIQHOC7uqbt+WqmXTj0gLvZiJwRKJHCwnulSXWJbmkHAVwIkAL7iRFipBJrEwBm6bVWp7WkHgZgQqGrq27ZvTGzFzIQTIAFIeIDj455i6l98goWlZRHgXC8LH419I0AC4BtKBJVFQKq9ympPYwjEhQDnelwilXg7SQASH+J4OCilGBEPS7ESAuURkErtXp4EWkPAHwIkAP5wREqZBPQCQH3LFEFzCMSDgJSc6/GIVOKtJAFIfIjj4aAUfCnGI1JY6QOBWh9kIAICZRMgASgbIQJ8IaBXSPFFDkIgYDgBfaJzrhseI1vMIwGwJdKm+6nUFtNNxD4I+EFACbnZDznIgEC5BEgAyiVIe38IKLXBH0FIgYDpBDjXTY+QLfaRANgSacP9VMJ5w3ATMQ8CvhBQSr7uiyCEQKBMAiQAZQKkuT8EpFQr/JGEFAiYTUA6YqXZFmKdLQRIAGyJtOF+KqmeNtxEzIOALwR0D8CTvghCCATKJEACUCZAmvtDoLm95Rktqd0faUiBgLEE2uo2VnjnOhsEIidAAhB5CDDAIzDixHO8kdEPQwMCiSYg5cNy3jxmvCQ6yPFxjgQgPrFKvKVSiXsS7yQOWk1ALwP8Z6sB4LxRBEgAjAqH3cbkhHujJqDspoD3SSagXNWQZP/wLV4ESADiFa9EW9t/7qJX9f3/n4l2EucsJqAerjt+4UsWA8B1wwiQABgWENvN0e8E+IntDPA/mQQ4t5MZ1zh7RQIQ5+gl0Pa+Q7bcqt16JYGu4ZLdBF7ddm7bTQHvjSJAAmBUODBG7ndOu34v0EWQgECSCOjBfxd553aSfMKX+BPgrVTxj2EiPWhatmSZduzYRDqHU7YR+EvtsQuO1IktA1xti7zh/tIDYHiAbDUvmxbnaN/X2uo/fieGwLqcyJ3FzT8x8UyUIyQAiQpncpwZeFT9Sv1z6TTtUS45XuGJZQRy+hyeP+C4Mxot8xt3Y0KABCAmgbLRzH7H1d+j100/U/vu2ug/PseagBJSfso7h2PtBcYnmgBjABId3mQ4t2HZdfOlUFdpb6qS4RFeJJxAi777n9nvuAVLE+4n7sWcAD0AMQ+gDeZ7X6SuKw7Vvj5ng7/4GGsCz3nnKjf/WMfQGuPpAbAm1PF3VN13ddXGFudcoeSXhBTDOnnkPSYgoe0Ehd1ACHjjUlKdJL+tn/d/r64q93M554yWTsfYhYCRBEgAjAwLRvVEQD16ZaZpTc3RjlJH6y/dGbqulwwM0X8DemrHMQj4RGCdlrNa/72j5/c/7kr5p7ohW/7MPH+f6CImNAIkAKGhRlGQBPS6AX/T8j8YpA5kQ2AbgQfrjqv3HkmxQSDWBOgyjXX4MH47AZ3JNm//zH8IBElAr+m/OUj5yIZAWARIAMIijZ5ACehR13wpB0oY4dsJ6MdOJJvbYfA/1gRIAGIdPozvQIAv5Q4w+BgoAc61QPEiPCwCJABhkUZP0AT4Ug6aMPK3E+Bc206C/7EmQAIQ6/Bh/HYCSrhvb//MfwgESUCPN3krSPnIhkBYBEgAwiKNnkAJ6IFZjYEqQDgEthHQyWYjMCCQBAIkAEmIIj7odYFIADgNwiEgFedaOKTREjQBEoCgCSM/FAJZ11keiiKUWE8gq1KN1kMAQCIIkAAkIow40b8584am0A4JCARMINu/ZsSqgHUgHgKhECABCAUzSoImIOfN89Zn95IANggESeB1OWdONkgFyIZAWARIAMIijZ7gCUj5QvBK0GA5gRct9x/3E0SABCBBwbTdFaXcR2xngP/BElBC/TNYDUiHQHgESADCY42moAlI519Bq0C+5QQ4xyw/AZLlPglAsuJptTeO204PgNVnQPDOO1KRZAaPGQ0hESABCAk0aoInUDv3TO8d7Y3Ba0KDpQSW1x5T/66lvuN2AgmQACQwqDa7pJ/R0gtg8wkQoO9KCs6tAPkiOnwCJADhM0djkASk81CQ4pFtMwH5D5u9x/fkESABSF5MrfZIubk/WA0A54Mj4Dh3BSccyRAInwAJQPjM0Rgggf5zF72qxTNXO0DGlop+od/Rp79sqe+4nVACJAAJDazdbqk77fYf7/0noOhZ8h8qEiMmQAIQcQBQ7z8BKZw/+i8ViTYT0G8AJAGw+QRIqO8kAAkNrM1u9a0a+aD2f53NDPDdVwIb+g7dwuBSX5EizAQCJAAmRAEbfCWw7WUt/GLzlarNwuSdcr9zeNOkzadAQn0nAUhoYG13S0p1te0M8N8fAlK6V/kjCSkQMIuANMscrIGAPwSUUnLj3de9pKWN90ciUiwlsLz22AV7Sp1RWuo/bieYAD0ACQ6uza55X9j6K/samxnguw8EpPw1N38fOCLCSAIkAEaGBaP8IJDKqWu0nJwfspBhJYFsyklfY6XnOG0FARIAK8Jsp5M1Jy5cpT2/207v8doHAsv6HD3/TR/kIAICRhIgATAyLBjlFwEl5eV+yUKOXQT0Q/8r7PIYb20jwCBA2yJuob9Ny5Z4b3Hb30LXcblEAvqL8fG+xy7Yj+f/JQKkWSwI0AMQizBhZHkE1HfLa09r2wjoEaQXc/O3Ler2+UsCYF/MrfO49tj632mnn7bOcRwulcCztQ8v530SpdKjXWwIkADEJlQYWioB75ecEpJegFIBWtZOny3fkosXu5a5jbsWEiABsDDoNrpct7GyQfvNa4JtDH5xPr/Yd1P1LcU1oTYE4kmABCCeccPqIgnIefNyQokvFtmM6pYR0LNGPr/1XLHMb9y1kwCzAOyMu7VeN9193V1CqeOsBYDj3RKQQv6p9rgFx3RbgQMQSBgBegASFlDc6ZmAntt9vq7R2nMtjlpIoG3buWGh67hsKwESAFsjb6nf/Y5d8Ip+FMDiQJbGv1u3lfhx3XELGCPSLSAOJJEACUASo4pPPRJobW//pq7wVo+VOGgPASXeyWaq/sceh/EUAu8TIAHgTLCOwJAPn7VRKHmudY7jcF4CUqjzBh41b0PegxRCIMEESAASHFxc655A3dwFenEgeW33NThiBQGlrq6du5Bpf1YEGyc7EyAB6EyEfWsItCvpDQhstMZhHO1MoLFdpC7oXMg+BGwhQAJgS6TxswuBQXM/3qQLF+i/XJeDFCSdgKun/Z2x7RxIuq/4B4G8BEgA8mKh0BYCdcfVP6hnBfzAFn/xcxsBqS7Vc/7vhwcEbCZAAmBz9PF9K4HaTVVf0x8eBIc1BB6sbar+ujXe4igEuiHASoDdgKHYLgJN9147SLTLf2mvx9rluV3eSiVWipTYv/aY+nft8hxvIdCVAD0AXZlQYiGBuiMXvue4uY9p15stdN8Wl7fklDiJm78t4cbP3giQAPRGiOPWEOh7/Bn/1l1i9dphvSosW8IIKP2a3zP6H1//aML8wh0IlEyABKBkdDRMIoHa4+pv03f/7yTRN5t9UlJ8S8/3v8lmBvgOgc4EGAPQmQj71hNQSsmmZdf9TErxKethJAGAFFfVHrPgE1LqEQBsEIDADgL0AOxAwQcIvE/Au1HoF8N4SwX/BiaxJ3Bd7cOvfZKbf+zjiAMBECABCAAqIuNPwLth1G6sOkd3HdNtHN9w3lZbNepMuXixG18XsBwCwREgAQiOLZJjTkDOm5erG7xlgR4S+IeYu2Kd+frZ5j21av1pcs6crHXO4zAECiTAGIACQVHNXgLqvqurNrakbtQEPmwvhRh5LsXvaitz8+WcM1piZDWmQiB0AvQAhI4chXEj4N1I9OOAk/TjgJ/HzXbr7PUG/FWOOoWbv3WRx+ESCNADUAI0mthLoOmu6y4UUn1XE+DaMes0UEqoi/sdt3CxWWZhDQTMJcCXmLmxwTJDCTQtu3ahvv//SpuXMdRE28zK6XEan66bW+/FhA0CECiQAAlAgaCoBoGOBDbcfd2xemW563XZoI7lfA6dwBpXuaf3n7voT6FrRiEEYk6ABCDmAcT86AhsvueqUVk37U0TPDg6K6zW/KjriHn9j6lfbjUFnIdAiQQYBFgiOJpBoOaYM1/X88wP02MCLoFG6AR+qQdmHsLNP3TuKEwQAXoAEhRMXImOgB4c+BHhqKv1s+j+0VlhheaN+tHLJ1nX34pY42TABOgBCBgw4u0gUDd3we9cKWZKIXkWHVzI/6pSqVnc/IMDjGS7CNADYFe88TYEAhuXLTlFv3XmZ1rV4BDUJV+FFOulkhf2Pfbjv2JN/+SHGw/DI0ACEB5rNFlEYNO9Nwxz27OXapcXWOS2/67qZZjTOfWpmhMXrvJfOBIhYDcBEgC744/3ARNoumvJiXrJoO9pNXsHrCpZ4qV4Xg+u/FLdMQt5D0OyIos3BhFgDIBBwcCU5BHQi9PcWfvP1yYrJfXiQerN5Hnot0fqTT2O4hy9nO80bv5+s0UeBHYlQA/ArjzYg0BgBN6888qavqmaz+rZAl9mtkAXzJv0L/4rWluz3xny4bM2djlKAQQg4DsBEgDfkSIQAj0TaLrzhsEqnf2cvvjO0TWH9Fw78UdXey9Zku3py+pOPG1N4r3FQQgYRIAEwKBgYIpdBNRdP61sEgP+U0r1Be35VLu8Fy8pKX/W3L75VyNOPGezZb7jLgSMIEACYEQYMMJmAkoPENiw7NqjHOl8TnM4Rv+lEsojp/2623XkT/od/fF7mdKX0CjjVmwIkADEJlQYagOBDXf/eqCjKk/W6wjU60GDH9A+J+EafU4oucRR2Wv7Hn/G2zbEER8hEAcCSfhyiQNnbIRA0QTWLbt6TEqk5rvZ3CeddGps0QIibOBm21Y4mcpf5lT2hgHHndEYoSmohgAEuiFAAtANGIohYAqBxkvOfy27edPYin4DREX/QaJywCCRqqo2xbytduRaNou2pvWifcN60bp2jWffm2O+fNnuRhmJMRCAwC4ESAB2wcEOBMwioBYvdl51V7a77W27rNmRqq4Rmdp+ItO3VqT1X6ZPnXAymVCM17aI9k2bRLa5Sf/fKNr1jT/XsmUX3TKVVuOHzqyW55/fussBdiAAAWMIpI2xBEMgAIEuBN4amjvVfX3Xm79XKbdl89a/lnff2tEmVVkl0n36bu0dcCoqRbqyWjhVVcIrd9JpIdOFJQgqlxVuW5vItbYIt7VVZFu3bP2f0/+zzZu2lu9Q2s0HLUO+lX7bWwb5191UoRgCEIiYAAlAxAFAPQR6IpBt2XJuT8c7HvNu2N5fT5uUuiMhlRKOo/872yYbuDnhuq4QblYoVw8/9Glrb97irXNAAuATT8RAwG8CPALwmyjyIOATgeVXL65yl6/clGtvi+W0QKeiwq0buke/oZ9ZvMknJIiBAAR8JLDLc0Uf5SIKAhAok0Blc/tFcb35e67rxwhOu2r7epkYaA4BCAREgAQgILCIhUC5BFqb1hfc/V+urqDat21Yd3ZQspELAQiUR4AEoDx+tIZAIARWXf7fn2nfuGFgIMJDFKpnCfR7/fKvXhiiSlRBAAIFEiABKBAU1SAQJoHWprXfCVNfkLqy69/7mjedMUgdyIYABIonwEVZPDNaQCBQAm/85MIfZzc29QtUSYjC25ub+6wa0HJZiCpRBQEIFECAWQAFQKIKBMIisPryxRM2vLvy+c4L/4SlPyg9eh0C1WfUqKm7nf2tZ4PSgVwIQKA4AvQAFMeL2hAIlMCmzWv/lLSbvwfMzWZl6/qNfwwUHsIhAIGiCJAAFIWLyhAIjsCGu5cs6D9h8uia3UaKrQv2BKcqdMlVQ4aJfuMnjm5atuSs0JWjEAIQyEuARwB5sVAIgXAJrP/jkv304nx/01qrPM3ZLc2ieeVy0bL6LV9X5wvTK+lIUTV0hOgzaqxI63cXbNta9KKDh/Y/vv7R7QX8hwAEoiFAAhANd7RCYAeB9X/47Tgnlfu7Lhi+o3DbB7etVWx++w2x5c03RE5/jsOW0u8hqN5tlPB6MvRqgPlMXi1c9cG64xe+lO8gZRCAQDgESADC4YwWCOQlsPnOa3fPpuX9+uD4vBW2FyolWtevE1veXSVa16wW3gt7TNqk7r6o0K8prta/+CsHDRXer/9etlfTypldM/fjb/RSj8MQgEBABHq9SgPSi1gIWE9g3bKrx6RE6l4NYs9iYHg3/9a1a0Tre/pvnf4x3d5eTHPf6nqvH64cMETf8PXfwMFC6pcMFbmtUKnUUf2OPv3lIttRHQIQ8IEACYAPEBEBgWIJbLjr+oOkdG/X7bp0+xcrS68YKNqb1ou2pvf/9/ZGwGLlb6/vvVa4oq6/yNT103/6f60vSxW8LRx5Ut0xCx7arof/EIBAOARIAMLhjBYI7CDQdPd1ZwilfqYLtg7423HApw9ej0B28yb917z1T+mxA974Af1yHqFfLqQHFeb0vDz9+t+Om+7Cl/r1wKlMxdbn9t5zfKn/0jV9tv31Fd4v/oC2VqHEZ+vm1v8qIPmIhQAE8hAgAcgDhSIIBEFg3e1X909XpS5XQpwehPxiZSpXW6K3Ap7XFyu6xPrydpFNnV134mlrShRAMwhAoAgCJABFwKIqBEohoJSSTcuuXyCF+p6QYlgpMixqs1ZJeXFdU+Xlct483VXBBgEIBEWABCAossiFgCawYdmSufoiW6w/7g+QwglIIR9zpfhGv2MXsHpg4dioCYGiCJAAFIWLyhDonYC67+qqpi3peVKqz+ra+/Xegho9EHhUd6BcVledbZBzzmjpoR6HIACBIgmQABQJjOoQ6I7Axj8smaRS4pP6eL3+G9RdPcpLIvCebrVE5sSvak+of74kCTSCAAR2IUACsAsOdiBQHAF1108rN8n+/6HH1J+tL6YjdGuuqeIQFl3bezygG/2y2VG/HX5MfXPRAmgAAQhsJcCXFScCBEogsPGeJVP0TLpPSalH9CvRvwQRNCmXgBTrpauuFyl5Ze0x9c+UK472ELCNAAmAbRHH37II6LfZfVDf8C/Uv/OP14K4fsqi6Wdj+Xe9tsIlei2BO/2UiiwIJJkAX2BJji6++UJALV7sbDxg3PFCqq/qe/5BvghFSCAE9MoGTwglf1xXPfIGOWeOWS9MCMRjhEKgdAIkAKWzo2XCCVx555U1u6vqLxyWEQu0qz2/rCfhLGLo3qsPtIslq+SW759z4jmbY2g/JkMgcAIkAIEjRkHcCCxWymm748bvP5KV52WkzCytaRVO3Jyw3F5vjcPTN1cKPUIwu5/j3rh/e+qsefPmtVmOBfchsAsBEoBdcLBjO4HFd9zwpUezqW8sd2XNdhbfr2oXh6RZlG47jzj8/1vWEV9qqdhh6ihHtc5MuT/7n4/M/387CvkAAcsJkABYfgLg/vsEvn3HDQv/nUv96PmcHNCZyYyUK35WzY/HzlxM3v/0lgrx71zXfpt9Uu666Y644KKPnLrEZPuxDQJhECABCIMyOowl8L07b5z5TLu68fFcaq/3X42T39Rf17SJyU6nN+jlr0ppxASe1jf+s3UC0N3mpQX7p3IrpjniPy/4yPx/dlePcggknQAJQNIjjH95CVzR0ND35Yx7+99yzpEtPd35t7WepXsBLqcXIC9L0wrP3VwhnnC7/vrvbGeV/vY7NOXeO9Vp/thZHz5rY+fj7EMg6QR6v0qSTgD/rCPwzd/d9Jnfp9SaP2cLu/l7gB7Tvyof0s+V2cwm8EA2VdDN3/PCS/y8c2Bpe5/3vv77315otmdYBwH/CdAD4D9TJBpK4IqG68Y/l8n8/oGsM6mUzvwxjhLX6xkBKUP9s90sL6YL9K//1wr49d+ZlfdFOCvtvrqP4xx/4Yfnvdj5OPsQSCIBftIkMar41IXAl+9YevENTsWL95d48/cENur30/6+Pd1FNgVmELhdx6aUm79nvfcU6NGss+fv29VzX//d0v81wyOsgECwBOgBCJYv0iMm8O2Ght0bM+6f/6Fv/H6Y0kdfMTfoXoChsoCBA34oREZBBFbrn/+n6Xn/m3xanXlmKvfGVNk6+0sfXfRqQQZQCQIxJEAPQAyDhsmFEVj8u5u+8GdHrfDr5u9pbdb3/R+00gtQWATCq3VJW8a3m79ntZ4VMvKPbvWLF/9u6RfC8wJNEAiXAD0A4fJGWwgErr7vvqrH17919/3Z9OGlPOsvxMRv6cWBjmRxoEJQBV7nHj3wb3FLJhA93hfkISn3yZmZDR9gSeFAECM0QgIkABHCR7X/BC75/fUH/aMtc8/LStb5L32nxP76EcASvTbAEB4F7IQSwad39LiMhXrO/wYV7FfZBEdtOkTmjvvCx057MAI3UQmBQAjwCCAQrAiNgsDXbv/tt25vq3go6Ju/59t6fcP5mv7VyQLBUUT6fZ1Z/Tjma62ZwG/+nraXXNn3Fjf9gHeORecxmiHgL4Fg02Z/bUUaBPIS8F7es/53N/3h/7LOcUF1+edVrAsXZHLi3Mr27g5THiCBy9rS4gb9F+bmfWEelnEfHvrvFw5dvHgxrxsOEz66fCdAAuA7UgSGSWBxw5I9nk9XPPJMzhkWpt7turwL6JKqNnFoOuzUY7sFdv7/q16Y6Su66z+quRhTHbV6Vq71wC/Oq19uZwTwOgkESACSEEVLffjOHUuP/0vWuf1tVwYzAqxArtX6Kvq5TgIm6uWC2YIn8Lx+7n/ulsqtK/kFr617DcMd1f4h0fbRi05a8Mfua3EEAuYSIAEwNzaxsWzszPppwhUnCOlM0EYP18uqDA7a+Oq+lUPb+1aNMuWW660OOFqvFJhhUGCgoW/XYy9W6L9cVD/9O3nnDaJKN7esatnY+nanQwHsyjVa6NtCuS/JlHPna49d83QAShBpEQESAIuC7aers2adnXnPbf20lnm+Pon29FM2siAAgd4J6BzoVSnkTwY6Fb947LFfMhCld2TU6ESABKATEHZ7JzB234VHC0dcrmvu1XttakAAAoESkOpF3fF03mtPLLk3UD0ITxwB3muSuJAG69DY6fWfEI68QWsZEqwmpEMAAoURkPqRmzx9wIjp761/68l/FdaGWhAQvNiMk6BwAmNnLrxIf9H8WLdg/YjCsVETAmEQ8K7JuQOHT29b9/aTLFYUBvEE6OARQAKCGIYL42bUH6mEvFvrotcoDODogEBpBFwl3bmNj193T2nNaWUTARIAm6Jdoq97Tlsw1E05z+nmg0oUQTMIQCA8AqszTts+Lz221Js1wAaBbgnQldstGg5sJ5BLORfoz9z8twPhPwTMJjAk61Z81mwTsc4EAvQAmBAFg20Yf+Dpdbm29AptYn+DzcQ0CEBgVwIbpFM5+rXHfrlh12L2ILCTAD0AO1nwKQ8BffM/RRdz88/DhiIIGEygn5tr+YjB9mGaAQRIAAwIgtkmyKPMtg/rIACBfASkw7WbjwtlOwmQAOxkwae8BNS+eYsphAAEjCaglJhutIEYFzkBEoDIQ2C8AQOMtxADIQCBLgT0AC+u3S5UKOhIgASgIw0+5yNQla+QMghAwHgC1cZbiIGREiABiBR/LJSnY2ElRkIAAp0JVHQuYB8CHQmQAHSkwed8BJryFVIGAQgYT4ApgMaHKFoDSQCi5W+8dv3K0bXGG4mBEIBAVwKSa7crFEo6EiAB6EiDz10I6IFEJABdqFAAgRgQUFy7MYhSpCaSAESKPw7KJQlAHMKEjRDoREDSA9CJCLudCZAAdCbC/i4ElFIkALsQYQcC8SDgcu3GI1ARWkkCECH8OKjmV0QcooSNEOhKQEp677pSoaQjARKAjjT43JWAFOu6FlICAQgYT8BVXLvGBylaA0kAouVvvHbJQCLjY4SBEMhHQEmHx3f5wFC2gwAJwA4UfMhHwJWMAcjHhTIImE5Acu2aHqLI7SMBiDwEZhsgXX5FmB0hrINAfgKSQYD5wVC6gwAJwA4UfMhHwHHoAcjHhTIImE4g56R4BGB6kCK2jwQg4gCYrj6bdfkSMT1I2AeBPARkjuQ9DxaKOhAgAegAg49dCaQy1SQAXbFQAgHjCaQr27l2jY9StAbqlV7ZINAjATl2xsI2XYO3AvaIiYMQMIpAdvkT13pvA9Sv82CDQH4C9ADk50LpTgLeFwjziXfy4BME4kDA+/XPzT8OkYrQRhKACOHHRjXTiWITKgyFwDYCdP9zKvRKgASgV0RUEIolRTkLIBAnAkowADBO8YrKVhKAqMjHSS9vFYtTtLAVAkKStHMWFECABKAASNZXYUER608BAMSMAEl7zAIWjbkkANFwj5VWyZrisYoXxkKAd3hwDhRCgASgEEqW13Fdl1kAlp8DuB8vAi5v8YxXwCKylgQgIvBxUksPQJyiha0QEIIXAXEWFEKABKAQSpbX4aUilp8AuB87ArzEK3Yhi8RgEoBIsMdLaY51AOIVMKy1noDrCNYBsP4s6B0ACUDvjKyvIXkjoPXnAADiRUDmeIlXvCIWjbUkANFwj5VWJ8drRWMVMIy1noCTIgGw/iQoAAAJQAGQbK/SWsGXie3nAP7Hi0BrayWPAOIVskisJQGIBHu8lK56ZJw3DdCNl9VYCwFrCbhvPDtqvbXe43jBBEgACkZlc8XF3s1/g80E8B0CMSKgb/5br9kYmYypURAgAYiCegx16veK0qUYw7hhspUEuFatDHvxTpMAFM/MyhaSBMDKuON0LAmQAMQybOEbTQIQPvOYauSVwDENHGbbR4AEwL6Yl+QxCUBJ2OxrxPvF7Ys5HseTANdqPOMWhdUkAFFQj6FO3i4Ww6BhspUEpKC3zsrAl+A0CUAJ0KxswnLAVoYdp+NHgPE68YtZVBaTAERFPmZ6qyozzTEzGXMhYCWBTGV6s5WO43TRBEgAikZmZ4MJ++8xx07P8RoC8SIw6YDRh8XLYqyNigAJQFTkY6a3fUT/g2JmMuZCwEoC2eH9PmCl4zhdNAESgKKR2dfgl3ffMvn1qqp+9nmOxxCIH4HGmqr+v7rlhmnxsxyLwyZAAhA28Rjqe6k1+51sdSaGlmMyBOwjkKuqEC+knG/a5zkeF0uABKBYYpbVH3/99XUPt8u5sooEwLLQ425MCUidrP8jJ4+ffvvt/WPqAmaHRIAEICTQcVWzW1XlL9YpmfG+VITUE4zYIAABcwnoa1RWpcUGfc3WuW2Xm2solplAgG90E6JgqA2Tb71xf6lS/1RKbT1PNn//HiHasoZai1k9Eehb7Yr9J7aL6Xu1ibHDs2LEoKyornq/xZYWId58Ly2Wv5UWT7ySEf96oVI0t/DV0BNPU4/JyrSo/vwxW82TUirpqkOenjfvH6bai13REuAqj5a/sdpn33dfevWa1Y9oA2dsN3LLFX8RasOW7bv8jwGBSaPbxelHNIvDp7eIygKf4rS2C3H/E9Xit/fWiBdeL7BRDFjYYKLTv0ZUnTuno6tPVa1dt99j55yjo8oGgV0JpHfdZQ8C7xN4d82az+nscMfN3yv1HgOQAMTjDNltYE781ykbxWx94y928xKFYw7YsvXvvn9XiR821Ip31qWKFUP9KAh0HaszrWVQ//O0KT+Kwhx0mk2AMQBmxycS66YsXTpKCrW4i/Lqii5FFJhH4LgDWsSNX19T0s2/szdzdAJxk5Z1rE4I2MwnsHWsTmczlfz23kuXjulczD4ESAA4B7oQUOnUZbqwb+cDzAToTMSsfW+M5ieP3yS+ecZ6UV2pfDOupkqJi8/YID4/r4lxoL5RDUaQ1FMA82w1qXTqh3nKKbKcAAmA5SdAZ/cn3XLTXF324c7l3r7DWgD5sBhTdsHJG8UnT9gUmD3/OWezuOCkjYHJR7APBLq/Rj86uaHhP3zQgIgEESABSFAwy3Vl1p131jhCXtGtHB4BdIsm6gOnHbFZzP9Q8O9rmq8HFJ76Id41E3W8u9PfYy+dFJfpJKBLz153sihPPgESgOTHuGAPW1s2XyyUGNNtg0KHkXcrgANBEJg8pl2c99Hwfpl/9qNNYh+tk808AnnHAOw0cw/hiK/v3OWT7QRIAGw/A7b5P7WhYaoS8vyecEh6AHrCE8mxlL6Cv3Jak0in/Hvm35sjGT136GsLNghPN5tZBHpJAIRO8P9L9wJMN8tqrImKAJdwVORN0rt4seNKcaU2qcdJ3z12L5rkj0W2nHDwFjFhVPi/xvcckRVzD+JRgHGnWtdpgJ1NTAvvWtfXfOcD7NtHgJPAvph38XjKPvucowsP7nKgU0Gvvy461Wc3WAKOvnoXHhPcoL/erF94dDOzAnqDFPLxAnvpDthn8uRPhmwa6gwkQAJgYFDCNGnKDTcM0wv9fqcQnfQAFEIpvDoz92oVI4fkwlPYSdMew3Ji+vi2TqXsRkmg0GtUr/NxyaRbb90tSlvRHT0BEoDoYxCpBSqT8VYIG1CQETV55xgX1JRK/hM4Ymar/0KLlHjkrOJXGixSBdWLIdD9NMDOUvql3OylnQvZt4sACYBd8d7F2yk33zxbjwo6dZfCHnYK/XXRgwgO+Uhg/4nRJwD7TaQHwMeQli2qm4WA8srVg35Pn3TrTUfmPUihFQRIAKwIc1cnx991l14rTv1CH9HrxxW4pfUqARnWhC+QVqDVvJX+Rg2Nrvt/u3NjhmVFVUV4MxC26+V/VwJbr019jRaz6dG/Px9z9dXb3gtZTEvqJoFAcWdLEjzGh60EKpubL9IfJhaNg6mARSMLosGooVkjBuB5yw9HOQ4hCLaxldn7DIB8ro3v27fmy/kOUJZ8AiQAyY9xFw/3vvHGCbrr/4tdDhRQwGOAAiCFUKWuxpxf3SbZEgJ6Y1XImh5n8XZrt34U8JUpN944qdsKHEgsARKAxIa2G8eUkqmU83N9tKRuP6YCdsM15OJMiAv/9OZaZcbtrQrHQyBQ4BTAfJZUKO87QX835DtIWXIJkAAkN7Z5PZt8a0O9PvChvAcLKSytm7EQydQpgkBLuznf1Ztb+RopInTBVS3v2jxcDwr+eHDGIdlEAly5JkYlIJv0EqADhZLfK0d8Gb8yylFL204E1jWZc+mu22SOLZ0wWbVbbu+c/v3/owk33DDYKmiWO8uVa9MJ4Ajv5j+0HJcZA1AOPf/avrEmJbK56HsB2rNCrFrNzBD/Ilu6pGKmAHajZVAmk/mfbo5RnEACJAAJDGo+l/Sv/w/qF4Gcme9YMWXl/sooRhd1uyfg3fxffF2/lSfi7YWVFSLHEICIo7BNfXmPALYJUZ+YfOtNh5jhEFYETYAEIGjCBsiffd993p3icv1X/k/GwlcaM8DzZJvwyAuVkTv48HOsDhl5ELYZ4EMPgCdJCldeOevKK0ubUmAKDOwoiAAJQEGY4l1p9erVX9CX9b5+eMEjAD8o+iPjnkdKmsjhj/JtUv78aPQ2+OpQjIX52Ds3uWXgwP+KMQpML5AACUCBoOJaTb/wY7S++f+3X/YzCNAvkuXLee2ttHjspeh+gT/6YqVofCf6xxDlk0yIBF8eAWxnob4x9dZbx23f438yCZAAJDOuO7xy3JzX9d9nR0G5H3z9kinXGNr/5i7/QlsszSh1F2urDfV9Ts5rXDd3hQ3cbPaRH9i7GgAAEZhJREFUBCDB0dcD/07W7p3gp4s+djP6aZa1srxf4ff9O/xu+P97rCrS3gdrA96D46WuBNiDyGMn33LTST0c51DMCZAAxDyA3Zk/8Y47anXX/4+7O15qOWMASiUXXLvvLa0Ta5vCm4r3nl6D4NKG2uAcQnJpBILonVPyslkNDf1KM4hWphMgATA9QiXal2pr+7ZuunuJzbtvVqGf+Rb5xrHuhXHEDwLeDfmi3/QT3pz8oLf2rBRf/XX/UBOOoH1KhPzg3tS5W4sjvpkIRjjRhQAJQBck8S+Y2tAwSwr1maA8kZXMEAqKbalyvcGAX7+mf6CLA3lrD3zt6n7iiZejG3hYKp+kt/NpCmB+TEp8dp9bbjkw/0FK40yABCDO0ctn++LF+hXfwhu8E1ifMOMA8oGPvsx7Lv/FK/uLzS3lL/fQ2ZtmLfPzP+sv/vJ4+OMNOtvCfh4Cwa7P4UjlXnFKQ0Ng3yl5PKIoBAIkACFADlPFlCmTztP6gs3Wq/gFGGZMi9H196crRf3/DhYvvO5fL83zKzKi/ruDxD+ei37hoWJY2FQ3hLE5s54T4tM2MbXBV/9/KthAzVAf9aj/4Xrg3wvavEAH7bTe/KjIvfyOoRQwyyOQ0lf2SYc3izOP2ywG1uVKguKNLbjqrr7itgdqRE6VJIJGIRFITRguKk+eFbS2prQS+zw5b96qoBUhPxwCrOIRDudwtEhxmVYU6M3fc4RHAOGEsxwt3g274f4+4o6/9xHHHbhZHH/QFjF1bLtweunz89o9/WqF+OPD1eLuR6pFa3s5VtA2NAJBzADoanydHgbyI108r+shSuJIgB6AOEYtj8361/+x+tf/sjyHfC9qu/d5kX3kNd/lIjBYAv36uGLfPdvF2N3axfCBrqitef8tPhs3O+LttY547c20ePLVStG0ma+FYCPhv/T0geNExRGT/BecR6IU8sRnTjnlD3kOURQzAlzpMQtYPnMPbmiobpLiGX1sXL7jfpe1//1l0f7Xl/wWizwIQKBEApnZE0XmA+NLbF10sxWpLS2Tn6qvby66JQ2MItBLh6BRtmJMNwT0o9qv60Oh3Pw9E0IYcNSNpxRDAAL5CIR8TY52qysvymcHZfEiQAIQr3h1sVbPz50slPh8lwNBFlQzCyBIvMiGQNEEgp0G2MUcJeQXJ992475dDlAQKwIkALEKVydjlZJ6fq73sh//5nx1UpFvN+RfG/lMoAwCEOhAINCFgDro6fAxLXLO5UJ/B3Uo42PMCJAAxCxgHc2dfMstZ+n92R3Lwvgsa+gBCIMzOiBQKAGf3wRYqNoPTrm14YxCK1PPPAIkAObFpCCL9r7ttkFCqO8WVNnvSuFMOfLbauRBILEEopqaqzsALp12221DEws24Y6RAMQ0wKlc+w+16YOjMD+iXxtRuIpOCMSCQFQJgIYzMOdmL4kFJIzsQoAEoAsS8wsm3XrTYXos/oKoLJUVeknw3laUico49ELANgLetZiJcJl+JRbqdUg+ZBv2JPhLAhCzKOoLrcJR8hfa7OgG30i9FEgVi0jG7NTB3IQS2PrrX1+TEW5SOOLn4++6i5dFRBiEUlSTAJRCLco2Ul2op/2Fs+RXD35G2OXYg1UcgoB9BIyYlaPEhMrm5i/aRz/eHpMAxCh++te/XupLftUEkyOYdmSC29gAAfMIhLwGQPcA1H9Pa2iY2P1xjphGgATAtIj0YI/u5PuJPmzGC9mN+dLpARiHIGABAYOS8Ur9sqCfWoA8MS6SAMQklJNvuWm+XnJjrinmGtHtaAoM7IBAhAQMexx39OSbbz41QhyoLoIACUARsKKqOv766+uEkt+PSn8+vUwFzEeFMgiET8C8ZFz9eOpvfzsgfBJoLJYACUCxxCKoX1FZ6c2zHRGB6u5VMgugezYcgUCYBMx7HDfMrUh/O0wE6CqNAAlAadxCazX51hv3l0KdHZrCAhXRA1AgKKpBIGAChj0C2Oat/NTUhoaDA3Yd8WUSIAEoE2CQzWffd19auM6VWodxcTKv2zHISCAbAuYSMGgQYEdIjivFlbOuvDLUF5V1NIDPvRMw7sbSu8n21Hh3zZrPaW9nGOmxed2ORmLCKAgETsDca3Fqy4ABnw3cfxSUTIAEoGR0wTacsnTpKN31vzhYLaVLN7PbsXR/aAmBuBIwujdOim/tvXTpmLiyTbrdJACGRlilU5dp0/oaap5eCphXApsaG+yyi4DhyXhNOpX6kV0RiY+3JAAGxmrSLTd58/0/bKBpO00yt9txp418goANBAxPxvX6JR/Z5+abzf4+s+E8yeMjCUAeKFEWzbrzzhpHyCuitKEg3VV6bE+k7x8pyEoqQSDZBLxrMAZTcqVUl+mlzI3t0Uz2SdK9dyQA3bOJ5Ehry+aL9ct+xkSivAil0nsjYCUDfItARlUI+E7Ae/7vXYvGb0qMUlJ+w3g7LTOQBMCggOt5s1OVkOcbZFLPpni9AGwQgEB0BAzv/u8IRg9qvmCfW24xc1ZTR0Mt+kwCYEqwFy/eOm9WmxObu6qsiY2ppkQZOyDgKwHDBwB29jUtXfdKob/rOh9gPxoCBCIa7l20Ttlnn3N0YaxWzmImQJcwUgCBUAkYPQUwHwkp9p8yZZJxK5vmM9WGMhIAA6I85YYbhumRst8xwJTiTGAmQHG8qA0BvwnE8BpUSv7vxKVLzXq3id9xiYk8EgADAqUyGW+ebOzenhW7Xx8GxBoTIOAngZj2wvVLZ1KX+skBWaURIAEojZtvraY0NBwlhJrvm8AQBcXs+WOIZFAFgXAIxPYaVOK0beudhAMKLXkJkADkxRJO4fi77qrUXf/ein+x3GL66yOWrDEaAnkJxPARwHY/HCV/Mubqq6u27/M/fAIkAOEz36Gxsrn5Ir0zcUdB3D4wDTBuEcPehBGI+WO48X369v1qwkISK3dIACIK174NDbvrrv8vRKTeF7WymvcB+AISIRAokUBsHwHs8Fd90Xvx2Y5dPoRKgAQgVNw7leWk+pbeq95ZEr9PMf/1ET/gWAyBTgQS8BiuSqWdr3dyi92QCJAAhAS6o5opN964p17xr75jWSw/sxBQLMOG0QkiEOMxADujIBfxyuCdNML8RAIQJu1tulQqtVB/TEWg2leVCfj14SsPhEEgbAIJ6YXTbwxOxf8HUdjB90EfCYAPEIsSoVfB0M/+Ty+qjaGVtz5/jMOLSAzlh1kQKJdAYsbhSLFIbP1uLJcI7YshQAJQDC0f6k6+/aZpWsw4H0RFL8LRuUwm9h0Z0XPEAgiUQqAiLYR3DSZjGzvp9psmJ8OV+HhBAhB2rHKpQ8JWGaS++I9CDpIOsiEQHIGkXXv6bWixehdKcJENTzIJQHist2lyDwxdZYAKE9MFGSAjREMgCAJJSwCUcg4KghMyuydAAtA9m4COyGR0/2+nw2JA20nwHwLhEkjYOhxSqbHhAkQbCUDY54AUQ8NWGaS+pP0KCZIVsiHgJ4GEzADYicQRw3fu8CkMAiQAYVDuqEOJgR134/6ZqYBxjyD2x5WAk4g1ADrQV2JQhz0+hkBADyNlC5lAW8j6dlHX746HRPrddbuUlbPTtFmIDeUIoC0EIFASgZoXV4q611eW1DZfo+zQAWLDhz+Q71A4ZVK0hqMILdsJ0AOwnUR4//UtMzkbswCTE0s8iReBTNJ+vinRHK8IxN9aEoCQYyiVWBOyykDVVWQCFY9wCECgGwIVyVuCI1Hfjd2EzahiEoCQw6GkeiZklYGqS+kzqJIkIFDGCIdAZwLeNZdKWAKg34+SqO/GzjEzcZ8EIOSo6JVznw5ZZeDq+sb6nYaB40EBBHwnkMRrTkqXBMD3M6VngSQAPfPx/ahy1F99F1qEQJXyf+nQmgrdC5C055FFMKUqBMIk4F1r1ZX+a1Red16EmxKp+yNUb6XqaCNuIfJnP3bqk9rt1yJzPRNAf73OKQbWCuF/ahEZJRRDwEgC3ru3BgR0raloBxW88tzJJz9rJPQEG0UCEEFw9bOu2yJQu1VlrrYqENVp/atkUF0gohEKAQhoAl6C7SXaQY3+d2trouMsxS3RKbdXMwlABLF3stmfarXtEagWuf59A1PrdUt6X1BsEICA/wQG6gS7JoCu/+2WZvtHdvG2uzL1i+128D88AiQA4bHeoemZ+fNf1+n8jTsKQvzQvluwi2310R0Mw/oLkU7YCOUQQ4QqCOxCwLuW9Bo9gd78PYXZ3SJapFSK3z5/0kkrdnGanVAIkACEgjmPEldcrEu35DkSaFFOP0B064Lt6vPWBhimv7Dq9OwA75klGwQgUDwB79rxLtXh+loKepBtrl+fQHsHe/B+i8y63+7hOIcCJEACECDcnkQ/O2/eK0Kob/ZUJ6hjLRNHBSV6h1xHf3n1008bRugfFd5/1grYgYYPEOiRgHet9O+z7drR/8NIoltD+E7I57QeD/W1Z0499dV8xygLngCTt4Jn3K2GIYOH/mD1mtUf1RUO7LZSAAda9hkjqp5eLpyW4F9L4OgU0+sJ8P6U0gMfskLk9H/X1fsB+IZICMSNgNdJ5s3A85Jmb2ltGfLPMlVVIVomjY4C20OTlfrxc1FoRudWAt65xxYhgckNDcP1eICHtQmhXoGVL74h+j7wZISeoxoCEDCBwKbD9xWtE0aGa4oUjbIte9Azp532TriK0daRQMi5ZkfVfPYI6EcBb7sp9wT90b9X9BWAtnXiyKiy/gKsowoEIBAGAe+Xf+g3fyHeE644npt/GBHuWQc9AD3zCe2o7gnYR/cELNMK9whNqe6Tr3nsZVH9pH4E5/XJs0EAAnYQ0M8bNu87XmyZtVc4gwx2Ul3hSOfYp08++YWdRXyKigAJQFTk8+idduutI3O53G06Edg/z+HAilLrN4nqZ5aLilfeFNJ7SM8GAQgkkoDSqwi1jt9dtEwZE8Wo/39ms7mPvTh//puJhBtDp2KXALz56ImDM9m2czXrQ/WfniCTrE2PipXv5WqGrc1VjQg7NfdG6cn2nJBt7ULmcnpisDdSj6F6yTrD8MYqAt4UgrQjlF5MQOllwNXWUYYhf+1LpfrL1neGpJvflAn8QtHfkGs10b9VyuzP6g78v/fidH6FfCaUh+adh47+gOPIO7SUweVJojUEIAABCEDAVwJrHCn/Y9CBd//DV6kBCotNAvD2348e6qTkc9rgYJeyCxA2oiEAAQhAINEE1mTbnH12O2zZ6jh4GZtZALoH67Pc/ONwSmEjBCAAAWsJDE5XuOfFxfvYJAD66fThcYGKnRCAAAQgYC2B2XHxPDYJgAYa7AL2cYkYdkIAAhCAgMEEZGzuVTFKANTzBkcc0yAAAQhAAAJ6iXMVm9WN45MAKOc3nFsQgAAEIAABowlI8Wuj7etgXGwSgCEH332/XiDnhx1s5yMEIAABCEDAIALq0qEH3vM3gwzq0ZTYJACeF0MOvOfzun/lbP3x9R694iAEIAABCEAgLAJKrNT3pk8OOehPXwpLpR96YrMOQEdnvQXr3n30yLFOzkncSoAd/eQzBCAAAQiYTUC/zG3d0P3uXa4XXWTZVLNDhXUQgAAEIAABCEAAAhCAAAQgAAEIQAACEIAABCAAAQhAAAIQgAAEIAABCEAAAhCAAAQgAAEIQAACEIAABCAAAQhAAAIQgAAEIAABCEAAAhCAAAQgAAEIQAACEIAABCAAAQhAAAIQgAAEIAABCEAAAhCAAAQgAAEIQAACEIAABCAAAQhAAAIQgAAEIAABCEAAAhCAAAQgAAEIQAACEIAABCAAAQhAAAIQgAAEIAABCEAAAhCAAAQgAAEIQAACEIAABCAAAQhAAAIQgAAEIAABCEAAAhCAAAQgAAEIQAACEIAABCAAAQhAAAIQgAAEIAABCEAAAhCAAAQgAAEIQAACEIAABCAAAQhAAAIQgAAEIAABCEAAAhCAAAQgAAEIQAACEIAABCAAAQhAAAIQgAAEIAABCEAAAhCAAAQgAAEIQAACEIAABCAAAQhAAAIQgAAEIOAPgf8PgIRT0tBGMhcAAAAASUVORK5CYII=;" vertex="1" parent="1">
          <mxGeometry x="60" y="210" width="60" height="60" as="geometry" />
        </mxCell>
        <mxCell id="ItvUEO7hq5XVIe8wMghT-3" value="" style="shape=image;verticalLabelPosition=bottom;labelBackgroundColor=default;verticalAlign=top;aspect=fixed;imageAspect=0;image=data:image/png,iVBORw0KGgoAAAANSUhEUgAAAgAAAAIACAYAAAD0eNT6AAAAAXNSR0IArs4c6QAAAERlWElmTU0AKgAAAAgAAYdpAAQAAAABAAAAGgAAAAAAA6ABAAMAAAABAAEAAKACAAQAAAABAAACAKADAAQAAAABAAACAAAAAAAL+LWFAABAAElEQVR4Aex9B5wc1ZF39czs7M7mvJJWOUurhLQorFYJBAIMGAeEczyHO/t8xvgc7nw2Ducczj5/Pts44iyMwRiwQURlgQQo5xxW2px3dif0V9XSitWyoWem+k13T5V+rZnpfv1evf/r7VevXgUNhAQBQcDVCKxfvyPPk9FznQbaYl3X54HmGQegl2Kn8y53vAVAq9UBTmqgv4JltvX4Pc/csnhxq6uBkc4JAimOgJbi/ZfuCwKuRGDdvn3+wqbWN3h0eA9O7NdjJ9Ni7GgIyz+lafCr+oLch9dWVPTEeL8UFwQEAZsjIAKAzQdI2BMEYkFgx44dac1dPR/0gPZpnPjHxHLvEGVPo/bgG7kB332VlZUkGAgJAoKACxAQAcAFgyhdEAQIgWc2bFmha9qP8OtMaxDR9+ma959XVy/aaE39UqsgIAioREAEAJVoS1uCgAUI0Kq/pavnS7iP/yms3mNBE32rjKL9wDfzAv7PizagLyzyXRBwHgIiADhvzIRjQeAKAus3bRrr0b1/wBNVV04q+KKDvkPz6G+5funSYwqakyYEAUHAAgSsXi1YwLJUKQgIAoTAM5u2vhEn/1fwq9LJn9pGm4BKiHpeenrjlrfSbyFBQBBwHgKiAXDemAnHKY7As88+mxHxZXwD/3g/Zg8o9N90Bvwfvq2ystMe/AgXgoAgYAYBEQDMoCRlBAGbIPDUhm1zNC36e1yDV9iEpUtsaLAnGtHffsOKqj224kuYEQQEgUEREAFgUGjkgiBgHwRw1e+L+jLuQY6+iEe6fTi7ihNyEfxqQ82ZL69duzZy1RX5IQgIArZDQAQA2w2JMCQIXI3A05s3T4Ko9ktc9S+7+optf233ePX3rKqqOmhbDoUxQUAQsNxlSCAWBASBOBHAkLzaMxu3fRCN7XY5aPKn3i6KRjQ0ENz66Xt1XQyN4xx/uU0QsBoB0QBYjbDULwjEgQDu9c/0aPpPMJpfdRy32+cWTduAtgEfvmHFkgP2YUo4EQQEAUJABAB5DgQBGyFAFv641/8ZZIkOu+71x4oY2QZ81xMO3rtq1apgrDdLeUFAELAGAREArMFVahUEYkbgcijfH+ON02O+2Rk3HMNQxRhKePF6Z7ArXAoC7kZABAB3j6/0zgEIbNiwY2TIE/om6PAOB7CbKIu6psP9Ub/26dWLF19MtDK5XxAQBOJHQASA+LGTOwWBhBC4lLkv/C8a6BjHH3ITqsx5N3cgy9/ubmv62i233NLtPPaFY0HA+QiIAOD8MZQeOBCBpzZuXY1/fN9H1i3K3OcYUI5gXoFPrF5W9ahjOBZGBQGXICACgEsGUrrhDASe2bRpmh71fhfNb29xBsfKuHxUB889q5ctOqysRWlIEEhxBEQASPEHQLqvBoENGzaUhLQ0iuR3Nx5+Na06rpUwagN+4df99y5fXlnjOO6FYUHAYQiIAOCwARN2nYUAuvVlo1vfR5Dr/8Qjx1ncJ41bsg/4YTSY9rUbbqhsSRoX0rAg4HIERABw+QBL95KDwOOPP57uzyn8MBr4fQ45KE4OF45vtRY0/csNBXk/XVtR0eP43kgHBAGbISACgM0GRNhxNgLr9u3zFze2vAUj+H0B42xNdHZv7ME9vqTOREH7jjfc9RMJJGSPMREu3IGACADuGEfpRZIRIJe+1q6et8rEb+lAnNZB+25PW+OPxXXQUpyl8hRBQASAFBlo6aY1CBiq/tz892i69llsYZw1rUitVyGgwUmIYtrhotxfy9bAVcjID0EgJgREAIgJLiksCFxCgIz7Ir7A+3GP/5N4ZrTgkhQEKJLgjzHHwP/g1kBzUjiQRgUBByMgAoCDB09YV4/AZXc+sur/VzwK1XMgLQ6AQCtuvfzKr6d9XdwHB0BHTgkCgyAgAsAgwMhpQaAvAk9t3D5V06Ifx3j978Hzgb7X5LttEOjE8fmFx6d/f1VV1VHbcCWMCAI2RUAEAJsOjLBlDwTWb9pW7dHhYwD6G5Ejrz24Ei6GQSCKL7ZnUCvwg+uqFz+qaZh+SEgQEAReg4AIAK+BRE6kOgJk2JeRk38Xpq79JK4oZ6c6Hg7v/2H0HPhRV8B3322VlZ0O74uwLwiwIiACACucUpmTEXjy+W1TvB79Q4aaX4MiJ/dFeH8NAvWg67+K6J6f3rhi8ZHXXJUTgkAKIiACQAoOunT5VQTWrVvnLRo55hb8Q/gY6omvxyuu/Zvwp6VBZmYAAoEM8Pq84PN6cU7UIBqJQCgcgs7OIHR2dUE4HH4VIHd+24xbOt/PC/gfrqysDLmzi9IrQWB4BFz7shu+61IilRF4evPmSZrueZ+uw/sQhxFuxcLn80FBfh4UFuZDRnq6qW52dHRCU3OLcUSjUVP3OLEQJh6q0UD7eTjq+cWaFYtOOLEPwrMgkAgCIgAkgp7c6ygE0Hc/I+pLvw1f+h90+2rf49GguKgQykpLwOPxxDVOYdQM1NXVQ11DE+guFgQug7MTn4ufauGu32NMgfa4AJObBAGHISACgMMGTNiNDQEdddxPbd6+FO3A34tBe+7Eu12fkS8fV/zlI8rAl+aLDaxBSnd3d8PZczXQjpqBFKBW3ARaBxH9l9evqNqSAv2VLqYwAiIApPDgu7nrz2x6oULXI3eiQd/b8YU+2c197e2b3++H0aNGQE5Odu8p1s/mllY4d/5CKtgI9OKGuQfgYfQGeeCG6sWbek/KpyDgFgREAHDLSEo/4KkN22aiy/dahOIuPKanCiTo5w4lxYUwAtX9WpzqfrNYRXBb4OLFOqhvxG0BNKBIFcIX5Qns7TrcCfn1DSuWHEiVfks/3Y2ACADuHl/X9279pk1jNd33hsvq/aWu73C/DmZlZRmr/owMcwZ+/W6P+2dXV9DYFiCvgRSk/djnByJR7XfiUpiCo++iLosA4KLBTJWuPL1lS7ke8bz58qRfhf1OueeYrPtH4T5/QUFe0oadNAANaCBYc7EW3OwtMAzAhjCgg+/+1cuuPT5MWbksCNgKgZR7cdoKfWHGNALPbt48K6p7b0W9821402I84jNtN92iPQvSH2xhUQGMLCsFL/rx24F6QmE4j7YBLa2tdmAnWTyQv+RW0LRHNfD87brqhfuSxYi0KwiYRUAEALNISTmlCKDLni+cFljs0fVbcYF/BwZumaaUARs2lp2dZaz6KZCPHam9vQPOX7gItD2Q8qTBSdSQPImuhY92tzU9ecstt3SnPCYCgO0QEAHAdkOSugw9tX17kdYTuQ4RuA1XUrejBX/y9Ns2Ggba3yd//vy8XBtxNTgr5C1wAQWB7h4JsncZJfKffAaFgb/5dN/fJGXx4M+OXFGLgAgAavGW1vogQD76z256YU5Uj74Od/ExQA8sxMspqdrvA8uVr2m+NBhRVmLs85Olv5MoivYBjWgfcKG2DshzQOgKArRVsA29VR6NRj2PrV6+ePeVK/JFEFCMgLPeKorBkeb4EdiwYcfIkNZTjS5Vq3FFdAu2MJq/FWfXyBHFzy4IpFg0wXhgr8UtrufxRfxUKKqtl5DE8UAo98SLgAgA8SIn95lCYMOGDSUhzbfy8oRfjTfNNHVjChaiVT5Z9Y8sLWWL4mcXGHtCIdwWqMP8As12YcmmfOjkSbAZDQk36d7oY9dXVZ2zKaPClgsQEAHABYNopy488cSuLG9m5xJ8sFYjX3Rcg4eo9YcYJPojzMPwvSNKiyHdZMKeIaqz9aWOzk4jkFAbGgwKmUFAP47C81P4jDzlCXevxzwFIkGZgU3KmEJABABTMEmhwRB4ctOmUZ6orwofpKWg6Uuw3AI8fIOVl/OvImBM/GjYRwZ+qgP5vMpFcr6RIFBb2wCtbW3JYcCZrZJV5UtoL7NFj2pbop7wlhurq887syvCtR0QEAHADqPgEB7WrVvnLR41fjro4QVoybQU9/BFpR/H2PVO/GTg5/YV/3DwdAW7URCoA/IcEIodgUspjXG7ALcNdA12NhXkvLC2oqIn9prkjlREQASAVBx1k31GX/z8iC99sUfzLMEAPFX4klmEt7o+m55JeGIuZuzx5+fjir8IKHFPsgknD4MFFOSSzYoRO4A8BlpbRSOQ4GC04WhuJ4FA0/WtWqR7u2wbJIioi29P/l++i8F1Utce37YtNy0MczBt7gINoqjG10iVTwl1ZP8+wYGkiT8/Lw8nftrjT/7ET92p626E+088AiE9Au8efzuMDJQk2Eue27uCQaira0SNQEtKJRviQW/gWi5pCbSdeNU40vTQtuXLl9cNXFrOphICIgCk0mhf7uv69TvyIBCe3W+yn4GX5XlgfB68mJmvsLAAijFTnz8tjbHm+KuK4IT/95rN8Oj55yEUvRSoJ82TBreOWgE3j1wKXs0e4YVJEKivb4Qm3BrQMQWfEC8C/YWCsCe6fc3SpeiSKJRKCMgL38WjvWPHjrSmjp7pmlebicv4ORh3ZyYa6s1Dze94F3c76V3z+9OgqLAQj3zbxOsnUE511MCvTz5sfA4EUnmgDN494XaYlD1moMtJORcOh6GxqcUQBkJhiSxo6SBg+GLQtVcw7PY+tCfY49Wi+3LS0w9VVlYK8JYCn7zKRQBIHvasLZM1vlf3ktoe/ez1ClzMk789foI9A8ez9t4elWVlZUJxURHk5WZjJGP7/Gl1hLvgwbPrYUPdzmHV6sT3ipJKeOPo1ZDlC9gDWOSCtABNza1Q19AAQTQcFFKGQBjRP43vE8p6iFsI+j5N8+2vP3/y4Nq1ayXEo7JhsKYh+7ylrOmfq2qlffqMEEzRIToV/yAxOY6GnzoeQOr7TFd11iGdoT+gnJwcKC0pAhIA7ERk5Letfhf86cwT0BaKze+eJv/bR62C68oWAhqB2qlb0NGBLoR14kKY5EGh/AYH8DiEx2HULh7yaHDEr4UPV1dXiyVnkgfHbPMiAJhFSlE5tLzPCHsyJng1mtyjU3VNm4JN0yRP2fBGKGJDmhkGAUrFW1iQb6v9/b4sn+o4D7899Sgcbz/b93TM3ydmj4Z3jLsVxmWNivleq28IdndfshNoagbKPSBkDwTIvsAD2iEckSOoCjusgX4Y00Ec8UWDJ9AjQVJF2mOYDC5EAFA8GOv27fMXNnZi/PvwRA/oo3TQRuIfDH7XJtInrurHI0v2WnIhQ0KXEMjKzMS9/QK06s8BDY387EbNoVZ4+OwzsKn+5WHV/WZ5p22B6uJr4I7R10F+mv0yElKyoabmFmhsbAKKKyBkawSakDsMd6zhoR9HF1SMdKjX4Of5UGfg4Jo1c2NTVdm6q/ZnTgQAxjF6/PHH0/05JeW6Fhnl0aNjdPCMQpc6sqgqxweellDj8BiJh/1mDmRKaGAEaLWfhxN+cVEhBDLsaVLRjRb9z1zcjtb9z0EwYk0cGD96C1xftghehx4DAW/6wGAl+WxXF3oPNKIbIdoLRMV7IMmjEXPz5O5xHo/T+L7EHAjR8/gOPYPv0PNRzXMmGtHORToazt9yyy0i5cUM7cA3iAAwMC5Xzv5jy5ZCfzRaEgFfiRaNFqOkWoLOcqUovZZoulYc1TQ8p9OkTup5PC/kFgQCgQwoRmv+fEzQ47GRUV9ffDGlMmxr2AUPoJFfS4+ardccXya6Da6EVWgf4LWZfUAvNjT5kxBAwgAJBUKuQuAi9uYiak9rPLper2t6PQoMdWjyUovahDrd46n3Qriux+Opu6mqqtFVPWfuTEoKAJSHfv2G7ZN9tM+u6eWYj37E5Ym9GPEtwwm+GB8mioxCvyWuPfNDZ+fqfD4fZuTLhyI87BK0ZzC89jQfhgfOPAnnumoHK2Lp+VGBUrhzzI0wJ59MVOxLohWw79go4Ay9GKAe3+kkIKCgABfpkwQFNG69gOfPhtE+4Ybli47iVlfKGZKkjADwxObNpWlR7x1RLXq7pnuW4go+X8HDJ004AAHay8/JyjJS8ebl4t6+TVf7vVDShE8TPwkAdqAZuRNQELgJDQVJEWZfIldCykJI9gIUclgMB+07VkngjGwTNqNw8IgnkvbQqlWVJCy4nlwvADy9Yet87OQnMLDFnTiaftePqHTQFAI0yWdn46SPIXppf99jQ4O+/h1p6GmBh888DVsbd7EZ+PVvI97fhOfiornwBjQULPLbX7YO47KPwg1TEiJyKxQSBPog0I2agQc8WvQ7q5YuxcBI7iXXCgBPb948Tot4voET/1ocPtf2072PpjU9y0hPN1T8hfl54Etzxu4OTfzra7bAc3U7roTvtQadxGulUMKLCmfDbeUroTSjMPEKFdTQEwoZ9gKN6E7Yja6FQoLAZQRwS0D7Yzjq+fSaFQvPuBEVV06MT23a8iE00PsWDphkrnPjUxtjnyjlLrntFeCk76T0u3XdTfD4+Q2wuf4VoBj+TiISBKqK56Gx4HIoTi9wDOtkL9CEoYdbWlugJ0Tbx0KCALSioeEnVldX/dxtWLhKAKAgOtG0jP/DfZz3uG2gpD+xIUAr/by8XAzLmwNkze8kqu9uhqcubIVn616EcNTZkxBtDVQWzMStgdVQllHkpGEwQg7TFkFLa6uEH3bUyFnG7O8DXv2fqqqquixrQXHFrhEAKExuekh/HPFDAz+hVEOAHuQMnOhzMSzvpZW+88w9jBV/zUbYXPcSrvjdlQGvVxC4o/x6GBEg5xpnEeUfaG1rhzY0HmzvFJsBZ40eI7eatiEdwre6JdyxKwSAJ57YhaHLu9ajS98SxqGWqmyOAE0qWYHApZV+fg6k+eyRcjdW2OpR1f+YSyf+/lj0CgKvL78ORgbI09Z51NMTMrwIWsiAEIWBlPMdc96QcXO8pTOQdsNtlZWOlwQdLwDcq+ueZZu2P4hufXdwj7LUZz8EfD4vZKPLHq30czHrHkXpcypRvP6nLmyD7Y27XbfiH25MSBCYkzcVVo9YAjNzJw5X3LbXI5iuuA29CFpb21FD0AYUlljI/QigTcBjjefPvt7pGREdLwA8vXHrF/Bxu9f9j1zq9pD282myp0k/EzPuOfmhpch95L//aM0GONbuSsPimB/UsZkj4UYUBBYWzcbIgs4V6GhsaaugBbcJSBiQCIQxPwpOu+Fz1y9b8t9OY7ovv05+l8IzG7cuQvXbJuyQM/y5+iIv3wdFgHzyaZVPBnw5uVmOVe337SDF59+Ee/tPXtgCDT3NfS/J98sI5KXlwIrSSlhdthgoHbHTKUzagbYOQxhoQ/uBiOQmcPqQ9uc/hNEEq1ZVL9rR/4JTfjtWACDVf/WmrdsxhG+lU8AWPgdGQMN48tlZASMwD038ZLVPKmI3EBn2PY1q/o31Oy1L0uMGnPr2Id3jh2Wl8+GGsiWOciHs24f+3ykKYQe6GLa3t0M7bhl0dnbZLphTf57ltykEXtpYvfjaezXNkVa7jn3LYoS/96Au+JemhkgK2QoBmtwzM3HCR3V+dnY2GvLhhO+ASHyxgHik7TQ8dXELvNR0EEPOOvLdEEt3LSmLqyu4Jn863IDbA1NyxlnSRrIqpWRFJAi0Y2ji9o4OCKJwgNpMIUcioL3r+mWLf+NE1h0pAFAyn2c2bduHgM9wIuipxjNN+BkZ6YZan8Lv0sTvhNC7sY5TZyQIWzFoz/O1OzFBDyUsE+JCoBwTDy0vqYQlxXNdsT3QH5cwGg92oCBgCATtnRCUiIT9IbLz74OoBahwohbAkQLA05u23oziMvn8C9kQAY8HV/gZATTYC0BWZiZk4YTvZGv94SAma34K07u9fhd0R0PDFZfrCSDg8/hQKzANlpdeC5SECLcAE6jNvreShqADtwkoT0Enuhq2d9CWgWiS7Dpimq7fdN3yqifsyt9gfDnTeE7X3oluf4P1Sc4rRoBi6tOETxN9Fqr2A3h4XLKHPxiUXZFueLFhDzxd+wKc7bwwWDE5z4wARUZ8sXGfcVBAoeri+VBdMh9yfJnMLSW3OtKQ5aC2jA6iXg8DEggo9gC5HpILopA9EMCcM29HThwnADhOfF63b5+/qLG1AcHOtsfQpxYX9GIKYPCdTNy3p4meJnx/mjMD8MQzckdxb39D3U54oWEvhHRZ7ceDIfc9aVoaXFtYgVqBSrQVGMtdvW3ro8RFnV1deAQNo8IudEEkY0OhpCDQmhdIK66srHTUS8FxAsAzG7YuRWmLXP+ELEaADPMCuHdvTPY06eNkn+73u8ZC3yx8lI1vW/1u2NawC8531Zq9TcolAQGKLrgE0xIvLp7jiLTEnBD1aglIKOjqRKGgi2wJesTbgBPkIerCyXTxdcuWbB+iiO0uOW4LQPdoS/CJth2QTmfo0so+wzDWI3U+ueKl4+TvdlX+YONGBn07UNW8FSf+I+0n5SU6GFA2O1/TVQd/OfsUPHT2acNzgIwGF2AyIjfEFRgOajK2pb9bI/nV5UzMUXxXkkAQRIGAghR1BvE7CQWiKRgOzpivo+5lKd4kAkDMyMVwAz7PMxyntoihfyqKUsz8jAw/UIQ9Uuf3Tvapjiu56x1sOwlb616BHU37oEcM+lQ8jpa0oaON0GEcSzp+d+oxqMidZGwTLMCtAr8ndbasSIDPRkNcOnqJNAUhTHUcDJKWIGhELCTBICzpj3shivNTnxbnjUm7zXEaAA/oE2X9b+55IeM8muSNA1fz6fQdP30Ojp9vrufmS9FEcbTtjKHef7FxL3SEXZPp0zwILi9JhoO7mg8Zxx9O/x0qUQggzcDk7LGu9SIYakhJU+D3pxlHLkbb7CUSALrQroBcELtRW0AaA7IzIBdFoeERQI+UScOXslcJxwkAUdDyNfEAuPIU0ao9Df+YaXIP4OFPv7Syp4neza53VwCI4wutgCgO/86mAxioZx/Ud0to3jhgdOQtJOA9X7vDOIr8+bCgcCbMxy2CydljUs62pf8A0oIhh47Lnge91ymkMW0bkFDQ1R00hILuYAhCYUfZu/V2x8rPfCsrt6JuxwkAOPm/qsuyAhGb1kmTOUntGemX9unpOxnk0cRPfvdCQyNA6v1j7WdhJ+7r095+U6h16BvkqusRoJwMlJuBDnIjnI3ZCcmboCJ/sqOTEnEPnM/ng2w60M23L5EdQSgcMbYSDAGhpxtCmCq5u6cHKGVyCtKr6hSHdN5xAgDi6tx0YUM8FDTBp6E7HU3q5FZnqOjS04xzGbiqp3j5QrEhEI5G4EDrcVzl74eXcbXfFnZ8+u7YAJDSphGgZ2NLwyvGQcLAvILphvHgDExVTMGHhF6LAHkJ+f10pEFuv8uU+KgHtQYkCPSEej/xu3GuB8Nju3Ij13FzkzzZ/R5cK36SIQ5J0TSx+/CPJe3y9zQ/ncMJH8+Jup4H+e5oD+xtOYqT/gHY3XQIyJpfSBCIBQESBjZi5kY6At50mFswzdgmqMidDBlefyxVpWxZrxEv5LJHwgAo0LbCJeGABIQQhHvCqE3oQePEiHE+HAmL580AuHGfEgGAEVGyrs/OyTSM7tJx1U4rej+eo701IesQuBhsMAy89jQfhsPtp4BW/kKCAAcCFPHRiAGB7qA+jxemZI+DOflTjO0CijkgFB8CtCCiIxMCA1ZAdjph3F7ooe0EEhZQc9CFHguUL0GMEgeELK6TMjPFBdurN9HqvqAwHwrz841AOa9ekW9WIUBW3YfQvWt3y2HYjZN+bbDRqqakXkHgCgK9W0q0rfQnjPpanF4Ac/Onwmw8pueMh7QUci+8AopFX8hTIQ0XTnRcCoZ8qSESDCiLYmNTE7S0tImWIEH8RQBIAMDCgnwYNaIUvCjJClmLQGNPK+zFyX538xHY33pUku5YC7fUbgKB+u4mePriduOg2ALT8ybCXDQknI0aAvIwEOJHgASD3hwJPWU9cPb8BWhra+dvKEVqlJkrjoH2o6HemNGjXmMVG0dVcssgCLTjPuzB1pNoxHfMMOQjNb+QIGBXBChoFNmc0EFUmlGI2QonGsd0/HRbsiI7jAO9hyeOHwtNzS1wruaiJEeKY1BEAIgRtEyMnDdhwlgJphMjbsMVpxfoUfTN348GfPtRxXq6s0bUe8OBJtdtiwBtS9FBMQeIaLtgZt4kmIkRCSvwM9ObYVvencZYQX4ebr9mwvETpwybAafxn0x+RQCIAf3cnGwYN3aM+N3HgNlgRSmT3on2c7jKP4GT/nE43nEWIroY7w2Gl5x3NgK0XbABhQE6vOjSOzF7NJBmgLQEE7PLgTIaCsWPQDp6Uk2ZOB6OnzwNXRjiWMgcAiIAmMPJiJc/fuxo0CTojknEri5GrlXH2k/D4dbTcKzjNJzsOCfW+ldDJL9SBIEIBqU6gmml6fjbueeMoEPjs0bBJAxNPBXTGU/Bz+y0vqZvKQJMgt0kb6uJqJ09dPS45DUwiaUIACaAokx548aU4+QvwXhMwGUUaelpQ5c8nOzxJUeueac7UKUvIZzNwiflUggB0nxRaGo6nryw2eg5bRlMRZfDKSgQTMaDXA4x1nwKoRJfV8m1cDy+q4+dOC1biCYgFAHABEhjykcZIXdNFE3JIuQrfbLjvLGqP4EvsaMYcrcl1JaSWEinBQEOBGjLgA6KTkiUm5aNGoIxMCFrtLFlMD6r3AhSxNGW2+rIysqCstJiuHCxzm1dY++PCADDQEqpcvPz+we6HOYmF1+m1QpZ5J/CCb93hX8+WCfStovHXLqWfARaQ+1GOGsKad1L+Wm5MC5rJGoJxhmZDel7KqU67sVhoM+S4mKob2jCYELhgS7LucsIiAAwzKMwoix1o32F0DL/fFcdnEKLfJrwad/+TCe624ix3jBPjVwWBKxHoBkTWjU3txpRMKk1r+aF0ZmlhpZgHNoUjMkcYfxORQNDSpBWWlwI5y/UWj8QDm5BBIAhBi+QkQG5OY5L8DREjwa/REZ6Zzov4HEeXfDws+MiXMCVPRksCQkCgoD9ESDB/BTa2tDRS+RxUJZRbAgDYzPL8HMUjEXBICcFjAyLiorgYl09RCLyDut9Hvp/igDQH5E+v/PRv9RtRKv6C6jCr8GV/dmui5cm/Y4Lkh7XbQMt/REEEAES4M931RrH9j6xtPL8OYYgMCYwAsoDZYaR4ajMYle5I5IWIC8nFxqbm+VZGAQBEQAGAYZO5+Q41xWH4pbXdjfAOZzo6QVQY7wE6qAmWI+pOEUiHmLY5ZIg4HoEyEtnDx0YWrsvkV3BqECxIRSMQs+DkYFSQ3vg1CyI2bnZIgD0HeB+30UA6AdI709KZ5mBWwB2JprIG3tajBU9GebRUYvHBZzk67ubxe3OzoMnvAkCNkTAsCtA2wKKxtlL5H5YlJ4HI3ArgUIcl6UX47ZCkXEUpecbgY16y9rtMxsjBAoNjoAIAINg48d0vnbwuqXMdw04yZNLUB0eFzG86EWc4C/i6p7OSerbQQZQTgsCggALAhS/gxYUdEDL1VWS4WExCgEkEJCAQJ8Uw6AYkyHReZ8nuVMMZROkOC7RqGg9rx65S7+SOzoDcWSTc/40vxJOaAJvQom7gf7Aesj399IfWn3wkh9wc1hSXioZCGlEEBAEYkag1y2YtI+74fBV95PmIC8tB0oy8lGDgAKBIRSgcIACAmVLLPTnKhEQ/BgmOBjsvoo3+XEJAREABnkSPF6e9T/ttdV2N+IE3wLNoRZU2bdBI35vwu9N+J38eyVC3iCDIKcFAUHAsQjQe613S4HCHg9EFOCoAA0SyfaAthny0/JQMMiBQhQYStILDSFhoPtiOUcaAKGBERABYGBcUHblEQDWnX0SttXvGqQVOS0ICAKCQOoiQAsgOk7Bq66LvWjMypsMd097V+/PuD81jeddHjcDNr5RRCMbD46wJggIAoKAICAIWIWACABWISv1CgKCgCAgCAgCNkZABAAbD46wJggIAoKAICAIWIWACABWIXulXv3KN/kiCAgCgoAgIAjYBQERAOwyEsKHICAICAKCgCCgEAERABSCLU0JAoKAICAICAJ2QUAEALuMhPAhCAgCgoAgIAgoREAEAIvB1sUEwGKEpXpBQBAQBASBeBAQASAe1OQeQUAQEAQEAUHA4QiIAODwART2BQFBQBAQBASBeBAQASAe1OQeQUAQEAQEAUHA4QiIAGDxAEqiH4sBluoFAUFAEBAE4kJABIC4YJObBAFBQBAQBAQBZyMgAoCzx0+4FwQEAUFAEBAE4kJABIC4YJObBAFBQBAQBAQBZyMgAoCzx0+4FwQEAUFAEBAE4kJABIC4YJObBAFBQBAQBAQBZyMgAoCzx0+4FwQEAUFAEBAE4kJABIC4YJObBAFBQBAQBAQBZyMgAoCzx0+4FwQEAUFAEBAE4kJABIC4YIvlJskGFAtaUlYQEAQEAUFADQI+Nc1IK4LA0Ah4NQ+UBgqhJKMAMrzpkO71Q8CXAeFoGLojPdAe6oTOcBDOddYan0PXJlcHQqAgPRdGZZZcwhYxzvIFjGId4S7oinRDEI+aznpo6m4d6HbHn8vzZ8Pk3LGQ78+BnmgI6oJNcKTlFET0qOP7Jh0QBOJBQASAeFCTexJGYEzWCJhdOBkqCibB2OyRMDJQAj6P11S9NEGRIHCo5STsaTwKB5uP4+TVY+reVClU4M+FWYjv7MIpMDFntDHxZ6JAZYZ6Ba0TrWdhT9NRxPgINPe0mbnVlmXmFE6FuybeCDPzJ4GmaVfxSILlczU7YN2JJ6G1p/2qa/JDEHA7AiIAuH2EbdS/ybljYNWoa6GqdB7QajReonvpmFUwGd40fjVqCSKwFycqepFvq92VssJAUUY+rBxRCctHLoBxKFTFSyQoTMGVMh03jq4yqjnZfh421OyE5y/shIZgc7xVK72PBMoPT18Lq8sXDdpudlom3Dp2ufFcfmf3/fBSw4FBy8oFQcBtCIgAYPGI6iluAuD3pMH1+AK+ZUw10KrfCqIX/byiacYRjLwZNl14BR4+9Qyc7bhoRXO2q3N+0Qy4fdxKmIsr3f4rXC5mx2ePgvFTRsE7J98KuxoPw19PPQsvNxzkqp69Hg9uKX1m7vuhsnimqbppO+Rz13wAvrH7l7C9do+pe6SQIOB0BEQAcPoI2pT/DNzDv2l0NbweJ6ZEVvuxdo/sB2jFd/2ohbAFtQEPHH8SaPXqNtJAg0Wls+HOCTfAJNSsqCISMHqFraOtZ+ABVJ2/ULsX7Jb18i0TbzI9+fdiR0LD3bPeAXdv+5ZhC9F7Xj4FAbciIAKAW0c2if26tqQCPjDtTYZRX7LYoIlqadk83G6Yi2rrHfDzQw9DW6gjWeywtkuGfB+c/mZjImatOMbKaEvns7jK3td0DH5y8AE43X4hxhqsKU5bIXeMXxVX5SRAvgO1HN/a/au47pebBAEnISACgJNGy+a80ov3n2esjXnlZWW3SBBYOfJanCynoxDwEGy88JKVzVlad5rHB2+ZdBPcMW4VeDVzBpOWMnS5cjLk/N7if4eHTj4Lfzz+d8MmQ0W7g7WxpnwJ0NZTvERCI2mt3OoNES8ucp/7EJA4AO4b06T0iPafv7PoHltN/n2BINeve2a/Cz4+6+3oZujve8kR30syCuErlR81jB7tNPn3gkc8vXnCavjGtR+HEYHi3tNJ+VxQXJFQuyQ0LiiekVAdcrMg4AQERACwfJTcbQVIL8t3TrkV7l3wz4Z/teVwJtgAaQO+ufBuwy0uwaqU3U57/d9f8imYljdeWZvxNkT2CN9ZfA8sLJkVbxUJ30dbJInSCHRLFRIE3I6ACABuH2EL+0fW95+Y9U5jVUpGaU4hijtAQoATJtSbRi+Fz8x5H5j14bfDGJBF/Wfmvg+NQJcqZ4e2SQK+9ITbzcegQUKCgNsREAHA7SNsUf/IWOpz8z4Iy0bMt6gFa6sl/+8votaCLNrtSrTf/+EZd1rm2mdlv8minngna3yVxCWIkmZLSBBwOwIiALh9hC3oH638PzP3vbaePM10u1eIIfsFuxFNnKonTyswICFmLUbhExIEBAH7ISACgMVjYjf/6ES7Syuju1HtT1b1biASZj6N6moKl2sXWoPR92jidAu9bdIt8Loxy93SHemHIOAaBEQAcM1QqunI+6beYfjXq2lNTSu0v/5f13wQitLz1DQ4RCuVGEPhQ+jj7zZ6/7Q70LLeXFQ+t/Vd+iMI2BUBEQDsOjI25KuqbC7cNnaFDTlLnCXy+/4EuglSVsJkUTHGUfi3ircB7Z+7jXqj7FHGRyFBQBCwBwLue9PYA1fXcUF+6P8y4y7X9atvhyigzV2KjdZ62yfB457Z74actKzeU677JMPLT2If7RjHwHVgS4cEARMIiABgAqREirghGRBZVn9i9juAXuBuJ4qtnwz3wDdjuzPyJ7gdXpiaNw7eNOF61/dTOigIOAEBEQCcMEpJ5vH68oU4OU1MMhdqmicjx3+ZeZfSrQCKnPcmjKKXKkTCTlmgKFW6K/0UBGyLgOQCsO3Q2IMxWvW/a/JtljMT0SNwuOU0HGo5Aec6aqG5pw16IiHDB57U4jRhUEraWYWTLY84OA4DBVEmw8fObLC839TAB6e/KaHY9WaZPNNxAQ40HYczmCa5LtgEXeGgcWsAjSBLMgowXXMZzMRtkNH4aSVRnP4PTHsjfOWV+6xsRuoWBASBYRAQAWAYgFL9MsV3z7UwKtqR1tPwxNnNsOXiLui8PCENhTltR0zLHw/XYUjflaOutWzifCu64T1Tsx0nye6h2En4GsUgmG9h3PnG7hb4x9kt8FzNi1Db1WiKXxK2VoysRCGoCgot8owgb4dZBZNhb9NRUzxJIUFAEOBHQAQAfkz71ejcXAC08rYqnCuljv3F4YfhlYaD/fAa+ifFVTjYfMI4/nDsH3DXpDWwpryKPVoeaT5IC/DQyaeHZijBq6QOt4LaQ53wh2N/hyfPbYVQNBxTExe7GmDd8SeMvlNMgrdOuhkovC833YkBgvbuFAGAG1epTxAwi4DYAJhFKgXL3Tp2OWbOSzyuel/odLSKpMnl7m3finny71sPfW/qaYUfH3gAPv3i/wBNWtz0+nErLdMwEK/T0ehvduEUbrZhZ/1++OiWr+EWxsaYJ/++zJDg8OjpDfCRzV+FlxoO9L3E8p20H8kwuGRhXioRBFyAgAgALhhEK7pAEfJuHlPNWnUw0gNffuWn8HtcmdKePxcdbjkFn9j2bdjdeISrSqMeSiG8fKR1uQ6siKmw7viT8JWX7zNsKLjAIHuML7/0U3jgxHquKq/UYwUGVyqXL4KAIDAkAiIADAlP6l6kqG25jD7ptJf+hZ0/gpfq+VeSNEod4S748ss/gR11+1gHbRXaGlhBtMVwLe6Dc9IvcUvl98cex00S/m0nqvN3Rx+DXx7+KyfLsLB0lqMyHbJ2XioTBJKMgAgASR4AuzbPOfFF9Ch8fdfP0cL/pKXdJZX1N3f/irWdmfmT0EKeP3rd0rJ5rNsLfz7xFPz11HOW4kuV//XUs/AXRrsI8gioQiyEBAFBQD0CIgBYjLmOVutOI8qnXlnMtzqlleOuxsNKYOiJhgwhoDXUwdIexQWoHnENS119K+FMo0zY/u7YY32rt/T7b3E8ObdbOLGwtONSuSDgMgREAHDZgHJ0pwJXvWQDwEHk5vfQqWc4qjJdR0OwGX528C+myw9XcC6zoV66189m/NaNdhU/3PdHIONKVRRFjc4P9v0OghEeF0mKgEiaACFBQBBQi4AIAGrxdkRrFGyHg2jf+McH1imdnHr53nBhJ+xrOtb7M6FPioLIJRARIzThpXl4PHDJ6K8uaM6/PyEQ+t1cj0LWg7jtwEE0+U/H2A5CgoAgoBYBEQDU4u2I1mYX8Lim7azbD8dazyatz39Cd0MOohU7xbDnIgqAw0Hk6//42Y0cVcVVB7kZEg8cNIvpmePgReoQBFIFAREALB5pKyyyrWSZ9rzHZI9gaeJRnCCSSbtxb/x0ew0LCxSGmIvG55SzVPX0eesjFQ7FKEVufBYjDHLQ+Bw+fDn4kToEgVRAQASAVBjlGPpYihbvHPuxFKSHJuBk04YLL7GwUM4YH788s5SFp+drdrLUk0glz9XsSOT2K/danX/gSkPyRRAQBK4gIALAFSjkCyHA9SLe1XAIyFgs2fRyjKGGB+O3PLNksEsxnSdbgtJA4m6FLT3tcKLtXExtW1H4OG7xUKCgRKkMMfFqPIanifIi9wsCqYKACACpMtIm+0lZ4TjoAMbrtwMdbzuL1uo9CbNSypS+tji9gCXV8P7m45YE/IkVKNriOtR8MtbbXlOeJv/ijPzXnJcTgoAgYB0CIgBYh+2lmtV5Z7H0hCvpy1lMOWsHIve48521CbOSiSlzOYirHrvgS5ic7eQZ6wBz3gmO8ZI6BAE3IyACgJtHN46+ZWAQIA5qCLZwVMNSB7msJUpcE3eGz58oK8b9FOvALsSBL/UlwCRk2QUX4UMQsDsCIgDYfYQU85eBLm8cxBUkhoMXykOQKJFhpFdL/M8l4OXRJHBsaySKSe/9HPhSXRSBUkgQEATUIZD4G00dr9KSAgS4IsqRO6FdqDXUnjArFGI4yhBtj8sw0mMnfNEgkYMoqqGQICAIqENABAB1WDuipS6m8K5cKnMO0DhU1LSlwRHTgQtfO+2X13fzbEdwjBPH8yJ1CAKpgoAIABaPNMekYTGLV1XPpbqneAJ2IY54BLsaD7F0J8iwHUGMcLgSsnQIKznTcQGaulsTqq62qxEudjUkVIfcLAgIArEhIAJAbHi5vjRXaNexTNEEOQAnf/lTCUYEfJ4p4E1HuIujSzA2eyRLPRyV0LYR5V5IhLgiCibCg9wrCKQaAiIApNqID9PfC0yrsAqmePfDsGv68v1H/ma6bP+CL9btA664BqQuJ3uCRGl63gRbBc6hxEDxCjcU1Oivp55NFBK5XxAQBGJEQASAGAFze/FzHYn7zBNGlFCIkujYhXbW74e/nX4+Znbqgk3w//b/Meb7BruBVss1nfWDXTZ9nizmZxVMMl3e6oKtoQ743t7fxpz5MYLRIr+z536gvAJCgoAgoBYBEQAsxttpNgC0l8vh1kUT1OLSORajG1v1vzz8V3j8zCbTN53vrIN7X/o/llC3fRvlErJWjbq2b7VJ/74DNSXf3fsb0xoOcmX89u5f2SJnRNLBEwYEgSQgIAJAEkC3c5MksBxtPc3C4u1jV7LUw1UJueD99OCf4Zu7fznkKjwUDcMjp56Df9/+XeCarPv24Vjrmb4/4/6+tOwaKLJZ+NyNmHzpU9u/B69gLoihaAdqZD65/TuwtXb3UMXkmiAgCFiIgM/CuqVqhyKwp+kozC6ckjD3k3JHG1qAbTZ7yW+5uAu21e6BClShzyuaBhSfnzQWFF3vKE7OL9btBVJpW0W7m3iyJKZ5fHDnhBvgxwcesIrVuOo92X7e0JyQIeiC4goYg5kUc9KyoA0xPd1+AV6s32uJYBUXs3KTIJDCCIgAkMKDP1jX9zQeAZh082CXYzr//ml34GrwIEtCnpgaHqYwaQOon0ZfhynLfZky6NGeN0eshDXlVfD0ue1whElrw9lXmuzpEBIEBAF7IiBbABaPi26fgHime3qk9VTcFt39GynBeAAfmnFn/9Mp/ZsM3zhiExCIFHHx7tnvlDC6Kf1ESecFgfgQEAEgPtxcfVc4GoHNF15m6+OqkdfCbWNXsNXnhoq44goQFqMyS+CeWe9iyVXgBmylD4KAIGAOAREAzOGUcqWeZQp80wvc+6beATeUL+79mfKfZATHFXSJwKwsqYCPVbzdVrEBUn6QBQBBwOYIiABg8wFKFnsHm08AucFxEamq/2XmXXDXxDWG2pqrXqfWQ54GG9BinpNWjFwA/znvnyDLF+CsVuoSBAQBlyIgAoBLBzbRbpE74MPM0dk00OCtaFz4+Ws+BMU2c19LFK947idXQ7IH4KT5xTPgu4s/aXg4cNYrdQkCgoD7EBABwOoxZUghazWLg9X/7PkXoKG7ZbDLcZ+/pmg6/LDqPwxtQCqvVi901cMmRluL3gEpCxTBVyo/CnfPeieUZ5X2npZPQUAQEASuQkAEgKvgkB99ESA19cMnn+l7iu17BoYJJm3Afcu+YGwNzMLcAT6Pl61+p1T04Mn1QC6J3ETaFtoS+OGSz8Ln5n0AqkdcA9lpmdzNSH2CgCDgYAQkDoCDB08F638/uwluHL0Eg7mMsKQ58oW/sXyJcXRjaNhj6CN/tvMiUIKYLvSVpwQzlKKYwsZSIBmKzEfX3ELkJ/+Ps1vgljHVlnSJbC/IQJAOEjQoK+LZjotQjzkO2kKdV7Al7Cn4EaXlpfwHVggllnRQKhUEBIG4ERABIG7oUuNGcgn8yYE/w5crP4JrSmuDGlDyoJkFE41jKHRJKCBB4FDLSdjbeBT2YuTCeDPRDdWOqmu/O/oYVJXNhXx/jqVNejQPTMgpN46hGiLNTw0agB5vO4uBko7CnqYjhmAw1D1yTRAQBJyHgAgAFo+ZbnH9KqqnCfY5dAskf347ENkNTM0bZxwUX4BWqyQMkOsixS9wmjBA/P7y8MPGnr0d8KUQw2OzRxrHystjTh4hGy7shOfO7wCyXRASBAQB5yMgAoDzx1BJD+47+CBQDvqRmcVK2oulEVrZzsifaBz/NO0NsB3j/D948mk42XYulmqSWvb5mp1AxpG9E25SmRmgcQo29JaJNxmGm+QiSh4iL9TuRV8RN4i4A3RYTgkCKYCAGAGmwCBzdJFi138LU7f2REMc1VlWh9+TBstGzIfvoSscGb9NyRtrWVvcFf8Yt1pof97ORNtAJGx9du774ftLPmVgTXYGQoKAIOA8BEQAcN6YJY1j2hOmdLpOWPXRREWGb99ceDd8dOZbIdefnTTczDZMxo6UqtgpWxi0TXDP7HfB16/9t2HtCsxiIOUEAUFAHQIiAFiOtbtUpE9h5rnfH33cctS4GiBBYHX5IvgRxh24ftQirmotq4e8Av77lftsr2npC8C0vPHwnUX3wPtx+4U0MEKCgCDgDAREAHDGONmKywdOrIfHzmywFU/DMUM+8P9a8Vb4hAMy5+1vOg7f2X0/e5TA4TBK5DrZYZBB5jcX3S3BhxIBUu4VBBQiIAKAQrDd1NTPDj4ED1kUJMhKnJaPWICr1U9aFteAi/ftdXvgG7t+4ShNAPV9fPYoQxuwtOwaLiikHkFAELAIAREALALW7dWSHcCvjzwCPz/0EOgOC3dMFu1fu/ZjhjGbncfphbq98LkdPzQCINmZz/68ZXjT4ZNz3gVvGH9d/0vyWxAQBGyEgAgAVg+Gu0wAXoPW304/7yjDtd4O0JbAvfM/bBgK9p6z4+fhllPw2Rd/YETwsyN/g/FEthfvnnI7vHPKrfhNvAQGw0nOCwLJREAEgGSi75K2t9buho9v/aYRjMdJXaLIg5+d+z7D/97OfJNr4L9v/y48enqDndkckLc3jV8Nb5t8y4DX5KQgIAgkFwERAJKLv2tap/jx/7njf+H3x/7uqH1rr+aFT815L0zOHWPrsaD4Cz879Bf4OtoF1Aebbc1rf+bunHADvG7M8v6n5bcgIAgkGQERAJI8AG5qnvIGrDv+BPzrlq/Djrp9julawJcOn7/mQ1CSUWB7nrehtuWjW74Kf8FIh4S3U4giNC4qne0UdoVPQSAlEBABICWGWW0nL3Y1wFfQl/2zL37fEAScEDiIAgWRJsAJKYkpM+L9R/4G/7z5K8a2gN2jM9LTR9ECP1bxNigLFKl9GKU1QUAQGBQBEQAGhYbnghMmP56evraWAxgzngSBT+L+9TPnXwAKJ2xnorDBb5/0OjuzeBVvtO1C2wIf2vRl1Lw8iWl8G6+6brcflMTpk3Pe7Qghy27YCT+CgBUIiABgBapS51UIHGs9Az/Y93t474bPw3f3/AZIjd2OuejtSHeMXzVsOmK78d3U3Yq2F4/DB1EQ+E90G3zy3FYgLYwdaUruWLhzwo12ZE14EgRSDgHJBphyQ568Dnej6ppSytLRm5t+VsFkTDs7AkZnlUF5ZimQe14yiVzWPjT9TvjEtm85KhIfYUbxGPZh6mY6iEjdPrtwMkzMGWNE56P4B8UZ+Ul3y3vj+OvheUzdTCmGhQQBQSB5CIgAkDzsU7rlqB4F0gzQ0Zcy0DWPAsnQkZUWMD4DeK48qxTGYZQ5mtBKMgr73sL+fRwmubl17HL466nn2OtWWSFpAS6eI03A9ivNko2DgS2q4wO+DCBs6XdJoBCjI5bBzPxJKDCUG3v2V25i/pLm8cEHpr8JvvjSj5lrluoEAUEgFgREAIgFLSlrOQJk4EYHQBtA16vN7ajff+XHxJzRcN2ohUaSH5q8rKC1E9fA+nPbbG+3EGvfyXOgPdo55BZMYXoerBi5AG4ZU22ZsHVN0XSYVzQNXmk4FGsXpLwgIAgwIeBEGwAlvk9cxnsaJkkR4kWA0hKT8dsHNn4JHsFVegS1CdxEBmu3jFnGXa0j6mvsbjHyPHx403/Dj/b/CVpDHZbwTfEBhASBwRCgGB0cpEeVhWMNcfCrsg4Hzk66EpC5wtv7gOchVvlQOKWtNpyYfnH4YSNKnhX7ybdjdjvakkhViugRw6DwI5u/CpSciJsq0P5jRv5E7mqlPpcg4GMSAGi7UQlpoGRu4uyL4wQAHTxqQGaSADzo/yxkLQKkEbhn+7fhpYYDrA1RbIDlIytZ63RiZSRoff2VXxieBlyasV4cKIWwkCAwEAJetFdxFOkiACgYr2hYQSNoUc3TitfjOBmLp+OKa+kKd8N/v/wz2Fq7i7XlVSIAGHjSxE+xBu47+CArvteWVCTd84O1Q1IZGwJpGo+JWlTdFoCSuYkNYKzIcbOTpqvRAHCtdDxMaizOQXdrXaSypjgD+5qOsXVxev4EiV7XB83Hz2yCP2G4Zy4ij4ClZfO4qpN6XISAl8t+ims1Nzy2arTTw/NhuoTjBAAUWdSAzPTQeJ0nY5l+eOxYMIQKom/v/jU096AXAQNRXIDqsmsYanJPFX88/g94ueEgW4cEXzYoXVUR1xZAFLVXKgg3e9XMTYydcZ4AAGq2AKJcAgCXFMs46G6vqqmnlVVVPadoqtshi6l/FHDoB3t/z+YiSYaAlJpZSBDoiwCbAbWiLQAUMxwnAPBssvQdNYu/67gFoCmQ6JjmfyPincWQWF49RZRbgXvh5LtdigFj/Ki2belph6MYxIfC+pKFOE0KdqLNF1+BNY1HYE7hlITZmoHbAKSqJu2CFUSxDMjvfmHJLCPgUbYvEzrCXXCuoxZeqNtrRE60Wx4FErIeOLEe3j3ltoQhoeBE0/PGw67GwwnXJRW4BwEv/s1xENdiblheHGgEyIPwsMjwFcDJX5GUxTOhcfmy8iFoviaa9N45+VbDH75/lryctCwjfO9KFAxOtp2DHx1YB4dbTpmvXEFJ2qvmEAD8njSYihNUb4hdTtYpoNG7p9wOeehx0JcoJDIJXvOLZ8DbJt0M9x99FJ7CwER2or+jPcAbx18H9CwkSrNRUBMBIFEU3XV/GpcBtaLFie5RNTfxjbMDtwA0a5Zh/TDlWtGyGbL048/qn5kYJvZLCz4Ct49bOWz2tvEYOvYrlR+F6hH22iunCftUew0LVOMxDDE3vXfqHUaK3P6Tf/92yB3xozPfAh+c/uakx/Hvy1sw0m1keex7Lt7vVuAbLy9ynz0Q8DDFUFGlAdAcqAFwoACgZp+FSwBwohcAJeqhtK2k+jZLtEr+eMU7bBfYZUPNTrNdGLIc5SLgpDvGXQevR+EqFqLQvG+esDqWWywv+zwTvqOY8bW849KA5Qj4GeIAcL3HzXVWjYeaOV7MlXKgAKBGzcIVPjIDJ0an0eryxTC/aEbMbNM2wcdnvX1YjUHMFSdwA5e1OqcAQKr9d0x+XVy9eituB1D2RLvQCdz+IXuARIkw6b/NlGidcr+zEcjwZiTcgWhUURRA5NSJRoAOFACgO+GnwkQFXA9Ohs+aBD5LmwAAQABJREFUZDUmuhBXEQ0jF941If587fQiXz5iQVxtW3HTifZzmFwo8UemlDED4dqJN8Y92ZF25s02iqFP8TIONZ9MeOhoq6woPT/heqQC9yCQySAARBQKAADRoNPQd6AAoCe+3DAxSlwPTobHWQLA9LwJUIQ54xOhKhsFdiEV4LmOxPPOk00EB5FR6KKS2QlVRd4CtOViFzqL3gocROmJhQSBXgQCHAJARJ0GAG0AlMxNvfhwfDpOAMD3uRKQuTQAHA8xx0CbrWNq3jizRQctRy5ddqKG7uaE2QkwaXJoK4Es/BMhchu00zYAB76ERyYTxolgK/faBwGOVN8RTH+tijSPR8ncxNkfxwkAqkCmlSNHDOmAwwKcFKbnJvx80QRnpxUqhw899YfDo4MDXxqgwvS8hMeJqwLKw8BBThOWOfosdQyOAIdAqIfVaQAw3pAIAIMPJ88VlWqWaCRx6ZFDiuVBzlwtFPqWg7LSAhzVsNTBMXHTXjdHSFEufBPVIrAAe7kSDnypqoiqtK2cnZe6LEMg4E38HaJUAwAiAFj2MPRWrFLK4nh4AqiudRJ1MRjMUX+59sw5sMvyJf4iCYZ7WKIdcuFrp9Uy11h3hR1nQ8XxeEodgyDA8e6MiA3AIOheOu24LQAMDqVMzcJhCMjhyjLkCDJf5FLnlmUUMXMWf3XkmZAodUV4JieuSa4MQzLbhTjwpb5wYWwXXISP+BEgb6QMT+L5ITje4WZ7EVU4N5nlabhyjhMAUCmvTACIMkiPHFLscIPIeb0j3MlS3djskSz1JFoJ7d2PyExcAGgPdSXKinE/xfjnILvgS33hMkjsYMKYA1+pI7kI0ORPQkCiFGHYxjXLg0dX46Fmlh8z5RwnAGhRdQIAxxYA14NsZjA5ytR01nNUA7MKJrHUk2glFM2QIx9DTVfiroTUl4buFuiJJp7Ogvplh8A5xAPlSUiUgpEeaOxWJtsnyq7cbzECXAunqEIvAFwvOu4BdpwA4I2ok7I41EdcqiyL/96uVH+uk8enexYmd7GDAWRlScWVviXy5TyTrzt5l5zvTFyYoPS5swsSz3SYCCZ079zCaTjOiatqaxATMrQUEgQIgWxfFgsQHO9ws4zo3kiL2bJ2Kec4AcDnCysDOcrkQsL1MKt4aJpwFcbhNkeTQlXZXBUsD9oGrfyXjZg/6PVYLnAJRtQmpfnlIMokmGyibJAcxIUJBy9SR/IRGC5BllkOw+HEPbnMtpUWCokGwCxY8ZarqakhkJUsFcJM+0dcD3O8mMV639HWM7HeMmB5yiTI5fY2YAPDnFw16lrI9+cMU8rc5SMtp80VNFGKC18SsEoYQxSbYP2qIiUZBbCklEfIO9LKh+9VTMoPRyKQ5+P5uw2HlSSPJYyjK1eu7HAa2I7TAKxdu5ZEOh5LtWFGKxzheXhyfVfneh+m2aRf3tN4mIUHSvGarLDAZPx3J1PM/JaedjjdfoEFE6qEC1/ScNw1cQ0bX7FWRImJuOwQ9jQeibV5S8snU3C1tGMOqZxr0RQOKdIAaNCG271KFqacQ+g4AeBy53ks1YZBkuvhyU3j2c8ahl22y3uajrLV9b6pr09KTABKm8vlnra36Qjr/vRxzKDH5Q1wPW4DTI8hbTPXwM7InwikYeGgtlAHUNImDgpFwyzxGpz2N8uBnZ3q4Fg00WzMtYgbFhsdePb1hm2It4BTBQC+5dgQeHI9PLlpztIAkLq7PcSjZKHEQv88Y+0QKPNfosnpTUyrf+LupfqDrExGMeLdrgYeLQsZmd496x3AEezIbCcpCiG1ybVKfqXhEMukTfyTISFHsKVShtgRZvGUcq9FgEMDEEX1PxndqiB0WLyooh3uNpwpAOhqwA6FeLYA8hwmAET0CGy6+DLbs0aGeG8av5qtvqEqolX/p+a8hyVuP7VDLntba3cN1WRc156v2RHXfQPdRH3+9znvZlPHD9RG7zlS+X9y9ruhlDEQ0fMXdvZWz/LJEctiTHZZUu0rWIBwcCUc78wedfv/JHgqWZRyD6kjBQBdUwN2OJy4vzYNmBPVic+ef5H1WXvHlNfB68YsY62zf2VkEPeF+R+GAoaERr11v1C7l8Urore+3s+dDfuhFVXfXDSvaDrcM/tdkObxcVX5mnqobmpjXtG011yL9wTZV7zMrGE5zxDLgrQbN45eEm+35L4EEchLS9wIUKUHgGgAEhzwmG5XpAGgbIAcGQE5HuaY8GEofKjlJJzt4NNq0Qv1A9PfBO+ccit4NH65c0ruWPjGwn+DUZklDL1/tYpnal549QfjtzAGKNlQw7vyJYv8/7rmQ5YInLn+bPg81s1l9d8L5QZc/ZPGiZO4XApvG7tCtACcAxNDXRzbpmEmDa4ptjUP38vSVIM8hfjfxDx8DV2LpmYLgJjg0AJwqLOGBsSaqw+feoa9YtoK+PKCf4ERgWKWuskS/g3jr4evXftv7ClyT7afZ1+d9u30I6efY5/85mAApu8t/ne4BjUCXDS/aIZR52ysm5No4n/k1HOcVRp1HWVyKaRYFp+d9z6WQEfsnXRxhWlaGnBEAuSy4TIDtR5Vo5U2w0ssZZwpAOjqpC0OO4Ach9kA9D5Az57fAXXBpt6fbJ8VBZPhB1WfNrQBtLKMh0ijsKh0Nk5Mn4R3T7nNkv3vP59Yz2r937+ftV2N8DyzFoDaIMNL2gr59Nz3Ablixkvjc8rhs3PfD5+f/yEoSs+Lt5pB76NtJiueL06Xwok5ow3hkmIeCKlBgMMAkDjleHeb7TEqNR2pAbBuw9AscnGU0z1wQZXHJYcUmY4+6bSaoHjnTiJaof3l5NPwoelvZmeb/PRJG3DrmOWGkd2GCy/B/qZjw2I0JmuEMfGvGnktlGeVsvPVWyFtf2y5yG/811t/7+eDJ5+CFRhNz2vBtsiS0jmwGIWkPY1H4bmaFw1tRlPP0MHKCvy5ML94hsHT7MLJbJb+vf3t/aRni/puBZFQQeGWubaDJqAgRFoV4veJs1sssQmxAgen1lmcns/COse72ywjTtUAOFMAiKC0pUh3wRULoMifD+e6nOcq+iS+8NaMrkpoJTnUHxHFtF+JkzkdtC9Oanfaw23EpDnBSDfQdco3T1sG43JGAk1QKuhnhx4Cctezmqivj5/ZCLTfbAWRpoS2BeggovbOdFwwVt69qZ8DvnTc6y7ArH4j2SbN4fryt9PPA1fiqYHa2ogCJWeQJHJ9fPeU2+Htk14H+5uPIYYXoaWnzXhmB2qf+xx5ozQEm2EvCskUN8HNVJLOo21RqQGIeqKO9AJwpACQ6Q1f6Na9Sv4GuKTIInzBOlEAiOAk+JMDD8BXr/2YZavB3oEkF7PJuWOMo/dcMj43X3wFXmng9f0fqh+/P/a4ETHRCjV7/3ZJa2Kl5qR/ewP9pnwT644/OdAltnOk8Vg78Ub2Z5ae0TmFU42DjdkYKiKh9KX6A/BbfGZOYkApN1KRn0cA6Onh8eIyg7EvFHLe6g47pmgdbQZC82Wqq6vbsDRPpJphmuV6iEpQA+BUOtB8Ap46t92p7MfENyVC+sXhh2O6J9HCtBL/BWocUoV+evDPlqvRSbvwskIhTtXYkQcNZbj87qJ74I1o/OpG4tAAUACgUEiVAKA1r1q1KujEsXCkAEBAq/K77GaSIouY1FrJesh+fugvrG6ByerHcO3+34F1hqp1uHLc10nr8NS5bdzV2q4+2lLaWrtbCV8PHF+vpJ1kNEKCwLvQ+PUtE29KRvOWtslhAxBSGAUQ4086Uv1Pg+hYAQADPNZY+hRerjzUw2O4x/FQq+jvYG2QAeM3d/8Kuh1myDhYfwY6/xjuxdPecbLopwcfhBMuVesSpqfba+DnCrUrB5qPu1IL0Pf5vGvSGlaXz751J+t7MXqxJEpc720zfOBiVAQAM0AxlznJXN+A1ZEkGWWIJ82h1hqQQYUn6QX+owN/stQ1TmF3rmqKJotfHf7rVedU/yBDr2+hkOVGIy+Kevj1Xb9QLkDeh0IVJQhyK5GR53sx4ZYVwbWSgVkaegdxpALm0tyawQAXoyfMlLNjGcdqABBMJaDTXlKYYS+pJL3QjuMfM0/kt/6zg3+J+T4730Cpfv/7lZ/ZYqIg97UvvfQTwwPCzpjFwhtpjb6K+FLfVBO1+eAJa9wNVfdlsPbIe2NGEjJCDsZPIufJEJYSXCVK6vb/cTta05TMRYliMtD9jhUAMB+AMtA5pEmKbJXpzRhoDBx3jlTlD53kjxKYDCDqgo3wxZf+jy37IUcfjmAkO9puIbdIpxP14Ru7fgkH0ZA0WbTuxJOwjzHFdbL6MVS7lcUzh7rsmGslXB4A3aoMAAHDxatZjFoxiI4VALSIV9kbJcRkCOimaGK/PvII3H/kb1Y8k8rqpGA///Hi/0IDxhywG5Gr15de/jH0+urbjT8z/JDdCK38X2o4YKa4ZWXIde47e35jxJawrJEkV1zGFFo7yd3AiJOJ7/9TH7oZtLZmsfCAusWoWZ7MlnOsAIC7esoEgG4uQ0AHuwIO9EBRlMCfoEuXqpzbA/EQ77kjLadx8v+BJaFo4+Wp/327G4/Af+38IbRixjynUXuoE76w80dJn/x7caPAUl986cfQEe7qPeWqTwqW5QYqyyhi6Uaop5ulHjOVhD0RZXORGX5iKeNYAcAf7TyDHVVi3dMT4vIE4Hm4Yxlgq8v+/cwm+Mor97GmtrWaZ4pp8J87/tcRPB9tPQOfeuF/4Bh+OoVoC+Oe7d8ByihpJzqFRqxfefmnlscgSEafmzEqoRtoVCDx8N5GDICwsu2z7i1Ll4oXgOqHDwMvhNEA9qyKdrmCAY0MuE8AIPx31u+Hu7d9C2P5H1cxHHG3QVb2/2//H+GH+/8A9N0pdKGr3hACSOOi4z87E/n5f/bF78PFrgZbsklBrf4DhT+KRugmOtl23hXd4RAA6H2tUCt56l5Nsz5muEWj61gNgIGHrmYbgEsA4Hi4LXoOEq6W4pSTuvpXhx+xpQU7RYX7t63fgPUODbZDyXPI5uLLL/0USCCwG1HkPVKx/wgDKdndeJFC6H7qhe/ZTkMR75iSULi9Tk1wpXh5NHNfusePuT5yzBQdsky3QvW/Ds71ACAQHS0AqAI/jLEAImjqmSiRAEB+u24lyhvw8Kln4CNbvgYU2c4OVI+CCVmh0+RkZfIZVX0lg7qPbfkG/PHYP2yhxSBNyh+O/d0QrpwUepcyBpIBKGlV6Ll1MlHWSjc825S9keP9GAzybNmaeSY03bkGgNQ/RyYD6h0YTaH1ZXewGzIzA71Nx/VJroD5aTnQFHKX+rE/GKQNoIA2D2Au+jvGr4LlIxYoD1RC7n2PnHreSN/qJHV/fywH+k39+ePxf8Dfz26Cm8dUw+1jVxoZEwcqa9U5svCn0MU0gZKBnROpV6tCqagp5bUTfekpaBR55LiByjPKWLoRxHe1KsINOccaABJGjhYAdF07qWlq9kSD3cGEBQACfFRmKTS1uFsAoH4SUWrf/9n7O2OSuHl0NSwbMR8orapVRPt++zBVKxn5UUhfesG7mVrQO4A0AY+d3gg3YcpmSqlsdaY/cp18rmaHIVi5JWIhbQmQR8iCkplw54QbYFreeEc8NpQum+JF1HY1OoLf4ZgcyeTKSO9qVYTzjwgAqsDu346mR49jGKb+py35zaVWGpVRAvtajlrCo10rpUh75C7488MPwQIMWLK0bB7Mxvz0Bf7chFmmSf5wyynYUbcfNlzYaWu3voQ7O0gFNBE/cGK9cUzNG2cIWvOKpsGYrBGD3BHb6TMdFzA98iEDX3KfdCPRPvqOun3GQQLAypGVlgusieBIgti3d//aELITqcdO93LZSHV3q9sC0D36STthGCsvjtYA+D2RAz2KlBjd3TxqJdIApCqRcdj22j3GQRjQBDWrcDKMw1CmtP9XjtgUDZEIhNTO5zpqMaRsrfFJbmYUw5/OC11CgIQhOohIwCJBa0JOuaEZGJ1VBmWBQvBq3kuF+/1PwtRFXE3S5EI4H287C3sbj0JTT2porHrhoOeKjp9hBsxJuWNgDmI4JXccEH4jMosGxa/3fqs+yVZhX9MxFMR2wLPnX3S87UJ/nEYGSvqfivk3GWxHGey1TDas653ph02WtWUxNctnC7v+9Mat5IPJs3k0BJ/+tDSYMX3KECXMXTradhq+duBn5gqnaKksXwAyfOmQjolB6KXXGQ4angVuTuqicqgzvH4IYFjqDJ/faDYY7oGuCGEsgtRw4+DFNLwBDLpjPKOIo8+jZg1Ffv7N3W2u3dby49/6jxZ8juLqDzcEQ15va2uH4yeVaalOX79sybghGbL5RTVPr5UgaPo+0DXLBYAeDC1JkqXHk5jjRCprAMw+BhStza0R28xiYGU5muiNyV7m+5hhJoGUohzSIcSHwChc/Sc6+RM3QSZNrZmeoaiy30w5O5dJbDazQ8+imrJB4LAupYRA+WmJ733bAXrhQRAQBAQBDgTGZ5VzVANctlpmmEHz831mytm5jOMFAJQaD6gCmEu6HJ3CdgCqxkraEQQEAecgMC5rFAuzXLZaZphBN3Rli08z/MRTxvECAOhRZVIYhwaABmlc1sh4xkruEQQEAUHAlQiMy+QRAIJBlS6AHhEAkv00ahG/OgGAaX9pHJO6K9nYS/uCgCAgCCSKgM/jhXKGJEDk/scRsdVkf/Rwl0+Z9tkkTzEXc7wGYNWqSgqMXhdzz+O4gaIBchDXfhcHL1KHICAICALJRKA8UIbeFAO7psbCV1eXwtU/wNkbbqh0ZgjMPqA6XgC43BclqhjyBAhHEo8uV+TPgzwMCSwkCAgCgkCqIzCeaf+/s6tLGZRRUGd8bmWn3CEAaOrcMbo6eR6ysWIHYOVzLXULAoKAQxDg0oh2KRQAPIDu5y4gdwgACq0xO5nUTBPFDsAFfz7SBUFAEEgUAS4DwC6mLVoz/YlqzvcAoH66QwCIeJVsARBgXPtMXG4vxJOQICAICAJOROCSAWBJwqz39KABIMP2rFlGtAg43gCQ+uoKASCUFqHk80rSAnZ2dZp9RoYsx7XvNWQjclEQEAQEARsjcMkAMPGAtFyaWZNQRdO90T0my9q6mCsEgJuqqhoxLONJFUiHQmEI45EokREgRza8RPmQ+wUBQUAQSBYCU7N5QumrFQD0A9XV1W3JwoyzXVcIAASIDtoOTmCGqqszyGMIyGX8MhSvck0QEAQEAbsiMDmHRwDoYtLMmsFJB89OM+WcUMY1AgCKAMoGhcsOYELWaCc8I8KjICAICAKWIDAlewxLvV1dPDFazDCDHgDK5hoz/CRSxjUCgKbr6jQATK6AU3PHJjJ2cq8gIAgIAo5FoDSjEPL8icdDMSIAKjQA1KPq5hqrB9c1AkCk208CgBJDwA4mV8AJmaOB8mALCQKCgCCQaghMYdr/7+jsUAldJBzM2qWyQSvbco0AcDks41ErweqtOxIOA0UFTJTIBWaCxANIFEa5XxAQBByIwJQcHg1oR4e6EMAI8741a+YqlTisHFrXCACXQVK2N9PJtA0wLXe8leMrdQsCgoAgYEsEnKgBUGlsrmLQ3CUAaJoyAaCjgycewJSc8SrGWdoQBAQBQcA2CGSnZUFZoChhfsKojSUbAFWEE6ayOUZFn1wlAEQVGgJ2dPBogSajFSxHJiwVD4u0IQgIAoIABwLTsseChv8SpY4OHpdss3zoelSZsblZnhIp5yoBIKBFSDqLJgKI2XuDGHeaIzMgGQFyxcI2y7uUEwQEAUEgmQhw+f93dPJoYk1iEQr4wBURAHv76yoB4HJ0psO9nbPyk9wNOpkePtkGsHKkpG5BQBCwGwIz8iaxsNTOpIk1xYwGe6uqqtSqHEwxFn8hVwkABIOmw/b44YjtzvZ2HulzGlM0rNi4l9KCgCAgCKhHIDctG0YHShNuOBrVgTSxqkjTtRdUtaWqHdcJAFGPvlEVeFzqpykoAHg01w2FqmGQdgQBQcBBCFTkTebZ/0cNrK4rCf1yCV0tusFBMJti1X2zju5VJgBQSOBoNHGTg4A3HcZljTQ1YFJIEBAEBAEnI1CRO5GFfS5PLLPMhCI+ZXOLWZ4SLec6AWD1skWHddBrEgXGzP0kfXI9hLPzpphpUsoIAgkhkOXJgNH+EpiUPgpmZow3DvpO5+iakCBgJQJk+T8zl2v/n2cL1kx/0V/hxJoVC8+YKeukMoknYrZhbzXwbMKowHeqYI22AXJyshNuahYKAI+cey7heqQCQaAXAQ94YFx6GUz0j4QJ6SOhNK0AMjR/7+UBP4N6D1zsaYKTPTVwHI9T3RfQrUahmnVAruSkWxAox71/jvj/tP/f2aXQHk8H16n/6ZlypQCAG0MbUdBUIgAYhoBlif95UkjgbF8mtIfVSbWJcy012BEBmugXZE6FOYFJMa/qSUAgoYGOFTAP2qNdsKfrOOzsPAy1oSY7dld4chACM3H/n4Pa29tBZ9h+NcuLStsyszxxlHOlAODxRjdGo2p2NzqDaAeAWwEeLbGgFmQEODNvIrzQsJdjXKWOFESA1PgrsufB1IzRLEZWBGG2JwBLsipgcdZMOBg8DRvadsG5UH0Koitd5kCA3nEc1N7OE4jNNC8KbctM88RQUM0sycBoLFU8X1W1Gx0Cm2O5J96yJIVyPYy0DSAkCMSKQMCTDrfkLYYPFN0K0zLGsE3+ffmgvdsZGePggyW3wZsKlsesWehbl3xPTQTSMOjZNKbQ520q/f8BLpJtmRtHzZUCwL2ahtuW+hZVA9aG6igOmpXL4x7DwYvU4QwEaFL+eOmbjRW6lqAWykyPSRCYG5gM/1r6RkMgMHOPlBEECAEKe86R/jwUCiv1/8fF5Aa3jqArBQBjsDyaMpeNtjYeAYCMY0ZnMhgUuPVplX5dQcCDE/HNeYvgLYXXAWkAVFMmegxQ2zflLrRE46C6P9Ke9QjMLZjG0gjXgss0M2RT5lJyrwAQURe0gbJR9fTwZKQSd0CX/qUxdsuneWFt4Spjb54joUq8rFHbVdmz4G2Fq9Ga2BtvNXJfiiAwL386S0/bFO//a5pHNAAsI6ewkobiPMrapMykvq2Nxyhldj6PlaxCqKUphQikaT54V+Eaw39fYbNDNkV2B+8qvhGINyFBYCAExmSOgJL0goEuxXyOy+bKVMMatNTXnHKtZbZrNQBrKyp60C5fmR1AK9M2wCRMk0mRAYUEgf4I0Ir7zQUrYHz6iP6Xkv57PMYauAu3BGhrQkgQ6I/ANQU8q3+KvhoOh/tXb93vKDy/du3aiHUNJLdm1woABKuuaU+ogre9g8cv1Yvq3Tn5PHtlqvou7ahB4La8Klsb3k1NH214I6hBQ1pxEgLz8mewsKta/Y9M/4OFcZtW4moBIBqJKhMAKDJVRydPZKoFhTNt+rgIW8lCoCJjAlRm2V8wXJg1wwhAlCycpF37IVDkz4OxWTxaq9a2NrUd9EafVNug2tZcLQDcsKJqDyokz6iClGsbgAwB09FnVkgQIATyvdlwR361Y8AgTUWuN8sx/Aqj1iIwr2AGi6cIqf47mRZZpnqsw9Hrly49ZqqsQwu5WgCgMcEo5k+pGhsuQ0DylZ3FFDJTVd+lHesQuDl3kaMEQhJeyT1QSBAgBLj2/1ta25Sm/9U0XZkGOVlPivsFAA2UDWKwOwg9GKSCg+YXVHBUI3U4HIHJ6eUwIzDOcb2YFZgAEzEBkVBqI5DpzYCpOTzPb2srT7wVsyOigzobMrM8cZdzvQCQrodpD0eZFWdrayvLGFHQDJ9HfKtZwHRwJStzrnEs99flzHcs78I4DwJzCqYCGTYnSmRjpdgAsMcTDj6bKN92v9/1AsCyZcsohRnFBFBCLS08AgC5As7InaiEZ2nEngiM94+Asf5SezJngqux/ktZBU0UlSIuRWBh4WyWnrW1k/o/ylKXyUo2r1q1Sq3KwSRjnMVcLwBcBkuZKwd5AnD5qc4vEG8AzofdaXVdm8XjO53MflcGnN+HZOLn5LazfAGoyJ3E0oWWFuVzsbKtYxaA4qwkJQQA3aPOHVDH1MBkrMJB16D1rBfTBAulHgLpWpole/8hPQyHu8/Ck60vwp+bnjcO+n44eAboGjfNRPsF8WjhRtUZ9S3ABYzPk3h0SHqnkgZAJXkUzhkq+9W/rcRHp3+NNvzdeO7cC0UjxzQia4Uq2GtFAaCoMPGwlzm+TMygNRYOtZ1Uwba0YSMEpmWMZY2vr6M/zPaOA/Bc2yvQGQ2+pqebYI+R4pdsDhai5oErxwCFB56aPgb2dB1/TZtywt0ILCyaw9LBS1pVZWZcxPPFlVVVu1iYt3klKbG8vBTKUXta1VhQrOpIhGe/amERzx6aqr5LOzwIcFrQd0dD8NvG9fB4y7YBJ/9ejjtQMHisZSv8rmE90D1cNDF9FFdVUo9DEMhLy4FpbNb/alf/6Dz+JKbWRg9y91NKCAA0jBpEH1U1nFFUWXFFrLq2cJZ4A6gaOBu1M4HJhS6KK/8/NT0DR4JnTfeOtgjoHrqXgybYMHcBR7+kjsERuLaoAjxM25ctTJ5Vg3P7mit/e80Zl55IHQEg3P0IjiFPzl4TDwOXNwAZ0szOm2qiRSniFgRo/7/Am8PSnY3tu+Fo97mY66J7NrXtifm+gW6gvogdwEDIuPfcokIm9X9HJ6Za59NGmUC8O12LKjMaN8GPpUVSRgBAl45mDAu8wVI0+1TehtkByXeVg5YUz+WoRupwCALFaXksnNJe/yYUAOKljR27oCvaHe/tV+4je4JiL0+frlQqX2yLQJE/HyZkl7Pw18zkVh0DM09WV1er3nOIgT3eoikjAFyCTXuIF77Ba6NtAC7L1bl50yAbDQKFUgOBQm8uS0cPBk8ntJdPdgAHgqdYeMln0miwMCOVWIrA4uI5LEakZP2vXgBQN0dYOggmK08pASCshR9GXHiW5SYAbmnhESQpIqBkCDQBuEuKcKnLj3WfTxiR4901CddBFVBgK6HUQIDLcLkd1f9cMVVMIh/xhH0ps/9PmKSUAHBjdTW9EV8w+TAkXIyMV6JRHm+AJUXzEuZHKnAGAungZ2G0JZJ48JSWaOJ1UGf86A4o5H4EJmSVw+hAGUtHm5tbWOoxXYmmP79qVWW96fIuKJhSAsDl8VK3DYA2AFxBgSbnjIHi9MRjC7jgmXV9F3xM1tNBPXHjqa4oj91sGiQeD971A++CDlaXzGfpheFJxRRQLQaGlM0NMfBkadGUEwA8Xv1BSxHtVzmXFEuGVGIM2A9cl/5EH2TX9cyNfXLdICXYoTT0XmFT/6MRdTiiNPiPHo74/pogBI67PeUEgFVVVUfRDGCfqpGiDFZhphTBVbgNwBWhTVX/pR1BQBBIDQQq0fef0v9yENfCKQZeXlyzYuGZGMq7omjKCQCXRk2dpSdZsja28OxllWYUwiTcChASBAQBQcBuCCwvuYaFJXKfbmnjMaA2zZCmbk4wzZOCgqkpAOigdK+nqYlHAKDnYXnJAgWPhTQhCAgCgoB5BGhxMiVnvPkbhijZahhPK3PWMjjB5D/kIZZylJICwHXLFr+MuvSTqkY7GAxCFx4ctLBoFlB0QCFBQBAQBOyCQHXxArbtycamZtXd2o9bwwdVN2qH9lJSADASPWCIdJUDwLWnRYY2ZAsgJAgIAoKAHRCglOVLS+aysEJhfymZmmL6g+L2bNNcSgoAhL6ua/erHIWmplZsk0ettaK0kk3aVomBtCUICALuQ6Aifwrkp/FEr2xqblYXqe3yUESimtLFoJ2egJQVAFYvX7wfByL+QOkxjmIoHIIOjGzFQSMDJTCVKdUmBz9ShyAgCKQuAitLKlk6T8ujxkbl6v8tN65YfISlAw6sJGUFABorXJD/TuWYcRoDriy9ViXr0pYgIAgIAq9BgIKTzWHKVtqOvv89ocSDV72GySFOoFu10jlgCFaScimlBQDNp9PgK4s20YSZrSJMwS3mF8yEnLSspDw00qggIAgIAoTAdWWLgCvIUxKM/8IhT+TPqTySKS0AXF9VdQ5jrm1U9QDoehSamOJbU4Kg6mIev1tV/Zd2BAFBwD0I+D1pbO8givrXghoAxfSPNUuX1ipu01bNpbQAQCOhehugobGJ7QGgbQAu6ZuNKalIEBAEUgIBCk3O5ZJMCyOdKXGaWfDREDyl1f+EU8oLAN1+bR3i0GX2oUm0XDDYDe2dPMaAtP82K3dyoizJ/YKAICAIxIwAqf+5qIlxYWSSp45IVyClUv8OhEvKCwC3LF7cisD8fSBwrDrX2MCnBVg9YolVbEq9goAgIAgMiMA0jPrHlfa3s6sLA6V1D9iOVSd10B5cs2au8oADVvUn3npTXgAg4DD5mlJVUDOmuYyEw/GO2VX3zcqbDKMzR1x1Tn4IAoKAIGAlAtePWMxWfQPjgsgsUxi7SOk73yxfqsuJAICI1xfkPoofjarAp72uRiZjQOL5BsY/RlUYSDuCgCDgTASK/HkwL386C/PhcATIO0ox1Xp6up5R3KYtm/PZkivFTK2tqOh5esPWdRhe78OqmiZjwJLiIpbmFhfOgb+cfRpaehRn0GLhXirpRcCLMdDyvDoUeVohXbvQezruzzFpQcjSEtM0FfqCLLxQnwq9UWiJaOh3i743Qo5FYGXZQqDwvxxErn+qjf/w6fvtqlWrEvvD4Oi8DeoQAeDyIGia58c6RJUJAN3dPUbM6+zsxH35fR4fXFe6CB46+5QNHilhIVYEJvpDcFN2EOZl9ECmRvHQXrh8xFrT1eXvLrj6d3y/KDLb/fHd2ueuN2QD0NGpa/BK0A9PtAXgWEheP30gcsTXDK8fVnBF/kMXrIZGZYrXK/hGde3nV36k+BceMc4FIF63bNEu7MZOlV3hdAlchS6B6eiXK+QcBPw42X+woA2+WNICVYHuy5O/c/iPh1MScKiv95Y2wwfy28EvyoB4YEzaPStLF7K5/rW2YuQ/TP6jlDRtw+Uw8EqbtWtjIgD0GRld0+/r89Pyry1oDBgO8WiiyB93aYkEBrJ80JgaSMeJ7z+KW2F5ZndKKsRp3l+RFYTPFLegEMCTJItpaKSaQRCg4GOrGe2N6hsaBmnJutMYi03pO966nvDULAJAHxy9oW6yDFW2kU7ZAesZVWBrRiwFD9PeXB9Y5KsFCPxTfhtMRtV/qtNUxOD9+SnvjeWIx4DSkBcwZf0LdmM8FKbkaObB05q7Mn1/MV/e/SVFAOgzxmgY0o7LMaWpIevRBSbKFAGLAgPNzZ/Wp0fy1Y4ITE8PwRJc+QtdQmBpZhAqEBMh+yJAEUdvHFHFxmBdvfrVP9rY/uq2ykqeKGxsSCS3IhEA+uMfVbsNQMmBOJNgkBZAyN4I3JYj76D+I3RztrJgnP2blt8mEJiPbn+UhpyD6J3XzOgGbZYnzeP5mdmyqVJOBIB+I3398qoXUAvwcr/Tlv6sq2/EnAQ8+6BTcsYCRekSsicCGR4dKvw8dh/27GF8XFWk96C7Ic/fQHwcyF1DIXDzyOVDXY7pWgO6/kWjysd683XVC/fFxGgKFBYBYIBBxslYqZtIT08PtLbxmR7cVr5qgF7JKTsgMNIXAZ9MdK8ZijS0CiRshOyHwIzciTAhu5yFMVroNOCCRzWh9+l9qtt0QnsiAAwwSnrQ/1s8rdQyibQAXDQjdwJMyRnHVZ3Uw4hAnifKWJu7qsrHQEFC9kPg5pHL2JhqbmmBnpBiew8NWroy0h5g64SLKhIBYIDBvOGGyhY8TVkClVEHWsR2dvLtg942aqUy3qUh8wh4zRdNuZKCjf2GnFb+FXmT2BirreVb6MTA1P1i/DcwWiIADIwLutNpPx3kkmWnOS1j6Y92SrZoASwbLKlYEEgBBF5ffh1bL2mbM9gdZKvPbEV6VBPjv0HAEgFgEGBWVS/ehpe2D3LZktMUGIjsAbjodaP4DHe4eJJ6BAFBwBkITEaD4tl5U9iYra1LgusfwLMY+W83WydcVpEIAEMOqP79IS8zXzQCAzHaAszOn8JmvMPcValOEBAEbI7AHYyr//bOTqBtTtWE4Qv+R3WbTmpPBIAhRssT7n4AjZPPDFGE/RK5yITRT5aLbh+5kqsqqUcQEARSBIGp6EpM1v9cVFebhNW/Dkc3LF1Mqd6FBkFABIBBgKHTlDJS17QfDVGE/RJFBaxnjJI1p2AaTMjiceFh76xUKAgIArZE4I7R17HxFQx2Qxujm3MMjP3gXk0T15IhABMBYAhw6JJfD/0EP5S6BNbjNgBFy+KiW8tXcFUl9QgCgoDLEaCVP2cwMdr7Vx72B6C126/92uVDlXD3RAAYBsJly5Y14dP7m2GKsV6OkBaggc9dZh6G8SSDHiFBQBAQBIZDgNPyn3z+yfc/CXTfLYsXtyahXUc1KQKAieHSNc/3sJhSVRK5BHJqAdaOWYMRjtGiQUgQEAT+f3vXAV5HdaXPvKJeLclqlmUbGzAlQBC2uqNmg8GhuFBNT0hCCNllE7JJNnH4slmSTVvIQnaTLAQ2WcImbBoOBBtnLbkATiEsKRRbVu+9vjZ7zpMFtizLb967d+7Me+d+n7733sy9p/x3NHPm3lMYgVMgQF7/lE5cVOvu6RWW5tyATH4dXKZu3RqQzVJd2QAIYTrqq9a+gd2eD6GrsC5+fwBEZgc8I6UIaCWAGyPACDAC8yFALwhXLamb71RYx6Y9XhgcVPH2r/9PfdUlh8MSOsYGsQEQ6oQ7NNPDSWgbQOQqwJaiBnBqPOWhTjn3YwRiCYE1WefDsuQCYSr39PSpePuHgOYwNXxbGGAKCPHTIETQ6ypKf41dTU0oQQ//vv7BECU8fbe8xGyoyL7o9B25ByPACMQUAi6HE64W6PlPCc0Gh4ZUYPi7hsrSJhWM7ciTDQAjs6bDt4x0F9GXQgIpNFBUu3JJDcQ53KLIMR1GgBGIAgTqc8sgJ36RME26utW8/eu6Rv5a3EJEgA2AEIGibtNjg0/gR4eBIRF3paRAIlcBMtxp0JBXGrFcTIARYASiA4FkVyJsFFjxb3rao8rzv2UgK9XUIm52vwLYADAwgxs3bpzWQfu6gSFCuvYIXgW4FP/ZU1xJQmRjIowAI2BvBDYVvg/ICBDVutR4/gOGaz+47dxzxRVTEQWIhemwAWBwcvwTid/GIb0Gh0XU3e/zgchCGknOBNjIhYIimhMezAhEAwLZ8ZlQk3OJMFUo69/wkArPf+hKdOmPC1MkRgixAWBwojdsuICyAj5kcFjE3SkvgA8NAVGtbvEaoXt+ouRiOowAI2AeAluK1oPL4RLGMBj3L4xa6IQw0+A/l5eXT4Y+gnsSAmwAhHEdBKbcDwNoprq4kiNgd29fGNLOP4T+6a8rvnT+k3w0ahHQMcP0aLsful/1QvtBT/CPvo92+IHOcYsdBCg3SMmic4QpPElv/8MKku/p0O/0Tf27MEViiBAbAGFMdkNDybCm6aZnmhrAkEAKrxHVKDGQyHrfouRiOuIR0PEVaeANH7z57FTwoT/4li9oCJAxQN/bD3jgrZ2T0I99qC+36EaAkv5cu/RSodlBOzu7VOT8J55fx8JtY9E9Y3K0YwMgTFwDbgc5A5p60QXwztzZ3ROmxPMPu6H4cqFLgPNz4aMqEQh4dWht9EDPa16g76dqfrQte7FPW9P0gv1ONZ6P2weB8uwLgVYARLWR0TEYHTO1ZtqM6BoMO/1Tpr+MicJNNR02AMKcgfq1a7HElfbdMIeHPWxoaAQmJsRtdS1OWAT1uRwWGPaEWHwgvc234dv9RG/o6/vjPQFo3ecBXVz6CYujFFviJTrjYfOSemFKk0nZJfjFJGThdHgY3/5N3Y4NWTYbdGQDIIJJcoPrKzh8KgISYQ3t6BK7CrCp4H1A+QG4RR8C/X/24sPf+JN8sj8A/X8V53QafcjaV6OrMd9/elyqMAUGBwdhctL02yDJP+7WvaY7ZAsDzgKE2ACIYBKqq0s6cS/N9JrT4+PjMIpLbqJagjMOthSJeyMQJRfTiQwB/zQE9/TDpdL/hhf8mPmCW/QgUJiYC+/DCCBRTcdlou5uU6Oijxf929XV1cqYHy+IXb+zARDhzHkD2peRhOmvSp1d3UIdbkqzL4AzU5dFiAYPtxICox3o0Bf6yv9Jout4VY9hdAC36ECAHP9uWrZRaEGwnt4B8HhNv/3RhEy5dffXomNm1GnBBkCE2G9Yt/YIkngsQjKGh1PIzZDAUpt0c7i++DJwcLVAw3Nh1QHhLP3P1WU8jO2DuTT4tzUQmDHylwsThvKS9AoMTTYkmAaP0gqsoTHc+SQE2AA4CRLjB/yafweOEueZF6IIXd3dWChI3BLt0qR8qM65OETu3M3qCHjHI782vBOR07A6TrEgHzn+bcVy4CIbpfz1CyxUZkC2MZ8WeNBAf+56CgTYADgFMEYOr6+s7NAAHjUyRkRfWnrr6RW7BUaZwTLZIVDE9CinISKeXwQN5UCwAHAllvpNd4tz/JuenoaBAWXO91/bUFEh1hM6Rq8RNgAETbzmc/8TkjI9DVZPH+7BCUwORG8K1xVvFIQKk1GJgCsRzdIIm1sAjQhF4OERIrAkKQ9qF6+NkMqJwzs60QdJhXWIWf+m3eYXZDtR++j5xQaAoLmsqSmhPL2mVwrUcQmuvaNbkBYzZCg96EWZq4XSZGLmI5CUFfm/d6IAGuZrzhxnEXCiT8/ty68S6vg3MjIKlPhHRdM17Z82lpaa/qKlQlczeEZ+hzBDSpvwcPimyCvV9KWpkdFRoWGBBPf24iuAqgZysy8CqYVO0CJYBKCxqQVO+wLAksP6vHIoTi4QhgSF/XVgyl9FrWMy0WX6VqsiXU1hywaAQJgpHzW6TFFYoOmtrQPzcAt0yKFEIZsFOw2ZDkqMM3Qna5C2LPwHeDqOJRrc7IlAbkIW7v3XCBWeypJPe7xCaYZKDCOVvrCppGQi1P7c7/QIsAFweowM9cCqVI/gLbPV0CABnckPoLd/QACld0msyymBVanF7x7gb7ZDYPF5ceBOMf4Qpwd/zrlu2+nLAs8gQGG925dtArcmbg49Xi/09IirSGpwrt5MS3Q9ZnAMdz8NAmwAnAYgo6dxFWAKfWMeMDpORP9u/Of0+sRZ5xquAd+G+4duh7ibiAg9mUboCGCSRygqjzf0Jk8P/6KKeHDGGzccQpeMe8pEoHrxxbA6bYVQFu3tXUAFydQ0/fMlJSXibm5qlLAcVzYAJExJf1crWap/kUB6QZIB3ALo7BTrgkDLiJfnVy3Il09aG4G4VA2W1SRAWtHptwOoz7KaeKAx3OyJAG3fUTivyEaV/sjXSEnT4LXGyrIfKeEd5UzZAJAwwdu2bfPjy/PnJZA+LcnBoWGgWgEi28aCaijCUCJu9kUAozuhYE0cLK9PgKyzXEDe/e4kLfhH37POduO5+GAffvO37zyT5KIdeOmtv71DXdI9LeD4+x2aZryilb2n0RTp2QCQBHNtZdnTAHqjJPILkqWwQJExuhRKdMvyK4WGEi2oAJ+UhkB8Ou7tn+eG4vfFwxmXJQT/6HvOuS6IT+fbgTTgTSJ8yaLzhIfw9pLj37THJA3msNH0F2ur1z475yj/FIQA/8cLAnJeMrr2cTxuuuU6OTWFGQL75xUp3IPLkwvhioJ14Q7ncYwAIyAZAcr0d1Px5UK5eNDjvwdT/ipq/oAf6B7KTRICbABIApbI1lWX/U7T4UmJLE5JuhuLdExhwSCR7XI0AFakLBFJkmkxAoyAIARuXfZ+SHEnC6I2Q6YNl/5VOf6hu+G/Nawrf02oQkzsBATYADgBDvE/AnHa/UjVdO8ZygnQ1t4ptGTwTFaxqyGOowLEXyhMkRGIAIH3Lb4E3pN5VgQUTh46MDgkPMHYyVxOdUQbcvrcSvyoTiVRNB5nA0DyrNaXllKe3q9IZjMv+fGJCSzYMTjvuXAP5ifmwOYlYquKhSsLj2MEGAGA7PhMrPS3QSgUPp8fOrvo1qWoaYEvHEuvrkiA2GDLBoAJ84wpgr+KeTmaTWB1EotOLNrhxaqBIltd3lo4P32VSJJMixFgBMJAgFblPnjGFkighA8CG3n9kxGgpOnwVn9m+iNKeMcYUzYATJjwYHIggE+ZwOokFlSvu7Wj46TjkRygLGO3rLgSkl2JkZDhsYwAIxAhAhSie0ZKUYRUThw+OjIGQ8Pq6u1o4Pj4tnPPVRR2cCIW0f6LDQCTZrg+mMhCTVjgzD+0WDeETHca3LBUrMexSVPBbBiBqECgODkfrsgXG5kj44XBINi7OezPIGIRdGcDIALwjA7Fl/F7cYzpYYEkZ3tnJ/j9Ypf0SrPfA2uyzjMKA/dnBBiBCBGgHP8fWLEFXI7TZ3c0wkrGlqEB/mh/6H9joD93jRABNgAiBNDIcAxp+T2unj9hZIyovj70AxCdJphku3nZlZATv0iUmEyHEWAEQkBg29INQA65ItvY+AT0C3YaNiSfDo9y2J8hxCLuzAZAxBAaI+AOuD+NRsCwsVFievcPDmI+7zExxI5RScQcsx9auU34m4hQIZkYIxBFCFyceQ7U5q4RqhHF+re1i/UVMihgnx7v2GFwDHePEAE2ACIE0Ojw6uoSTKqtf9boOFH929rQu1fwVsCy5AIODRQ1QUyHEVgAgay49GBa7gW6hHWqs7NLXbpfkliHT9SvXSs2fWlYSMTWIDYAFMx3Y0XZI5jl6qAC1sFywW1t4i39hrwyuChjtQqVmCcjEBMIODUn3IWrbaKjb6jSX1+/2HwhxiZEb6ytKv2+sTHcWwQCbACIQNEgjWBlK127C4eJDdAPUY7hkVEYwqqBIhuFBt624irIissQSZZpMQKMwDEEti5dLzzkjxyD29raVWLs0XXHhzQNk6ZzMx0BNgBMh3yGYX116R9B176liD20dXSBx+sVyp7eTO5auRWrBor1TBYqJBNjBGyIAKX5rc8tFS455fr3CE4UZlDIr+C98E8Gx3B3QQiwASAIyHDIxDt8n8NxbeGMjXTMjOUvfiuAkpK8v7AmUvF4PCPACBxDYFFcGtyx/GpcY9OEYkKrgEND6hL+oDrNvomkB4UqxcQMIcAGgCG4xHaurKwc1bRgbgCxhEOkNrP3NxBi79C7XZ5fxamCQ4eLezICp0SAVtM+tPJaSHElnbJPOCcoPTitAqpsWsDx0Q0bLhhXKUOs82YDQPEVUFtZ9gx6wP5clRiU+GN6WmzZYNzPgw9gfnIqUsLtRAQCQusznkjb7r/EpqmyOxoz8m8pqhe+70+UW3HfX3RiMCOI447/jzjjnxHE5PRlA0AOroaoBhz+e3CA2AD9ECWg+N8WjArQ8VNkI3+Aj666nksHzwF1NMD+EXMgeefnSEDsEvc7hG36hbJsNuSVC5e+r28AaPVPYRvRXfp9Cvkz62MIsAFggUuhobKyRdP1B1SJMjExCV3dvcLZFyXlwS2YKZDbuwh0+x1obL37m7/NIECY9PrYOJq9HooSc+FWCfv+U1PT0NHVM8tGyacO+qfrysuVhh4oUdyCTNkAsMikaP7pb6Aor6oSp6e3D7MEii0YRLpQvYCG3DJValmO7ygaAIe9LsvJpVqgtxCT0QDfjmgeaPXs7jOvh3iHW+i06FiM5GhrGxqgSsqRzOryclNl2aOzP/hTLQL8H6cW/3e4Y8lgH5bBvAUPiI3Ne4fD6b+0YJZAr088+62Yt/ys1GWnFyBGerwwzmWU5071C2OMCWES9J/BIj8y6mu0o78PrQAobNMOR+COYB4UhUIw63cRYAPgXSyUf6utWksrAF9SJYjf54OjLeL9AZyaAz6MnsyZGM7EDWDfZDy87eFVgNlr4S2PGw5Mxc/+jOnPLUvq4fyMVcIxGBoeUVvoBzXCbZ7P1VRU/J9w5Zhg2AiwARA2dHIGOnxTX0TKv5VD/fRUx8fHobun7/QdDfZIdSfD3Suvx6JB/OCj/e5/GUiDQdwOiPU2gBj8y0Aq+0XghXBx5mrYkF8p/JLweDyY7U98zg+Dgr400NX6NYNjuLtkBPgOJBlgo+SPbQXcgeM8RseK6k/+AGQIiG7LUwqxfPAm0WRtSY8efF/ozYDmGPYHOIKrIDsQAzaEAJag098dGDorOtkP7fsfOdoGfvxU2KY1zXnHtm3bONJT4STMx5oNgPlQUXyMtgIwLO8fVYlBIYG0FUBbAqJbRfZFcHlBlWiytqTXh0bA53sy4LGhZOiKIQ/4Tq8T/mMoBR/+6UCGUKy3YMisBKc/wrW9i/b9p5RCrIP2mdrKNa8rFYKZz4sAr8fOC4v6g07/9Jf8rvhN+EZQokIacgak/ADLly0Vzv5q3OfsnR6Cl/tfE07bbgTplWg3OgXSX4HLD3n4l+7At7VoC4nHbY9h9PLv9DuBDABuMwhQpr8Pr7xOitNfcN9faZU/1FHXDgx0tXyT59uaCETbbcaaKIcp1a69B8/BIlnkD5AQJomIh+XlLobcxdkR05lLwBPwwpf//D1oHle+NzlXNP7NCJiCAC33337G1VCedaFwfrTv/8ZbhzHbn9Kl/wkdHBfVV619Q7iCTFAIArz+JgRGOUSOVclSthVAWnV392B+APFJCuMwxvljq24EKnTCjRGIRQQ2Fa6T8vCnff/mFtz3V/vwx1Us/TP88Lf2lc0GgLXnBzAq4EFMH/+KKjFx5RZaWtuB3ihEt/S4VPj4WTdDopNDwERjy/SsjcAli86TVjWzraMbJifV7vsj+vv7O9oetvYssHRsAFj8GqCoAIczcDuKqSyDBxUNaT7aCoEAmQNiW2HiYrjrjG3gwFwB3BiBWEBgVUox3LniGuEe/4Qd5fkfGBxUDeO4w6nfwl7/qqfh9Pz5rnt6jJT3CCbP0PRPqRRkEjOItbbL2a+nxCdbi9arVI95MwKmIJCbkAUfRY9/GfkwKHS3A73+VTdd0++tKS9/S7UczP/0CLABcHqMLNGjtqLsX1CQX6gUZmhoGHr7+6WIsB6rnq3Pq5BCm4kyAlZAgML97j3zJkhxJQkXx+f1QTNu1Ymu6mlUUF2Dn9RXln/P6DjurwYBNgDU4G6YK+YI19269w6spNVpeLDAAZ2dPVKSBJGI25auDxYPEiguk2IELIGAG51e71l1A9AKgOg2k+ynFcgIUNzafA79g4plYPYGEGADwABYqrtWV1f3ag7HrSiHstgeesNobkGnQAk3m2BYFJZAPT9dfC501XPH/GMXAfJvuXPFZliVWiwFhHZ0+puYnJRC2wBRyjW4/dLy8gEDY7irYgTYAFA8AUbZ11WU/hrHUOlgZc1HRYPIKZCS2gtuwcQoq66F5cmFgikzOUbAfATIqKX01yWLzpHCvK9/APrVO/2Rbg80VJX9RoqSTFQaAmwASINWHuH0RPffI/WX5HE4PWV642jF2uIyWrwjDj6Oe6UylktlyMs0GYFTIbC5qAGqci4+1emIjo9NTEAHlvhV3TCbXFN/ZysVMeNmMwTYALDZhJG4JSUlXgyzuQm/jqoUf2h4FLowUZCMloLVA/8GcwRQrgBujIAdEajLLYXLJFT3Iyw8Hi+uwrUpd/rDbD9Dmg+2c8ifHa9QADYA7DlvMBNmo92rWnwqHTwwNCRFjJz4TPibM7dzoiAp6DJRmQhQ0avriy+TwoLychw52gK0Fae64S7gh2tqyppVy8H8w0OADYDwcLPEqLqq0sdQkB+qFqatrRPGxiekiFGUlBdcCaBtAW6MgB0QuCDjLLhl+ZVSEv3MVOpswwp/yvKCvTsFGnwX05U/9e4B/mY3BNgAsNuMzZE3MOX+CO7BHZlz2NSfwZsSOgVOT4tPF0yKnJFSBPeceSO4NbepejEzRsAoAnStfmjlNnBKymzZ3tEFo2PjRsWS0f8vvvGkj8sgzDTNQ4ANAPOwlsKpoaFkGHdyrkbiSj1ita0AACCQSURBVOOAfMFlyVYsQEIFbsW31WnL4e5V12EGNS4lKx5dpigCgWXJBcHVKip0JaP19PZB/4DyNL+k2pimObds2HCBJSwRGVjHCk02AKJgpmur1r6Kzjh3qVZlenoa9ybbpIQHkm6UMnjm7YqNANVzzfxPRGB2q0pWYaugw22XHIfbEzUJ5Zf2kdrKNa+H0pP7WBsBNgCsPT8hS4f+AE/iVoDyFJyUj7y9XV6ywosyVgeTqnDxoJAvDe4oGYEl6Kfyd2ffKiXFL4k+juF+LW2Y5leyHiGR17Vv0r0mpL7cyfIIsAFg+SkKXUDNN/VRTBV8KPQRcnoODA5JCw8kiddknQe3rbgKMD2yHAWYKiMQIgL5iTlwH4arysjvTyJQuF8zhftRnj3VTdcO9Gel3q9aDOYvDgE2AMRhqZwSlg6e0rXAZhSkT7UwFB5IpUlltfKsC+Hm4k1SPK1lycx0owsBKmV9/9m3Q5o7RYpiPp8fDjdbI9wPFewGV2DrtnPPlePpKwVBJno6BNgAOB1CNjvfUFnZgkuF16PYcrzxDODR3tkFg4PooyipVS8ugZuXv59XAiThy2RPjQBlqbzvrFsgFRNWyWiUZru5hSJrLBDuB+DTdP3auvLydhm6Mk11CLABoA57aZzrq8p2IXFLpOZsbe+QGrZUjWlWP4CFVmSFXUmbJCZsWwTo4f/J1bdJy1I5G1Y7Lim3hlHg8YXi/trq8v81Oo77Wx8BNgCsP0dhSdhYWfoADvxVWIMFDpq9mU1OTgmkeiKptVnvgTtWXMNGwImw8C8JCNDD/xP48M9wp0mgDkFHv9bWdhgZHZNC3yhRXdN/VldZqrT4mFGZuX/oCLABEDpWtuq5Q9MCceC7EW8ph1UL7kcHprdxL1NWoiDSj4yAu1ddj3kCXKrVZf5RikAB7vnTm3+mpIc/wdaJiX4Gh0esguAbHpfjZnS2tUQAglVAiSY52ACIptmco0tVVdUg6NpWPCwnT+8cfgv99GPe8sPNR8HnlZe/nFKwfnTldeCWlIhlIf34XHQjUIxJfj65+nZpb/6EXndPL/RieV9LNA2G0W6/amNpqWWsEUvgEmVCsAEQZRM6V5266rLfYbTcdjyuPI6IQpqCRoCkbIGk+/kZZwYzBnLa4LlXAv8OF4FVqcXwibNvg1RXUrgkTjuuv38QQ2d7T9vPpA5+3Lq7qWFd2Z9N4sdsFCHABoAi4M1kW1tZ9gwu4+0wk+epeE1iEZMjR1qAtgVktfPTV8G9Z90I8bwSIAvimKF7XvpK+FuM85eV4Y+AHBoagfYOecmzjE6WDtp99VXlvzQ6jvvbDwHOpGK/OQtLYrTotT2NB5/UNUC/APUtOTkJViwrBodD3iX49lgrPPTGD2DMp3wHRD3gLIFhBN6beQ7cdcYWqX4lo+js14yFtCjszwoNH/7/UV9VeocVZGEZ5CPAKwDyMbYEB3Lk0fxTd+Jt5qAVBKIQpyNHjkIgIO/GR5XZPrX6DsiKS7eCyiyDjRBYk3U+1p3YKvfhj1X9jrTIq51hHG69cWBR6oeNj+MRdkVA3uuXXRGJcrn37Hk5L+Dyv4RqLrWCqmmpKbBs6RLQHPJs0QHPCHzjr09Ax6RViqlYAXmW4VQIrMMEU9spy6TEVNNj+PA/3NwKui5vK+xU+s13HB8ERzSfe01NTYnyLKLzycfH5CDABoAcXC1Ndc++fRcGAo5GFFJODlOD2qelpc4YARJvuOO+SXj4zR/Am6MtBqXj7rGEwGX5lbClaL1UlcewuA/5wQQk+sEYVGAEy/uWc4U/g6hFQXc2AKJgEsNRYdfe/VfhG85PcKy8V28DgqWnp0JxEa4ESDQCPAEvPPrWj+CPQ28YkIy7xgICVF1ye/EVQOmlZTba+qL8/hZ6+Ps13XFlbfXaZ2XqzbStiQAbANacF1Ok2rX3wKfxefuPpjALgUlmZjoUFRZINQL8uh8eP/wz2N//hxAk4i6xgEC8Iw4+vOpaoOgRmc2CD38ATb+nrrL8WzL1ZtrWRYANAOvOjSmS7Wo8+H0N9JtNYRYCk4yMdFi6RK4RgCWT4cetu+C5TtoF4RbLCKS7U+HeM28ESvQjs01MTMJhdHqVGf5qVH50v30E64bcbXQc948eBCyx/Bs9cNpPk4xEF0YGaM9bRfKhoWHp9c81LCK8tagBbl1+JdYPcFpFdZbDZARy4hfB/ZjdT/bDn+pgHMFlfys9/BHqXzh9U/eaDDmzsxgCvAJgsQlRIc4vDh1KSpz07saLoVQF//l4pqWSY2Ch1OgA4vunkcPw6JtPwYRfXrGi+fTjY2oRWJm6FO5ZdQOkSMzuRxoG3/zp4S8x+2UYSL40keiu3VRSwgkywgAvmoawARBNsxmBLnv37s3xau4mJHFmBGSEDg2GCBaTY6DchSoKD6SEQb3Tg0LlZ2LWRODizNXwgZVbQHa66DHKdWEthz+akD95nXrVpeXlFik6YM1rJFakYgMgVmY6BD13Nb6yQgPffuyaG0J3U7okJydjxsAizBgo1wigbIHfevO/MEzwqCl6MRPzEaCtn0vzK2DzkgapjqakGZXzbT7aZpk4/2Not4MjUFFXUcEXufmXnyU5sgFgyWlRJ9SeppdKAnpgD0pgiRwBhERKUhIsW74UnJKNAF/AB481/wwO9r2qbgKYsxQEqELkLcs2QVn2hVLoH090ZHQUmlvaQbdOnD96+8Mwhvutq61ayxf38ZMV49/ZAIjxC2A+9Xf/70u1+KbwKzwXN995FceSkhJxJQCNAKdcpz2KEPhZ+4vwy/a9+E1emmIVGMYqz0x3Gnz0zBtgmWRPf8J3cGgIWts68c3fUtfOlK451tdXruWwl1j9JziF3mwAnAKYWD/8YtP+G7B+0H8iDpa5RhLi42HF8mJwu13Sp+cPQ3+B7779E5j0T0vnxQzkIbA0KR/uwTC/RXFp8pgco9w/MAjt7fjwl87JEAOsM6RdW19d+mNDo7hzTCBgmZt7TKBtMyV3Nx64H0V+0Epix8W5gysB8WgMyG6dk73wr289BfTJzX4IrMk6D25bfjXEmVAWuqe3Dzq7rFdrAm/w99ZWlT1kv9ljic1AgA0AM1C2MY/djfu/iYsAlooXdrpccAZuByQmJkhHlmoIfOftH8Nrw29K58UMxCBA6aSvWVIPlNefHP9kt67uHujusWQNnS/WVZX9g2z9mb59EZD/32FfbFhyRAD3MrXdTQe+jTfSD1oJEIoKWFZcBKkpydLFov3c/2nfBTs7mtgvQDrakTFIcibAnWdshgsyzoqMUAij6bpo6+iEgYGhEHqb3EWDh+sqyz5mMldmZzME2ACw2YSpEHeHrjuqGw8+oWtwowr+p+LpwDe9oiWFkJEhf3+XZHh16K/B1QD2CzjVjKg9XpSUB3evug4ow5/sFgjocLS1DUZGRmWzCof+Y7WVpXfgSojF3BHCUYXHyERAbnC1TMmZtmkI7NC0QF9X6y14O/mRaUxDYITeTcGbcG9ffwi9I+9Cb5WfPecuyE/MiZwYUxCKQHnWhfDpcz5gysPfh1n9DjcftejDX3+ysbL0Tn74C728opYYrwBE7dSKV+zQoUPu4UnvM0j5CvHUI6OYuzgb8nIXR0YkxNG0AvD9Iz+FVwZeD3EEd5OFAGXz2778CqjIvkgWixPoejweePtIC9CnBdszDt/UtTU1NT4LysYiWRABNgAsOClWFunp11+PyxoY+SnKeJnV5MxIT4OlRVRJ0JyFrQN9f4Anmn8BnoDXalDEhDyLExbBR1ZeB7T0b0abmJzE1L6t4PNZ7/mKN/LnpkYHr9q4cSPHrZpxMUQJDzYAomQizVSDigclTXp3Is91ZvINhVcyZQ3E+gEujBQwo7VjHYF/e+tpoE9u5iFA2zF3rLgGkl2JpjAdHRvH1L6tELBSdr93NX8B3/zfj2/+XNHqXUz4WwgIsAEQAkjc5WQEnn/+1WR30sRz6GVUefJZtUfi4uKC9QPMyBVAmk75PfB9TCH8cv9rahWPAe5UvnlzUR2sz6swJcSPICUvf/L2t1h2v9nZ3uebSNqwYcMF47MH+JMRCBUBNgBCRYr7nYTACy8cSnckeHfjiYtPOqn4AKUMXra0CFJSkkyTZG/vb+GHzTvBq/OWgAzQacn/gyu2wvKUQhnkT6JJLvSU3KcXk/xYsaF8BxM0//rKykpLhiJYETOW6UQE2AA4EQ/+ZRCBPXsOZQfc3hcxQP58g0Old6eEMIWFeZCVmSmd1yyDtslu+DZuCXD2wFlExHySk98NxZdDgtOc8hR+XOqnML/RkTExCoimosMrgWl3Q0NDybBo0kwvdhBgAyB25lqapo2NjZkecD2HDNZIYxIB4ZysRZBfkGdCTrgZIWkF4Cctu2BX90FOHBTBvNHQRGc83FS8CUqz3xMhpdCHezxedPZrgalpi/rT4cPf69IvvbS8fCB0rbgnI3AyAmwAnIwJHwkDgeB2QLzvV6DpZWEMlz4kPS0VIwQKgTIImtVeG3oTywv/FIY9vEIbDuarUovhA5jVLysuI5zhYY0ZG5+Ao+jsR7H+1mx6Y7wWuJyX/a05O3aTig0Au82YheUlx0BX8vjPQddqrSgmOQUuxwgBs5wDCYMJ/xT8Z/Mv4aX+P1oREkvK5MQwzssL1sEm/HOYFNJJQJCzXzs6+1GCKSs2vFn/RvNNbUJvf4vuS1gRNZZpIQTYAFgIHT5nGIFjIYKUJ6DB8GATBpBzIK0EpKWmmMDtXRb7+n4P/3V0J5cXfheSeb9lx2fCB8/YAmekFM17XsZB8u7v6OyGvn4Lr6jrsNPhn9rMoX4yroDYpckGQOzOvTTNd+7cGR+XlvEjTdeulMYkQsKLc7IgLy/XNL8AErffMwTfe/sZ+Otoc4TSR99wqtpXtfhiuLboUtMc/QhFPy71H21BZz+M87dw+8X06OBWTvJj4RmyqWhsANh04qwu9rGMgf+Fcl5jVVlV+AXQ2+bzXfvgp+17wMsZBIOXBr31377iajgrdZmpl8rk1HQwuY9F0/rOYvEUJvnZzul9Z+HgT5EIsAEgEk2mdQICTz/9tDMrf8ljANr2E05Y6Ed8fFwwX0BCQrypUvVOD8DjR34Gfxk5YipfKzGbfeu/bumlEO8wJ7xvVv/BwWFoa++w7H4/yYnFt35ARbi2bdtmVY/EWTj506YIsAFg04mzi9gzRkDRd1De26wqM0UGUA2B9LQ0U0XUMUiwsee38KPW54LZBE1lrphZDr7137r8Kjg7bbmpkugY3x9M7mPl/X5EBI2jf9tbufYjVInTVICYWUwhwAZATE23GmV36LqjsungN/Bi+5gaCU7Plf4RFmNFwdzFOVhMyNx/i37PMDzZ/HOgsMFob4RtXe5a2LykAeIcblPVpfj+5pZWmJy0dsp8hOhLNRWln+WSvqZeHjHJzNw7XUxCzErPIrCr8eC9Guhfx9/mBePPMg/xk4oJFS9dAm63OcWEjheLqgs+1fIcjPkmjj8cNd9zE7LgNnzrp/h+s9vI6Ci0tHYEnf7M5m2AH3qIaJ+oryr9moEx3JURCBsBNgDCho4HhoPA7saD6A+gfw/Hmvv6Z0BYlwtDBZcUQqrJoYIk4qh3HH5w9Fl4ZeD/DEhs7a5ufNO/LL8SLs+vApfDXMOKnC67unuhx6L5/I+bOY+ua7fUV5c+ddwx/soISEWADQCp8DLx+RDY1XigHi+8Z/Bc6nznrXJscU425OWavyVA+tN2wA9bnoWeqQGrwBGWHOemr8RUvlcAFfIxu/l8vmCIH2X3s3gbw4xHm+sqSn9tcTlZvChDgA2AKJtQu6iza9++S7SA45co72Iry5yUmAhLcUsgPs78BQu/7oc93a/AM20vwLTNQgbT3amwtagByrIvVDK9FNffikv+Xp/lKzN2BQL6xoZ15b9XAhQzjWkE2ACI6elXq/yuxldWaLrveXR5XqlWkoW5O50OWFJYCBnpahYsBj0j6BuwEw4N/GlhQS1wlpz8qnIuhm1FG4KFfMwWibz8u3p6sYRvP8ZYWL3phx1O2FBTXv6W1SVl+aITATYAonNebaPVnj0v5wXc/p14t77I6kJnZy+CgrzFGCWgxofxD0N/gaeO/gp6pwctCdWy5AK4edn7oRg/VbQpTOxztLUdpqas7eUfxAYr+vmcgSs2VFT0qMCKeTIChAAbAHwdKEdgz549KX5X4o8xQmCDcmFOIwAlDCIHwcTEhNP0lHOaSg0/27EXftW5D3wBnxwmBqmmuJPhmsI6fPN/r6nFe44Xs39gEDo6uiyd2GdWXrzp7orT/NdwRb9ZRPhTFQJsAKhCnvmegADVD4hPy/wurgTcdMIJC/5w4DJ3LjoH5mRnmZ4zYBYOyiT449ZfK90WcOH6dd3iMthUuE7Jcj9hQWV729o6YXhkZBYaS3/iDfd7aYnuD5eUlFjeOcHSQLJwQhBgA0AIjExEFAJ2yBUwq2tSEjoI4moApRNW1Q6PtcHTmEnwzdEWU0W4IOMsuL74MsiJN9+7f1ZR8u5vaWm3g6MfiUzpfD9TV1X25Vn5+ZMRUI0AGwCqZ4D5n4TAi00HrsHw7SfwRPJJJy12gNIIFxTkQlZmpjLJKKXwy/2vwU9adwUrDsoUZGlSPlyHD36zC/ccr1MwnW9PH/RhbL/1Hf2Cko9hZcybaqtLf3a8HvydEVCNABsAqmeA+c+LwIuNL12gQ+DneHLpvB0sdjANkwYVFRaAS0EGwVkofAE//KbnFaw0uBsm/dOzh4V8prqS4IqC90Ft7hpl+/ykyMTEJLRiER9y+LNJa8Mwv/dzmJ9NZivGxGQDIMYm3E7q7t17KN+reX+KMq+xg9wulwsKC/KVhQvOYkTZBH/a/iI09v4W/HpktWTiMYtfQ14ZZvKrhgSnuq0OHfXo7OqFPiziQ9n9bNF07YAeB1fXl5Z220JeFjLmEGADIOam3F4KY4RAQsCd8B07OAfOIpuWlgpL0BBQUU9gVgb67Jsegmc790JT7+/QO96YIUAOfuXZF8FVBTWQHqcm/8GsLvTW39LWAdPTtnnrJ9GfSnTqt5eXl0/O6sGfjIDVEGADwGozwvKchAC+8WkvNh38JJ74Ev6pCcI/SaqFD1DyoIK8PFi0KGPhjiac7ZjsgZ+37wlGDJC/wEKNEvmUZJ4DW4rWQzaW7FXZ3knq02ejt34sdIGYPYDOfjtUYse8GYFQEGADIBSUuI8lENjduH8rpq54HIVJsoRAIQiRnJyMvgH5SiMFZsVsneyGZ9t/g4WGXp899M4n1p+H92ScCVcX1UNRYu47x1V9GZ+YgFYM77PZW/84Pv+311WV/48q3JgvI2AEATYAjKDFfZUjsKfppRJczv4JCmIL50ACzOHQIA8zCGZnYd4A5QgChgwexfoCu+GN0eagNOfjg/+aJXVAHv6qGzrMYfW+Hujrs0Mq3xPQelsDx+baqrWvnnCUfzACFkbACvcjC8PDolkRgV0vvZQFHv0HdsgceDx+lDegaEkBJMTHH39Y2XeqOOjTfXBR5mplMhzPmJL5dHR0g8drrxw5uqY/G6/7t1dVVVkzR/PxIPN3RuA4BNgAOA4M/mofBOzoF0Do0h579qLM4IoA5RBQ3ToneyE/MUepGFSxj9L4Dg2PKpUjDOa03/+VxsrST+/QNGNelmEw4yGMgGgE2AAQjSjTMxUBdA7ciMbAfyJTtR5rBrV2u9yQj9sCmZnpBkeK7T7um3FST3YliiUcAjUK5+vvH4ROXPIPYBU/WzUUHVegbqytLn/eVnKzsIzAcQiwAXAcGPzVngi80NS01BFw/hg32C+xmwYpKUlQmJ8PVGRIVaNyw5lxaaayH0Mnv/a2LpiatkHlvpOR+Z0v4NiyYd3aIyef4iOMgH0QYAPAPnPFki6AwLF8AQ9jENadC3Sz5CnV2wKewMyeexwm/ZHd/Fi8p7v7WEIf2cyk0NefTHTCXRzfLwVcJmoyAmwAmAw4s5OLwIuN+2/WQfs2cjF/TTtC1eLj3FhXIA/SUs1PvENbATK3AWi5f3BwGJf7u8Hno7o4tmtTaFzeU1dd9l3bSc4CMwKnQIANgFMAw4fti8DuvfvXoLfdf6MGtgkVPB7t1LQUKMzLxdwB5m0LUB0B9E8Ep+Y8XhQh36lqX3tHp53y98/V+22HI7ClpqLiD3NP8G9GwM4IsAFg59lj2U+JwAsvHEp3JPgexcQs15+yk4VP0LYAOQjm5y4GqjFgRvPrfqEGgMfjwfz9PejdP2KG+JJ4aP8dB967OMRPErxMVikCbAAohZ+Zy0bg2JbAI8jH8qWF58PC6XRCbk4WJhFaBJrksEGKaRNxQ/D7A9Dd04se/gNYg4Co2rKNYnbEv6utKv13W0rPQjMCISAg4v89BDbchRFQh8Ce/fvPDgS0H+Ie7kXqpIiMcxyWGc7LzVUeNriQFvSoH8J9/o4u2uf3LdTV0uewXsKhQMBxw/p1pW9aWlAWjhGIEAE2ACIEkIfbA4FDhw65hye9n0Fp/wH/1GfgCRO2pMREdBTMheQka5VDGBubgI7OTpicslXFvrmzQOsVDw8sSvvEtnPP9cw9yb8ZgWhDgA2AaJtR1mdBBHY1HqhHv4AncHlXfeL7BSVd+GRGehquCCxWXmRocnIqmMhndHRsYYGtf7Yb3/xvra8qf876orKEjIAYBNgAEIMjU7ERAs/v27fY5Xc8hhveG20k9kmi0j9vOhoClFEwLi7upPMyD1CVvi6M57e3g98MQhg2+rzT57i1pmZNl0zMmDYjYDUE2ACw2oywPKYgQLUEdje99DFM5/plZGhevJ0E7WYjBvJyc4BSDMtsHq8PHfx6gjH9FNtv8zaFD/9P1VWufQgxtL0yNp8LFl8BAmwAKACdWVoHgRcbX7ogAPrjaAhcaB2pwpOEogQyM3BFQELoICXv6e3rg17M3a/bLW//fHDq8Ao+/G+try7903yn+RgjEAsIsAEQC7PMOi6IAKYRdgVcCfdhpwfwz9y19AUlC+8kVRnMzsqExTnZQGGEkTQq0tOHD/0eDOvzR8ODH4DyHn89PdH9DyUlJTM5kCMBiMcyAjZGgA0AG08eiy4WgRf+d//5Dof2OFJ9r1jKaqi58OGfhYZA1qJF4MYwQiPN4/UGK/X1DwwC5e+PkvZHzOh3C2f0i5LZZDUiRoANgIghZALRhEC0rQbQ3JCPQHJyYrDGAIURUuXBuSsD9JCfwhC+CazSN4Ie/eMTkxAFe/yzl2bwrb9/UdrnOLxvFhL+ZATEJP5iHBmBqENg196D79Ec+uN2Th600KTQNoHTMbM94Mc6ALTUH6Xtj4GAfmvDuvLfR6l+rBYjEDYCvAIQNnQ8MNoROJY86G9Rz6jwDYj2+ZqjH6Ui/Bq/9c9BhX8yAschwAbAcWDwV0ZgPgSifTVgPp1tfUyD1yAAt2Lp3t/ZWg8WnhGQjAAbAJIBZvLRgQCtBgxN+j6C4YJfRI1SokOrqNNiAjX6Z3zr/xLv9Ufd3LJCEhBgA0ACqEwyehHY1fjKCg1830INL4teLW2p2S8dPrinpqas2ZbSs9CMgAIE2ABQADqztD8CuxsPbMJ/nn/F9HFF9tfG1hp04KrM39dWlT9hay1YeEZAAQK2rYqmACtmyQi8g0BdVdkvvBNJq/EApRKOmkD5dxS0/hcfGl8PxWv+s/nhb/3JYgmtiQCvAFhzXlgqGyGwZ9++C/0Bx6P4z1RqI7HtLOpvHZrjQzWVaw/ZWQmWnRFQjQAbAKpngPlHBQI7dN1R3XTgJswv/w1UaFFUKGU5JbQhfOvf0VS59uEdmha1iQssBzsLFLUIsAEQtVPLiqlAYO/eQ/lezftV5H09/vH/l5hJCCCST/i0wP0bKip6xJBkKowAI8A3KL4GGAEJCOzat+8SLeCg1YAKCeRjieTLuiPw8fqKigOxpDTrygiYgQAbAGagzDxiEgHMpa+92HRgCybj/wqmFF4WkyCEqTTemFoB9M/WVJY9ibUMcOWfGyPACIhGgA0A0YgyPUZgDgL79+9PnPRrH8PDn8G/1Dmn+eeJCIzjz686fFMP1tTUTJ14in8xAoyASATYABCJJtNiBBZA4NdNTQUO3fF5DbQ7sNtMJZ4F+sfYKXTq03/g8Lk+WVOzpivGdGd1GQElCLABoAR2ZhrLCOzee+C94MBoAV2vjmUcZnXHm9Bv/AH9b7li3ywi/MkImIMAGwDm4MxcGIGTENjduH8rHnwQgwVWnHQyFg7o8JbmgPtrK8ueiQV1WUdGwGoIsAFgtRlheWIKASoyNDLpu00H/XOoeGGMKN+G+RK+6hkd+PbGjRunY0RnVpMRsBwCbABYbkpYoFhE4OnXX4/LHhi9FQ2BB1D/3KjEQId+jOf/50Sn/lB5eflkVOrISjECNkKADQAbTRaLGv0I7NmzJyXgSrgbtwU+hU5xGVGi8Sjq8Uhgyv1PDQ0lw1GiE6vBCNgeATYAbD+FrEA0IvDc/v2L3H7tk6jbPfiXZFMdJzCA/7t+R+AfOYOfTWeQxY5qBNgAiOrpZeXsjsDevXtzvJr7PtTjXvxLsIk+HtzKeDxOj9tRXV3SaROZWUxGIOYQYAMg5qacFbYjAnv2HFgWcAE5Ct6Ef26L6uBBub4f0PxfbKisbLGojCwWI8AIHEOADQC+FBgBGyHwQlPTUk133of/uHei2FbZGpjGN/7v+wOuL25YtwZT+HJjBBgBOyDABoAdZollZATmIHBsawCdBYFSDGfOOW3Wz1Hc438sTnc/yEv9ZkHOfBgBcQiwASAOS6bECJiOQFNTU+qU7rodIHA/phjON0mAXuTzCObr/ybm6x8yiSezYQQYAcEIsAEgGFAmxwioQGDnzp3xCamLbsGleCo4tFSSDC2YwOfrk4mu72wqKZmQxIPJMgKMgEkIsAFgEtDMhhEwA4GZzIKe6/FBjXkEYLUYnvphHRwPceY+MWgyFUbAKgiwAWCVmWA5GAGBCOzQdUd144EGXdNwewA24V+iQfKTmg4/153afzSWr921Q9MCBsdzd0aAEbA4AmwAWHyCWDxGIFIE9u/fnzgRcFRqur4OaZ2Df2fhXzb+peIfNcrU14d/f8G/P6Nj32+cvqkm3N+fwt/cGAFGIEoR+H9/kIghA9lHtAAAAABJRU5ErkJggg==;" vertex="1" parent="1">
          <mxGeometry x="130" y="240" width="30" height="30" as="geometry" />
        </mxCell>
        <mxCell id="ItvUEO7hq5XVIe8wMghT-4" value="" style="shape=image;verticalLabelPosition=bottom;labelBackgroundColor=default;verticalAlign=top;aspect=fixed;imageAspect=0;image=data:image/png,iVBORw0KGgoAAAANSUhEUgAAAgAAAAIACAYAAAD0eNT6AAAAAXNSR0IArs4c6QAAAERlWElmTU0AKgAAAAgAAYdpAAQAAAABAAAAGgAAAAAAA6ABAAMAAAABAAEAAKACAAQAAAABAAACAKADAAQAAAABAAACAAAAAAAL+LWFAABAAElEQVR4Aex9B4AcxZV2dc/M5qCVtMrSapWl1UoEmWwymGCcwTb4xwZsgYQ539l3Z5/DGdvn853D+c7GOWcbDA5gQCKDyUKguLtapdUGxdVKm8PM9P+9WQ2spN0JXdU91d3vwWhmO1S9+qq669WrFwzBxAgwAp5B4IYXGssOF4aXxEKh2dG4VSUMMd2yxJS4YU2MWWK8JYyymLBKhixRGBdWJC6EERMijONoo2XgWvohrBNanDg4fMwyDMMKWcIyDStmGiIeEsagaRmDIcPqNg3zKA514O+DIdPYL+JWS9gwdofN2O5QX/6O+1dMO3RC0fwnI8AIaIrAiOdeUw6ZLUYgQAj8U3NzYX9ffCrm7DkiZs0RhjEH0zU+gr7nYz4vw6QuBjCD98fjog+/B/G714qL7sQxS9B51UQCQyYvCxPX5RliKM8wuyKG2B+CcBCKx+tDRmh92DS3PFQz/VXVvHF5jAAjYA+BTJ5peyXzXYwAIzAqAndaltm2vbk6HDWWx02zFsvyWlw4D5/Z+JTjkxEdjVviIISAg1j6D2Bp7wWCtsDKg+wCIeEwBIRteYbxUigcWrNm4fSnIOw4Ibt4ARbmkRHICQIsAOQEdq40KAis3LGjPBwtrLXi8SVQrddAs3462r4cnxI7GPRhnt8bi4v9+Hhl0s+knSFcVGgYfQWm0QLBYEPYNJ7LE8YDDyyZ2ZjJ/XwNI8AIZI8ACwDZY8Z3MAKjIkAr+311zUsM0zwPF5yDz7n4kPpemtqx0m+NxkUHVv3eWOtLNzlRQD62E4oMcw++X4iE4n8cXDz7gScNI6qmdC6FEQg2AiwABLv/ufUSCKxc11YULhWnWVbsXKivz8PMfDaKmyBR5HG30kRPE3/TUFx0eUTFf1wDEn9QK9S9ZmBTYBWbor3AMjYWGuLRUjP+s3tqqvedXC8fYQQYgXQIqHsy09XE5xkBjyNw5xNWeP+0vZjk41dgsr8MzTkVn7ATzToIFf8urPh7PTvxO4HKyWXSCwwagu5C09oQEeFf7zen/3RLjTF48pV8hBFgBE5EgAWAExHhvxmBEQjctn3fJCMavQCHrsHnrfhUjDit/Cet9HcMxcQRqPqZskeANAQlhnGgwBCPFBjRbz28dO7L2ZfCdzACwUCABYBg9DO3MkMEEqv8KS3nGsK8Al7zV+K2Zfg4/pzQpjZN/Puw8uepP8POyuCyIiH6ik3jtYKQ8btpB+I/+vlF1f0Z3MaXMAKBQMDxF1sgUORGehoBMt47sG3vOcKyrhWG9V4swie72SDa59+GyZ98+5mcQwB7NVapae4qENZviwcPfeX+FSt6nauNS2YE9EeABQD9+4g5dACBkZM+5t3rMDdMcaCalEUOQtJohIEf+fIzuYtABDEHyk3RWCyMX5Sas75xD9sNuNsBXJsWCLAAoEU3MBNuIHD8pI/VvhCIuJcboj3+uqEor/pzA/9xtUZMI15mGA1FhnXXYE3VD9nN8Dh4+A8fI8ACgI87l5s2jMDq7a0z4zFxMyLu3Ywjs3KJC2n5m2HdvyuGiP2s8s9lV4xadwFiDJQa4ukiM/YpNiAcFSI+6CMEWADwUWdyU95A4FrLCk1sbLsIyWpW4ug78XHEXe+NGtP/IkO/Ldjr74ChH5PeCNCLEfYCh4uF9QvYC3yW7QX07i/mzh4CLADYw43v0hSBOxpbZkRj1g0w3F8NFnO62h8JUS9U/psw+fdpsuwP48mn8LvETgy/kU5AC6JkQrqJRxGwNC4UeqkwYn56zaIZT2gBFDPBCChAgAUABSByEblFILHab2h9F+awWzGgLwY3Wo3rw5j8t2K/P+ryJIs0vqIc+XzL8CnEzFqEvxFvX9DkfyIRa1FIA+SJ0INvyizYA767YKA4dOLFDv9NfJeYluiEJOAyZClbRrCVhsx2GA7+bL858zMccCglXHzSAwiM8irwANfMIiMABFZvOVBimYPXY774BP5coCMo5NffgJW/WxNZESb4ypApJmLSL8Gkb+A/GSINQSf+IVfFw1ATdNMBF4i4nhsOJbQBrcBQt8RHBcKIloXNR/KtwVvX1s5rdgESroIRUI6A3NtBOTtcICOQHoEPb9o/OS88uMoyjDtw9fj0d+Tmij3RmNgJgz+niVbMUzDpTw3RpO/sI01bGTQh74dA4IZGY24kJGagbYdQ5x58ulC/TkSxBcaHzHVlocht9y+Ztl4n3pgXRiAdAs6+LdLVzucZgSwQ+Ghdc23MND6K5fSNuK0gi1tdv3QHJv5mCABOUj5W+7PCppiMST+M324S6TQOQCNAHg1O5yuoggBQDUGA6CgEjz2QPEgjoRMR+uNMc2dJOP6JtUuq/6wTb8wLIzAWAu6+Ncbigo8zAikQuK2u+ULDMD+FxdbluEz7MdsIlT+tkp2iCCCYHaEVvynIaC6XRMmJ92JCboJbo5ORDKmtCyAEJDufBIEmCB9kX6EblRrGwXFh40tra6q+rRtvzA8jMBKB5PM08hj/ZgS0QODWupazTVN8GnMMJeHxBG3H5N/i0ORPD+tMrPirsDc+vB7WBxISd1owIZOanowJnaDpaPt8tH0kkU0CaSEOQCBwqNqR1WX1u9QUneMM83Nra6u+ldWNfDEj4BICLAC4BDRXkzkCq+qbkYDH+CzuoGh9nqEdUPnTZOQEVUDNPx8rYDLy05nIWI+MHp1amdOWx5wThADCg2wTdkP4OOCQ8CWDeblhHCqPhD++ZsmMX8mUw/cyAqoR0Pttorq1XJ7WCNy2dc9SwzT/HUy+Bx9Pjc1dmPxJJa2aYNeXmPCmQwXuJdqLiZiyG1LwI9VUDQGgCoLAaEQujLvRDwc1FATKEFhoXMi8Y03NzN+OxjsfYwTcRsBTL1m3weH63EFg9ba2xVY8/m+oDQF8cr6tnXWjWzHhNDpg8EcW/Usw2RU5bNmfdYMzvIFsAijfAeU9UE2kDUklFB1FnTvRJ/StG5Wb5v7SkLjjkZqqe3TjjfkJFgIsAASrv7Vq7e11LRPgyvfvMCS7HYwdv7mrFadjM0OZ/LYOqvfzJ7c+MnobfZ07Nj+6nSEjwZ3IeNjswIp8cV4IHhCpESJNALli6hKBMdk/9OIlr4HykLjmoZqqrcnj/M0IuIkACwBuos11JRBYuW5dJFwyebUljC/gQLlXYaGV7cbBqNLQtTSd0eqWrN79RDQR10MQUCkqEUKn5IcFMvmlhIp0ALQlsQv1D0Eg0YmwxWNNNM2/VZrd77+npqZbJ96YF/8jkPrJ8X/7uYUuI7BqW+ulIhb/P2EYS1yuWml1tKJcj5X/kELTc8pWtDQvjJWhPx/LHsy9JDCpjOqXB8xOhxBAMRHSEQUuIluNNggDeokBCGphiKEKw7jr8WWzP56uHXyeEVCFQPqnRlVNXE6gEVjZ0LYobMW/gRfvVV4Hglax6wdiiZj5qtpCMfprodLW3cpftr00+W+AcSBZ7auiYghMpwG7N6IEpC6ZAhc1YltAx6yMpaZxeLwhPvJw7ez7UreCzzIC8giwACCPIZeQAoFbtjSPj4SML2GgrcRlOU/Jm4LVjE7RtLUZK3+Vkeho8l+OCQy56DPiwesXkWfAJmgCVBrojYcQUBsJQ7GUOTr7oQkg181BdbJI5pWnuJKagPZsmBSOv/2+JXOaUlzKpxgBKQSyeFyk6uGbA4jA6rrWayzD+h6aPt0vzd+FlWOTQot/WvEvh9o/P2BPIjlMboYQoDJeAAVIqh7DPXCs8UfBmil2A/WpZnKAiBhGvDJs/Pixmqpbx+KfjzMCMggE7LUjAxXfmykCK7funhoKhe/CG/Vdmd7jhes6yOgPbm2qtv2DOvkn+5omXNIEqBIC6GVG2yjj03gGJOsf+U32CQ3o206FWxMjy5f5XR4y9o0X5jUP1s5aJ1MO38sInIgACwAnIsJ/20fAsoxV9a0fEYb1NcTxKbNfkH539mPWf0Wh0R9N/qdg5Z8X8CeQNAFkGKgqVgBWzWKFTY0KCSTJAEbOpnHKfnwj2ZM1wRR/FkurrnvSMJyIr5Q9U3yH5xEI+OvH8/2nTQNWb2meZ4WMH4Khi7RhShEjNDG8pnDPenjyD2Hy58ePuohyB5BhoKpUv+RFsTxLe4CRQ6UPHb4N2gDS+OhGlF+gwohcv6Z2xt9044358R4C/AbyXp9pxfG1W7bkTQiVfxID6TNgLF8r5hQxQxHl9mCfWAXRCvV0rFDh9sU0AgFa0q6HkKXKO8COPcAIdhL2AOQuuBOCiW7aAIp/MDFkPlI2cPAd969Y0TuSb/7NCGSDAL+GskGLrz0OAXLtM634bzCITjvuhI/+oLSzr2ESULHvnwhcg8m/DCtUppMRoJX3qxACBhWATQiTcaVsTAXa+mnQ1GWw2DR7Kg3jXQ/Vzlp7Mpp8hBFIj4C/wo2lby9foQiB1Q0tN4as+Do/T/5kF07R6xTMR4nMRkuglubJf+wBWIjBVKMo/DEp7ykPAQX/kSFyzVwOnigNsW4vy554vHhPLLrmkk1Nv5dpI98bXAR4KRLcvrfV8jsa91ZGY7Ef4+a32SrAQzfVY+W/D2pgFZQueY2KOvxSxoGYJbZi8lZB0+AWuACTtwqi7YmtGBPdKiRCFQyNKAN5BdpKYuaFj5w6s3HEYf7JCKREQDehNiWzfDK3CFAYX0z+r4EL30/+FOhH1eQ/DXH9U2Wuy22v6lf7JATIHyvdb7bctkF9r8rNkLIynoawwzr25ZF4fNp+M1Z/8aamz2eLEV8fXARYAxDcvs+45R/ataugcCDvTiGsf8FNvhcaKb7/ywPYi84YobEvpJS+p0L1jzmNKQsESHO/CW6XhyGIyRIFWXpTfkRpGMpD0FLU0xaDLHMO3D8BUQRLC4fOf2j+/E4HiucifYQAv5Z81JlONGX1trbFVjx+N8pe6kT5Opa5BWpeyl4nSxT3mBLVUKhfpuwRIEFsHYwCByT38almSq+8CHv5KonyGtCWgMqQxqr4g6tp3yTTfAcbCKpC1J/l+H41589uc6dVCOrzNkz+z6O2wEz+FB9exeRPU/5irPx58rc/VsllkjBUIT7Rdo6qrYBkiygD4SmIPEguhyp4TJar4hsJjwpb4vGHL93Y9F8qyuMy/ImAbuPWnyh7rFXXWlaosr7lc5Zh/DtYD8wYIZcvWnHKWo5Td8/CinOO4hWnx4aRMnYpBgPFYpAlEsbeBI2ME6uew2S4GFUzdmTbeeL9laHQC+3mzAu21BgqdrVOLJ7/9jACgXm5e7iPXGX99rqWCZYpfoe58DJXK9agMgpJq2KVWIqJhozF+OFS16mq+oaSBdGK3Qnqw0NDCY4or4BuhDTDRyaEjHMfqqnaqhtvzE/uEHBCGM5da7hmKQRu39p2WtwQ64I4+bfGyOBM/s1ND9RiqIV58pcaiifdvADaFBW5pPdgK4ACDjlBpGEgwa9Sw0BPCLM8bu+QtfHSjbtucqLtXKY3EWABwJv9ppxrCuwTN+N/R8GzlReueYE0IexEwB8VNA8TFcX6Z1KLAAXkIWxlCZp6sQOGe04RiX41iEA4R0O7gAFhhfbGxU8v2rzrF061n8v1FgL8pvJWfynn9s4nrPCBqa134b0Y2JzjqtTL47HyW4aXP5NzCGyGa+AhBa6BS6GlmWgjbXA2LWuHtFGnqV3AxJCx8bBZ9Sa2C8imR/13LQsA/uvTjFu0esuBEssc/D0WLVdnfJPPLlQVdY6mffI1J59zJucQICs2itFALoIy5KRB4Ei+YI2fSHfcL8fuyCKV/S4LGYemh8Sy+5bM3qusUC7IUwjwFoCnuksdsx+t3zMNk//TQZ78KYhLowLrcuqV+VhR8uSvbnyOVVIeTsyFIZ8skcFeq6K+T8ULbQednhcR5RraBXTGrIlNQ2LnVVt2nZmqDXzOvwjIP0n+xca3LftoXXNtTJgvYPI/1beNzKBh27EXLLuSpGqgThWTHVYnZ9CcwFxCQX0qFEyoTTAIHHJhZR6BVogyE1aCb90IGoqCtqjx7GWb97xfN96YH+cR0G9EOt/mQNewuq7t8pghyNhvZpCB6ITFv4pY/xSsZqFDbmVB7p90bafkSrIvL4r3QDEG3CDidQnGiY55BBDRMLQ3Fv/NpZua7nQDC65DHwRknyF9WsKcpEVgVUPzhy0j/gBi+5SlvdjHF9CiT5Xqf1HEFCQEMLmLAKnWZypYUZP7JwWAcoNomJDgQt4Muo2YmGUZbfH45y/ctPt3bmDBdeiBAAsAevSDs1zg4V5V3/xVYRk/QkURZyvTv3Ra+cMvWprRqZiAJrDqXxpHuwXMwoq6UHImpfX/bpe0AMl2zsC4WaJAg5EsT9U3yUH7Y9b73rxx97PCQjgwJt8jwJ3s9y7G5L96W8u3sOqnTH6BJ1L7qvD5J4M/FcZoge8QCQAow+Ic5AqQJcr/0KNAIMyGD7IHIJdR/XQBAm6W1jnnbWradKFlyYObDSh8resISMrPrvPLFWaBAMX0n7it9SfCEh/M4jZfX0pBYJrxwpelpZh4yPiPKfcIvIrYAEclYwMgTK6oVSBMZItGF7kJkltjtje6cD0MLXcvaLcW//yi6n4XquMqcoAAawByALobVV67ZUvexIbWP/Dk/wba5PrVomDyn4jVG0/+b+Ca61/zFLgFUtAeFdtC2WJBeSNOQfyIPA1lyY64NbtugrHrysbGQNsMZdunXrqeBQAv9VaGvF6+Yfukg/GS+iNx690Z3hKIy3Zhr1d2559UtiomnEAA7lIjkehGTFKgjSG3wFxQMSb/U7AdoGMcCXjLTGnrzdt7/qbtgfYaysW4cKNOFgDcQNnFOq5dv7fyqBGux75m9WvITPYS1Ivk6kRBb4JM3djjPajgBT8HVv8Ul55JLwTmwiBQVgY4hPFB4yQXRF4Np0IIKNBwaA1a8aKOWGjX+Vt3zM8FNlyncwiwAOActq6X/IGtu6fuCQ80QmqvSFZOoUgpl/pz/UNiC/a/j+boBZfkJ1ffhIHsq51WatNkZ5lcAeDzevMxgarwsW9yITrgWF1BgiUJARSmWDfCAiLUMRSqO+fVXafoxhvzYx8BFgDsY6fVndc2NEzfFjW2YfIvH40xUm7SCvhVaAVewYf8n92IgjYaL24fIwMxFal+5yb8t/V7ObuNp671zQohZbBk9xyEgNxN/nA5IhJkSAjQMaNkFEbFRw3xyoUbGxblCB6uVjECLAAoBjQXxV2zrm1i00D+5q54vCST+snYqRHpb58bHBIboBUgwSB3r7xMOJa7ZqcCP28y/BvPPv9yHeHw3TT5z4AQIEtuRQcci08yCFyG3BI6agKwkDDb43mbL25snDsW/3zcOwiwAOCdvhqVU1joVu7LG2rEpD5u1AtSHKSFTgcmf9oaeB62Ao34JrckPxFZd8tue9BDMo/D/XpiWFCQHVnndRKIaessl0TbAackEkxJqjQcaARtBxzojtSfi4RiDhTPRbqIgH6jy8XGe72qc+vrS4cGC3Zh8p+gsi2kfqzEXjcFKynRcD8ym7auh2DTKfkyp4hzcxS4mmXDN19rHwHaxyePDxmahrG/AFs+uSYSRF7DGKY0yLoR0BmqKI5Of2b+/IO68cb8ZIYAawAyw0m7q2q2WHmxwcItqid/aii9dJrwAl2HF8+LxzQDsoFWcgEg/JilJ39SK8/iyT8X3We7zhnorzxJwZXCRetgI0PC+LL8sLRWwzaYKW6MIaz4kd7wnmuf2JLR1mOKovhUjhBgASBHwEtVizjd46K7N2FSdtw3N5E3HS9Dirb2EowHaWVFNgReoGbJVSC1kVb/siplL2DlJx4pVsN0SaGN9Ad7JaMLqsKUtHC6hg1GaO2Cxori1tMtK/A5RlT1t5vlsADgJtoq6kJs/ws2N71y2BILVBSXTRm9mPhJvUpeBM9BM1B3zIBQ3sEuGy4yu5b8uQ9LvsBpFTmd3f4yA1yzq6YjOJCsR0CrAtdRVbCUoT21sAkYbTjmWhwfEFZZfOPuViQQ4i1lVR3uUjksALgEtKpqLt7S9OiBmJVzX9xBbBNQEhUyIHyuPyo2D0VFQm2qiT8BbWHIUhVmEB2Ttci2Kwj3hyG8TTXl9vAHMLMewBjXhYrxtp4yipeDDrNuvyUqV2xq2q4LVsxHZgjoMHYy45SvEpds2vPjtljsFt2hoBStFXCZG4/lCrnOuS1l4mUkXoSLo4ztH1lhn4G9V7d5171vvcQfGc69gABYMlM4qd9XYBzkgiwI04jrIdrx6YA3C8UnyPVqPx0OJab5zMvLqs5Pdx2f1wMBFgD06Ie0XKyub7loX8xa2xKNhb3kqkcT6DioL5MCQTFeqE5TA7QSeyVXbotgAT4FluBM3kagHmOBNFMyRHH6aQy7QTTJk/EqTfhHrbjAl+cIRpiffGRp1Vc9x3gAGXZnVAcQWJVNvn1LU008FPo7ykz4+pMA0AIVN6knvfZ+iEAAKMOnnIQCaAhohaVyEA4BG4ppIPPKp2hsZ2HVp5IvleOBy8ocAfJoeRnjQeY5mQRBcIlDLoF9YKwDtioUqwLJu8QA+PU6hQzDmmGK9zxcO/s+r7fF7/zzO07zHl6J+P4hM/wC2Jx1IqtkoU8r3TYIA15N9kN7tZTNrSIhFAhRhi0DmUG5B4ZbspH/KOgPuZIx+QOBzdACUKIfu0Tj8WwIhLKuhTS396IscqmlVT5N+CSw+pGwhRadbMZPf7h2zkY/ts8vbZJ51/oFA23bsXJdW1GoJP4EGDwjFZOI0S324WXShpccWep7mchyu8wwIQgMawpIOIhkOEqp5ZT9kAQju0S7vWcXhNn4zy6AGt5Hk+0GeK7I0FwIhDOzjAZJk3sn5A4KREV7+aS5o2c1KITkWb0zRWH1n5ZPORCUNnutnRm+Wr3WLO/zey0Sb0xoaLkXCvK3Z9MaWl20YeOQwpnaX/NkU6Pz11IwFBIEaOugLMW2wSG0fTPiFcjQbLzoZ2f5opepj+91BwHaBuiRmHwpTe+Z+ZExtVM0rZPraSf27ROTPn7LCKLuoOJ8Ldjq298Vqpq1pcbQMZih8wBoXkNuzFs1B0UH9iob2v7HynLyJ77LoUIvh/Z6PiaxA5gQWyEI9OBl5GWifdxeCDX7qRFYyJHUWgiBoPSYYFCKA7A+TmyFyLSTlP4qUsrK8MD3OoMAhfZtxPaQXSLPElLZV2Dc0dPUi3+QfCsRFIsM9+jjRYM9u3hkeh9sGyZXGk3P4vo3ZXoPX+ceAqwBcA/rjGtaVdd8vTCM32R8Q5oLycCILKERP0DoGLQnDfsZnYYscJLbH72osxngtO/PSX8ygttzF9G4J+NQRK6zTfkYTDBwS6zsJZQJtuv38o3TIuYPH6uputXLbfAj79m8H/3Yfu3atKq+eRmmrefBWJFq5mhLgKLj7YcgQEZREu9C1azlvDwSIM6Euxf5/zP5EwHKdkkaMSb3ETDxtpmeZ7xz7ZLqP7tfO9c4FgL8thsLmRwcX7WxqULkhV5G1XOdrp4MlA4c0wx4Jba/k5iUwvBwfsQURVDx8r6Yk0jnrmwyxFsvaQyYO+69XzPsKIaqI9b8+5bMafJ+a/zRAhYANOnHO5Hg50BD6/1YlV/lNku0x05agYPQDnjdi0AFdiQAkCBQCG0AaQTIAIzUv8O/DY4OqAJkB8qgPXjEpRe0X9+PyZ5+kyEe+dr34W85PwAHGA5gkbBR2l9QO2vGk3ATDGDztWsyL3Y06ZL9Da1fACuuT/7UfLKyr4b/XTWmNhIASBAg7YDXjQftdi29mWi12DnGJgnZghfAYrDg2Hc+vqE8EPSdlxAWKIcAk0oEyHyPguQM0iSPD+WiGKTJHv3Uj3P90Owj+LPKKrksBxCAl9LkvE1ND6PoSx0onovMEgG8rphyjcBtdS1vxRz8F/BBhujaEK2eDh7TDPA2QXbdQkmESGtAAsHwB0ICiqBIiPRNAZAovgEJE/StVcdn11RbV9NO/BDma5q06Zv844cSx4a/ExN8YqIfnvD9arxqC7wMbiK3WYplSVEGdSMMdwTaCn1u7dJZ/6Ebb0Hjh/qCKYcIrN7SPM8KGbTvnwjzm0NWUlbdjxc0JSVphxEVuUPp91pJyb72J0lgIEGAVHKU8pU0CGRxTsICnQsbVuKbztE1FEA5RCteXEPBk3A6cT05qZFwkSS6VoZG6mlpkoZrKtzd8I0qEhb1+B2l+ugbFZEangLvxnABTdo0qdP1tIIfPjc88fOELtMrJ99LAiTlK5gAd8eJ+KZw1oBdbECWTnpedSOMSwvZGi9cu2zW07rxFiR+3nhTBKnVmrT1zies8P6prc+CnZSR/jRh93U26GV+BCuLQ3ijH8bLxQ/xy19vXEB+kNCA+XmYkpN5QNrul2bSJD8Bk32qrJu0XbJuYCghiOnW7mLT7Jk6eHDS/StWUIRkphwgILtAyAHL/qnywJS2L6E1npr8CX1anU5A4J0Jx/TWFATlMIQB0hB0QjBIzit0LZOeCBznD88dpmcnncAVyWyURItSbNOkT4m00hFtQy2KhMUmaAJ0o554vPhoXuVD4OsC3XgLCj/pR1BQkHC5nasa2t4srEScf1/Zi5F2oBPbBB0QCrySw9zlrufqGIGMESjEG5pSaVMEQvpOaG4yvvuNC7chBgLlCtGNaAKaETI/tra26lu68RYEflgAyEEv/+OuXeMGBiKvoeqqHFTvapUUb4D2IOmTTIjiKgNcGSPgIQSSEz4lw6IJn1bwKoim/lcQA0FHzx54z8RmGmL+/ctn71LRVi4jcwR4CyBzrJRdOdAf+R5sqXw/+RNgZPVeCXVl5TE9B9kLHMXbiGwISCCgBC2WMmS5IEbAOwjQ3F6M56Mcz0c5AlFRDg/a13eCaLduCbYCXoE9gG56AMRrCB0yzMfA4hwn2s5ljo2AM6Nt7PoCf2ZVXcsHMfn/PPBAHAOArME7YT9wFFIAuRoeRTa14/anGShGwCcI0CRM7nm0j08r/HGk0ne5bbQNQNsBOtLUkPG9x2tnr9aRN7/yxAKAiz370fp91TExBNW/UeZitZ6qirQBJAh0QRDowlKFMq6RiTAUBUyMgGcQoIU8JfMoxSRfipm/DCv8EnyT+2auaSO2Ash7RzeC+6o1OWyc/2hN1d91482v/OR+NPoV2RPada1lhSobWp/BY3f2Caf4zzQIkJaAcq13AbyElgBCAYV7ZWIEdEGAgj1RPgla4dNEn4vVfaZY0Dbcy4OxRPClTO9x67oS0+gsrq2awKGC3UHcbQ2UO63SsJaJ21o/xpO/vY6hQDikNi2n22FLsBPRZfZoaNFsr3V8l5cRMDE2z8oPJ6I9eqUdZGcwB6mvddwKgKBfVrK56Q/A8t1ewdPLfNK2FJPDCNy+ta0Ki9gvOFxNYIpvhwaAiRHQAQGKekHbVV6jaYgYSF4GOtKBWPxdl2/cc76OvPmNJz1HgM9QjpuxH6JJJT5rVk6aQ/kJerJW/79xA+15JV5+eAGSyxVTsBEgFaisGpTyZXiRFiKDFWnXdKM4eDpixf+oG19+5Ee/3vcZymz1r7ZD90RjYmfU/oqrElsJNXlvvPLJ44CECkqJTN9kW0B7pImUsvj25qtdLeZeLo1ecG+kdKYUz8N/UwZMSvdMgXUoFXadRKQ8cnU9B2MKX56jVmylNWrqFTDFDH3niWWzPuo5UD3EsAeHrHfQXdnQNjFkxbeC40rvcK03p6/CgvmohAXzokhITMHqPxOi6Z9iqZMwQMLB8O/h70GofQdQCLssZoKkc9eQKEfBcvJhgEeGeMnJPvlNKZrTTcxkZPpsf1TKP/40CADk2uc1IgF3A54pHRMGRUwjPiXfqlm7sLrea7h6hd83lkJe4dhDfIbi8W/j/cOTv6I+o9SxFDzILtFEQMlTMiVy2SpITCqUqvHE+4YjG5H2l/LSU/rafmTAS+apH/4e/juR6hbX2ddbZMqxP64j8SyRGREdlkcf4Dv8Pfx3AVIfJv+m7IiyRGpwyqQn4xpHdillpveiehN8CyAUrxuQE4Bk+2C0+4filtk9YP4N5+aOdp6PySOg4PGRZ8KPJaxqaL4SOVMf9GPbctWmNqj+t2ELwC7RS/6UEep/u+XYvY9WmkMQBBIfFEJhkgfxN7WIzpE2gVK2JD44lziO7+ix1Lp2683Ffa+nMMYETtMipSim1Ubig7dO4jz+pomeVOiU9nj49/A5/OkqyY6tYoytN+VwbMmCtQvbAE2aetZMCxmfeax29n/KtpHvPxkBFgBOxkT6yOotB0qs0CCp/mdKF8YFvI7AFqgqD0poAOaGQ2Im3J+8SiQYQB5ICAiUyzeR343+xkELk2iMvnFN4viIRpLmYTTYkqLUaOtWWlmf+HKgyZuOJc6hIprU6cCwGnF4gqdDw3+PYMADP0kYew7ji/C1S+QOSFsPXiQaCy9BC6Bjam9gGp0xlDf1/hXTDnkRW5159uKzqjOew7yZQ5/BD578FfYUvZc7RpvFsqijMsO9/yyKdPXSxMOK+YVWy69Pz4n5JjnpJL9dZcsXlZEWgqL1UShqu0RbCFit2r09p/eREDgPwvEWDQ0C+y0rfDRv6F6weEFOQfJh5d5dDmnaGRTu1zKsf9SUPc+y1Y2l2Ykr22waQ0lXaD+fiREYC4Fs7ENGK6Pdo+6AybaQgDw+CxuZ5H1ufB+Ox8+/dEvTeW7UFaQ6WABQ3NsxI/p1FFmguNjAF3dEcn9S9uUe+A4IAADjJVfvHTAEtK8/0APgedgm01FOpi2K3pj1Gz1Q8g8XLAAo7Mvb6povxCbsuxQWyUUdQyDo6n8eCM4jUAItkUw6Xpr8ZVxUnW9h+hqKoAGYoelWGd4Bsy7f0nRH+lbwFZkiwAJApkilue5OyzINw6DVP5NiBGj/X+bFSsFe6OXOxAikQ0BWBS6rqUrHnxvnZyNCIMVW0JHah+L/fSFsAnTkzYs8sQCgqNf217d+GEWdrqg4LmYEAjT5Jy3WRxzO+GcFJn+e/zOGK9AXjpdc/R6WcSPQBHnaBKjGVoCOhNTghebmZgqtzqQAARYAFIB4c/3BUswwX1BQFBcxCgKy6v9xknu7o7DEh3yKwHi8EWUWv7LGqrrAOhmJgoplgHCwIQfj8Q9evmk7e1kpwJgFAAUgFhgDn4df9hQFRXERoyBwRDL7XwXcu5gYgUwQoNUvBYyyS6QAkBVY7dat8j7SmM1BhEAdCXEvzH6Rd7eOvHmNJ34zSvbYyi1ts/DQc8IKSRzHup0i5MmE/81DwWTYxMQIZIqAbJrcDkmPlUz5dPq6CdAClGv67LTHYmddsXnHm5zGwO/lswAg2cOhkPU5FJEvWQzfPgYCR7D5T0aAdkn2ZW63Xr7PuwhUSE56ftAAJHtvjqaRM8njoise+nmST/62hwALAPZwS9x1W93e2ZiebpQogm9Ng4BMZDYqmvf/0wDMp09CgDxGyHPELg2nlZYRW+3WrP6+cmgBJuKjI0HQWnJZXfMFOvLmFZ707FmPoIfo618Aq6RlZnIIARn1P7Eks5/rUJO4WM0RoP3vcZKTnozbqm7wVMMtUEcvGhKxeodi7BEgMWBYALAJ3q1bm+fDXuh6m7fzbRkgQAZVXRKh1SgxS6GOb64M2s6X5BYB2W2AI5J5K3Lb+uNrpzDa5BWgI3VY1oK3bGm+QkfevMCTnr3qAeQQ9eeLYJMDUjjYVz3Y/ScjQLsk+xK3Wy/f530EZDVHnZKeK7ohWAVbAIldEceaQ4uEzljsu45V4POCWQCw0cG3b2mqwdNwnY1b+ZYsEOiSXEXpasGcBQR8aY4QoFVvRGLK68HENGRfds1Rq8euljRpkySDJI1dutwZbLdUX7FpN4dgtwEjCwA2QIuHQ7T6Z+xsYJfNLbL7/2WS1tzZ8MrX+g+BCskAUp0SqYV1RFNbLQDA6rSM/9URM9154kksyx66rbH1VGil35nlbXy5DQRk1Khkxc37/zZA51teR0B2G+CohP3K60xo9KMIWoCJmgrVCBY2E4mC3qMRXJ5ghQWALLvJiFr/ilt03A7LsiV6X057/4j7bZtKEf2PO8k2fHwjEJDVIB31mR0ADYoqTXME0G5LV0x8lXhkyhwBFgAyx0rc0dgyA7PKu7O4hS+1iUAnVk9k4GOXZF/eduvl+/yDANkByMQDoC0snykBRAk0ALIZE50aIRC4qq/c0HKWU+X7sVwWALLo1aGo+Dguj2RxC19qE4FOmdkfdZbxyLaJPN+WRIA0SGUQAuxSYlXqQy3ALI21AN2h2P/Z7a8g3sevyQx7/Y7GdnoX3Jzh5XyZJAKdMYnlP+pmDYBkB/DtCQRkPUlIk+U3ItsIihCoI3XErDdxpsDMe0bPXsycf9eujMX6b0Nl5a5VGPCKuiRWThQASMaFK+DQc/NHIFAmOdF1SWqyRrCi1c9ZMnsjDrYkZlnGgBG5y8EqfFU0CwAZdOfKdesilrA4418GWKm4ZACL/0GJgkol1LYS1fKtPkSANEn2NwHgniYhyOoMJ2UKJK8AHelI1Lr6mnXrinTkTTeeWADIoEfM0invw2UzM7iUL1GAQI/kqqlMzzTmCpDhItxGgIYSGb7ZpX4Is34KCDQSh6maZgocFFaoO28SewSM7KwxfrMAMAYwIw8bcfFPI//m384iIC0AaLoycRY1Lt0pBGTtSfy6DTAVWgBdZW0EYboZbkQ8v6V5KBigNACtrm+5CDrAU9NcxqcVItAjEQKY5v4SyX1bhU3honyAAKUHliEZexaZep2+l8wAJmuqBei1rMLLN+/hbds0g4AFgDQAQYN3a5pL+LRiBGQ0AIWQ1nRdlSiGiYtzCQFZDYAfPQGS0E8P6fu0dVsWa26THTXGNwsAYwBDh2+va5mAr3ekuIRPKUaAnP96JTQAxXKLNcWt4eL8gECRpFDpVw0A9S09b7Ihk50aI0gSNPuSupYFTpXvh3JZAEjRi3FTfBCn81NcwqcUI0AeADGJMotY/S+BHt86GgKy20rk0SLj1TIaTzodm65plkAKwRCLRv9LJ6x044UFgFQ9ErduSXWaz6lHoEcygxprANT3CZcoRKnkm7JbQqulO/4TIQDka6p5w/bLVbrjl0v+JId1Lll3tu7VDW3nCcNY4mwtXPqJCFAedRkqlnDZkqmX7/U3AmVILiVDPT6NB0CY0Nw/WVMtQJ9l5V+6sfkjMn3n53vlRrWPkbHicR40OehfmRclvYg4BXAOOi0AVZZIvim7JQVb3SGeovHWW5+I/bPu+OWKP8lhnSu2na135Y4d5RBrObe0szCPWnqPROz0Qqz+eUCPCisflESABMtQYq1rryBYpNu70SN3FeHZK9VU+3Ykbi1419adVR6B0lU2+X05CtyhaMEHcJhDSY6CjZOHEG5ZwH/XdhXFEi9o25XyjYFAgLRLMvYl5Nlif2R7A+Ipmm4D0JqiIxb6sjdQdJdLFgBGw5uN/0ZDxfFjfXhSJRQAgvf/He+iQFdQErJv6UaTv0x8Cy8APwkaAPsIOdvCLovduUdDmAWAE1BZVd+6EKOYI/+dgIsbf/ZIrpFkVmhutI/r8DYCxZIRAXtlpFsPQBcBPhM01QLAtqj48ld3XuYBGF1lkQWAE+E2xHtPPMR/u4NAn6SOVPYF7U4ruRavIiA7vvxuB0D9qrMx4EA49C9eHXtO8c0CwMnIXnfyIT7iBgIyEQATHgCaGiG5gR3X4TwCMlkBiTuZ8e1869TUMAHbJKQJ0JEQi+E8HfnKJU969lSOEFnZ0LYoZMXrclS9Y9XmGYNiSWibmG3sEZPNgwhtOCAKcEw3IgNAu1EASZKVXaHphgfzox8CtI9vV5MfsQZECZ67cOyIyI81Jz6G7dLUYhPFWyEqCkSHOUM0GmeKx+AE1W2Ns1XJtqGYaIvZRclWlRnfNCPPuPqRJbMfzPgGn18Y9nn7smpeKB57P4L/ZHWPzhcvMHeIiyJ/FwtDjSKCx5uJEWAENEAgsU9eJYQ1TYihvcIabEDM2iM5ZSxyrPbS2DYxSzwuLjG+KrrMueKR0ErxpPXOrHirhBagza4kn1VN2V88EBMUE4AFgGPQ+We2y34snHTHqvqWrTi4+KQTHjsw1dwn3hl5UCzGqp+JEWAEdEcAxi9De4TVvwluMH3aMdsdnid+a35BbLbOyog3MuV5tn9IyyVHoSEG1y+v5vwux3qSBYBjQNza0LLctMRrGY1wjS86LbRBfCD/j1jxD2nMJbPGCDACJyFgDQqr53loAw6cdCr3B0Liucgq8XuRWYbdOmwD7Nd0G2CWGXrHmmWz/pJ7THPPARsBHusDAOF547+3RtaIm/J/x5N/7p8r5oARyB4BI08YJW8WRl519vc6fkdMnDN0l/hH646MaqIEQbpSn7A+ritvbvOlby+5jYQlrnW7SpX1XRJ5Wrwl8oTKIrksRoARcB0BvJILTxciDPsADWlO9EHxYfG5tJyNh0eOrpNLtxXPbC8jbSu9f4GufeQqsongP0LMd7VShZUthpHf2yIPKyyRi2IEGIHcIYCIekVnChEqzx0LKWpeFv2duFL8KsUVYB1nx2uqBUC8kbwrNuy4JGUDAnKSBYBER1tXerW/840B8YG8uyFt6+l241VcmW9GIKcIGGFhFJ4BFjQ004Ir5BXR/xLlxuGUEE3UOC5HnxG+NSXzATnJAkCio40rvNrfl4SfFmVGl1fZZ74ZAUZgLARC8MOPzBzrbE6PG1a/uNH6YkoeJiJFsIbiS4LnARG/ICXzATkZeAHgn5qbC+GQe74X+7vE6BEXh//uRdaZZ0aAEcgEgYKlUALoOY3OG3pYVBp7x2xFGGyXa6oF6IqLSVc3NVWMyXxATgReAOjtFRehryEEeI+WhbYK2gJgYgQYAX8iYJjFQpgTtGycAVfjy6zfpORtnKYCAG2Y9neK21IyH4CTgRcAYKzi2f3/WggATIwAI+BzBCJ6egQQ6kus1J5HFdgG0JUGLes9uvLmFl/69o5LCFjCm/v/YUTNXxja7hJKXA0jwAjkDIHI1JxVna7isth2kScGx7ysDDMMbQXoSMjrgP2VYFOgBYBbtzbPRwr6eV4cApXGIQ7448WOY54ZgSwRMIxS3EGOdRqSFRVzjY1jMgaHRngL6DnNkDvgZXXNgTYG1LNnxhxOak9ge8qz1v/lZqdaMLg0RoAR0BMBMgI09A1fP93alRK38UgOpCtFh2KBdgcMtABgGcKzwSBSqd10fdiYL0aAEbCJgJHM12fzfgdvKxKpFyMVmnoxECT9QnjSA0xVdwZXALAsDEvjHFVAul2OaVhuV8n1MQKMQK4Q0HgSNY3UuX+LoGrN15T/Hkvoa2DhwlgLrACwctvehcC30gWMuQpGgBFgBAKNQIWm7oBDlmW+pb6FXMEDSYEVAMKWdW4ge5wbzQgwAoyAywjoGg+AYIjGYu9zGQ5tqgusACBE3LPqf21GDzPCCDACjEAGCJRqHA9gIC7enEETfHlJYAUA+P+zBsCXQ5obxQgwArohUAxHAF3jAfTG43N0w8stfgIpAKxsaJsIgBe4BTLXwwgwAoxA0BHQVQuAeAD5V27aMzeI/RNIASBkWaT+19c5NYgjkdvMCDACvkagTFNPAAJ9SFj/z9fgj9G4QAoAloiz+n+MAcGHGQFGgBFwAgEKC6wrIS/A5bry5iRfGneJc83G0v9s50rnkhkBRoARYARORKBUYw0AAgItPpHfIPwdOAHgTvh9Qvt/ahA6l9vICDACjIAuCORBACjQdOO1Ny7KRWJu0AUtd/gInABwYGvLHEBb4g68XAsjwAgwAoxAEoFyTQMCxYRlXLp1T+BcwwMnAAhTLEsORv5mBBgBRoARcA+BEk0zAw4j4M3U8DK9FzwBQLAAIDNg+F5GgBFgBOwiUKypBoDaMxiLn2W3XV69L3ACgGUatV7tLOabEWAEGAEvI0ABgXSlqDACFxsmrGtnOMaXJVgAcAxcLtgpBPZ05Yt76ieIl/aVio7+sCiOxMVpk7vFexa2i8Xje52qNuNyH20aJ+7fPl5sPFgk2vsjojx/SCyr7BXXzD0s3jL7qDA0zl7ZAmyfbS0T2zoKxI4j+WJ3Z6HoHzJE52Ao0f7S/JgojcTEtJIhMW9cv5hf0SdWTOnCN2zHmbJCgLICUkTAqIbJTPuENSmrxvjg4kAJAP+8YV9xj4gGMuKT7mP1wV0V4tdbKsXzeBEf6IuIuOQLImJaogQv7XK8vKeXDogF4/HiHkcv7m5x5rRukWfGdYckwV/vkCk+/UyV+PGmySIWP3759PCuceIrL04X71/ULv734p2iNC91WlYnGrzjSIG46eH54uW9J9rVFoh1EFZ+Cr5PmdQjfnrldi0ElSQGL+wtFb/BeHtsT7nYdbQgeTir78qiqLho1hFxVfURccWcDlGeF83q/qBeXIQYbJ1C8gF3ALwBy8p/y5bm8WtqZh52oHgtiwyUANBXOLRUxLW2QtFykDjJVHtfWHzwwQWJF7HKeoYwWXYMhBOf3Z3DK7xk+bR6Pm/GUfF2rE5pBZ2LiTPJS6rvo4NhccU9S8RrB4rHvMyyDPHbuolic3uhWHvtVlcnobrDReLSPywRh7HiT0XE/8W/Xwr+NotaaAVyRX1RU3z/tSniZ5sni0as9mXpYG9Y3F0/MfEpCMXF2+YfFrcs3S/On9kpW7Sv7y+CHUBnTD8BwBpm6QqA/1tfd8CIxgXKBgAdzB4AIzo/1z+PDITEpXcvVT75p2tXD1bVa6BxWP3oXDHnR6eLVY/MFQ0dheluc/38hx+em3LyH8nQRkyyNz80D67Mx2sJRl6j8jcJWO//64K0k3+yTurrG/62UAzG3X/lkDbpvsYJ4tRfnJLQpqiY/JPtSn73x8yEIPCWP9aIs369TPymrvIkjU3y2qB/F2scEGgwbl0cpP5x/2nMIbpxy6jJYfVc9QkI3PHoHFF/OLcTbzf2eX++eZJY8cvl4jYIAs3QFuhATzSXiwd2jM+KlQd3VmCrwJ1tzN9hgstWaKKJl7Z53KTWrjxxGYTMGx5YIJpc6tsNB4vFhx+eJ07HmKI+YToeAZ09AWIivvx4bv39V6AEAAievP+vyXimFeu9WJXpQlGsaH8BQeCUX54ivgc1sVsr6bHa/yubE+W/PT0bhmzy6u2x+Eoe/3NjdsJJ8r4/2bwveX8236TlOfM3y8VzbaXZ3KbsWhKQ3v2XReIdf16kZMtBGWM5LqjIHSWVrVYOWcY0Wzd69KZACQCwO5nt0X7yHdv3NEzI+SQ7GqhkdPfxJ6rFVfcuFnt78ka7xJVjL9ictGh745Y18x1XP286VGQLhy0278u2sj9BuLz2rwsF2ZjkmkgQOeNXy8Vdr07Vcsy7jU8BVmIhTZOxIilQoFQ2wRIAhKhye7BzfaMjsP7AiVbjo1+Xq6NPQgV/7m9qxas54vNAr33h48W2EvH1dc4uZNrhqWGH9qNdsh4e6eqlyf/GB+cLslPQhchG4F+enC3e85eF4pBN7HRpiwo+CjR1Cx0Uwnn1mQoAFZURGAHgjsa9tPmYG12gos7yUzGH4MuuO5EG4HJY4T+yu9x1VockPfr+4/mZ4pV9zglZtGVih2jyj1I+LoeINAwfXjNP2OXPIbZeL5bcXa/445LACwEUD0BHimLv711bdwZmoejck6hZ78biQ7M1YynQ7Jzo064rGGQk+N77F4mnm8t0ZXFUvmgCpImQXN+coJDECs4pDUAX+ur9DywUtI2jM5GQ8iFoKHJtZ5JLjGgbQFfqiofP0ZU31Xzp/aQobG3cMqsVFsdFSSKg8fN/UstoEr32r4vE+v1j++OfdJMGB8jD4gvPznSEE1PizRFzKAbTF5+b6RljOwpA9NftgdpuPm4c6iwAxC0rMOniJR7j4/pT+z9MYczWnklmUFsEKCzsddAEUPAXL9G3X50mnoI9g2qS0wCoX/1th8X9DzdMVt1MR8v75RZ3XDYdbYTNwnXdAqDmRA2x0GazPHdbYAQAS1izPdc7zLBWCJBPOUUt9Mr2BYFH6vZbsBVAURFVkikRyjXugAX4l16YkZMgQzKYrt/vnI2GDF9u3FugXgZUxjY0ALOVFaZ5QYERANAPgelUzcdcgj2Nn/+U8FGAnrtem5ryGt1OkuDyySdnK2UrhFwLdkm1AEVW9X/eZi8ugd02qLiPoiMGlfI1fgEgFoC3VEkSgyg4AoBlBcayU2I88K0ZIEB7zW5FlcuAnYwu+dXWSkHucapIJq27aiNAyoWQixDDslhOLh6SLcKz9+dDC6SrDIBeUb9npmlPqdULatrIBFuGEdwNNw37Ref0sOngIivzTyLi3u/f2pDuUq3O/8Nj1eLs6Z1iSpH8xBOSeHurzgOjKtzu9NJB8TYkiDpzareYU94nwscW6FG4ZFLiI0pq9DwCNKVKzpRNh587vSuby311LRkBkx1A/7EMPDo1bsiy7Afh0KkhGfASCAHgTssy9ze0BtfkNoOB4PYlEl5k4sUbNoplSDGbimiS7kCsgZ1I9fpsW5l4FL78lPNdFf0FIW1fQkrZM6Z65yVOqvLbke/g3rfXS8NgSnQgcnJI158sgFb+LyPtsAxNLR4UX79od2LyD4+xtfEmCAU3HsskQqGW/4AsgD/eOFkqWuQHa/bLsO35eyMYBv32d5Icaz9iAcDEBR/DcMhfxTHWsy44EFsAB+sTk39wN9yyHhZ635DJ/FGElL+0onvzjE7xqTNaxKPXbRHrb3xNXLfokLLG/deL05WV5VZBtFqmnAeyJOMGGFf4Wt18sFDK739hRZ944QMbxbvmt4uxJv8TsZo7rl98+qwWUXfLenHXpTsFCRDZ0lXVHYFPG2wvlmS2SGd/Pckk76rb5Yz/bPbsOHpHIAQAIKhu89PR7ghO4bmIA7B4Qp/4xZWN4v531YnKoqg02A/vHico85vX6BNPVksnDNJFA7BHIsMfGTL+/m0NYpLNLZH8kCVuqd0vNn7oNXHHqXuxYMxsOTsPQsd3L9/htWGjnN+wOkWQct56zLw5ygvVsMBACACWMCZqiD2zZBMB2W3DS6uOiCfft1HQSk6GKJLb95E50GtECYM+AtdAGWt8mRcHttSVUVu3/fTNl8w6KhaN75PmpSQvJr564W7x4LvrxKzSgZTlnYUtozXv2Som2xQ6UhbusZMRbc0AhbBi0WqPwWmLXZnn2FaFObqJNQA5At6JalVoD+aUD4gH3r1VTCqUM4j747YJgsIFe43ImO3/1tt3Z5QxAlTpBdA5ZB/7pRN7lXbbhTOPipdv3CA+e3aLmFn2hiBAHhOnTuoW379sh3gEW1HTSrLfMlDKqCaFRVQ8yA61BaG0A7EFEAgjQCzUWAPg0INit1hDJpBMJkYAGTA2Gy/pn13VKN5632Lbcdlp8v/LjvHihsUHM6hRr0u++NwscTm0IUsrs58ITdP+Rr6M5uFEBAvD9vloh5GoaiqDNuAzZzUnPmR0SfkJxhVERUW+/JaTal5zXR4ZAepKhimm6cqbSr4CoQHA1hxrAFSOGgVlGZpI/xdDDfyhpXKT933QAniRBmKGuPGhBYJS1WZL9tfdiE6oUPVbHLG/oXA/YvHTBO0UTYR2qbq8nyf/MQBWL36NUZGNw7GYCEQwoOyffBtganCLN9/QGgAXBBb+/Zw9grwG7BLF2qfJ1ItU114o/vP5GVmzLmUEaB/qk/isKrVvx3G4PyKuf2CBaJYwJDyJIT6QMQI62wDEDCsQWuNACACWaXkvTmjGj5E3L8zUYnq01lmyVoAnFEqBcW5Zat8nm4zqnkesAa/SN9ZNF8+0ZMe/lBugoi0cwntppZwR36NN48Sin54mrr53iSAXySCn6HV7/OrsBQA7lUDEjQmEAIDt5kK3BzfXlxoBGRsAJ17Styzfn7Eb12gte2pPdhPoYFq1yQAAQABJREFUaGXk6hgZ5a2EV0A26nCZUMAqbQDIB9+OH/5IrKn9jyM977v/skic/qvl4kcI8ONFw86RbfLCb523ACzDCEQ0wEAIAFDO2vcV8sKTxDxKI0ABYU6f3G27nPUHvJ3ZbTfU4J96uirj9kulA864lswufPv8w5ldmMFVtCXyD4/NEfN+dJr4pyeqxUaE/2VyBgFTEzugUVsXt3SNUzQqu3YP6iyE2W3TSfdtHIqe2avS9+ikGtw/UGzBqtjDMqqMESDiOjgC+NVzj4h1NsPKbvDBRPHTTZPF1XM7BEWpS0e6aACIT4ripzoew9HBcKJMKnfx+F5xfc0hcfPSA2J8gZzbaDpcvXh+LyzmXhzKHpfMwiblBpEey6rMTc3u1hoIAWBQGMV9iveN3e2mk2sb1PnpOZldTxw5f8ZR8GnP/Xd/byQRF15WHZ1roFatmZvwZU8XHU8mHbBqWfw8JNWphSvjpoNFjsBHiYA+98ws8eXnZoir5nSIW5btFxfN7JTaMnKE0RwVGsW7qM9n76O4IQIxNwZiC8CKW4HozBw9/76p9pTKnozjwY/W6O0dBaMd9tSxA/Bd/yhU4OlIRgOgWgAgg9LPnNmcjmXp8+QueR9SKpPB4Gm/XI5AStME+foz+REBnfcn1OEdCAFAmPiPiRFIgwC5Ai5CvgC71Nrl4T2ZEY2+f/t48du61F5QIYlATjEHtnDeNq9DnDnNvg3HiOZn9LP+cKH41FNVsBU4XXzooXlKM01mxABf5CgCUGg4s8/oKNfZFx6IidGKC+eifWSPOd8BBGRWkKrdAEd2SO3E1GmGR1574u+WHj1sTTPNanci/yP//vjj1Sn942W2AFR6ASR5Ji3Az65oFBSJz02i+A9/qK8Ul95dI9706+UJDYETXiputsm9ujTeN3DK0Mg9cDOqKRgCAOabjNDgizyBgJPP5kyJOO17u/VQB//rGa3S/UhGcDc9PE+Mpa6XCgSkMA7AyIZS1L1vXrwzZ3vzm2GDcAMCC13wh6XilX3e9goZiatzv/VdZFuGQ4PUOTBtlRyIiREGHYFop60RwDcdh8BUCQGga0APU5NPrGgVZyDrnCw921omvvva6AmDZB4ohYEAT2ri9YsPia+cv+ek424eeHlviTj/97UJd0KOJ+Am8urqgs24vtKJumYGZGK0AtJOhQPD6aIMCa8MJ7cAJhVn786UxKo3KjMtJkuR/w5jw+vnV24XlKZWlj77TJXYeuhk63rdtgBGtvNjp7WJL715T840AcQLaU4ooNA5v10mXvV4jIiR2AbmdzBsAIMyMWq81xSYJ8obDS2QyC7Xp4kAQEiTOvw/zpNfCdMe983YChiMHy/cyNhwjLWtoHKE/DO0IPe+vSHnfvuN8Ay56PdLE3YCKtvHZTmMQECmjOOfaocxzWHxTmodc9gs71YtI2AjTKdjDc8P2R8qAxoJAATQSvirX1F9RBqrDQeLxX+/OP24cmQiAcZc2l69EgGNnrthk3jbvMNSRqfHNdzGHyRE3fTwXOXBimywwrdkiIBMqPIMq9DiskAIAGik/be6Ft3ETLiFwICN1LhJ3vIltAfJMlR+k2X8dy/bISYUyuei/+pL0wXtbSdJRgaT2P1JVp/xd1XZgPjDNQ1i3Y0bBNkHqPCQyLjyEReSZ8DHn5wtfoJoi0yeQCAQOoBACADCMOU3Qz0xZr3DpHNreDkM+iVW8UVh/YYZRSb8ziU75EDB3VFY0n7ooQWvJ8mR8QJwwg0wXQMpnO9P4Ca49aZXxSfhJTGp0L6tR7q6xjpPQsDHHq8WjyHxEJPeCOD9xAKA3l2UOXemiLMGIHO4XLlSLh2wcyx29Nu35KdAQjoSJcu5btEhadZ2Hs0Xn3t2VqKckMTSwQ0bgLEaOxMagTvP3SMaV65PGEqePU3eW2KsukY7TsLPjX+bL1q69IgZMRqPfIwQgPosACTxGHsHHUMY+i3NvAOfdpw6+WTK+PKXK7C6dwrs/4N/PE1+svSDDZPFml0VsB623wtORALMtl15Zly8d9FB8fh7N4uXP7BB3Lp8nxiX785r4nA/hVuuzpZlvt5FBGADYH+Au8inbFWBEACExQKA7EBRfb/MHrJqXkaWt6fTfjz/6WWDI4vS6jdNbt+HPYCM5oUaRGrsVY/MEUclYh7EUYZOtBSJhP734l1i58p1iW2CN89wPtEPCVF/bhyvEwzMywgEYGispzpvBI8qftrXd6qo3aUyxoeM1lLLTB3c3CVeVFVTYQZDdlOFV6blbJTIKFdV2p9pNTm57uJZR7HS3S9tjb63Jy+R+dBuI3JhA5AJr4Uw4iRDQfps7ygUv9hcKX69dZLYh0yPTtAXn5sprkH6ZZmYCk7wlW2ZJXgXTbOxJxTDGnu/pruz6HH7SUGyBTCH1wdCAKgOmXWI67Q8hzgrr3pa2NsCgMwa0KlY6+SuVY/Ur3ZpRqn7hmXZ8vrl85rE4zBC24ZkNrmiXNoAZNrmeRV9iWBCd57bLJ5qKRM/QVCf+3eMF0PYw1dFlGZ4bdM4Qe6KXqYKBIVYEMk+3QqlaN8/oOdCu8Cw5P1nPdCp3p5FMgXYFPKbn5nWxdd5FoEX2soECQF2iALjLISlue5EhooUJTBi5m6L0604ACr6glbnpDn5zVu3ibqb1yc8CCqL5N0qk7z9ZOOk5M/Afcc1jrZrGKb+0ryCERMMASBuuZcnVEGnBKEIGRsAp8xzHmuy7561sKJXlGpsBDhyTJ06qVv86xktIw+5+tsLGoDRAJleOpjwIKi/+ZWEdkBFfz/aVPG6a+Vodfr5WBRpWnUlUxj6S/MKwAuGACBEuwKsuAgfI0DbCvc02DcTOX2Kt2TMT53ZKlZMcdcFLjl8vCoAJPknLQqFGn7u+k1iyQS5eYI0TpR0KYg0lDslVFq44Tp+OO1FPrggEAIA3u0sAGg2WGVCbTrx3ni8uUzs7rTvm33GVG8JABQR78dX7BBk+OY2eWkLIBU2ZCfw5Ps2C9KoyND6A/btTmTqzfW96jZS1LckJMyD6kvVr8RACAAI6SAfBUW/vmOOFCLwDYS6laHLZ3vPZmghJrAvKkgYlC1uXtcAjGwvbQPc+44Gqe2fhhwaZI5si9u/hyRiSTjNq2lae52uQ4fyA+EFYAmrHcGAdMCbeTiGgExvqLYBeLK5XDyBj11aPKFPUMx5L9Ltp+wTj+weJ9bi4xapdgMkgeKplnKxdtc4sfNogcgPWTDI7BPvnNculkyUU9FnggmFW/4IEi/9z7ppmVx+0jUH4FYZRIq6r3zKGGYoyNoyvtjDFwZCADBEGBoAjUebhwdQLli3FApz/Uj+80+PV0s14+pq724XUmCg7yFA0IpfLhcdEsF9sgFQZSCgl/aWijvQfxsPFJ/EwpdfmI5of+3iGxfudjwt8PkIHmRXAOiOZu9Cd1JjPXhA37BZFAjYaPIgpFmzHIgtAEwYbAOQ9dBw9gYZDYBKzj71VBV8/+V84m+o8fZ24bSSQfH1i3aphDVlWaoC7v6+bqK47O4lo07+xAAZdtI1l95dI1q7nF1lywTzkbGHSQm05id1tgEIm7HdmsOnhL1ACABmPMQ2AEqGi78K+d5rU8QPNkyRahQlk1kEdbPXiaLfvXuBO3KyCg0Abdl8ZO08MRhP/wqray8Ul91TI/Y4mIDnpRGpkrMdC27lIMiWL6evH1K9l6eQ4ZgINyosTtui0j892rKeOWPfrUmY6eodpzXz5vjiSqk4AAoQ+Cb2az/x5Gzpkm6q3S9dhi4FUDx82s92mmKSu3HkOrdq7dxEiuJMed0F24BL/lAj1u8/easg0zLGuq5rMCR+jEiBdmkqNDBBJF01ALQhs6Zmpnf39bIYTIEQAI7hEYgOzaLvc3qpzBaAjBvg0cGwuOnh+eLTz1QlVMQyIFB2Pdpj9gtNLBwSP3yLfMKgdHjIRoD747aJosmGyyal4L34D7XiW+unZiU8pGoPGSCuhDBC+RHsEhmRBpEGNXUHCQcoe2xgBAA8p/uC+JBxm4cR6Iua4odYpS3/2SmJfWEVuHxiRZugtLJ+okurjoiblx5wtEmyGgDKpGeXSHvwyadmi3N/Vyvt+UDC5HvvX4isfhPsspO4b8VkuTgCUpXn6GZ6anTVe4RNIzDa4kB4AdAYh8p5N9xOT8vReOdqT0BAJi1tJluHtCLbczRPkOr3SbiI/RWpV1VaudPq/0NL/aP+H9k9/33B7kQCHMqI5wTJLvwaO+ynbE62h7wG3v6nxeKUST2CtnHes+Bwxp4ClBDoD/WV4vPPzhRt3fZX/sRLeV5UnDE1NxEZk1jk4nsgk4c4F4yhTkyK3s7OlAVugREA4AW4W6H3WBYQ86WqEaBVVwTua0Q9Q2ZGhmCqefgGJknyN/cjFSPU7Y+wFUDW86p99gkv2TJVWs2/BkHgY4/NEZ94olrQSvyCmZ2iZmKPmF/RL8YXRhMBfqJwW2jvj4it7UXiKWRS/Ov28cpSBF8990hOEzPlavz2y0qBDjIeMYMRA4AgDI4AIKzd0AM4OGy4aLcQ6IbRVS7pLUjfes08f5uUnIVV6cdPbxNfe1kuQqIT/VSD4D6vHihRWnQUq/oXEFOAPm7SB2v8qUVKh6HOYbNClrUzHf9+OR8YGwBDmLv90ml+aIch4waQQwDGFwyJb8NaPgj0uXOaxWmTe5Q3NW7JvXbeMd8fGlrKIfDmGcFT/9OA6tdYeRYyxFblg17TAuWeRE0bNRpbcSsWjLf2aI3nY0oQILuF71+2U9D+fxAokkgYtF0UhNQaOspqf69E5MXlleoFE7f79LPntMA2SeOZ0EFA+jW2AUBoiVccbLpWRQdGACgZymMBQKOhp3If161m/ePpe32v+j8Ry8XjewVpAlSSrBeAiZ28X17VKEqQiMerRMmjrsJWUlBJZyPAkt68l4LSL4ERAL6+fAotGTgiYFBGtuJ2vn3+YfGlc/coLtUbxf0jbAHOh3GcKpKNA0B8LED0xXvfVi/IYNFrVAbBhYIuBZl01QBEDBG/f8W0wMwTgREAjj1swX7qNHrjeEn1efGso+IXV24TMvHeNYI+a1Zoxf2Dy7dLpbzNutIMbiCh5C/vrNOOr3Ssf/uSnaK6PDCu5ifBgeys2toA5JuG9/eWTkJ87ANBEwB2jw0Fn3ETgdza8Wfe0nfOb0e+93rfuvxlisRs2D18Da6PKmhcgbogsOdO7xQPvKvOlRDGKtr+yTNaxXWLArPAHBWyPpg94H8tKWIJ/4T2zADhQAkAGHTbMsCEL3EBgQnwsdadPnrqXvHrq7cpN4LLpN1hmxISaVZCDr1eP4gIgVfPkXd/nD9ObehbCqTz7A2bBCVm0pluQcChzyu2p9C5vWPx1qPr7A+G4RffNBbffjweKAHANIxNfuxEL7ZpqcZW3BSd7edXbhdfQx55Un/ngioRl98OTcDq2smtiu/AC6KyyL7wFoZnwdnT1U/UlMRozbVbxMdOa3O0/Xb6hO65A8Lkty/ZFVir/5G49cT1tduIGEZgDACpTwIlAODp2zhyIPLv3CHwDhjV0WSgG10w86h46caNSPJzMKes2U0QY/e+TBs7uWhIfOeSHZleftJ1V83pEFSGE0Rui/91QZN4+n2btHETpGiR38Ke/1chTHrJ7sWJ/kmWqbMGIBKPrknyGYTvQAkAB+dPpS0AtfrHIIwSB9o4q3TA8aQz2bA9d1y/+P1bG8TD79kqiLdc09vn2duKfDtsFpwmioJ4U232CYNogr7zXLUuhaO1lYIX/f36TeIbmHTdSG88Gg90jCIWPvP+jeIjy4IZ7W8sXHplA0GMVbDkcZOME5fNeUqyGE/dHigB4B7DIMfhwER50n0k/uf5u3O+UqPJguLer//gBkGufrrQ9UsOJeLRZ8MPBSi6qSb7iTmbOpLX/s9FuwSFC86GvgnXN4or4AaRdmk11O5bbn41IQhML3Uv99y4/JighErP37BR1Fa60143MFVRB3kA9GkaBKjQCHU/aRj297dUAORyGYESAAhbyxBsB+DyIBurOvLhfujarYKCorhJlOiFfNtJVfzs9RvFB5Yc0C6tL6UZ/s3VDYlscZlgQ0Fxfnt1oyhyyS+eogM+8O6tGQVGomu/f9kOQUZwblNhOJ4QBLZCELj7mgbx1rmHHevrKdja+Dw0HHW3vCL+4bS9gUzyk65/+7D9r6sFQL4Qren499v5ACUDGu462HSxAKDRKK7IjyZ8uR/YUSF+umky0tCWi15k+JMlmhArYBA3HuVPLxkUSyb0JlZjp0/pFqTu9wLR6vGJ928RNz04T2w4WDwmy6Rq/tkVja6vNkmAo0n1z0i1/M1XpomXTkikQ8LIu7El8amzmsWc8txuq5BARVsX9DnUFxF/w3h7orkM2f3GSWX2I2+WS6qOiPcuPJQQZHW0axlz4OTgRI9DHioqmpJnWltUlOOlMgInACQMATVVQXlp4Kjm9a1zO7A6Gw6N2t4XFmYaGSAMd7dSTPJ+J1KZPwdV8sO7K8RfMNFuQPraTmRDLMmLY/ukW7wNmF2NVW2uvBUIfzLopM+B3ohoOFwIAS4kJhUPJfbAaeLVjSbCw4JcGulDVHe4SGw9VJjgvaGjUDR1FoiuAVNQ1smuY5knizHWSiMxMQuCzCxsJyyb1JNIH1wL4ctJrwvdsJPlp0fT/f9Euyzr77Lt89r9gRMAwoa5ISr8P3F4bSCO5NcLMQJG8uv0b5rcKW687rHjJ0EFTh+vEQlZbtkmeA0b1fx2arz4MiORv6lur+7lpVln6c5+9vx9e/5U+HcZ+7K/k+9gBBgBRoARkEGgSz+FUKI5+TAQf2zxjMAFigucAJDobcNaJzOI+V5GgBFgBBiB7BAg6/8hTTUAhYZwx30mO8gcvzqQAgBcUZ51HFmugBFgBBgBRuB1BDo13v+HBuCV1xkN0I9ACgCGCLEAEKBBzk1lBBiB3COg8/5/2DL/mnuE3OcgkAJA2Ox5CVDn1i/J/b7mGhkBRoARyBkCnTH9Qn8TGDQJRgr7/5AzYHJYcSAFgG/Pnz8gDPFqDnHnqhkBRoARCAwCNPd3a7r/X2QanQ/Nn98ZmM4Y0dBACgDUfnhW8TbAiIHAPxkBRoARcAqBbiuubQigQsMMbHj4wAoAGI4sADj1tHO5jAAjwAiMQKBTT+1/gsM8Qzw6gtVA/QysACBCERYAAjXUubGMACOQKwSOxDUNAABArJD5q1zhkut6AysAfH/elAPYB9ie6w7g+hkBRoAR8DMClAHwqKbzf4FpDAQxAFByvAVWAEgAYIlnkkB47TtmBbvrvNZfzC8jIIOAYekbvnxIII9eCiL//6iuBoDC2JWCdd+fCvQsYljGI17t4X5R4FXWmW9GgBHIEgHL0jfHQpdVkbI1HZqu/onpgpAVuPj/Izsr0ALAQDy+BmDoK1qP7KkTfrfHUz90J1zOfzICjIBXEaDVv6Vv2JImsTglsh2a7v/DE0yUG/Fvp2Te5ycDLQD8pGbmYdgBvOzFPu6wxolOq9SLrDPPjAAjkA0CcUqTracZfdwoFM1i7pitiYFvXUMAFxvG0fuWzGkak/kAnAi0ADDcv8ZDXuxnC5LLltgiL7LOPDMCjEA2CAy1ZXO1q9ceDC8T8UQsvdGr7cD+v56iixAIAEQRYQNNgRcADBHzpABAo3ZjbEmgBy83nhEIBAJRfQWA9eKqlF3QoWn4X2I6zzB+lpL5AJwMvAAwacFMygJ1wIt9XR9bINqt8V5knXlmBBiBTBCIHRBWrCuTK12/Jm6WicfFe1LW26Gp9X9EiPgjNTMDGf9/ZIcFXgC40zDihvCmN0BUhMQDQ5eP7E/+zQgwAj5CwOrbqG1rngmtREa1sb2R+jD592qaArgkZOwUePdrC65LjAVeACCc4yLu2W2AV6LLxZ74DJeGC1fDCDACriEwuAc+SmQAqB8NhKaKP4lbUzJ2MKbv/FpoGoF2/0t2HAsAQCJuhMgdUN/RmuytUb7JGPAnAzeILqtklLN8iBFgBLyIgBXvElb/ei1Zt4x88QPzeymN/4jxQ5ru/xvw/zMHze9oCa7LTLEAAMB/uHDaIbjZeDY3wGEE4vjxwAcEbQkwMQKMgMcRsAaF0fN3vJJ0DP5jivsiX0EM9dqUIA/A9L9T0/3/UsPoeOTUmY0pGxCQkywAJDvaMD1tELIzPlvc1f9h5NwuTraIvxkBRsBrCMT7hNXztLDi3dpxTiv/v0b+UzxlvT0tb4c0Vv8XGcaDaRsQkAtYADjW0UOD4T/ipyejAibH6o54tfjmwCqxz5qUPMTfjAAj4BUEogeF1b1Wy33/qDlefCfyW+TNvTYjNA9puvon9X+BKf4zo0YE4CKKhsh0DIFV9S2P4+dFXgckhN25s8LrxFWRR0SZoacLkdcxZv4ZAWUIxHuFGKgT1uAuFAnduUZEq/760DXiZ8adol8UZsRZFE14dmBIs5YMs14WMttfrK2amFFDAnBROABtzKaJd+NizwsAMUTmejZ6hlgfXSbOiKwXy0JbxTxjlzANTys4sulHvpYR0BsBiu8f3YdPGyb+PeBVJxtkU/SGZ4ltxvniPnG7OCKymy/bEftfLzHmjaFQZMTZ+v8NOGBCzvQ6Aisb2iaGrPheHPCdYFRk9Ikqs0VMMg/Cc3dA5Bv9r7dbpx97YTk8ZFN9aGI0zwjxrpZO/ek3Xlqwt23Xtb1E9Ilp5oAotvaL8hgJ5PoY+Q3Ai6jPKEFc/0VivbgQAcam2O66zUMxeADoJNAMN4Umu+lWeAEbAL7RtSwAvIFF4tfqhpa1mH8uO+Ew/+kSAlsGY+KgRPaws/PDEG54WLvUXYGqph8vhhcGorbbPAnC6ZKIvz11CJ3n+oe00mckOwzW/wdfWj6bDaSSgOCbl0sjwKCfSF1B2wBMOUKgmJbxEtSj38JDojV8q04IdNvUTCXbgOxzyZ++/d4fi2k5+RPgxab5V98Cb7NhLACcCNxA/F4cGjzxMP/tDgKyAoDsS9qdVnItXkRAVrgsDsDbdp+uwX8w4BC0+CteHHdO8hyAIZkdfN9bVkWxNykyIFMOEICaTqrWHotVAFIA8s1jItAjqQEokRzbYzKmyQmK+99l10DC4TaUm8beh2pn7XC4Gs8VzwLAqF1m/HjUw3zQcQQKMP+HJV6U3Tz/O95HQa1ARrsUxrgukBjXXsB8n4TtjtPtKzSMHzhdhxfLZwFglF6bvHcaRYpqHeUUH3IBgSIJJUAvVmksA7jQSQGrgsZUn8Tqttjw96uW3P72a6r+zxNGbL85i9X/ozyz/h6VozQ4k0N3XmRQLIufZ3ItX6MeARljKXoR9Ui8qNW3hkv0AwLdGFMyvu0lPn/THoHb34DkFolT4wTq/2e31Bhs1zUKwD4flqO0OMNDYRH+CS7lxWSGeKm8THavtEvTF5FKjLgsdxGQ3duWHdPutjb72vZpKnSTMrHACP9b9i0Kxh0sAIzRz3ctmrILW3aPjXGaDzuIgOxqSfZl7WDTuGiPIiCz/09NltFq6Q4Z+f7rGPiHcIPgdWht7fTndMcwV/yxAJACeQi1bAyYAh+nTsnul+qahtQpvLhc5xGQESppFepnF8C90Zi2WdRKTeNnzo8O79bAAkCKvmuPHf0zTh9IcQmfcgABspiG1a7tktkQ0DZ0fOMoCNA+oIwLII3lkE+jrpNdRJuGYX+pGyOGES8aOHgn/WYaHQEWAEbHJXH0npqaQTy7v0pxCZ9yCIEyiZFJJgBktMXECKhAoEsyuU2ZZHRLFW1wqgxK/NOn6aNWHhIv379iBVItMo2FgMRrdqwi/XU8FrPIf5SNAV3u1lJJtyk2BHS5w3xcXafk01/q47dsW1QSHIfGDSkQi8Js/JcOXh8PzXRNz+z8D5bMbESGAI4hnRlcyq6SfWnK7NkqawQX5AsEuiSjS5aa/nzN9kHV1qGppq3cMFrXLJrxhC8GoION8OfIVAyYYYS+obhILi4NAvTStG8FIMRRTV9MaZrNpzVEoEtikUtjuFhqJGsIyDGWWrD611T7D8xDX9AXOX04YwEgg7747sJpf8eD/HwGl/IlihCggSnjOkWrE478oagzAlwMjSEaS3aJ/P9DMpKs3Yodvi+GqX+/pqF/oT3sfHTZzB85DIEvimcBIPNu/J/ML+UrVSBQImk81ampdbIKbLgMdxA4KjnJwQ3NHUZdroWy/lG4VB0JaX+/ryNfOvLEAkCGvXJw4fQ/4VLOJpUhXiouk7WePiqhulXBP5fhfQRkt5Jkx7COCNK836yp8R+SiQ0dMGZ9TkfcdOSJBYAMe+Uew4DWy/q/DC/nyxQgILt66pQ03lLQBC7C4wh0StqSyGqxdIRvPzRr/RLbIk62CXH/7+W4/5kjzAJA5liJWE+I8gO0Z3ELXyqBQAmMp2QCqJAnACsBJDog4LdScjsZbxIKaCVjx6Ij/LT636Pp1loY7loV8YKP6YibrjyxAJBFz/xwxbRezEmcVzoLzGQuJV9eGRUqTf4yL3AZ3vle7yNAsSRktrmxGvWd/T/F/O+V1Io4NTIqTPOZPy2fwpFbswCYBYAswKJLrVCYtgF6sryNL7eJQLnkCJXdw7XJNt/mAwRkc0qU+dD/v0nT1X/IMKyC/PitPhh2rjZB8vXqKq9aVPb9eSRhGndpwUwAmBgn+RI9ImnFHQCIuYljINBBewASNM5nDgDtwEPXENsVpnhu7cLqeonuCuStLADY6HbTsr4GXUCnjVv5liwRoC0AmfcoeQLIvcazZJgv9wUCNGY6JYRHerH6LQKgtnv/WP2XCPODvhh4LjeCBQAbgH9n8Yx2TEvsEWADu2xvoQEqY0lNAUtkLbmz5Zmv9z4CtHUUk2gGTf5+erkeAR6yMREk4Ex5K1b/Tz5UO4tdtFOiNPpJP43R0Vvo0NFoZIDCAx92qHgudgQC4ySDqfA2wAgw+WdGCNCEJ0OytisydTtx766ojDjkBEfDZSLKojUxFL/JuRr8XTILADb794dz5x7Frd+0eTvflgUC5ZKZAWVf5lmwypf6BAHZJDcy3iu6QXgIe/+6GtOON8219y2Z06QbZl7hhwUAiZ4yYnn/i9vZ7UQCw0xuHQcxX84OAOpcuQVdJmzyNT5BgNxHZfb/yX11nKTQqguUFO9nZ0zP1X/ENOKFIYtX/xKDhQUACfC+WzOpG1MTZwqUwDCTWxHgQ1BSFbuUiAegaeQyu23i+5xDgDRGMvJiKcYqBQHyA+2DIaS+fv/GA2uWzN7rB5xz1QYWACSRj3YnXAJ5EErimO72CsmUah2a+i+nazefdx8BWfc/BKRxn2kHaiSt2W5NY/7nCyNWYJi8+pfsd3+MVEkQZG5PRAcUxmdkyuB70yNQIWkI2M4agPQg8xUJBA7H5VTesmNVl25ohep/QNPnBguCH6+pmclG2JKDhQUASQDp9skLp/0CXy8rKIqLGAOBckm3KgpgMiCj1x2DLz7sLwQoyU2PxDihF6ofDAAp1e8eTVf/xYbotZbO+qi/Rl5uWsMCgALc7zSMOOYXSkIh8epQwIiPi1DxYu2QCOziY2i5aSMQOCzp/kcuq354qVLQn+gIXHT6WWGGPvGkYejKnk5QpeXFD2M1bSPduOAHi2c8j3rudqOuoNYxPiQ3XNslX+5BxT1I7ZYVACokx6gOWPdBC9Kiqd8/QoPveqR21vd1wMkPPMi9Uf2AgMI2hEPin1Fcr8IiuagRCFRIeAJQMeTbzSqaEYDyz+MQoLEhawA4XnKMHsdQjv5oxORPnjO6UQgMjbNC1+vGl5f5YQFAYe99e/6MFnj/sFugQkxHFkWugJGRB7L8HcXKRteAJlk2hS93AIHh8L/2RcQ88FQsaazqQLOyKpKC/hzWNGjGeNN4/KHlM17IqkF8cUoEWABICU/2J/OLra/grj3Z38l3pEOAFley2wCH2Q4gHcyBPU/Z7mRIdmzK1K3iXmr+Dk1V/+T2Vz6Y914V7eQy3kCABYA3sFDy65szZ/bBFpDdApWgeXIhEyRXWIfYDuBkUPlIAoF2SeFwosf9/5th+Ef7/zoSVv/fvn/FtEM68uZlnrCmYlKOgGUZq+pb1yJ+7aXKyw54geSe9OzAkNRe/hn5YVGk+V4tmTjTlgV908qMPNNj+Jv2Zuk3vabpeBy/6BjJNYnvY+fxlSCyeoiNEUg5ekwYCo8hVIVw78ggzLQHSyuGxAdvjuHfhqAYTfQiSZ4PAVv6TccpimMYf9O3ztQDbF8esG9YTu0/ryCMdtMv7xH5+7+I9uu49w+3yo4Xa6smCnhbeQ9ZvTnW/bnUG72xuEN+6vjW5tWmYWzAJYVjXcbHs0eAQqyWY8KSSfBzEBNflWRkwUw4xztVRA1LDFqGGMIfQ7gp8U2/cW4QEywJNHQ8OcFHcS2lMFZLacpLqfpOc28WjNLkGAYeJCAkBAPcS/2Zh+MRfEdwPPHBcfrOw7Vh4IGfjtMhyUiRsE737ORP4G4bims5+ZOQOS4v/G6e/J15BFx4tJxh3Aul3tbQ/CnDMsgmgEkhAs2IULYDLyy7VAoB4vQ8+7IvTYmD+GcAE/UghInEN/2NT+K4FcfkPjzp2+WR73sDgYQwAKzzE0KBgW8IDfhgXxjf9PewsDBSW/HG3Zn9WjcYFRQsyi7Ni4TEDI+6AB7C1sfmQbnoh3ZxS3ffpFDo/qdqZ70t3XV83h4C9t+C9uoL1F1T2mZ8fd/U1mvxrjotUA13uLETsNraIbFe6aJJG6twmjhGIxItKCJcf2JStxL7ovQ7cQz3Do5200nH7E8mJxUV8ANJ7Qmp6ceKtUU9SVqEAggFBRDwCvC7MCEc4Bi+6UOrydGI+lVm8qcyZW1TRuPLjWOkgWqUEKad5BHbdH3Vh2LXPeVkJQEvm54bJgcRuLWhZbmJ7UVUIePB5iCH3iya9itlDJbmRcxEytZevPypnN7kBI/fHDLYm2MiHdekOUgKA0X4TXYgJCRQ8J+dEtbvVA7ZlXiRGoZiYq/k9ocT7aaJaWYkfAPi/f/WifK5zGEEWABwYSSsqm/+GsykKEgQkyIEyF2pWdNY5YqayMV4BIGZiAA2NzyWfkHfRlBgrA3Y+tCRKk3j+aeXzT5HR978xJP3Rq0H0Y91hz4PzeR2D7KuLcted7nSFlhmLGsEMFllfU+ubyAPk3qs/nUkbN8MFYZCb9WRN7/xxAKACz1KKYOtuPURVMUbwwrwJpU9WdB7U+mqAAAuQhsEaAySESjZEXiJdkJ7pmuq38pw6NOc6ted0eQ90dUdXBypZVV9y3dR8CpHCvdpobQf3wWr+m5Y5pHxXidetGQUxsQI6IYAuTQWwx6AQlaTp0kpjFWRulY7Ihfa1zRV/U8MGRufqZ29XDvQfMoQL6Jc7Ni+/KGPFwxEzsM7odbFaj1TFfm/d8In/SgmeJrou6ChlAv545mmM6M+QIAs6mnsHiVFX0K7HoPlryHKEBWpFEJBOQSCMuhccxksiJ4xMvzTkQoNMVBkhi7SkTe/8qShfOpXqIfbdVtj66lGzKKEFpQ7JNBEPvOdWN13YkVCiVjom9f2gR4Svm885ICE58E4/ECEOzEu4bLo3muY9v33aWj1T3vR0yLmdY/UVN3j+0GgUQPdG3kaNTrXrCBM8L/AHOCruebD7fpp757Uj/ShCd9r+6Zu48X1BQMBckUkYYAiXFbgQ387QQcR8GeLpgF/JpvGn59cNvudTrSbyxwbAWdG2tj18RkgcKdlmfsaWtcC/Ev8DAip749ApU/uRuRrzRO+n3ub26YKAVINliOqIAkDFGBorIBV2dRHBn+U60BHpz8IP+2I9T+Jw/1m06NqrmUBQA2OWZeCMMHTESaYcgVMyPpmTW+gPVBa3dOE3wHVfi++mRgBRkAOgSLSDEArQAIB5RwgY8NsiDbWXsPKn7RuulHENOKTY9bpj5xa/ZpuvAWBnyyHUhAgca+NEALeCSHgPvdqVF9TH94plEa1HS+XI9hb1O8Vo77NXCIjkCsEaHegBIaFE6AhmICEVmRcmI52Yt9/j4b7/sT39Ejoy4/WzPpsujbweWcQSD96nKmXSz2GAKIE/hhRAm/xCiCUOI5WEpRAhNX6ue81Mp5KfPAkUwpeAxNC6JgUllgpjjJBmBDTTEwiI4mswyn570kE1TFpdohiOG3hb7Ihp8Uk5Uywn5KJSmSSRYBCG5MgMMEwEzYEJya5JG3cRrj8HetC2eqU3j/BMLb8ffnspUoL5cKyQoDdALOCS/3FffnRj8I18FS8W7VNGDSIl/4hzPztUOuTip+EACY5BGiqpeQ1lAqXJmpKFEFZ78I0geM3HaNveqGHgXfieOIYzuM7OfHjkpxTUhCgcRE7JiBQpLko+KRjtO88fNyAMDEcx2E4NfKwmyelRsb/TDYQILuaVkhorRDFaExUHBMG4E8vkI48Ee1PR2wp0U9xOHS+jSbzLQoRwCPKlGsEbt/aVhU34+vAx8Rc85KsnwLwHIrHxEG8wcm3Gf8zpUGAXsDJlLWUrpaMuYb/pvS1yHWPv2lip3O59AVP04ycnCYNBLmFkraBhAMSOodTKw9nX0ymWaZzLICm7yIMt0SkTBKudCMIuta0sHH+wzVVf9eNt6Dxg2HCpAMCt25tvcw0rYfACy38ckK0mjhI6n3sF7JP/vFdQA8KpZgllStN6sNZ5Yb/pomeJnVapTM5jwAJCSQgDKAqsm5/PVUzHTv2t4bznvPAeKAGekJmhI3PrV06+z88wK7vWeQ3lkZdvKqh9d+x1P6CmyyRq95+LKn2Y9KnULtBJnoYSmBpjYhkiVSxRdhXTaaQpQmezjPpjwCNYhIESItFn+GUz/BKwe+gj/Fc915lyFzzdG3VFbnmg+sfRoDfaTqNBMsyVte33WsZlqMBMWjPllT7+2OxhMsevTADTwQCnobleeGEu1Xg8fAhAB0wXN2gaSCc3MB9bNC7VDn8/ffB3386+/u7BHgG1dC2JZMuCGBvrN/I+yDmoXrVLNGjfhQvwG1wCXq2PyrqhqIJK37/Tv5ZtuyYKNwW1TNOuurxEMTyWpLuDGM2PssxM2Y5Xjkx1vpPPQ7YMhssN6Jn8OSv19hgAUCv/hA/XVTZZVrWdWCrRwVrtK+/C6k/XxgYEq9i9dMGVT8ZXPmJyLCOYqrPCA9HTxtu21gvt9QtP5TYQ/YXPqlbHIyz9BwchhdLako9ZsbDsp7GGI01GnP+JbWNC2FhM8kwr1tbO6/Zv5h5s2Vqe9qbGGjJ9eqG1vfC5/p3YC7rPiKP7nYsZNt8qOInV7lSiK0UAKUEUdEo9Srt2SeJog++JJnqtApBVqojObPFTDaFvxUisBNC8B5J7c4Z2B6iqHxJoiBY3RAqurCd1o1nrgvyhX9TVZNQ/Ebbkxik+6Y7pobMrz1WW/Wv6a7l8+4jkH2Pus9jYGtcVdfyaTxzX84UADJ4ImO+VnzICMrrRIOzEC/cZOa0TPOrk6aDtjvsEgkZZ+eHE37Vdsvg+/RBgNwGSQNGLoR2iVb9p0AASEf0DHZBKEhmuCSjQ/sjMV1t+p+fHDIfeLK26hr9OQ0mhywAaN7vq+pbvgsWV6VikyLytWB1Q1G/vDztJ5OglGECpuxopfjY2aMiIahOMuf5QmgAsHJJBTuf8wgClP6W0uDK0BKMh0k2xgNN/iQEkEBAHwqkRZ43QaDxpln/7LKqxUFoq1fbmF6k9WrLfML35L3T/2H/1LY5iJX2lpFNohfLAbzYmqHa7PHoap9c68qhxqc0qPTJJK75SAzG+g1XI7EdL3yZFR9pUVgAGAthbx1vQV/KEAVxmmhj8qc6SYRMju8kD7R1QBoqEgj8Gk4bz/LB+e3xU59NNpq/tUSANQBadsvxTN1cf7A0Xww8g6PLKSIaTU5kzOe1/UYKoDMeEz2t7imr2ci9++NbLP/XDmhESDiSoeV5IbgEshZABsNc30sTLMXCl6GZ4ZCYC+M/p4gCGR2BQDCcSZO275yqyZ1yi4Tom15mVf91zpz97tTItdhFgAUAu8i5fN9H6/dMq49a9W3ReKlX3g9kRlcOy2moAsV4TP4jDaichq8PWpGXkP9cBqsKrPqWszGg013laPmvYfKnidUuYdiKM/MiiSiQdsvI9r4esHsYAj7FLSDe5cTYbGuXux6PuzUrLM5+sKb6RbmS+G43EGABwA2UFdVx+Yam9+wV1t1IqKJtv1EkPVrl06RPK33n1k3pQd0EY0BKVSxDp8MYUNXWhAwffG/2CNDe+yuSq39KqrM08v/bOxNgu4oyAZ8+9963ZCVkf0neEsjGyyNEggbBQUahGAd0xAKrHGUclUiiDMMU41qWqZly1EIRKWUbx3EcR5nCcosKJMgi4oAQQiB7QkK2l5WEJet7994z//8gGJYk993T53afe76uunkv757u/v+vzzn9d/fff7tbKdW7V0/fVGNAZzP2ycfXpC8lOYzoMw93tV/vq4zI9VoC3nYkrxWT/x0hcNFTz/7T5nL0zXjd2pHS4v/sW+OUkfJw6exHyEdj5PuSdPSkI8A4Sf0JOpkFiIPQWd7l0vZ6tkWcNFOWgdRPxZe0plgMuk8Y0MiNtEPC4LZHT++4yk3t1FoNAX/e1tVIn9E8Fyzd8G9bo+Dz8V5t1cPTbXI6ytcOf5h8fD4ER0eAceK/qz2j+7+bPTJsqm+57OTU+P+PxVwC0pkfnQHyJalPi/q2+Jhktu83j57efrGPsiHTsQlgABybjdffvGv5xtu6e8tzaiWkOvCNkunQkTIa0u15ablxbGwJ1N0Aui2QlB4Cq2UXyLaY3v+nydS/3vM+pK0S1Gttb2XzfjowqKXUYij94U8z2t/hAydk6B+BWt4n/ZOMq09I4PynN/3v9lJJwwYnkvQkvBHS4etL0Kdp0P4oqy/DR2QkGCcwkj4kb5WRILMA/SHv7loN+/tozNG/3vuzGws17UiPRUwNGT3Dw9WM37Hk0r8PMObJxTPaZx7vGr7zlwAGgL9tU5Fk5zy9YeGeUnBBRRdXcJHuzddRvnb6Q+RnPdwgG+UFuiFmIBhmASq4eTy5RIP+aPCfOGmibP1rTXDrX6Wy7RLnvxXa+XvY+zeH4bonTm+bVKkuXOcfAX+8W/xjkwqJHu7quFCClPwhjrB6EwyXzl6d3c6WUc8k+akj/nro/JXLOJnCj+unoB2Kbi0k+U1A1/53xNz5ofdKiwed/26551bIThYfb7smE26m8/f7WahEOgyASih5fs1DXW3vkDCl/9dfMdXJ6dS+Tj8fdIm3s3q810unfzQLdeMaJ34LcZJ2/RtjBhaKUz95KyOwUZzk4naYLerYWll1iV2l2/76Rv6J1VB9wY1BsGvJjLbW6ksgpy8EMAB8aYmYcjw4vfWcUWG45ETF6BR/m4xu3iZr2urhPF46ffXqr/c0XqZ0czHNGx1Z6giT5CcBPQlyp578EyOpq6ce+esy7ZWR/zKZ9o+3iJGMBs3S+T85o31MMqVTaq0JuL3Ta61tPdcnZ24/2NV65sgweNMIXDran/rKFH+HdIZZc2griI3TIsZOnKR9/wZmAeIgTDTvevGUj9f9yz0iz4bG/neV9ogB87R0/jHtmETEl9Dd25/Qzt8YH22TRHSu90LjvRHrnU7a9BMj4Pend8wekTf3qej5Vzq9s14Z7Y+p0yn+SpupVayAuDf8LhmdxTlquFJZua5/BDRa3u6YvabeG60Ot/3pvfV0b9Gvkf8rFpWM/Lc9MaNjLJ1//+5L36+O+z70Xb9MyvfQ9PZ3yeEl3zu7oRBNllH/QIcjGp8aQDd1xZ0FUH2eYRbAp2btk2WdhQA542Tq39Vy2A4xXrxc85dBxJAw98gTZ3S0eNfoCBSbAAZAbIR+FvDr6W1XSuPOFemYrjuqiVrVFyDmDK8e46pHMZP8IKDBnuJEe1Qt9EU4Pucm2JOe7LlKRv5xly+SaI2x+fCnj57eenYSZVOmewIYAO7bIDEJbp02/jZxif6IVBAvIH5iEta+YHWCHCNbHOMm9QXABIhLMX5+nfVfb2FGRrf9afCfWqetIruPQX500nBMLvcf901vu6zWTKivdgTivwlrJys1VUHglmkTfiyBQT8gWQ9Xkb0us7TLyz7ujgCNCbDVwrRzXQKuoVJbZPQcJ8qjiqq+Mm0xHUSrUflZuX/WengPqR00NjTX39/V+olq9CJPeghgAKSnraqW9Jap435lovC9QRC9WHUhdZRR13lb9a0fMz0rozcNO0tyQ0A7/k0WOtAJsixUy7X/SCb79awCvX98S7I8Fo0r5K77XVf7Z3yTDXnsE8AAsM/UyxJvntayMCpH54hwG70UsMZC6XqvHnAUJ+m5bM/Ii5zkhoAejhOXvk77T6jh6F83Kuoe/7gHFSVBvDEwJVnz/+CiztZvJlE+ZfpHAAPAvzZJTKJbT2tdVioX1aFncWKVpKRgdQTUpYC4Sc+b3x0z9GxcGbKY3xb3dhn9x78LKmuBHpksevJwKXgu5nbFymrr31VyqM/BUY3mbYs62+7sX06uTjOBWt37aWZUV7Lfflr7toGH8+eJUgvqSrEqlFFnwAExQwRrtTZGolWIn9ksOnFuY+ZFOj1xdIs3C1RpI+yXzn9xTzF4ycMloyGh2d7S29C6cFpb5gcGlbZnvVxXm7u/XmjVkR6XRVFu5JotN0aR+XQdqdVvVTR4zDLZghU36clxeoIcKXkCz8i6/2YL6+d6/oUegpV0el5mifQeK3roLjI8NEv35treurzT9CTNgfL9I4AB4F+b1FSieas2XxMF5gapNPk3YU01q7yypTIy2ysv6ThJH6S3NOSDwRZmFOLIUe95X5QR9BJpr7gD6WGy7j9DgmQlnfQUSXX4i3d32ZdS3V9Gh+Zn93e16w4hUkYJZPaln9H2foPaN0+d8O3AhPISyO4OgUkyco9rCesLfqW86D1c3n1Dm6f1Dzr1v8rC8bja1pMs+H8cj6PeD7o0tMrDzl+OO47G5sJ/ofM/Xgtm4zsMgGy083G1vGVKyy/Ej22WXLTsuBfW6ZfqB6CnBcZNelLgs3IgDSkZAjr1b+M0RvX61/X/pFKv3Ac6q7TVw3tBDvTpaQnzl/xuetuXk9KfctNDAAMgPW2VqKS3nTZhrSk16A6BTHoBd8iIsMlCp7BF1qZ1zZdkl4Au0WjUvLhJt362JTj1v0/kXCyzFD7eA8PCYFNb0Dzhnq7xv4nLkfz1QSA5M7g++GRSi7krt8yROfHviPKFLAHQ09iWy5Rt3KSGxCxxMJOp1rhFkV8IqPPcYzKijhvxT2FOL+SDEQl5/u+U9Z/VxaJ3y0B6F47M5+56cHrre5QBCQJHCDADcIQEP18lcMu08beHYfndEkJ4+6t/zMAvI2Vq+GQLTnwaHXC1hdFqBpBXpOJq8aC30flr2ybR+Wtkv/WyPLFC5PTNB0QiHJbHF3L/TOdf0a2WuYswADLX5JUp/N3Jrb+PTHmWzAQ8UlmO+rjqVJketjFA1NkEH9eA09ZKut1Pg/7ETerhMUlG/7aTGntLZMp/k4cGn+xI2ddSDmcv7Gz9hm29Ka8+CGAA1Ec7JqLFrVMmbM2HB99pAnOTVBD/LZyIlHYLVeewdkvHwq4TL3A9OphUHQE94ldH1jbSxEIYiAOc1aRG3uOyNOFbG6uaI3LhYwNy+8fePbP1MatKU1hdEbD8SNQVG5Q5isDcNVvfHZSj/5I/tRz157r8Vbts9eK24cilTmezJD5AgSetX/eKhmZ6/HDRymFLJ8nU/xnSBraSTvOrYbJVDADfkk75j8wF8383vf1ffZMNefwjwGvJvzbxVqKr124bWSyVvicCysmC9Z30uN/HpAOy8YrXtecumX7GJ7Cye0bX1J/qKUtwpvj0NcLDrMa8tdG/hvRdKcbhPrk/fEti6GwbVMqdt2jmhLW+yYY8fhLAAPCzXbyWat7qLVfI++9mEXKg14LGFE5HeGst7ApQMcaJg+GkBLefxVTVq+xrdXRtaU19sjBvEfY2UrfcDxqLwDdHP/VvEOfGnz/Q1X6pDT0pIzsE7DwZ2eGFpkLg5injf1gy4SwZAz1Rz0C049DpYxtJjQmcAk9MUp3+bHX+2nY2Ov/DcqM/JR7+azyM9DjQBAfGFfJ/Red/4nuLK95IAAPgjUz4SwUEbp/SsqqQO/h28Q1UD+P4c7UV1FnrS7TrnyojSFurx+ukc9uDU+Axm/E5mfJfbyl6nrbZNAszLtvEcHuspzfY49mwX5eTRuZyjwzKHxh9T+eEu48JlS8gcBwCdoY3x6mAr+qfwFVrt86UedHvyc30lnrUdrd0AsssLQVocKAZEiRoMA4Br7lV1OP/SdlOZ+vYnOnCeESMk/56ZNS/Rqb7te19S7JT5dDwfPCphZ3t3/dNNuRJFwFmANLVXl5Ke+ukcUvK+7bPltmAz4mAh70UMoZQsqUqGG9pHbkozhO6w0BDxpJeJqAOdcrEVuc/QbZxxun8dXvfnw73etf568t6ZGgeHJzfP5LOn6fHBgFmAGxQpIxXCcxbvvnUKGdulz+c/+of6+AX7a71GFpbe75lu1YwU6ao9SCiLCc93OdJ2W1h6zB6PY5Zj2WuhmpfBEeJ3WBj94HtNh0UmhdPNvkPEcffNtlsl1fNc5JtYmh/YgJRZOau2nplYKLrJZzwkBNnSMcVGo5WtwbqHnUbqVGevjMaCta2qNmQqZZlHBKraomsr6uTnY2k6/665a+/hzrptsOtssa/QTp/W7MQNvTRMiQqZTTKBHcO72r/0J3G2ImKZEs4ykk9AQyA1DehvwpcvXbLeFlG/a5IWDdxA3RNWA8MstRnBRooSH0Ckjye1sc75IAsgSwVjjZi/Kt++iLTdf/h/Vz312BP60QOL/f1G9N9Ur5w8V2d45b42IbIlH4CGADpb0PvNeiLIhgFNwZR1Om9sBUIuFG8+TeIZWMr6ci1S6ath2ZkOUAd/p6STrdXZlRspYlynHNrXnfEV5bUyU/39O/w0MlPZjB6hofmq/d2tc2vTBuugkB1BDAAquNGrn4SmPP444XcwDF/L0O1r0jWEf3M7t3lK6UDs9l5aNfVKUaAjdMIvYN1lEC6vr5MovzZm0MJgjHioKnbNStJR6b7nxUjTh0yfUpiCEYn53N3G/PS5Q90du7zSTZkqU8CGAD12a7eavXx5ZtPbsyFX5YX8adEyMre2h5qo5vD1HP9BYve/PowTpGOTDu0ekwaSU8jK9rsdjXYz4wKnf50ul/r3+9Zx6/tflIYrh+aCy65q7NtRT22PTr5SQADwM92qXup5q3pnhaVoxtk0HNRWpXtlZ5ssTixqTObzTRaDIDJMp1t41him3JVW5YaS+tkur1bRt02U7PupJB1/4YTxFRQf4MNYnzo9j7fksSD2HtS3sxZ2Nn2U99kQ576J4ABUP9t7LWG81ZuvjQKzddlWHiq14IeQzg9HGaJ7Bm3tTPgSDW6nW26zAaok2Cak26tWy4Bfl6yPOpWvwnd7ne8bZTqYLhBjI4dsuxgufrYTaLr/CMC881FM9q+ELswCoBAlQTS/XapUmmy+UVgfhSFO1Zv/YBI9VX5nOKXdCeW5kXpXZYethfF7kiNOrKdLOfYxwlqc6QsFz93y9a61RJDv9dy5X3RFMU4UiPpzZIaY5tkxkHPX/Asgq8adEVZtrijfXf5yh+c33HozeTnbxCoFYE3f4JqVTv1QOAoAkccBSMTfEluzPFHfeX9r3tlmvlp8QlIYpJ5ZN+SQBho8KA0JO2A18tau6752066LKJHK7/ZIU1a2xYZ8W+S8wSKlpdl4urRGJjSSbngV81NvR+9a9KkF+OWR34I2CCQjjeKDU0pIzUELlu+vGFEOPSjsmNgvgg9Ni2CPyfDzWUy4k2i7ykIjA4jD7UAABGSSURBVMkNoYSC9dtBcKd0+nroUU8Cc+76stLtkq/fKaEdvx7ao6N+W0GFbN1zBROUJZT0r8Pm4hX3nnLKC7bKpRwI2CCAAWCDImUkQmDO490D8oNKElHQfF76k9GJVGK50F0yE7BCZgKSMAJUVI0VoHveh3pmCOje/vXSAetMSBJJJz9OE8dInQ05knQ/wTYxurTj1339PqVCaMrDwvCeIYfyVyyY1bLbJ9mQBQJHCGAAHCHBT28JfGzVrsFN5vAnxAi4RoRs81bQVwRTb/MVlre7vV5nnQnoEP8A1xEENZb/BtFVDZ+kknb502TkLwfh9FWhswu6vq8f36b6mwJTlO18C4YMLM/91cSJO5JiQrkQsEEAA8AGRcqoCQF1Fty5qvuvozD6ggz+5PRBf9Me8TxX73d78QLfqKs+vCOkU2yRkfGwYzjEvTGXnb9oQB/tgJ+Tjl/648RSTpY+pouhM0xG/r3S6JtleWGrfJLkWo0yA4Lg4EmF8L8n7Cxfg3NfNQTJ44IABoAL6tQZm8C81d3nRlH5H6SgS+XjZUAh3R3wlMXDg44HTWcCWmRpQGcG9JChJJJu6VPPfnXu05F/0qkgFeiav6qjxoZGXky+1sq1UrmGGrNraN7ccHdn29cqz8mVEPCDQEKvCj+UQ4r6J6DHDwe58GoZh14p2jb7prHGCXjK4ol3legnwWWCk2XErLMDcoxsXwdaSb7XX6Odra7t6yj/ORnx70twmv/1dasRMyGXC54TQ2OvdPw+JV2SEB+M9YPC/D8unD5ugU+yIQsE+kMAA6A/tLjWWwJXrds+yhRLfyeRBT8hQk72SVANSLMsgWA4leioD7gGyxkkRsFA+U+TCfumS/ImkkiDLz/+JZFPt+6VZP/loUg6evn/AelzNWSuixF3o8ii9fbIx6fUbIKewWHunsaG0mcWTulY5ZNsyAKBaghgAFRDjTxeE5i7svvMICzPkV7kwyKoLM+6TzqGXSPOcts9G826J/NaCfSF5MLoeK0Uf/6fri0NzZmNA0307YWd7TfKjhSfxPuzoPwGgSoIYABUAY0s6SAw55lnhuZ6Gj8oc+BzReIzfJA6iQNxfNArvgzar/rzOmoKzeEhYXhfQ6+5ZtHMCWvj60cJEPCPgD9PnH9skKiOCMxdsWV2EJqPy/hSQw4Pc6ma7pXXbYK9MsVO8oeAnC8QDc2Fq5qi8vX3nt7xn/5IhiQQSIYABkAyXCnVUwKXRVFu5JptZ0dB+SMy1/xBEXOoC1F1L7seTZvk/nkXeqWtTgktHKlD38Ag+FFQfv76hTNm7E+bDsgLgWoJYABUS458qSdw9dq1jaXigAsjE10mg7/3yRT0kForpUGDVoshoE54pNoQUC/+wWG4Y2Au+OWAg4UvEqmvNtypxT8CGAD+tQkSOSBw7ebNzQf3Be8JjblcfN8vqqUxoPvr1UFwTw232TlA7LRKOUEwGmyizQPC8CfFgeWvPdDR8bxTgagcAh4QwADwoBEQwS8CukwwYtW2M0xQuiQy5mKR7i3ySfxZ2S177deJIXAI1wArN8QA2bY3KAyfasyZHzce2HnbglmzDlgpmEIgUCcEEn+p1Qkn1MgwgZdjDBTPEwSXyEcNgsScCLXv16h3z8oBN77FuRfRvE4S1yCSeAc7m0ywqMkUb7p7+imPeS0wwkHAMQEMAMcNQPXpIjD//ii/s2Xb7KhcukD2hJ8r0r9NPuJDZjdp3PsNveW+uAF+xcGzq2ec0rTDl1H+3qYgeDpv8nfsCMd9f3mn8S1+UBwVyQuBRAlgACSKl8LrnYAuF4xasWlqOcydI4sEahC8Qz7ttvTWrYJbJf7+Fp0RsFVoSstpNKYkZx7saDLlxQ25/C8LB3b8hGn9lDYmYntBAAPAi2ZAiHoicNXKbe1yKuw54jbwdnnAzhLdTpNPrFmCkswIdMuagAYSOpiB+AGh6Ntswv1yJsAG+TyUDwo/Wtg17o/1dJ+gCwRcE8AAcN0C1J8JAp9etamlHOXOjExZjAHTKWfonilLCFNFed2V1q/0khgA2+VI3J2yayDtwYT0BdQYhsXmINpVCM0zhShYUoiiu3Z2td272JjefoHhYghAoF8EMAD6hYuLIWCPwHVLtw/c19TbKRbAjKAcTpR4BB0y8JXZg6BDahl1oprUYXCP7BzQI3qfF2PA55mBgjHlhsAcaDDlPXLAb3cujNbIcb/3DSw13/XzGWN2nkhXvocABOwTwACwz5QSIRCbwJzHuwcUmns7SmFOjAHTLgHrOmSuoD0ql0fvC4KxcjTvCDlqeLBsGTQaR+CQzgZIrbV+oPVAwVxgynkT9Eoo3cP5KNhXCINuE5kNBROsyEVmSUNP/mGC7cS+JSgAAtYJ1Pp9YV0BCoRAZglEkXnnE1tOuWL40K8HJrr0+VIpeKEsHznS95DMDByUKQINObxPfj8gP4vy0f/rrgJ1KCzJdZryYllISFzpyKOgIMcFS9AcOTpYPmEYNPT9NHKNCYbKdxIrPxiey8sKhvnZz1/Yc92CGe0b+grhHwhAIHUExGgnQQACqSQg2+AeCIJ1t+7s3eRA/k0fa6fzd8CdKiFgjUC/HZCs1UxBEIAABCAAAQg4I4AB4Aw9FUMAAhCAAATcEcAAcMeemiEAAQhAAALOCGAAOENPxRCAAAQgAAF3BDAA3LGnZghAAAIQgIAzAhgAztBTMQQgAAEIQMAdAQwAd+ypGQIQgAAEIOCMAAaAM/RUDAEIQAACEHBHAAPAHXtqhgAEIAABCDgjgAHgDD0VQwACEIAABNwRwABwx56aIQABCEAAAs4IYAA4Q0/FEIAABCAAAXcEMADcsadmCEAAAhCAgDMCGADO0FMxBCAAAQhAwB0BDAB37KkZAhCAAAQg4IwABoAz9FQMAQhAAAIQcEcAA8Ade2qGAAQgAAEIOCOAAeAMPRVDAAIQgAAE3BHAAHDHnpohAAEIQAACzghgADhDT8UQgAAEIAABdwQwANyxp2YIQAACEICAMwIYAM7QUzEEIAABCEDAHQEMAHfsqRkCEIAABCDgjAAGgDP0VAwBCEAAAhBwRwADwB17aoYABCAAAQg4I4AB4Aw9FUMAAhCAAATcEcAAcMeemiEAAQhAAALOCGAAOENPxRCAAAQgAAF3BDAA3LGnZghAAAIQgIAzAhgAztBTMQQgAAEIQMAdAQwAd+ypGQIQgAAEIOCMAAaAM/RUDAEIQAACEHBHAAPAHXtqhgAEIAABCDgjgAHgDD0VQwACEIAABNwRwABwx56aIQABCEAAAs4IYAA4Q0/FEIAABCAAAXcEMADcsadmCEAAAhCAgDMCGADO0FMxBCAAAQhAwB0BDAB37KkZAhCAAAQg4IwABoAz9FQMAQhAAAIQcEcAA8Ade2qGAAQgAAEIOCOAAeAMPRVDAAIQgAAE3BHAAHDHnpohAAEIQAACzghgADhDT8UQgAAEIAABdwQwANyxp2YIQAACEICAMwIYAM7QUzEEIAABCEDAHQEMAHfsqRkCEIAABCDgjAAGgDP0VAwBCEAAAhBwRyDvrmpqhgAEqiHwzvn3518aVpxtgqjDBGHzHU+u7xo9qLmaoqrOs2Pfwa6zvn3vnCgoHwzKwfpBLxQefWD++cWqCyQjBCBQcwKm5jVSIQQgUDWBt9648LIoMDdKAS1VF5JIxmiLicKr/3Ttu3+RSPEUCgEIWCeAAWAdKQVCIBkCZ31r4UcDY74vpfv63EaS/vbxay/8STIEKBUCELBJwNcXiU0dKQsCqScw86bfjsyXC8+IIoP9VsbsbWw4dMof5l281285kQ4CEMAJkHsAAikgkI8a3i9iet75K8hoWE9v03tTgBQRIZB5AhgAmb8FAJAGAuJsNyUNcqqMsgwwNS2yIicEskwAAyDLrY/uqSEg3v6NqRE2CJpSJCuiQiCzBDAAMtv0KA4BCEAAAlkmgAGQ5dZHdwhAAAIQyCwBDIDMNj2KQwACEIBAlglgAGS59dEdAhCAAAQySwADILNNj+IQgAAEIJBlAhgAWW59dIcABCAAgcwSwADIbNOjOAQgAAEIZJkABkCWWx/dIQABCEAgswQwADLb9CgOAQhAAAJZJoABkOXWR3cIQAACEMgsAQyAzDY9ikMAAhCAQJYJYABkufXRHQIQgAAEMksAAyCzTY/iEIAABCCQZQIYAFlufXSHAAQgAIHMEshnVnMUh0BcAvPnh2cOnT06DPLNcYs6Yf4oGHrCa/y5YOhZ37p3YpLihLlcT7Fx8I7Fn5zVm2Q9lA2BeiZg6lk5dINAEgTOvuGPzb25/V80UXCllD8qiToosyICL0ZB8OOomP/S4uvO311RDi6CAAReJYAB8CoKfoHAiQmceduCAeHBxkVBYN5+4qu5okYE1pej0rmLr71oW43qoxoI1AUBfADqohlRolYEwoNNX6HzrxXtiuuZaMLcv1d8NRdCAAJ9BJgB4EaAQIUETr3pt43DyoVdcvngCrNwWQ0JhCaa/Og1F66tYZVUBYFUE2AGINXNh/C1JHByEE6V+uj8awm9H3WVAzOzH5dzKQQyTwADIPO3AAAqJVAuhYMqvZbrak/AlKMhta+VGiGQXgIYAOltOySHAAQgAAEIVE0AH4Cq0R07YxRF4apdpY+YIPqQXNUuTmPEWzg2rtR8s2L73qav3vdkS2oEzpigV5w5adcFU8a/lDG161jdqCjKPWsi8z+TR+V+ZIwp17GyTlSjY7KM/f4oyq/eXfypWFbv+3PRsluZlHoC+Rz2ss+NWMiFI4Mgkg+pjghMjkx04apdxb+Rd+vl5xujRgHJEgGWACyBPFLM2F3FzwbR0Z3/kW/4CQEIQAAC1RAQ0/v9LbuK11WTlzzHJoABcGw2/f5Gpv51iDiv3xnJAAEIQAACxyUg86ifOu4FfNlvAhgA/UZ27AxPvxCcJN+yRnxsRHwDAQhAoFoC4zfsjfQdS7JEAAPAEkgtJtcTNFosjqIgAAEIQOAoAgd6g6aj/suvMQlgAMQESHYIQAACEIBAGglgAKSx1ZAZAhCAAAQgEJMABkBMgGSHAAQgAAEIpJEABkAaWw2ZIQABCEAAAjEJYADEBEh2CEAAAhCAQBoJYACksdWQGQIQgAAEIBCTAAZATIBkhwAEIAABCKSRAAZAGlsNmSEAAQhAAAIxCWAAxARIdghAAAIQgEAaCWAApLHVkBkCEIAABCAQkwAGQEyAZIcABCAAAQikkQAGQBpbDZkhAAEIQAACMQlgAMQESHYIQAACEIBAGglgAKSx1ZAZAhCAAAQgEJMABkBMgGSHAAQgAAEIpJEABkAaWw2ZIQABCEAAAjEJYADEBEh2CEAAAhCAQBoJYACksdWQGQIQgAAEIBCTAAZATIBHZ28sB+Wj/8/vEIAABCBgjwDvWHsstSQMAIs8nx8d7JXiDlsskqIgAAEIQOBlAoc2jw72AMMeAQwAeyyDWcb0miD4jcUiKQoCEIAABF4msOB8Y4rAsEcAA8Aey76SikHps0GElWoZK8VBAAJZJiDv1DAqfS7LCJLQHQPAMtXOUU3rwlz5XCn2IctFUxwEIACBzBGIguD3Jlc+Z/LopvWZUz5hhfMJl5/J4iePaFwpiv/Fiu6ozRSKHblyAOc6uBOWbt3dKWrcWAeq1KUKi7fsvuEvTxl7V10ql0GlSmFQjHrzG05rMRszqH5NVKZjShDzKzcuN2+CjGtZ9KxvLTxojHh5kLwksLR7z4rJowv3eikcQkHAQwIsAXjYKIjkJ4FcLtRdHiRfCZgyHuK+tg1yeUkAA8DLZkEoHwm0jtmzWuTa7aNsyBSUS+XyI3CAAAQqJ4ABUDkrrsw4gTsvv7xkgugbGcfgpfqyMvODxddetM1L4RAKAp4SwADwtGEQy08CbS3PiwEQ3eGndJmV6uH9+fw1mdUexSFQJQE8mqoER7YME4giM+umRR82kfmkUJgpnwEZpuFK9UNBZFbLC+yH+1/Y853l8y/vcSUI9UIgrQT+HzelvlePzRIIAAAAAElFTkSuQmCC;" vertex="1" parent="1">
          <mxGeometry x="69.5" y="290" width="41" height="41" as="geometry" />
        </mxCell>
        <mxCell id="ItvUEO7hq5XVIe8wMghT-7" value="" style="group" vertex="1" connectable="0" parent="1">
          <mxGeometry x="210" y="240" width="25" height="25" as="geometry" />
        </mxCell>
        <mxCell id="ItvUEO7hq5XVIe8wMghT-6" value="" style="ellipse;whiteSpace=wrap;html=1;aspect=fixed;fillColor=#fff2cc;strokeColor=none;" vertex="1" parent="ItvUEO7hq5XVIe8wMghT-7">
          <mxGeometry width="25" height="25" as="geometry" />
        </mxCell>
        <mxCell id="ItvUEO7hq5XVIe8wMghT-5" value="" style="shape=image;verticalLabelPosition=bottom;labelBackgroundColor=default;verticalAlign=top;aspect=fixed;imageAspect=0;image=data:image/png,iVBORw0KGgoAAAANSUhEUgAAAgAAAAIACAYAAAD0eNT6AAAAAXNSR0IArs4c6QAAAERlWElmTU0AKgAAAAgAAYdpAAQAAAABAAAAGgAAAAAAA6ABAAMAAAABAAEAAKACAAQAAAABAAACAKADAAQAAAABAAACAAAAAAAL+LWFAABAAElEQVR4Ae2dB3gd1Zn3z5nb1GXZau6yLdkGgzvNNBsDSUgIkIQWQmAJIeyGbCgGbAMbJYALxpBeNiSbDSWUfAmEbAIB40Yx4AoYG1vuTcWSbfVbZs73jrGwJOtKt0w5M/Of55HuvTNn3vJ75975z8yZM5xhAgEQcB0BsXpKgDXmjVc1Uc45G8E4K+NCjBCMD6VksxgTmfSa8ekf1+jzbs74LsHYLpq3Swi208fELiYCu9ihgn38qhdUmo8JBEDARQS4i3JBKiDgWQLizbNzY+2BsxXOzqYd/jlCiNMZ47SjN2SKkYDYQ5b+pTH+gv9g4TIIAkO4wggI2EoAAsBW/HAOAqkTEG+flam2Bb+kMH4tHblfQpZCqVtLas2DJC7+qgntBb+PL+UzlsWSWhuNQQAEpCAAASBFGRAECCROQLx23iRNUe6kNS6nv5zE1zSlZT2dHXjx6JkBLpZADJjCGEZBwBQCEACmYIVREDCegFg6fazQ+I8EE18j6xJ+d0UtE/xHio/9BkLA+PrDIggYTUDCHxGjU4Q9EHA2Adrxl2ka+wFlcT39+RyQzWYSKff4Zy5/2QGxIkQQ8CwBCADPlh6Jy06AdvylmmD3MyG+TQf8Qdnj7R4f/bgs5Zp2F79oxbruy/AZBEDAfgIQAPbXABGAQBcCYuU5BVrEfy/dmvc9A3vyd/Fh4Qc6GSCeVHz8ProssNdCv3AFAiDQBwEIgD4AYTEIWElAvDFjisbEX5lg+v36bpraGBeLFM4fRP8AN5UVuTiZAASAk6uH2F1FIPb69BvoHv5fU1L6AD2unDgT/+Ja4Cp+0etHXJkgkgIBBxGAAHBQsRCqOwnQtX6/pvHHPj3l784cu2YlPlZi4kv8cyt2dJ2PTyAAAlYSgACwkjZ8gUA3AuLVi4tVf+R5+iKe322R2z/W0eWAK/gFS99ye6LIDwRkJaDIGhjiAgG3E6Aj/6laILLagzt/vbRFmhBL6LLHN9xeZ+QHArISgACQtTKIy9UE9B0f3du/0oWd/ZKpW4j6PDypvj7jR/TwIZyNTIYc2oKAAQTwpTMAIkyAQDIEYkvOv5S+eC/SLX4Q4MfBPavUF30DDxk6DgTvQMBsAvgBMpsw7INAJwJ0m98EeuzuM9j5d4Ly6dtrtAF1C06YixkgAAKmEcAZANPQwjAIdCVwbGS/9zx+2r8rlG6faNSgr9MQwn/qNhsfQQAETCAAAWACVJgEge4EPn10b2g5feFO674Mn7sQaFMUNo0GC1rfZS4+gAAIGE4AlwAMRwqDINCVgN7BTbSF/oidf1cucT5lUufIF+lsSWGc5ZgNAiBgEAEIAINAwgwIxCOgLT3/IcGY/ghfTIkRGC408Zx4/konPPkwsYzQCgQkJAABIGFREJJ7CFCP/+uZ4HPdk5E1mdBJkwuoU+Cj1niDFxDwJgH0AfBm3ZG1BQT009h0OruKXOVb4M6VLujyyfX+C5c95crkkBQI2EwAZwBsLgDcu5eAJlglZYedfxolpoGCfkpCql8aJrAqCIBAHAIQAHHAYDYIpEOA7vcfQ7f7fScdG1j3KIECOosyCyxAAASMJwABYDxTWAQBJoT2CGHwA4UhBL4vVpxbZIglGAEBEPiMAATAZyjwBgSMIRB9bfp06sT2ZWOswQoRyNGi/jkgAQIgYCwBCABjecKaxwno9/wriljscQwmpC/+nfoCDDHBMEyCgGcJ4BSlZ0uPxM0goC6dcT1nYrIZto2y2RL1texvyajb2Zx1pC3iiw3Na8sdmts2YEAw2p9zIeudQRmaKh4gBuhXYdSGADueJyDrl93zhQEA5xHQh/vV2kJbKHKpjlTDqtL+tx2lH/5h85D2Dw/mjdYEL4lDt31gVvuHXy0/0H7DSXtGD8wKx2sXZ3XTZ8cUpozlM9/YZronOAABDxCAAPBAkZGiNQRir0//hv58e2u89e1F3/Hft2rsu89tHTyBLk0keyudqMhveed3F64fOjKvdWjf3ixr8ZRv5rLrLfMGRyDgYgIQAC4uLlKzloD2+vQX6QT6ZdZ67dnbExuHvfPg6jHDVY0N6rlFwnMj5ww89M4fLlx3eoZfzUx4LdMaCk0RgQp+4evbTXMBwyDgEQIQAB4pNNI0lwB1UMuh+9XryEuGuZ56t64xrl3/6sSVy/cXnt97y+SWZgfUTcuueKf/wOw2GS4L3E9nAR5OLgO0BgEQ6E4AdwF0J4LPIJACAVVlX6LVbN35t8V8LWe8cO4ao3f+Og7qOHjSGf/vbPZ+Tf7mFPAYvcq1RhuEPRDwIgEIAC9WHTkbTkDh7KuGG03CoBBczPzrWR8eaA6dlsRqSTXVVF7y1X+eNmBfc+aBpFY0vvE48dp5pxpvFhZBwFsEIAC8VW9kawIB8fKlWYKJS0wwnbDJby8Zv3x3c+aZCa+QYkO6g6DoghfPPNwe87WlaMKQ1TTuw1kAQ0jCiJcJQAB4ufrI3RACanbzFxjjWYYYS8HISztK17yyp3h6CqumtEpL1H/SNa9OeT+llQ1bSRBzTCAAAukQgABIhx7WBQEiwIX4ml0g9E5/s94cl2e1/9W1+Wdvasi1ryc+F+PFP75ged5Wc4Y/EDCTAASAmXRh2/UEaCcUoiS/aFeiP18/4u22mFJhg3/fTW9M0O96sGniSiyj/SybnMMtCLiCAASAK8qIJGwjkNmm73xz7fL/+IaRto06uKcp84yP6nNtG5VPEeIcu7jDLwi4gQAEgBuqiBxsI6AKPtwu5/rON6rxMrv8635/u3H4Hrv80yAmZ9vlG35BwA0EIADcUEXkYBsBrokyu5w/8fEw23a+HTn/a3dRUcd7q18FYydZ7RP+QMBNBCAA3FRN5GIDAfvOACzZU1RgQ8JdXDZF/Sc3tAcbusy07kOJ/gAm69zBEwi4iwAEgLvqiWysJsA12y4BNEYDth19d8LMqw5l13T6bOVbzsIh2/hbmSh8gYAZBCAAzKAKm54hIJg9ZwD0kf/oQT+FMoCuasxqtCsOVRMj7PINvyDgdAIQAE6vIOK3lQB1RCuzI4D6sP8Q+Q3a4bu7z62N2eHu86z6zG0SYFblBz8gYCYBCAAz6cK2qwnQEwD1h/8U25Gkj8YfssNvTz4pFvsmwTEYkH304dnhBCAAHF5AhG8jAdU3jLzbsiMuyIjqHQBtO/LuTL08v8XOpyDa6bszBrwHAccRgABwXMkQsDQEhGrL0X9H/n5FHOx4b+frqPxm+47CucBdAHYWH74dTQACwNHlQ/C2EvCzmJ3+84IxG4fi/SxzraJfa+lnn6x/gzMA1jOHR5cQgABwSSGRhg0EYpqtp+AvHnbwiA1Zd3GZE4h93C8U7ddlprUf/Na6gzcQcA8BCAD31BKZWE2AB2wVADefvFPvg2Dr9PnhdfZehhD8gK0A4BwEHEwAAsDBxUPoNhPwqRE7Ixhb0Dwi5BPb7Yzh1lN22joQj2Bil535wzcIOJkABICTq4fY7SWg+vR78W2dZk3aatsR8PC81lW6CLETgE/hO+30D98g4GQCEABOrh5it5UAv3BJPQXQZGcQt56ye1q2P7bZhhhif5i53s7Of5+mzHEGwIbaw6VLCEAAuKSQSMM2Araegudc8MfP+6iNsqeH41k3nVl66K2Kfi1l1nns0VOULZ++v8clmAkCINAnAQiAPhGhAQjEJ0CjANkqAPTILhleN+nyEdXL40dp7BK6/fCjZz639kxjraZiTezhlZVaKmtiHRAAAcYgALAVgEAaBOiw23YBoIf/8+kfTh+V3/J2GqkktKriEzVLrni7KKhooYRWMLERPQcAHQBN5AvT7icAAeD+GiNDEwkIwdaZaD4p0/+6bNXk4bltq5JaKYnGNPLgvr994b3GgVnhkiRWM60piS8IANPowrAXCEAAeKHKyNE0Aj41+BoZt/T6e7xkQj4t482vvnXGl8qqlxkdU0EoumH1NSsyJhY1VsTzb8P8nTb4hEsQcA0BCADXlBKJ2EGAf+5fteR3vR2+e/Kpdwr89YwPp//s/I/WBA0YI4Bz1qILirXXrDi5MBQZ0JNPu+ZpQph+ycOu3OAXBKwgAAFgBWX4cDuBf8mW4BUjD0zdev2S4d8bv2MliYLqFOKLnFZ8ZMXqq1a06oIioGiBFGyYuUq938eXmukAtkHA7QSoEzMmEACBdAhEl1xwgcK0JenYMHNdjXFtxb4BG5/4eFjDOwf6Dw2rfBj5O2EMfYWzg6PyWrZcN3Yvv6p8/ynU2z/XzLjSss3Z73wXLLs5LRtYGQQ8TgACwOMbANJPn4B4/sqgNqCWRgXkWelbM9+CLghqWjLqdjZl1LfEfDEa0a/fsOz2Yr0PgfnejfGgCfaFwIXLXjHGGqyAgDcJQAB4s+7I2mAC2pLz/08wfonBZmGuZwKHlPymEj51TbTnxZgLAiCQCAH0AUiEEtqAQB8EhODS9QPoI2QnL34JO38nlw+xy0IAAkCWSiAORxNQmP9luhsQo9JZUEXB+Z8tcAMXIOB6AhAAri8xErSCAL/w9e2cKf/PCl8e93HEd7BQH3sBEwiAQJoEIADSBIjVQaCDAFfEvI73eDWLAP8bv+qFiFnWYRcEvEQAAsBL1UauphLgM5at50z8w1QnnjYuNEVTF3kaAZIHAQMJQAAYCBOmQIBzBWcBTNsM+O/5RSs+NM08DIOAxwhAAHis4EjXXAL8gqVvCSZWmOvFk9abFYU94MnMkTQImEQAAsAksDDrXQICZwHMKP5CusSSypDGZsQCmyDgCgIQAK4oI5KQiUDggqWvUjxrZIrJ4bHsVTLDix2eA8IHAekIQABIVxIE5AYCihDfozxUN+Ridw503/99fNo7bXbHAf8g4DYCEABuqyjykYIAv3D5OxTIg1IE4+ggxFrfjKVPOjoFBA8CkhKAAJC0MAjL+QSU+qKHBGO6EMCUIgGFK3dyurcyxdWxGgiAQC8EIAB6gYNFIJAOARqwRvXFtOvIRlM6djy87mK6q2K5h/NH6iBgKgEIAFPxwrjXCfDPrdhB17Bv8zqHZPOnx5S+rKycfk+y66E9CIBA4gTwOODEWaElCKRMQH1j+rN0IvvqlA14a8UNdM//OXTbX7O30ka2IGAtAZwBsJY3vHmUgMLZrZT6Lo+mn0za1UpMuxQ7/2SQoS0IpEYAAiA1blgLBJIiQDu0wwpTZjLO9iS1orcatxOjy+iyCRh5q+7I1iYCEAA2gYdb7xHgM9/YpkS18xkTu72XfZ8ZCyHYjcTovT5bogEIgIAhBCAADMEIIyCQGAG9U6CicBIBbGdia3ikleCV/guXPeeRbJEmCEhBAAJAijIgCC8RoMsBO+lU93S6HLDDS3nHyVW/x/+HvguX/ijOcswGARAwiQDuAjAJLMyCQF8ExKvnDdX8fBljfGRfbV26vIlukbzef8HSl1yaH9ICAakJQABIXR4E53YCYun0IZrG/kF5nur2XLvmJ7YomricX7RiU9f5+AQCIGAVAVwCsIo0/IBADwTocsBeJZx5Gp0FeJwW66fDXT9xwf5P0QKnY+fv+lIjQckJ4AyA5AVCeN4hEH1jxkx6iuAfKOMhLs1aFzgP0wh/P+CVlZpLc0RaIOAYAhAAjikVAvUCAbHynAIt6v+VC0cNbKbr/TfQ9f6/eKGOyBEEnEAAAsAJVUKMniMQe336dfQUvF9Q4vkOTz5KlzeeUFT/Q/zi1/Y7PBeEDwKuIgAB4KpyIhk3ERCvXThMU2I/pJz0JwoGnJWboFP8ytNKTP2BPvaBs2JHtCDgDQIQAN6oM7J0MIFjdwrcRSl8m/6yZU+FM/EXLvwP8AuXfCx7rIgPBLxMAALAy9VH7o4iIF75XH8tEP4eBa3/DZAteOrd/yr3sfvpzobVssWGeEAABE4kAAFwIhPMAQGpCYhXL87WfJGbaSTB2ynQMpuDPUJxvEj39P+OX7h8pc2xwD0IgEASBCAAkoCFpiAgGwHx+syTNa5eTF/kiwUT51OHuyzzYxSNjPOX6ek9z/nqi1/lV70QMd8nPIAACBhNAALAaKKwBwI2ERDPXxmM9a89W+H8YhpTiP74JArFiO94PZ3ef1MwvkJh2krm4+voNH/MpjThFgRAwCACRvw4GBQKzIAACBhJYNqtc+/KzVBvGZrT1jQ0p71tWE5bZGhuGyvOCvsGZIRDuYFYjl9h/uaov/lQONBe2xqK7m/OEHtaMvy7mzIz9jZlZNe1B2tW/Hz+hXRLoidGKTSSP2yBgOwE/LIHiPhAAARSI7CzKScgmsXoDw7mpWbg6Foihp1/GviwKghITADPApC4OAgNBEAABEAABMwiAAFgFlnYBQEQAAEQAAGJCUAASFwchAYCIAACIAACZhGAADCLLOyCAAiAAAiAgMQEIAAkLg5CAwEQAAEQAAGzCEAAmEUWdkEABEAABEBAYgIQABIXB6GBAAiAAAiAgFkEIADMIgu7IAACIAACICAxAQgAiYuD0EAABEAABEDALAIQAGaRhV0QAAEQAAEQkJgABIDExUFoIAACIAACIGAWAQgAs8jCLgiAAAiAAAhITAACQOLiIDQQAAEQAAEQMIsABIBZZGEXBEAABEAABCQmAAEgcXEQGgiAAAiAAAiYRQACwCyysAsCIAACIAACEhOAAJC4OAgNBEAABEAABMwiAAFgFlnYBQEQAAEQAAGJCUAASFwchAYCIAACIAACZhGAADCLLOyCAAiAAAiAgMQEIAAkLg5CAwEQAAEQAAGzCEAAmEUWdkEABEAABEBAYgIQABIXB6GBAAiAAAiAgFkEIADMIgu7IAACIAACICAxAQgAiYuD0EAABEAABEDALAIQAGaRhV0QAAEQAAEQkJgABIDExUFoIAACIAACIGAWAQgAs8jCLgiAAAiAAAhITAACQOLiIDQQAAEQAAEQMIsABIBZZGEXBEAABEAABCQmAAEgcXEQGgiAAAiAAAiYRQACwCyysAsCIAACIAACEhOAAJC4OAgNBEAABEAABMwiAAFgFlnYBQEQAAEQAAGJCUAASFwchAYCIAACIAACZhGAADCLLOyCAAiAAAiAgMQEIAAkLg5CAwEQAAEQAAGzCEAAmEUWdkEABEAABEBAYgIQABIXB6GBAAiAAAiAgFkEIADMIgu7IAACIAACICAxAQgAiYuD0EAABEAABEDALAIQAGaRhV0QAAEQAAEQkJgABIDExUFoIAACIAACIGAWAQgAs8jCLgiAAAiAAAhITAACQOLiIDQQAAEQAAEQMIsABIBZZGEXBEAABEAABCQmAAEgcXEQGgiAAAiAAAiYRQACwCyysAsCIAACIAACEhOAAJC4OAgNBEAABEAABMwiAAFgFlnYBQEQAAEQAAGJCUAASFwchAYCIAACIAACZhGAADCLLOyCAAiAAAiAgMQEIAAkLg5CAwEQAAEQAAGzCEAAmEUWdkEABEAABEBAYgIQABIXB6GBAAiAAAiAgFkEIADMIgu7IAACIAACICAxAQgAiYuD0EAABEAABEDALAIQAGaRhV0QAAEQAAEQkJgABIDExUFoIAACIAACIGAWAQgAs8jCLgiAAAiAAAhITAACQOLiIDQQAAEQAAEQMIsABIBZZGEXBEAABEAABCQmAAEgcXEQGgiAAAiAAAiYRQACwCyysAsCIAACIAACEhOAAJC4OAgNBEAABEAABMwiAAFgFlnYBQEQAAEQAAGJCUAASFwchAYCIAACIAACZhHwm2UYdkEABOQi4GMay1ZiLItHWQ6PHH3VI2wXAdYq/KyN/lrpfTu9CrlCRzQgAAImEOAm2IRJEAABiwnU/se4HJ4dHq0KMZoLPpopbHSrFpioCqU4yGPBANcyFSaCCYYlVKZEouLoX3OOEl6rcFZFqkD/28YUUVV0pGAn/+810QTtoRkIgICEBCAAJCwKQgKB3ggcvGP0YFXRptOO+Bwh+EmcidGM8YG9rWPCMpVxtosEwRb6e0fjbEVMbX936ON720zwBZMgAAImEIAAMAEqTIKAkQTq7hkzSNW06QoXM4Rg08l2uZH2DbQVIVvv0+WDFYoQK30R/taAn1U1GmgfpkAABAwkAAFgIEyYAgEjCIhKptQ0jpzBFX4lHdlfQDYrjLBrgw2VfK4n0fIXrinPljy+ZbsNMcAlCIBAHAIQAHHAYDYIWE2g7p6RUzWhfJ0JcY0Np/StSPddumTxJ5/qf77ox5sOWOEQPkAABOITgACIzwZLQMB0ArV3j6wQ+k6fMf2PruV7YtIoy2V0ZuBPGYHI/+u3YPchT2SNJEFAMgIQAJIVBOG4n4B+ir+upfyrdK38TupAd6b7M+41wzDn7EnOfY8WPfLJJ722xEIQAAFDCUAAGIoTxkAgPoEdlWUZWU2BGxkXd1ErWTvyxU/A3CWC7ip4ie4/XFj6WNUqc13BOgiAgE4AAgDbAQiYTODw7GEF7dHgv9OR7vfJVbHJ7lxgXqwUXHmkZNHW/6MfKIxJ5IKKIgU5CUAAyFkXROUCArV3l5UK4b+bUrmF/nJckJK1KQi2kRzOL15c9QyEgLXo4c0bBCAAvFFnZGkhAXHLlEBt/uHvM8H/i9zmWujana44W6Vo4raixdvWuDNBZAUC9hCAALCHO7y6lEDNXRUXCS5+Sl+ssS5N0a60NMb5E6rG7xu0eMtBu4KAXxBwEwEIADdVE7nYRmD/XSOG+7jyGHWr+YptQXjD8SHqFXB/8e6q3/AXmD7QECYQAIEUCUAApAgOq4GATuDTnv3+e6g77Wz6mAkqlhHYwIV2W/Hi7W9a5hGOQMBlBCAAXFZQpGMdgZo7R09givocHfWPsc4rPHUmIJj4aX1Oxt3jKjfqzyHABAIgkAQBCIAkYKEpCHQQqLmr/D/oqH8xfc7omIdX2wis41y7unjR9q22RQDHIOBAAhAADiwaQraPwKHby/pF/L7f4Vq/fTWI47mZ+gbcWrK46uk4yzEbBECgGwEIgG5A8BEE4hGovrP8TK6wZ2n58HhtMN9mAkL8QfDs20of/aDF5kjgHgSkJ6BIHyECBAGbCdBQdLx2Vvm9tPNfSaFg529zPXp1z/mNjLWurpk1Ynyv7bAQBEAAQwFjGwCB3gjsuWNIZtCf8QydXr68t3ZYJh2Bdnr08E2li7f+SbrIEBAISEIAZwAkKQTCkI/AnjvG9Q/6Ml7Dzl++2iQQUQbn4unquyr05y9gAgEQ6IEA+gD0AAWzQGDfnaOG+hX+CpE4GTScTUAItqB0cdUcZ2eB6EHAeAIQAMYzhUWHE6ieNeoUzo7u/Ac7PBWEf4wAiYDfl+yuugWjB2KTAIHjBCAAjrPAOxBgtXdVnEdj+b9EKPoBh8sIcPa3SKz9mqGP721zWWZIBwRSIgABkBI2rORGAvQgn68wum5MuWFwHzcW+GhO/M1gLHppwY93HnZtikgMBBIkAAGQICg0czcBusf/y3Sb318oS5+7M0V2RGBDMBabDhGAbcHrBHAXgNe3AOTPau4cNe3YAD/Y+Xtje5hAozn+TX+QkzfSRZYg0DMBCICeuWCuRwjsv6fiJKbwlyldPMnPIzX/NE1+blaz/1lxJc74eKrsSLYLAQiALjjwwUsEDt4xerBfE69Szv29lDdy/YzAZXVl5b/+7BPegIDHCEAAeKzgSPdTAvpDfVSf9goN8zsUTLxLgG4PvLl2VsVD3iWAzL1MAALAy9X3aO76tV/9GjClf4pHESDtTgQEE/fVzhp1W6dZeAsCniAAAeCJMiPJDgL6g33o2u9T9HJuxzy8goBg/Ce1d5dfCRIg4CUCEABeqjZyZbV3j7qLMHwVKECgGwFFHy2w7s6Ro7vNx0cQcC0BjAPg2tIise4EamaVn0XzltNfoPsyfAaBYwTWN4bZmRU/qwqDCAi4nYDf7QkiPxDQCehP9mMs/Cy99eTOnweUNiXka6DXViWghHmAh+k1QrdAaiKqBTX6o9cM/U+LaLlau+rVOyMm5obEI7Sd4CmC+hcHk6sJ4AyAq8uL5HQC+nX/ulnlL9HrpW4nwhXeHijK3BwoDDb684KKL8ufRzv6wYyzAUnm3qbFxG7RFmuINUUj0cORjEh120gtrBYlaceRzYXGLit9rErvKIoJBFxLAALAtaVFYh0Eau4eNYsJvqjjs6teOY8FC0ObQ4Oy6gNFGfm0sx9L+Zk2wp3QRFXsUGR/+EBrKFzdNpbOGOS7iufxZOr9Cps44JGqvcdn4R0IuIsABIC76olsuhGonlVxBmdiJc121an/QGHGpqyKvPpAv+A4yq2gW9pWfYzRpYJ1bdsb1fa9rZOEKkJWObbIz4riXVUX4BHCFtGGG8sJQABYjhwOrSIgKqf7a5v3riN/rrjfX8nwNWSP6fdxqDRjOF27l20Ao6ZYY+TDls1HCqL14ZOsqrH5fvh/lTy69UHz/cADCFhPAALAeubwaBGBmrsr7mFCLLTInWluuF9pyzm1YE2oNHMKOZH+mQVqa+y9prX1JdR3YLhpUKwzHKb+E+NKFlVts84lPIGANQQgAKzhDC8WE9h/78hhPlX5mNxmW+zaOHecqzlj89/NGJ49lnHutF75auxw5N3GdfUVdJnA0R0HuWB/L15c5foOpMZtuLDkFAIQAE6pFOJMikDN3eUvUff/Lye1kkSNM8tyVmePyS+R8FR/spTaIjVtq5s+ODRZxDTHijHOtS8WL9r+j2STR3sQkJkABIDM1UFsKRGonlV+GW3YL6a0ss0rBUsyP8oZ3z+g+PkYm0Mx1r1gh9p3NX/c8smRM+hOAieOP7L1YE7olHGVGyPGgoE1ELCPgM8+1/AMAsYTqJ41Ppuz6N/JsqNuT+MZvvr+55VuzhiaPYHu5S80nozNFjnL9PcLDssalXtAbdF2qM3RUpsjStb9gOyo2rro7YY3k10R7UFAVgJ4FoCslUFcKRHgrHUWrTgspZVtWilQEKoaMH1glEbqm2xTCNa55Xxw7sSCU3JO6veWdU6N8UTPCrjv4B2jBxtjDVZAwH4CEAD21wARGETg0O1l/cjUHQaZs8RMVlnOmvwzi/SR+px2RJwOH19GWc7Z/c4qfpv6OETTMWTxujmqT9OHCcYEAq4gAAHgijIiCZ1AJODXd/6OOfWfO7H/21kn9XPErX1mbGF0SWBa4cyBm5WgcsgM+ybZvLZ61ihXjCthEh+YdRABCAAHFQuhxidwePawAur1//34LeRZwn28veC80tWhgVnT5InKpkj8yqn9LxjY4ssPOuU+e84Zv9cmWnALAoYSgAAwFCeM2UUgHAs44uifHs5T13/moL2+bP9Uu1hJ55fzIQXTikupA+T70sXWc0DXHJg9tqznRZgLAs4hAAHgnFoh0jgEjh79My790T89tGcLHfkrdAagPE4qXp6dnXNKwdTsUwuWOwCCn8didzkgToQIAr0SgADoFQ8WOoFARA3cSXHmyRyrLzewP++0wtIUHssrc1pGx8Yzh2Sfnz223wqjDRttj8aZ+NaBOeWOHuHQaCaw5zwCEADOqxki7kRgY+W4oBD8O51mSfeWB5SWftOKY4xxqUWKLOAyR+RMC5ZkrZclnjhxZPqi8p91ihM7ZoPAUQIQANgQHE1gQEv7FZSAvEdi9CzignNKqmhwH0eNTWDzRuHPm1wwzJfj22NzHL26F0x8t+6eMbm9NsJCEJCYAASAxMVBaH0TUDS5j/77nVb4Lj3Gd0LfmaBFVwK8f7+zSyP0JMTmrvOl+tRP1dRvSRURggGBJAhAACQBC03lIlB798gKwdl0uaI6Hk1mRd77/gEZZx6fg3fJEKCzJqMKzi3ZRP0mtGTWs7It9QW4wUp/8AUCRhKAADCSJmxZSkAI3y3kkH6D5ZsCRRmfZJfnTZQvMmdFRGdPTsubXLhS4qgn7r+n4iSJ40NoIBCXAARAXDRYIDMBvfMfY0LKoy+61782f8oAvV9CQGaGToktWJxxfuaoXGmfHeAX2tedwhJxgkBnAhAAnWngvWMIFDWHL6dg5ev8Rw+O73dOSSPjvL9jYDog0OzR+VP9ecEtMoZKd6FcK2NciAkE+iIAAdAXISyXkoBg7GsyBpY9Ju99DPRjSmVCeVMHyNohcFT1rIozTMkaRkHARAIQACbChWlzCHx6+p993hzrqVvlfh7OLMvFKH+pI+x1Tf1xyaGBmWt7bWTbQlwGsA09HKdMAAIgZXRY0S4ChU3hGeRbuvuvc8YVrMFIf+ZuFdmn9s8iD3QCSK6Jc361uJL55IoK0YBA7wQgAHrng6UyEuDsy7KFRUenR0KDsnC/v8mFUXx8bObI3LdNdpO8ecFKqkeMOi/5FbEGCNhHAALAPvbwnDoB6QRA3sT+H1M62amnhDUTJUAdAoczhUcSbW9VO59gF1jlC35AwAgCEABGUIQNywjU3V0+mZwNscxhAo58OYED/v6h0xJoiiZGEOBsSPZJ+e8YYcpIG0Kw8420B1sgYDYBCACzCcO+oQQ0Id/p/7zJA/ZRkn5DE4WxXglkDss+lR6y1NhrI8sX8jP23DEk03K3cAgCKRKAAEgRHFaziQDn59jkuUe3gf6hbb5s/9QeF2KmiQR4/9zx/WW7IyDoD4Qw9LOJVYdpYwlAABjLE9ZMJEBdv+nZekKqU+25E/pLdhRqYgEkM00jBJ5BZwGOyBSWIvh0meJBLCDQGwEIgN7oYJlUBKrvKtfHXM+TJSgap/4Q/Y2XJR4PxpGZNTL3A5nyRj8AmaqBWPoiAAHQFyEsl4aAT+GnSxMMBZI1Ilfv+Y97v20sSubQ7AIb3Z/gmp5MdeaOyrKMExZgBghISAACQMKiIKSeCQimSTXcanBotnzPIugZnXvnBpRT6C6M3RIlGMpuUtAnRKKCIJT4BCAA4rPBEtkICC6NAPDnBXbQoDSjZUPkxXiyK3J3yJS3xjkeDyxTQRBLXAIQAHHRYIFMBI7dXnWqLDFljsiV6ahTFiy2xBEozJRqXAjOFAhDW7YEOE2WAARAssTQ3hYCARbUH7Ijzb32gaKMfFtAwOkJBOghTKN4yFd/wgK7ZnABAWAXe/hNigAEQFK40Ng2Aj6lzDbf3RxzhYeVgDK222x8tJFAxsDMLTa67+Ka7gSAAOhCBB9kJQABIGtlEFcXAgoXZV1m2PghUJS5idyjp7eNNejuOjgoK9Z9nl2f6U6AUXgyoF304TcZAhAAydBCW9sICMHLbHPezXHG4AypBp/pFp4nPwZyA8MkSjxQW1ZeJlE8CAUEeiQAAdAjFsyUj4A8ZwD8BaEc+fh4PCKFD6dRAQ/LQoFr6AcgSy0QR3wCEADx2WCJVAR4mSzhKAHfIFliQRzHCdCtmfpDmeSYuFIhRyCIAgTiE4AAiM8GS+QiUCZDONTjvJ2eSFAqQyyIoSuBQL+gNGcAaNCqwq7R4RMIyEcAAkC+miCibgRE5XT99r/+3Wbb8tGfG9xLjqmfFybZCPj7heTpCMjleWaFbHVCPPIQgACQpxaIJA6BQ227s+Mssny2Pz/YYLlTOEyIgC/HL82dGZrGcxMKGo1AwEYCEAA2wofrxAioIiCPAMgLRBKLGq2sJsCDPmmeFMk5gwCwegOAv6QJQAAkjQwrWE1AiKg0AoAHuLA6f/hLjAD3sczEWlrSShoxYkm2cOJIAhAAjiyb14L2ySMA/PjKyLr1UceMLIliwxkAiYqBUHomgF+znrlgrkQEqEe1NAKABRR8ZyTaNrqEwrk82wlDJ8AutcEHKQngx0zKsiCorgTk+WGnRwD7usaGTxIRyKb7M1RJ4sEZAEkKgTDiE4AAiM8GSyQhQA9XCUkSCqMHAUEAyFKMHuLgPhqnQY4J24kcdUAUvRCAAOgFDhZJQkDTWiWJhAlNyHKEKQsSqeIQqpDkVkDRIhUYBAMCPRCAAOgBCmbJRkCR5sdUiwlpBpuRrUoSxNPCBJPkyJtLs81KUBeEICkBCABJC4OwOhEQmjw/pqqmdYoMb2UiIGQ66ubSnLWSqUSIRS4CEABy1QPR9ECAM780AkBEBQRADzWSYRYN0CDRTlcmMSJDdRCDjAQgAGSsCmLqSkCLyiMAYugC0LU48nyi3hlt8kSDMwDy1AKRxCMAARCPDOZLQ4BHs6QRALGmWEAaMAikCwERUY90mWHrB5wBsBU/nCdEAAIgIUxoZCeBouKN+qldKYbgjR2KSPFUQjvrIatvtTkmyy2A+uYqjWiVtV6Iy34CEAD21wAR9EGAVzL9uvuBPppZsjjWFBlmiSM4SZoAiTP9sdGSTPywJIEgDBCISwACIC4aLJCMwE4Z4hExkU3nIqQQIzLwkCmG6JFIP2niEWK7NLEgEBCIQwACIA4YzJaOwE5ZItIiKgSALMXoFIfaFBnc6aOtbwVnVbYGAOcgkAABCIAEIKGJ/QTo+eo77Y/i0whihyONssSCOI4R0MRuLaIVyMJDE9o2WWJBHCAQjwAEQDwymC8VAU2InbIE1L6vNV+WWBDHpwSiTdFdErEID8zdsUeieBAKCPRIAAKgRyyYKRsBLpSdssQUrWs/iWIJyxIP4mAscqBVkiGAj96usuNYx1WUBgSkJgABIHV5EFwHAa5pOzre2/1KDwTK0KLaJrvjgP/jBML72yqOf7L3nSJw/d/eCsB7ogQgABIlhXa2Eijau00XANLcWx2ta8NtXrZuEcedkyCr0sJq0fE5Nr9TBK7/21wCuE+MAARAYpzQymYC/AWm0khAq20O4zP3bTtapOlx/llQHn1Dl2T2ypS60PgWmeJBLCAQjwAEQDwymC8dAS7Eu7IEFWuMVGia+ESWeLwcR8uWxjKZ8ueCvSNTPIgFBOIRgACIRwbz5SOgKO/JFFR0XyvGA7C7IDHtI7U5WmZ3GJ38NxblVW3o9BlvQUBaAhAA0pYGgXUn4OfynAHQY2upOqLfDYDHA3YvlIWf23Y311voLhFXb+EOgEQwoY0MBCAAZKgCYkiIwIBHqvRrvfsTamxBI61dK6HOZ2stcAUXPRNoa93ePL7nRfbMpQGrVtjjGV5BIHkCEADJM8MathLg0vQD0DE0bWgI2YrDw84jde2rRFSe0f/0UghVQAB4eJt0WuoQAE6rmMfj5VxbKhOCaH14vNqmotOX5UURDSS+JlnutneHbQfzMqS5U6X3ULEUBBiDAMBW4CgCMU37m2wBN645WEwxxWSLy83xhHe1bKCjf3me/kewOWPvjqvcGHEzd+TmLgIQAO6qp+uzGbR4hz7mu1S9rNWm6Kjo4chbrocvS4KC7W3afOQsWcLpiIPGqVje8R6vIOAEAhAATqgSYuxGQEh3FqBpbf0YCrK5W6D4aAKBli1HdjAajtkE02mZ5Jy/mJYBrAwCFhOAALAYONylT4DGWn8pfSvGWqC7AUojNW1SjVNgbIZyWNNUsblte9PZckRzPAo6/b+peNHW9cfn4B0IyE8AAkD+GiHCbgSKFm9bQ7P2dZtt+8emDxpOY4IdtD0QFwfQ8uGhRkpPut8tIdizLsaO1FxKQLovkks5Iy3jCUh3GUDERG7bruYPjU8VFnUCWkRbHT7QerqMNLii/UnGuBATCPRGAAKgNzpYJi0BLriUR1wtm4+cjWcEmLLZhOlui2xTLKdvdE3xou1b0zcDCyBgLQEIAGt5w5tBBIoXb11Bva43G2TOODNCBI+8VaN3UJNtiFrjcrTBUuuWxlWxwxF96GX5JiFw9C9fVRBRAgQgABKAhCaSEhDsv2WMTG2ODW9cU7+TYovKGJ/TYorWty9p3dZ4vqRxC5/mk/JslKS8EJZEBCAAJCoGQkmOQCzo/yOtEU5uLWtaR2rbprRta3rTGm/u9aK1q+8eef/gdFkzpLNQKwof3yJdh1RZeSEuuQhAAMhVD0STBIEh8zfX0/Brf05iFUub0v3qM6KHIkstdeoiZ0ITVYdW1oylOyt8sqZFfVF+KmtsiAsE+iIAAdAXISyXmgDXuJSXATqgHXm39hwtIvTbFjElRUA0HHqrxidiWn5Sq1naWHxSnLsVg/9YyhzOjCQAAWAkTdiynIC0nQE7SAgWOLTiQBkTYmfHLLz2SSDWuLZhu9YcG9FnSxsbCMYX8Uqm2RgCXINAWgQgANLCh5UlIfCoJHH0GAY9tGbA4bdqqUOg0AexwdQHgbYdTStpVMWpfTSze/H++pzQk3YHAf8gkA4BCIB06GFdKQiU5Az5XwpkhxTBxAki1hStaFzdsI0WY6TAOIxotmjf1/Y6jaUwI34TWZbwH+PJf7LUAnGkSgACIFVyWE8aArxyWYxz9pA0AcUJJFLXNunQ8uoWGs9+S5wmXp7d3PzRoXeaP6i/0AEQjiiK8msHxIkQQaBXAhAAveLBQqcQKMoe8ke6I2C77PGqrbHhh5bsH6S1qe/IHqtl8dHjfekSyd72PS3TLPOZhiO69e+XRY980pSGCawKAlIQgACQogwIIl0CR88CCC79WQA9T6GKnIZlB86gsQLeSDdvx68f1T5oWHogFGuMjHVILi08qv7EIbEiTBDolQAEQK94sNBJBIpyBuudsvTr7E6YFBot8IKWTYffomDbnBCw0TFGG6MrD75xYAw9SrnIaNtm2aOn/s0r+cmOGrPswy4IWEkAAsBK2vBlKgH9LADj4kemOjHYeNvO5rOPrKrbQYPdVBtsWmZzatvuluX0zIRzmSZCMgfaJTa6xNQUYYu7zMMHEHAwAe7g2BE6CJxAgK7P8tpZ5StpwdknLJR4hpKh1PQ7q3QPvcp++1t6FAXb17ShoZoe6zslPUPWry00dlnpY1XSPYbaehLw6BYCEABuqSTy+IxA9axRp3DG19EM/2czHfImWJK5LmdC/wzFx+V88l3KHEVD2+7WD1s3HT6Thvh1zlH/8XxfKXm06gvHP+IdCDifAASA82uIDHogUDNr1CN0MuDuHhY5YZbIHJHzTvaY/KGM86FOCLiXGNsiNe2rmj5smEwDIkk8rG8vGdBTHRXFdyr1/P+k11ZYCAIOIwAB4LCCIdzECFTPGp/NWevH1HpYYmtI2IrzaPZJ+W9nDs8+lcRMfwkj7C0kNXok8lbT2voKeqLfwN4ayr9MLCp5dNs98seJCEEgOQIQAMnxQmsHEai+s/zLXGEvOSjkHkPlfqUpd3zBmmBJxukkBLJ6bCTRTK1VW9W0rq6QevmXSxRWqqFU09H/aNz3nyo+rCczAQgAmauD2NImUDOrXH9a22VpG5LAgN5RMOfkgk3B4sxyGvRoiAQhdQ6hJdoUXdu66Uh+tL59fOcFTn5PnUq/XPpo1ctOzgGxg0A8AhAA8chgvisI1N1+0kDNH11PyRS7IqFPkxB0NuCDzPL8pkBeYALNyrUnN6FpEW1d247m9vZdzRNpgKNse+Iwxyv9OP64+NGqO8yxDqsgYD8BCAD7a4AITCZQc3f5xXSf/T/JjevGveAKbw8WZ2wKDco6EhwQKmR+RR9Rz7y7HzSxm470d0UOtPrC+9tG0yA+hSaXzxbzdOS/mp72dzYe+GMLfji1iAAEgEWg4cZeArWzKh4STNxnbxTme+d+3kKXCDb5B4Ra/HlBXyDLl8/8fHAKnQjb6KFFe0RYq1ebIuHooUiQHtFbRs8yGGR+FrZ7aGSqMqnk8S3SP1vCdlIIwNEEIAAcXT4EnygBcSXz1QwvX0Ib/PmJruOmdkpQOaSE/Id4kLcpASXCQ0pE8fmidE5E0O15fi2qBUREC9FrhhZRc+hhRaWUvyd/Hyjpq+nU//Nuqj9yAYGeCHjyC94TCMxzP4G6e8YM0jRVHyDITf0B3F84SzMUv6Fb/m611CWcgYBNBFx3TdQmjnDrAAJ0K9d+Oqa9nkLVHBAuQrScAP+gNUe93XK3cAgCNhGAALAJPNzaQ2DS3pt2/zM88l/2eIdXWQlEhXL49kMznx5RubNd1hgRFwgYTcBntEHYAwFZCQy6dt5Y4dOWLmkvmzg1WL18kK+5TNZYEZd1BDTG2/6t4Yv8vcjAS/JOnbmn6cM39MtEmEDA9QRwBsD1JUaCOoGOnT/1a9M7t7FvN3zhvJ1q3tv6e0yeJhC749DM1g+jRTlEgQvOnhh03cM3eZoIkvcMAQgAz5Tau4l23/nrJPTHBl958IqpDVomjva8u2mIhxqn1S4PDx3QCQFEQCcYeOtuAhAA7q6v57PraeffAYWu+wYvrftqRZvwb+6Yh1fvEPhdy/jdf24d09O4BhAB3tkMPJ0pBICny+/u5Hvb+Xdk3iICOSQCBsQ03+6OeXh1P4F/to/c/rOmKcN7yRQioBc4WOQOAhAA7qgjsuhGIJGdf8cqB7Wsoq81XMY0zms65uHVvQRWR0q3zT18/sgEMoQISAASmjiXAAYCcm7tEHkcAoO+8eAYwfiyjg5/cZqdMHuIr2nfXwv/Eg1wreyEhZjhCgLLwsO23XnoglHU8z+ZfAQX7Ob9T9/3+2RWQlsQkJ1AUt8C2ZNBfCCQ6s6/g1x/pb3hb0V/rs7h0ZM75uHVHQSebj15x6LGM0akmA1EQIrgsJq8BCAA5K0NIkuSgL7zpwf+LaUe/gOTXLVL80wea3m56M+bC5W2KV0W4INTCaiPNp2+/6mWcUPTTAAiIE2AWF0uAhAActUD0aRIwKidf4d7P9Oizxe99P5I3+FpHfPw6jwCJAbb7z08/fC/2kccHf/BgAwgAgyACBNyEMBIgHLUAVGkQcDonb8eCl0j9j3fetKQycGaFYMxYmAa1bFvVZXxRhrwKfpmeGihgVFw6j7wZYwYaCBRmLKNAASAbejh2AgCZuz8O8XFX24rH35OaO+Pi32tU2k+vi+d4Mj8lkb0235N3eWxj2JFZjz5ESJA5uIjtoQJ4DbAhFGhoWwETN756+kKupvguzN/supOTVHOoc87ZGOAeE4kQHvnZwPtbNLmWN4ltLTuxBaGzMEtgoZghBE7CaAPgJ304TtlAlbt/KufmvurjiAb7h2ZH1GV/6YvzVUd8/AqFYE2Umz/Wbq46omOqEqu+9GpCvctoc9FHfMMfkWfAIOBwpx1BCAArGMNTwYRsGPn3zn06lmjvk1HmT+heZmd5+O9jQQE26j52dUDF1Zt7B4FREB3IvgMAp8SgADAluAoAnbv/DtgHbir/GSFs+fo8ykd8/BqG4HfRtT27w99fG9bvAggAuKRwXwvE4AA8HL1HZa7LDv/Dmx77hiSGfRlLKbPt9IfvksdYKx7baDz7/9RumibLsT6nCAC+kSEBh4jgB8tjxXcqenKtvPvzPHAPaNP55r2C/oy6XcKYDKfgEb9M38bDQTuGzJ/c30y7iACkqGFtm4nAAHg9gq7ID+Zd/4deEUlU2qaR32L+gbMo3lG3nfe4QKvnxJ4hy693Fa0qGptqkAgAlIlh/XcRgACwG0VdVk+g785b7TQxLJ0h/ftBcvRW/069/bvpW2fiw7PHlYQjgUfoobfoT+MG9AnsQQbcFbDNXFv0eJtf6QfLdoc0psgAtLjh7XdQQACwB11dGUWTtv5dy5C7d0VE4UQP6d5Z3eej/dJE4hR74qf+dtZ5YCfVTUmvXYvK0AE9AIHizxBAALAE2V2XpJO3vl30KbDVF4zq/zL9CW7l+ad1TEfrwkRaKPj/N8L7ltc+ugnpg3ABBGQUC3QyKUEIABcWlgnp+WGnX93/rV3jTyHceUeEgVfomX43nUHdPxzPdH5haopPxu0eMvB47PNewcRYB5bWJabAH6I5K6P56Jz486/cxGPjh/AxN2M86/T/GDnZR5/v4s6UD6msczflT76QYvVLCACrCYOfzIQgACQoQqI4SgBfeevamIpbZSDTEJiaIe/dGI8eMfowapP3E792W4kO169a4DqwVZwwX5bnDvkOV65LJYO03TXhQhIlyDWdxoBCACnVcyl8Xpp59+5hKJyur+uZc+FQvBraf4V9JfbeblL36+nqyDP+BXxpwGPVO2VKUeIAJmqgVjMJgABYDZh2O+TgFd3/t3B7Kgsy8hqCXyRnkGoi4Ev0l9G9zYO/ryDTvE/owrxzMDFVR/LnAdEgMzVQWxGEoAAMJImbCVNADv/npHVf688L5YhLqeln2eCn0uvQ3puKe3cMJ3eX0U/MMuExl4pfaxqlbSR9hAYREAPUDDLdQQgAFxXUuckhJ1/4rWqnjVmhCJi51HnwXNpx3oerVmR+NqWtAyTl3epB/8yTbCl7TmxVSMqd7Zb4tkkJxABJoGFWWkIQABIUwpvBYKdf3r1rr27rJQx/7maxiZzzsrJmv43iv7M7kMg6Edjr+B8C12q2EJiZItQxIb2LPUdp+/we6oIREBPVDDPLQQgANxSSQflgZ2/ecWqnjWqmGskBnysfHus3zlR5huXxaL+TK76gkwNBjj9MS1D4SJTYSKTIsminXhYY7xFE0pLhPnaw0IJtwt/uJUFYjGhNI/x1S9X9B09V7eoOeGqQZX7W83LQD7LEAHy1QQRGUMAAsAYjrCSIAHs/BMEZUCzQdfNm02Py52fnimx4cBT909Mz4bz14YIcH4NkcGJBEjYYwIBawgM+fqDFV65z98aovBiFYGap//rQ02oM8lfnUk+OV1beWLQdQ/fZJJ9mAWBEwhAAJyABDPMIKDv/GOKsoxOObl+kB8z+MGm/QQgAuyvASIwlgAEgLE8Ya0HAtj59wAFsxxJACLAkWVD0HEIQADEAYPZxhDAzt8YjrAiDwGIAHlqgUjSIwABkB4/rN0LAez8e4GDRY4mABHg6PIh+GMEIACwKZhCADt/U7DCqEQEIAIkKgZCSYkABEBK2LBSbwSw8++NDpa5iQBEgJuq6b1cIAC8V3NTM8bO31S8MC4hAYgACYuCkBIiAAGQECY0SoSAvvNXFWUpbvVLhBbauIkARICbqumdXCAAvFNrUzPt2PmTk8EmORKC8e9WPzX3VybZh1kQSIsAREBa+LCyDQQgAGyA7jaX2Pm7raLIJ1UCEAGpksN6dhCAALCDuot8YufvomIiFUMIQAQYghFGLCAAAWABZLe6wM7frZVFXukSgAhIlyDWt4IABIAVlF3oAzt/FxYVKRlKACLAUJwwZgIBCAAToLrd5JBvzC/Xe/tTnujw5/ZiI7+0CEAEpIUPK5tMAALAZMBuM39058+0ZZQXdv5uKy7yMYUARIApWGHUAAJ+A2zARBIEKlfV5/mD4QKf4u+vaVp/zpQCLkR/znl/xkWBEPTKRL5g7CBnfBdj2m7B+W5qv2vEJ/0PXHUVV5NwZ2hT7PwNxQljHiKgi4CS6340U+G+JZR2kQmpc8HZE4Oue5jtf/q+35tgv0+TlUIovg9qhvtjyhhqXK7/nnHB8jTOcmlskDzGeS4TwscYb6RlR5jGjtBv3RH6DTzMONsuuLpp9sTSXfRbSD9/mKwgQHXBZCaB+Wtqy2l7voi+nBfRZj2Dtux+afiL0bp76W83fWF2M8F2aEwsj4bqV1aOGxdJw26fq2Ln3yci6RoMum7ebMHF/PQCExsOPHX/xPRsYO0OAiQCTjVRBOhuqOTsZrNFgKAjlXkf1IzjqnKBwsS5NEjHWPpNqiD/oY5cU3xto53SJxrjm+n09NtcxF6/d8qgTSnawmp9EIAA6ANQsosf27infzgSmsm1T3f6tH5ZsjZSaN9C6nopKepXmSb+Mee0ku0p2Ii7Cnb+cdFIvQACQM7yOFUEzHt37wDuD3xVKGImnW6YQXTNOJPRU9H20cwlJGxeYyLw8uyp/enMASYjCEAAGEBRP8pnXLuJju4votP2k8mk3X0r3iKB/rtIBnuhclxxczopYuefDj1714UAsJd/b96dIgIqN24MBiOFlygau4HOYl5COQV7y8uCZe00IuiLJAb+d9S2otfsvCRqQa6mu4AASAPxvNUHx3Kfeh+dir+WzNC1Lekm2vmL5xVF/ObeiQPfSzY67PyTJSZXewgAuerRPRqZHdq6OwAAI8ZJREFURYB+tK/4A3QJif0bxT2ge+ySfD5ABzr/wwPBR+eM73dIkpgcFQYEQArlWrD+wDhN893PmbiKVrf7aD/RDF5RFO0HiQoB7PwTxSpvOwgAeWvTEZlsIuCxt/dkRjJC3xdMzKYY8zvilPmVzrw2UEfqh8IZ9b8wuy+UzBxSic0pO69UcjN8nQVraybMX1vzZ6EpH9LO/xpy4CR+n9c05d35a6v/b/66A6f1Bgc7/97oYBkIGEdAllsEn39e+Oatrf5WOCO4lXb+esdRR+z89UrQUSzdQcUfC0UKN81fU321cdVxvyUn7cBsq8b8NXVTaMf/IinNdRTEV+nPwWdO+CVMKO/NX1fz5KOr9xd2h4qdf3ci+AwC5hKwWwQsWFN96bby2g+o/9ITlKlZ43uYC1G3LthIEgLP0m/bqgWra88x36HzPUAA9FLDhZvrcuevrf0tdfBbTc0uoz8H7/i7JSrYN6KKb9OCNTXf6FhybOe/lD6b9SOAR/p2wMYrCHQiYIcIWLim+kw6sFlB44z8jUI5uVM4zn4r2Bl0p8JK+m3767z1daOdnYy50UMAxOFLp8mna63aByQrb47TxA2zC6mTz5Pz1ta8csUv/3G+yjR95z/EpMSw8zcJLMy6g4BVImDojY/cNH9NzS80zt8hcue6g96JWdBv2+Vc0zZSrjRGEX3CdAIBCIBuSCqX7shYsK72cTpN/gYtKuu22JUf6ZvxudPPnPJSecWIOpMSxM7fJLAw6y4CZouAjIxQw7duufY2Opf5H+4iFzcbP+X6g4Xrap+vXL0/K24rjy6AAOhU+IdX1w0M5meuJLV4O832mmLMv+TSmadOO+f0lZ2QGPEWO38jKMKGZwiYJQJKSgq33Xzrda2hjOAkz8A8lij13/paSPGteGj9QbMubzoSKQTAsbLNX187iW6Te486wkx1ZCWNCdo/9fTx515x5SXLaTxuzQCT2PkbABEmvEfAaBFw8imj11193eWliqIM9R7NzzKe4tPU9xaurfPyb/xnMPQ3EAAEYd66mstpCF39yNes6986a8dMQ4cOOv/Gm69ZEwgGWtIIGjv/NOBhVRAwSgRcePF579Kf/jyHbFBlgzSmrViwplYfw8Xzk+cFAHUQuYWGlfwLbQn4cnT6OuTmZp9Gpwv35eXn7u80O9G32PknSgrtQKAXAumIAL/fr157/VfW0tH/GeTCa5c0e6HKMumJSfrtgj/orZEXlnlaANDAPt+kr8Wv8eXoeVMP+P2jb7jpKn9JadHWnlv0OBc7/x6xYCYIpEYgFREQCgUj1NlvR1FRf/3ZJJhOJEBjubHKeWtr/6QPgnTiYm/M8awA0EeMoo4h+nOzoYx72dapL0Dxlddcmp2dk5XIHQLY+ffCEotAIFUCyYgA+s6ya6+/YnMoI1Seqj+vrKeP6LqtonaRV/LtnqcnBcDRa/6cP0UwPKv8um8IvX2mjkODrr/xa7V+v6+9l3bY+fcCB4tAIF0CiYqASy+76N28vNzx6frzzPqC3TF/Xe2Nnsm3U6KeEwD6sL50zf9PxMDfiQPe9kEgGAyOo+uJ+lDIdOLkhAk7/xOQYAYIGE+gLxEw9fSJ75WNHKZf88eUDAEhfq2PjJjMKm5o6ykBcHTse67pHf4y3FA8q3MoKMg/65Ivz1zezS92/t2A4CMImEkgnggYNnzwx9POmar39seUPIEQjYz4F6+NE+AZAaB39KCx75+j7WJY8tsG1uggUF4+YvrkqePfPvYZO/8OMHgFAQsJdBcBefl5+y77yueLKISghWG4zdVAn6b9VR8N1m2JxcvHMwJg+6jaBQThgnggMD9xAuecd/oUOtr4QDD+3eqn5v4q8TXREgRAwCgCHSIgEAhsv+6GrzRR5z9dAGBKi4A4LdQv67dpmXDQyp4QAPPX1H6eHgUxy0F1kT3U0OVf/ULRrbd952nZA0V8IOBmAtVPPfDRd2775ga6ZXesm/O0NDd6Uip1FPfE/sL1AmDRhupsxoV+rz8mYwkMDIVilcaahDUQAIFkCCxYW/tthfMrklkHbfsmQB3FF9ITYU/ru6WzW7heAKia8hCVaLizyyRp9IJ97+EN1adIGh3CAgFXE/j04Ib90NVJ2pecQk+E1S8bu3pytQDQFRw92e8/XV1Be5PzKyr7ub0hwDsIeJNATOV3Uual3szekqwvmL++5mJLPNnkxLUC4OjwjkJ5gri6Nkebtplubvn5NKb2dd1m4iMIgICJBOatPVBEI3LcbaILmCYC9EzU+XQQ6drRYl27c6Re/9dS/TAalhVfY8EWVa6qz7PCFXyAAAjo45fz/6J/uWBhLgEa9WwyPT74SnO92GfdlQJAP/onzfZf9mH1nGd0CPRcyZGwXQQeWV0ziiTAd+zy7zW/9OTAhyqXCleOHOtKAbC9vFY/JV3htQ3V1nypQ+DCDfVDbI0BzkHAAwRiPjGP0gx4IFVZUqwI5dXeJEswRsbhOgFw9OifsQeMhARbCRHwa7HYzQm1RCMQAIGUCOgdm7ngrj0lnRIUK1bi7AePvb0n0wpXVvpwnQDYXl6jfznKrYQIX8cIcHbz0c6XAAICIGAKAa75FpJh13ZKMwWaMUYHhTNCrrujzHUCgL4bOAo1ZoNPxcrgqoraS1NZEeuAAAj0TmD++tpJdD16Ru+tsNQ8AuJOt/UFcJUAoNNjZdRr8wLzNgBY7pOAYLf22QYNQAAEkiZAo9N9M+mVsIKRBIoz+h38nJEG7bblKgHANOVGAorTYzZuVQT/4gc3VI+wMQS4BgHXEdCPPOl+dP3WZkw2EqAaXG+je8Ndu0YAHB2sgbMbDScEg8kS4D6V3ZLsSmgPAiAQn0CwX50+Il1J/BZYYg0B8WU3jXniGgGwcH3tWbQBYMx/a74FvXqhQUpuQmfAXhFhIQgkR0AwVx15Jpe8VK0zQ0H1a1JFlEYwrhEAQmOuHrM5jRrbsWrxttF1GIXRDvLw6ToClUIonAlXXXt2cpGoFl9wcvydY3eNAKAr/xAAnStr93uVnW13CPAPAm4gEFh/VEwXuCEXN+RAHc3Pc0Meeg6uEACV6w71o1xOd0tRXJEHF9NckQeSAAGbCSiaNsPmEOC+K4HieasPju06y5mfXCEAglrkAsLvc2YJXBs1zgC4trRIzFICnE+31B+c9UlA4er5fTZyQANXCADOxVQHsPZaiMMeWn9wsNeSRr4gYCQB/e4murXWNaecjWRjpy2Nu6MmrhAAgnH0/rfz2xDHt1/VcBYgDhvMBoFECDy87sAwuuasX+LEJBEBEmWnShROyqG4QgBQMcpSJoAVTSMgOASAaXBh2BME/MLnimvNLixW+dGxZxyemCsEANUAZwCk3BA5Ls1IWRcE5RQCGhMnOSVWj8WZ+fD7+x3/+HPHC4DfrBb6c7EHemzjc0a6nJU6I1BECQKSEuAcZwBkLY3fN1rS0BIOy/ECoEHUDqVsHZ9HwhVzUkPBCp0ULmIFAdkI0KAzEACyFeVYPArjFZKGlnBYjt9xagENp/8TLrflDfMqN24MWu4VDkHAPQQw/r+ktaS+Z8WShpZwWI4XAFz1lSWcLRpaTiAzXIyzAJZTh0P3EOA57snFXZnQ3RlZTs/I+QKACZwBkHgrjAkNAkDi+iA0uQnQUSYEgLQlEtnShpZgYI4XAJQnBECCxbajmcIEBIAd4OHTFQToKBMCQNJK0ghNEAB214bGycqwOwb4j0+AMwUCID4eLAGBuAQql+7Qf9v8cRtgga0E6CGNjr8E4PyNi4t6RjIZk5wEBMcRjF2V8Yd87f0LCnYVFQ9ozcvPCefm5kRzc7NZZlamP5QR9PsUXztjIhaLaf6oGgvEojF/c1NL9PDhRnGo4bD/cMPhrMYjTUcO2JWAx/1m98/0xVSPQ5A4fbpDw/HPn3G8AOCCNUi8jXg+NMEF6mPRVrBwzf6TVMX3RbpuPIFE8Xhyqw8io4+T0esU6rS0sLB/p09H35azm6/ZRc/bWEJDbi/xRfmSe04vru7eCJ+NJzBrfEnrgnW1+uENlRSTbASEYM2yxZRsPM4XAHQGgJ6XkWzeaG8RAUXlBy1y5Uk389+vGcn8/GomxDUaY+NJEJsxDaPv2L+R4X9T/YLNX1uzkc4cLCFfr7dHA8srzxzQaIZTr9vkpLqIdQtxQD8AGTcGLiAA7K6LJngDdv92VyG+f40pEADx8aS05KH39g31+f1X0YHh1bQjPo12/inZSWOlceR7HOnu/wwFYyrtpN4jgfDbSEbd05XjxkXSsItVTySg72QgAE7kYvsc+tZBANheBc6pD4DlP4C2p+2YANT2OsfEKnGgj67eXxjl/msYF9dQmNPoj3SvFNu9fh30LDpYPSsULnyQxMDj4RD/TeW4Ysf/OEqyOYCjJIXoHgadAXN8bRx/CcCnaQ2a/sRsTDIS0CKnDz4kY2BOiUkfSTEYKfzPqGAP0A4/T/K4B1N8j4bC4r7562p/6Ve0n949obRW8pilDk8wcZijC4CUNaI7nA5LGVgSQTl+HACuKPVJ5Ium1hJoqOScLk1jSoXAgjXVl9JR9Ud0pLGI1pd95985xQI6K3dfTOW75q2t+eXRfgqdl+J9wgRo57814cZoaCkBOv+2zVKHJjhzvACIRSLoZW7ChmGMSYHr/ymAnLf2wMnz19S8SmNc/I1Wd/IDRzLo3Ny/Mx/bMn9dzWM/3bq18w0HKZDx3irEb7P3snZGxjG/9okzIo0fpeMFwLFTzDjKjF9j25bQbWO7bHPuQMePbdzTf97a6p/SqcUNdNb3YgemEC9kH3VXuKOlMW/1w2tq9NsTMSVIgETgpgSbopm1BNrV8SWO/31zvAA4eopZsI+trT28JUKANq63E2nn9TaCutAvWFP73fZwcCud8v0e8XB835wea8rZKQpn71FHwbv0nHtsg5ldCHBVwxmALkQk+SBYlRsubzpeABzdHBT2miSbBcLoREBl4q1OH/G2BwL6cK802MtzNGDSz2mPeMIoPD2s4vRZ+mWARxeurVui387o9GTMjj8rv2kL+YiZ7Qf2kyTAmSvOzLhCAHDBIQCS3H4taK5GQ8q7FvhxrAv91r5QftYSSuBKxyaRYuAkeGb4/f4PFqyt1m9rxBSHwH9WVIRp0eo4izHbJgJ0efNNm1wb6tYVAsDn01YQFQxAYuimkZ4xOprdgHvB4zN8ZF1tRVTxvUMt9Hv6PTlRL+p+9EP6J+og+JtKerKKJyEkkDTdCrgsgWZoYiEB4dPesNCdaa5c8aWje41puEyh/5hikoQA/Wjh+n+cWsxbV3O2Ko5ur+VxmnhrtmC3hNbV/h4ioOeyc4Uv7XkJ5tpEoPa+CaUf2eTbULeuEABHiQj0AzB0y0jTGJ0BwPX/HhjOX1N9Nd3Xr5/2H9DDYi/PuoFEwB8gAk7cBPz8aF+a6IlLMMceAu4RZK4RAIpPoB+APd+GHr3GYioEQDcyC9bWzmac/4lm6x3hMJ1I4PrQ2to/Pv+88x+zemJqqc85eoaTM/SnSR2hoWsKprlmX+MaATBiS+kaOup0/NCMhm6p9hlbc//pg/fY514+zwvW1SykyyLzKTLaTDHFJcDZddvKa5+ECOhKiGv82a5z8MkmAhHuz/iLTb4Nd+saAXDVVVwlOq7omGF4la02yMWvrXYpsz+9pzs9r+oemWOULLZrqypqnqlcKtw5HkIKsLVYRBcAuAyQAjsjVyH1/vc54/u55vkmrhEAepHp1qJ/Glls2EqJQKNfYfppbkxE4OEN1adQT/cnACM5AnRr71Wh/LqnklvLva3nnjGknvqO/J97M3RIZlz80SGRJhSmqwRAqC36NGWNp48lVHpzGtH4bk9+eleGOfadZHXB6oZ8ReV/pZiznRS3PLGKq+evqb1NnnjsjYRum3TVzsdemil5ry9QS/6R0pqSruQqAXDntKFtdIX1UUlZeyIsoeD0v15ofahbocSepLe41S+dLZ+LRfrDkdIx4ZZ1wxkH9TMA+9ySj9PyoDMw//OdqdxVl2FcJQD0DSoc5L+iFzwi2J5v11tuuT82XXw0vO/9JAMuTdcO1mf0REHlmcqNG4NeZ1E5blyEOpL+wOscbMr/iBaLLrDJt2luXScA9NHnOBM/No0YDMclQAoZnf+IDp22/jy9VMYFhQXJEpgQChfOS3YlN7Yvryr5A+WFh59ZXFx6SNcCvR+GxW5Nd+c6AXCUmBb8GW4JNH3b6e5gf1Ze4wvdZ3rt84MbqkfQyX+9L4o7v1v2FfTOh9dWz7TPvRye9buduBCz5YjGM1HsC7aHf+LGbF35IzV7av8j1GHmZ24smLw5iVnHHlwib4gmR6Zf9/er/GkSn154qp/JNE8wzxXG//exjXs8z3b2lNKXic7KEwhhhikE9MsuR/uXmWLdXqOuFAA60lAo8mMmWJO9eL3inS+bM7nU87f+LVxfcy1V/CyvVN2GPAdHwsHf2OBXOpeKEBhXwpqqfHzssos13iz24loBcOe4oQ10R8AvLebpRXcxrqiev1Xrsbf3ZNID7VzXSUi2DZrO7H1Nf5iSbHFZHc+9U0pX0Zkm14xIZzW/RP3pl1uODTKX6CqOaudaAaBXgcZsXoyzAKZvjz+ZPXHgRtO9SO4gkhG4i7a4oZKH6YrwuCbmuCKRNJPQFEXnEEvTDFaPT2Dlscst8Vs4fImrBcDcyQPrqEPWHQ6vkczh71eylB/KHKAVsT38YU0JjfaHjllWwNZ9cP7Fh9fUjLfKnax+5k4s2kKxYZRJkwrkhcssrhYA+nYxd3Lp7+gH4+8mbSMeNytm3Tu2yPP9LJQY/x5tCBjtz8JvA+ccZwGId0BTH6CXXRai94QrGtH0F/plFrcn63oBoBfQF2XfphfX3cNp68Yp2L/Q8Y8x/do/Dft3q6218KBzGuvjykdW14zyYOpdUp41ddBBuiSiDzjV3GUBPqRD4I3I4eLb0zHglHU9IQDuOb24mk7R4kfauK1yd0Co1xlnzrmWwhnBGyj6Ac7NwLGR+1QfnrCoV2/21NIPORffoLfURxJTmgSq6A6yKytncE/0rfCEANA3iLmTi/9MX49FaW4cWJ2xdiaUr+hHHl6Hod/3TwzQx8SuDUGwGx5eXTfQLvcy+Z09qfQlutR5n0wxOTCWI0LzXXr0DjIHBp9KyJ4RADqc8ORivaPW31IBhXWOEeD83+dMKVoDHowt2FB7EXEYDRa2EQj5uHanbd4lczxnUvF8OsjRR6HElDwBlZ4nf83cqYWbk1/VuWt4SgBUcq75feLrVK4Nzi2ZnZGLn9OPzB/sjEAq3xq/Uqp4PBgMnYP55rEzMR7M/sSUw42tN9P4J++euARzeiUgxN1zphS/0msbFy70lADQ66c/q16NxfROMwdcWE/zUqIji/Ckku+b58BZlp9/XvjokuvlzoraldEWz1tzcJIrM0shqcoZI9o1VbmCVt2bwuqeXIUe9PO7OVNKH/di8p4TAHqR7z998B6hKNPpLb4kBKGviS50/3nUtuIb9DMofbX1yvJto2rOp1wLvZKvzHkqPvE5meOzOrb7phYd0DTlMvLbYrVvB/pb0R6q+w8Hxm1IyJ4UADo5fRCNmE+cR2936p8xxSPAXy7Qir/u5uEw42Xe23zB+dd6W45lFhIQGgRAN9wkAtYyhZ9Loybt6bYIH48TeCGsqV+oHDcucnyWt955VgDoZX5gQukOuhygi4Ct3ip7wtm+lJ175MrvTOXRhNfwSEM6K6JfRsIkBQE+beHmulwpQpEoiDkTi9dpAXEahfSORGHJEAo94I/9cPak4qsrpw5qlSEgu2LwtADQoeuXA+h02fn0g77WriJI6ZdumQxPKv6K1x/x21NtHnpvnz7m/5CelmGeLQQCaqs6wxbPkju979SSmuzcRp3N/0oeqlXhtdLtklfPmVJCVzS558dN8LwA0Lc6/ZpZ+5HWs+ntH63aCiX2Q0f7/Fv0BbkH1/x7rpLfFzir5yWYaxcBLjguA8SBr4v4OZNLbqQ7Ju6mJl7ux7OXDvbOpTuZXoiDynOzIQCOlVzvPUtfkhtoxEC9p7snRoHqYWuvE0y5aM7k4t/3sAyzOggoDAKgg4Ukr7RzgwDooxZzJ5U8Sn1X9EtXjX00dd9iujXSF+OnHe0b4b7sUs4IAqAbOhox8Kd0W8hMmn2g2yKXf+QvawF26tzJRctdnmja6dEFRAiAtCkaa4AzNmr++zUjjbXqPmtzJxX/QxHqmZRZlfuyi5ORfgvz4dbp+pDwcVp4djZ9bzD1RKBy3aF+IRZZSJ1F9AcJuZeTYE10Tex2HPX3tBWcOK9yqfCH8mv126uCJy7FHFsJCP4FLw7mkgpz/fctg0V/QIMo6bfAuXVb3k0/3A/MnlyCS7txNhKcAYgDpnJSweE5k0q+wzVOdwnwTXGaOXo29YB5lSnaeOz8Ey+jP//AYGrt1h/MxEHI2FJhpTKGJWNM+u8b9YK/g26FHku/A89QjG7qEHdI7+8QPtI6Bjv/3rc+CIDe+dCTtorfDIfqJtLjRx+gr0hTH80dsljQaUBx1tzJJZ+fM2ngTocELUWYivAPkyIQBHEiAcFKTpyJOb0R0G+Fpt+B62jMgCnU7vXe2jpgWTvn7JEwD47U+zvo/bocELOtIfpt9e4Q58cGinho3rt7f8UDAb0n7W30l+2Q8DvCFHTTy0uqUB5ER5gOJMm/KkwMd9OhUvIEJF6DCwiAFMujjxlAq160cF3NRUKwR2gbn5iiKTtW0+gExh8UX+AH904YgNFdk6gABEASsOaeMaSems9etKH6MVXl99KX5N/pc2YSJuxoSl8O/gLXtIf154bbEYCrfCpiGD01zFUpuSUZ2nFBAKRZzHsnlbxG/QImL1hf+3U64/kQmStL06TJq/OXuaLOmT1x4EaTHbnSPARACmWlBwrV0mp3PbZxz8Ph9hA9XVDcRN0EZXsgiUoxPkPPt57ntUdcplDShFfRBB+G3X/CuCxtSHVBHwADiB8bIOdpeuDVs1UVdZ+jM4ffpN84/dkCGQaYN8LEbiH4Uz4//+O9E4o+McKgV23gt8ygyj+8rnYiF9pNdAvhVWTSriMR/dbF1+nMxGv+GH8Nt70YVNxOZuavrdF7FF/faRbeykNgI43lcYo84bgnkgWrG/I1X+QqRVOupWuJ0yizkMXZ1dAZiX+SEHmSOvYtxSh+xtCHADCG42dW6PQZn7e+bgLXxMUKZxfTzvgcWmjWl0W/HW0FE+I1zc9eu29C6UefBYI3phCYt7bmafrS0FkfTBISOEgCoEjCuFwV0mNv78lsywhMU7gyg357LqDkTqM/o88mH6IzD8vpFuU3mKK+gVP85mxCEADmcP3MauXq/VmZfn6KJnzDSb2WkSAYTmcJhtMXhz4z/S/vs8Y9v9EfxNNA1/EbGBf1pIIbSGN8RNe9XgsHG9728pOsesZl7tz5a2ufpTpeba4XWE+RgAgfKQ5WzuBeHckzRWzprfbTrVtDrS055ZqqjOEKH0O/bWPIYjn9FdCf/vumP6hJ/+u460x/+l4j7Xya6PewkX7TauiswieKUD7hitgiVPWTe6cM3IOjfKJk8gQBYDLgvszP/+BwgaZGhvuYNlxodI2N83oar7pBKNH6QFag4d6xRS659bAvEs5YvmBtzQv0o4VHAUtarnDoYAiiWM7iUOfp7BZ/fRT1kac+EADy1AKROIDA/HU1f6EjliscEKoXQzxClwD6eTFx5AwCqRDoOCWTyrpYBwS8SEDvd4FJTgL63TmYQAAEEiQAAZAgKDQDAZ0AdUzCTkbeTQG1kbc2iExCAhAAEhYFIclLgB4XjZ2MpOWh65k1koaGsEBASgIQAFKWBUFJTKBO4tg8HRp1zoQ48/QWgOSTJQABkCwxtPc0ASE07GQk3QIgACQtDMKSlgAEgLSlQWAyElB8YoeMcSEmuslc4PIMtgMQSIYABEAytNDW8wTaD5XqY4+HPQ9CQgAaRx8ACcuCkCQmAAEgcXEQmnwEjo4yJ9jH8kWGiOiZ9h+AAgiAQOIEIAASZ4WWIPApAc6wo5FsW6Dr/w1zJhRulSwshAMCUhOAAJC6PAhORgK0s4EAkKwwdAvgexg7XrKiIBzpCUAASF8iBCgbAXrgyVLZYvJ8PJyt8jwDAACBJAlAACQJDM1BYM7E4nVEYQtISERA4+9KFA1CAQFHEIAAcESZEKRsBOgyAD0WGJMkBFrDIrZCklgQBgg4hgAEgGNKhUBlIuATKgSAJAWhZ8n/vXLqoFZJwkEYIOAYAhAAjikVApWJwL1TBm2ieD6UKSavxsIFf96ruSNvEEiHAARAOvSwrqcJcC5wFsD+LaAl1B75h/1hIAIQcB4BCADn1QwRS0JAxDgEgM21oKczvnzntKFtNocB9yDgSAIQAI4sG4KWgcCc00q2M8bflyEWr8bAufobr+aOvEEgXQIQAOkSxPqeJiAYLgPYtQHQ4D9r50wauMwu//ALAk4nAAHg9AoiflsJaIrvOQogYmsQHnUuOHvMo6kjbRAwhAAEgCEYYcSrBO6fWLiPc/Zjr+ZvY977+qvF6P1vYwHg2vkEIACcX0NkYDMBnqk8RCHU2ByGp9zT0f+PvzOVRz2VNJIFAYMJQAAYDBTmvEfg3rFFTdQZcK73Mrct412Rw60/t807HIOASwhAALikkEjDXgLhSUV/oAjW2BuFN7xzJmZXzhjR7o1skSUImEcAAsA8trDsIQKVnGt0Wvr7HkrZrlRXzZ5civEX7KIPv64iAAHgqnIiGTsJzJ1U8hYNTIOdk4lFoIcw3WmieZgGAU8RgADwVLmRrNkEtFj0HvKBkelMAM0Fe3Tu5JJ3TDANkyDgSQIQAJ4sO5I2i8D9pw/ewwR7xCz7XrVLD/xZOnJb8Wyv5o+8QcAMAhAAZlCFTU8TCIUjC+lU9XuehmBs8ns1rl591VVcNdYsrIGAtwnQaJqYQAAEjCawaEN1saryVSQERhht22P2IoqinXvvxIEQVB4rPNI1nwDOAJjPGB48SODuCaW1mua7hFI/5MH0jUtZsO9h528cTlgCgc4EIAA608B7EDCQwNyphZsZ175CJvGsgJS4it/PmVLy3ymtipVAAAT6JAAB0CciNACB1AnoT6uj3uvfSt2CZ9dcEz7S9l3PZo/EQcACAugDYAFkuACB+WtrHiAKPwKJhAgcVJk69f7Jg3Yl1BqNQAAEUiIAAZASNqwEAskTmL+m5n8YZzcmv6Z31qAfpB1634mjl0+8kzYyBQFbCOASgC3Y4dSLBPqL4lso71e8mHsiOeu3Tvp84kzs/BOhhTYgkD4BCID0GcICCCREQH987aiq4i9R48UJreChRtRP4sWM9sh0/e4JD6WNVEHAVgK4BGArfjj3KoH562qvZEL8nvLP8SqDjrw55z9un1h0l/5ApY55eAUBEDCfAASA+YzhAQR6JDBv7YGTOVP+SgtH99jA/TM1zvjtsycX/8z9qSJDEJCPAC4ByFcTROQRAnMnD/w4HPGfpp/+9kjKndNsFUxcgZ1/ZyR4DwLWEsAZAGt5wxsInEBACMEXrK+bTZcEHqKFrhfl9KOzXtWUb903tWjtCTAwAwRAwDICEACWoYYjEOidwMJ1NRdpgj1DrQp7b+nYpbWCi/sjE0t+h+v9jq0hAncRAQgAFxUTqTifwGMb9/QPhwM/ZIzfStn4nZ/R0Qyi9P+nXAs8OHtq/yMuyQlpgIDjCUAAOL6ESMCNBI52EBTK4zRw0MWOzo/zv/sYu/OeScVbHZ0HggcBFxKAAHBhUZGSewjMW1d7CWdiDhPsHIdl9TH1ZrhjzsSSfzksboQLAp4hAAHgmVIjUScTWLi2bqomtNvpjMBVlEdA0lw0LvhyjWtPR46U/G/lDB6TNE6EBQIgQAQgALAZgICDCJAQGERC4BbGxdX09R0rQeiCfkXeYhp/zqeyP99zenG1BDEhBBAAgQQIQAAkAAlNQEBGAgtWV58qFH4lY4L+LBUDNGw/e5duX3xO8/lfuH9i4T4Z+SAmEACB3glAAPTOB0tBwBEE5q2vG82FmEZjCZxBX+ozaQ99KgVO/e8Mm/aR7fUkOJZpQn0Bj+o1jCsMgYBtBCAAbEMPxyBgHoHK1fuzgj7fJOo8OJKEwTAacnc4jburvw6jMwa55Fm/xVDvS6D/+UkwtFNnQ3oQD6+lH4VaIVgtdeLbSaMSrVeFtp5GLayjdphAAARcROD/AwvK5dNJ02O6AAAAAElFTkSuQmCC;" vertex="1" parent="ItvUEO7hq5XVIe8wMghT-7">
          <mxGeometry x="3.125" y="3.125" width="18.75" height="18.75" as="geometry" />
        </mxCell>
        <mxCell id="ItvUEO7hq5XVIe8wMghT-8" value="" style="rounded=1;whiteSpace=wrap;html=1;" vertex="1" parent="1">
          <mxGeometry x="305" y="180" width="95" height="90" as="geometry" />
        </mxCell>
        <mxCell id="ItvUEO7hq5XVIe8wMghT-9" value="" style="shape=image;verticalLabelPosition=bottom;labelBackgroundColor=default;verticalAlign=top;aspect=fixed;imageAspect=0;image=data:image/png,iVBORw0KGgoAAAANSUhEUgAAAgAAAAIACAYAAAD0eNT6AAAAAXNSR0IArs4c6QAAAERlWElmTU0AKgAAAAgAAYdpAAQAAAABAAAAGgAAAAAAA6ABAAMAAAABAAEAAKACAAQAAAABAAACAKADAAQAAAABAAACAAAAAAAL+LWFAAA1YUlEQVR4Ae3dCZAc13nY8e/1zOyNkxdAAqQIEgDByyRFUoRIieKhWJZMW7Ks01GkVOIkLllWrCQuVfkoVa6qqFIlW5blSBWbMm2VKLlEMboli4AC3gxFSSBuEARIgsRBAAT2nJ2jX96bxS53gd2d2Z7unve6/81azOzM6/e+9/uG29/0dPeIsCCAAAIIIIAAAggggAACCCCAAAIIIIAAAggggAACCCCAAAIIIIAAAggggAACCCCAAAIIIIAAAggggAACCCCAAAIIIIAAAggggAACCCCAAAIIIIAAAggggAACCCCAAAIIIIAAAggggAACCCCAAAIIIIAAAggggAACCCCAAAIIIIAAAggggAACCCCAAAIIIIAAAggggAACCCCAAAIIIIAAAggggAACCCCAAAIIIIAAAggggAACCCCAAAIIIIAAAggggAACCCCAAAIIIIAAAggggAACCCCAAAIIIIAAAggggAACCCCAAAIIIIAAAggggAACCCCAAAIIIIAAAggggAACCCCAAAIIIIAAAgggkKqASnI0rbXavKNypSoWrhHR683v60Sr882Yi0RJv4jqS3J8+kYAAQQQQMBtAT0qWkZMjEOi9FFRarcStbse1J+9e233jiRjj70AeGSXXlTV9d/SKvw1M5G3mYldkOQE6BsBBBBAAIFMCig5okO9WQXBD1St8MAdV6nhOOcZWwHw0M7qm0318numcnmPCdC8u2dBAAEEEEAAgZgEzF4C/YAK5Yt3XNn1RBx9tl0AbN5TvVuH8scmmLfFERB9IIAAAggggMC8Apu0yH+764rSpnlbNXkycgGwea9eFdZrnzMd/HaTMXgaAQQQQAABBGIW0Eq+G4S1T9yxofdAlK6Dha5kD+wzu/v/o67X9rDxX6ge7RFAAAEEEIhHQGn5da2K2zftrvyh3TYvtNcFrbB5tz5Xh7WvmCP437XQgWiPAAIIIIAAAskI2L0BOix+7O4N6nirI7RcAGzaPn6VFNQPzKl7q1vtnHYIIIAAAgggkJaAfkEp/Y471nfvamXElgqAn+yu3BRo9X3T4bmtdEobBBBAAAEEEOiIwGvafDRw14bSY81Gb1oAbNpVvdV08iPzw6l9zTR5HgEEEEAAgc4LjIRa3n73htLj84UybwGwecf41ToI/q/pYPl8nfAcAggggAACCDglcCqU8K13X9G9da6o5iwAtuzQK2tB7Wmz4oVzrczjCCCAAAIIIOCqgH6pWizd+KuXq6OzRTjraYCf0Tqoqdp9ZgU2/rOp8RgCCCCAAALOC6jVXbXa/d/QujBbqLMWALfvqf2pOdXv7tlW4DEEEEAAAQQQ8EPAXDHwjvN21z49W7RnfQQwcbpf8HPTuDTbCjyGAAIIIIAAAl4JVApBeN3t67p3To96xh4AeyUhVQj+0jRg4z9difsIIIAAAgj4K9BVD4O/PvNqgTMKgJ/uqb/f7i7wd45EjgACCCCAAAKzCNy+eVfdflvv1DJVANjKINTafqsfCwIIIIAAAghkTUDpP5u+F2CqANi8u36POSDgmqzNl/kggAACCCCAQEPgVzbvrb9z0mKqABCtPzH5ILcIIIAAAgggkEGBUP/B5KwaZwE8tFtfpHTtBfPgrOcKTjbmFgEEEEAAAQS8FgjNVwhffNd69fLpPQC1j5jpsPH3OqcEjwACCCCAQFOBQMLah2yrRgGgtNzTdBUaIIAAAggggID3AkrJr9tJqM3b9YAu1E6Y+5z7731amQACCCCAAAJNBSrV8eLyQAq120xTNv5NvWiAAAIIIIBAJgS6CqXamwOt5fpMTIdJIIAAAggggEBLAkEg1wcS6PUttaYRAggggAACCGREQK0PlFbrMjIbpoEAAggggAACLQno9YEWvbKltjRCAAEEEEAAgYwIqBXmNEA1kJHZMA0EEEAAAQQQaElAL7bXAVjUUlsaIYAAAggggEBWBBbZAqA7K7NhHggggAACCCDQkkBP40qALTWlEQIIIIAAAghkRoACIDOpZCIIIIAAAgi0LkAB0LoVLRFAAAEEEMiMAAVAZlLJRBBAAAEEEGhdgAKgdStaIoAAAgggkBkBCoDMpJKJIIAAAggg0LoABUDrVrREAAEEEEAgMwIUAJlJJRNBAAEEEECgdQEKgNataIkAAggggEBmBCgAMpNKJoIAAggggEDrAhQArVvREgEEEEAAgcwIUABkJpVMBAEEEEAAgdYFKABat6IlAggggAACmRGgAMhMKpkIAggggAACrQtQALRuRUsEEEAAAQQyI0ABkJlUMhEEEEAAAQRaFyi23jS7LcN6TU6eOCbj42UZHxsRnd2pMjMEEEAglwLKzLq7t1+6u3tk6fJzJSiw+cutwJGXX5Rtv3hMDuzdLkcPHZQwrOfyfwomjQACCORNIAgKcv7KVXLp2qvlqus3ygUXXpw3gsZ81aZd1Vy94X31yMvy8I+/JTu3PpXLhDNpBBBAAIGZApeuvUrufNcHZcVFl8x8IuO/5aYAqFYr8qNv3Se/fPphEZ2rmifjL2GmhwACCMQgoJRcd/Pt8s9+859LqdQVQ4fud5GLAmB48DX5xlf+XA69tN/9jBAhAggggEDHBOxegPd97JOyeOm5HYshrYEzfxbAqdeOyd/8xWfY+Kf1imIcBBBAwGOBwy+/IF/5wn+VwZPHPJ5Fa6FnugCoVMryjXs/J3YPAAsCCCCAAAKtCAydOtHYa1ytjLfS3Ns2mS4Avvv1/22O8H/J2+QQOAIIIIBAZwTsmWLf+8e/6czgKY2a2QLghX07OdI/pRcRwyCAAAJZFNj+iyfkwHM7sji1xpwyWQBoc5T/Q9/9WmaTxsQQQAABBNIR2PT9r5sTx7J55lgmC4B9u7bKoYMH0nl1MAoCCCCAQGYF7Nlj+/dsy+T8MlkAbHvm0Uwmi0khgAACCKQvsO2Zx9IfNIURs1cAmF01+83lfVkQQAABBBCIQ2Dfnmcz+TFA5gqAE8ePyujIUBw5pw8EEEAAAQRkdHjQfGHcq5mTyF4B8OqhzCWJCSGAAAIIdFbgRAa3LZkrAMZGhjv7KmF0BBBAAIHMCYyNjmRuTpkrAOq1WuaSxIQQQAABBDorUKtUOhtAAqNnrgDQKgElukQAAQQQyLVAFrctxVxnNMHJ28rqgmKXLC0Upd98zeSYOTvhtbAmR8zXEtcTHLeVrs9fouScJYEs7hOpmWBODGk5fCKUsQ4XuL0DJVl6fr/0LiqJMmajgxU5+eqojA11OLBWUGmDAAIIeCZAARBzwi7t6pbb+xbLdd39MhAUzup9JAzl2fFReWR0UHZVxs56PqkHzlms5NduKsnN6wuyYvnZu0mqNS3bXwjlkW1181OTMKULX5W6C3LtW1fL5W+8QFZeskTkjNDsFbiOvjAoz/38iPxyy0GpjPERT1KvEfpFAIF8CVAAxJTvZead/gcWnytv7Ok/cxs2Y4T+IJBbegcaP1vLo3L/4DE5Wq/OaBPnLyWT4fe9tUveeXNRuubJdqmo5LrLCo2f39xYlHt/XJVtB5LdV3H1bRfJxnsul/4l3XNO2e4JuOANSxo/N9z9Bnn8O/vk2YcPZvKc3DkReAIBBBBIQGCeTUICo2W0y4tL3fKJZSvEFgELWa7t6ZN1XavkyyePyFazVyDuZemAkv/0/m5Ze+HCDvVYfX4gf/I73XL/5oo8+Fj877iDQiB3/c4GuerNFy1oyr2LuuTOD2+QVeuWyY/v2y61SrIFyoKCozECCCDgmcDCtgyeTS6NcNeUeuTT51y04I3/ZGw9Zo/Ax03xcE23+UA+xmVxn5L/8tGeBW/8J0MIzK74D9/ZJe+/vTT5UDy3pt97/t11C974Tx983Y0r5Dd+7zoJCmd8XjC9EfcRQAABBOYVoACYl2f+J+07/o8vXyFdZjd1O0vBrP9vll0gK4rxbGyLJqufem+3XLCsvbjsnN57W0k2bjj7WIao873tPWvl0mvOjbr61HoXbzhH3vredVO/cwcBBBBAYGECFAAL85rR+oOLzpElsxzoN6NRi7/0qkD+xZLzW2w9f7O331iSKy+JJ7W2tvndd3XJQG/7xcR5qxfJjW+/dP7gF/DsdXdeIhdevnQBa9AUAQQQQGBSIJ6txGRvObq1R/vfYA7mi3NZ19Uj17b5UUCvOZ7uvbcu7FiEZnMY6FHyGxvb3zvReMfefh0xI9zb3sNegBkg/IIAAgi0KEAB0CLUmc1u710y79H+Z7Zv9fe39ZtT4dpYbrmiKIv7Y97Kmnjuvr4gBXtgQMRl6Xm9svqKcyKuPfdqF162VM69aNHcDXgGAQQQQGBWAQqAWVnmf9CiXWeO4E9iubKrV3raOKbgpivi+7x++vzsRwBXrI5eAFx+/Yrp3cV6/7Lr4vnoJNag6AwBBBBwXIACIEKC7BX+ZrvIT4SuzlqlaDb+l5iPAqIu61clUwDYeNZfHL1v+049qeXCy9rba5JUXPSLAAIIuCxAARAhO0tjOvBvrqGXRezfXsxnIHrtMFc4U48vN9cViLr0L537Yj9R+5xcb2BpgpOeHIRbBBBAIGMCFAAREjpQiP5OuJXhBlS0/u3Gv41PD5qGtqSNYwt6+9s/iHCuAHsHuuZ6iscRQAABBOYQoACYA2a+h+31/JNchnW0/ofLyV7Af3A0ev9jI8ld7ricYN9J5pm+EUAAgU4KUABE0D9pvtUvyeVUPVr/VbNakkXAyeHoBcDIqfHEyEZOlRPrm44RQACBrApQAETIrP1K36T2Atir279Qjb6xfO7laHsPWmHYczB634f3n2pliEhtDj2fXN+RAmIlBBBAwAMBCoAISbIbafuVvkksu0y/oxE/ArDxPL0nmS/IGR23Xxccve99W48mwdXo87lfJtd3YkHTMQIIINBhAQqAiAl4ZHQw4przr/bw6ND8DZo8+/iOmtiNddzLlmfrUou+/ZfjLw9LEnsBXn1pSF59sT2zuK3oDwEEEPBBgAIgYpZ2VcZkaznevQAHqmX5WXk4YkQTqw2NiTz4aLRjCOYaeKwi8s2H2z+I7+EH9sw1ROTHbZ9ax1/wRA6IFRFAAAFPBCgA2kjU/YPHYjsWoGI2Yv9w6pjEsSn7/lNV2X84+uf1Z5Lc908VOTXSfmQv731Ntj188MzuI/++84lX5MWdxyOvz4oIIIBAngUoANrI/tF6Vb508ojU23wHajetf3fqqBxo4+C/6dOomB0An/3GuLRz1P5kfz96uioP/Ty+PQqb7t8lthBodzl84JQ89NUd7XbD+ggggEBuBSgA2kz9DnPQ3udfOxz5wL2qKR7+1mz8nxxrb9f/mdM4Pqjlz/6uLAePRX/n/gOzJ+HeH7W/6396bGE9lAe/8Izs+0X0A/de2HFMHvz8M1KrxreXY3qM3EcAAQTyIEABEEOWt5si4L8fOyh7zHEBC1nsZ/7/4/jL8nibB/7NNebh17T8yb1l2fzLmvmcfK5WZz9ui4fPPTAu9/64KuEC1ju7p9kfqY7X5Ttf+oU8+uBesfdbXWzbx7+zzxQQP5fyaLyFSasx0A4BBBDIikC8XxyfFZUI8zhcq8pnj78i13b3if1K3w3mW/1Ks1yX127udpuCYYvZ6NsD/hLYvs6I3p4R8Nffqcj3nqjKPRtLcsPaoizqndFk6hd73MAj2+pid/vbjxESXczE/98P98v2x16WG+6+RNaabwtcYr4yeLZl8PiYPPfzo/KzHx+QkcHo10iYrW8eQwABBPIqQAEQc+a3mo27/elWgVxS6pbl5nsD7LX9R8y5/SfNFf7sRX7aOc8/argvvqrlr75dkUBV5LKVgZyzJJBli5SUTYFgD/B74Wgo9p1/2svoYEUeeWBv42f5yn5Zel6fDNgvDjLF08hr5jiG46ONUwjTjovxEEAAgawLUAAklOFxs8Ff6EcCCYUyo1u7S3/vK2HjZ8YTDvxy4tCI2B8WBBBAAIHkBTgGIHljRkAAAQQQQMA5AQoA51JCQAgggAACCCQvQAGQvDEjIIAAAggg4JwABYBzKSEgBBBAAAEEkhegAEjemBEQQAABBBBwToACwLmUEBACCCCAAALJC1AAJG/MCAgggAACCDgnQAHgXEoICAEEEEAAgeQFKACSN2YEBBBAAAEEnBOgAHAuJQSEAAIIIIBA8gIUAMkbMwICCCCAAALOCVAAOJcSAkIAAQQQQCB5AQqA5I0ZAQEEEEAAAecEKACcSwkBIYAAAgggkLwABUDyxoyAAAIIIICAcwIUAM6lhIAQQAABBBBIXoACIHljRkAAAQQQQMA5AQoA51JCQAgggAACCCQvoDbtqurkh0lvhMWFUVk1UJHGpLSeurURNH47PVttnrOPNB6faNz49fQaMvG8bTL5SKMp/yCAAAIIeCCgbIyq8a+5OX0r5nbiicmnbKOp5yeenmhrG0w0nbg9ONwlg/U+D2beeojF1pv60bJYKkqxUD0d7OlE+hE6USKAAAIIOCpgty1SdzS4iGHxEUBEOFZDAAEEEEDAZwEKAJ+zR+wIIIAAAghEFKAAiAjHaggggAACCPgsQAHgc/aIHQEEEEAAgYgCFAAR4VgNAQQQQAABnwUoAHzOHrEjgAACCCAQUYACICIcqyGAAAIIIOCzAAWAz9kjdgQQQAABBCIKUABEhGM1BBBAAAEEfBagAPA5e8SOAAIIIIBARAEKgIhwrIYAAggggIDPAhQAPmeP2BFAAAEEEIgoQAEQEY7VEEAAAQQQ8FmAAsDn7BE7AggggAACEQUoACLCsRoCCCCAAAI+C1AA+Jw9YkcAAQQQQCCiAAVARDhWQwABBBBAwGcBCgCfs0fsCCCAAAIIRBSgAIgIx2oIIIAAAgj4LEAB4HP2iB0BBBBAAIGIAhQAEeFYDQEEEEAAAZ8FKAB8zh6xI4AAAgggEFGAAiAiHKshgAACCCDgswAFgM/ZI3YEEEAAAQQiClAARIRjNQQQQAABBHwWoADwOXvEjgACCCCAQEQBCoCIcKyGAAIIIICAzwIUAD5nj9gRQAABBBCIKEABEBGO1RBAAAEEEPBZgALA5+wROwIIIIAAAhEFKAAiwrEaAggggAACPgtQAPicPWJHAAEEEEAgogAFQEQ4VkMAAQQQQMBnAQoAn7NH7AgggAACCEQUoACICMdqCCCAAAII+CxAAeBz9ogdAQQQQACBiAIUABHhWA0BBBBAAAGfBYo+B5/X2PV4RfTxkxKOlfNKwLwRQMARgaCvV9Q5S0V1lRyJiDBaFaAAaFXKgXbh6JhUvr9Fqs/uEanXHYiIEBBAAAEjUCxI6dorpPsdbxHV1wOJJwIUAJ4kSo+MydiX75fw+ClPIiZMBBDIjUCtLtVntkv9pUPS97vvpwjwJPEcA+BJosrf+ykbf09yRZgI5FUgfPWEjP9wS16n7928KQA8SJkeLUtt214PIiVEBBDIu0Bt626xxymxuC9AAeB+jiQ8dkIkDD2IlBARQCDvAtp8HGD3BLC4L0AB4H6ORFeqHkRJiAgggMBpgXH+ZvnwWqAA8CFLxIgAAggggEDMAhQAMYPSHQIIIIAAAj4IUAD4kCViRAABBBBAIGYBCoCYQekOAQQQQAABHwQoAHzIEjEigAACCCAQswAFQMygdIcAAggggIAPAhQAPmSJGBFAAAEEEIhZgAIgZlC6QwABBBBAwAcBCgAfskSMCCCAAAIIxCxAARAzKN0hgAACCCDggwAFgA9ZIkYEEEAAAQRiFqAAiBmU7hBAAAEEEPBBgALAhywRIwIIIIAAAjELUADEDEp3CCCAAAII+CBAAeBDlogRAQQQQACBmAUoAGIGpTsEEEAAAQR8EKAA8CFLxIgAAggggEDMAhQAMYPSHQIIIIAAAj4IUAD4kCViRAABBBBAIGYBCoCYQekOAQQQQAABHwQoAHzIEjEigAACCCAQswAFQMygdIcAAggggIAPAhQAPmSJGBFAAAEEEIhZgAIgZlC6QwABBBBAwAcBCgAfskSMCCCAAAIIxCxAARAzKN0hgAACCCDggwAFgA9ZIkYEEEAAAQRiFqAAiBmU7hBAAAEEEPBBgALAhywRIwIIIIAAAjELUADEDEp3CCCAAAII+CBAAeBDlogRAQQQQACBmAUoAGIGpTsEEEAAAQR8EKAA8CFLxIgAAggggEDMAhQAMYPSHQIIIIAAAj4IUAD4kCViRAABBBBAIGYBCoCYQekOAQQQQAABHwQoAHzIEjEigAACCCAQswAFQMygdIcAAggggIAPAhQAPmSJGBFAAAEEEIhZgAIgZlC6QwABBBBAwAcBCgAfskSMCCCAAAIIxCxAARAzKN0hgAACCCDggwAFgA9ZIkYEEEAAAQRiFqAAiBmU7hBAAAEEEPBBgALAhywRIwIIIIAAAjELUADEDEp3CCCAAAII+CBAAeBDlogRAQQQQACBmAUoAGIGpTsEEEAAAQR8EKAA8CFLxIgAAggggEDMAhQAMYPSHQIIIIAAAj4IUAD4kCViRAABBBBAIGYBCoCYQekOAQQQQAABHwQoAHzIEjEigAACCCAQswAFQMygdIcAAggggIAPAhQAPmSJGBFAAAEEEIhZgAIgZlC6QwABBBBAwAcBCgAfskSMCCCAAAIIxCxAARAzKN0hgAACCCDgg0DRhyBzH6MORS3tFanWpn50rSba/m5uWRBAAIGOCBSLokrmx9yKuZUu82Pua/Mfi/sCFADu50j0eFlqW7d6ECkhIoAAAkbgnXfA4IEAHwF4kCRCRAABBBBAIG4BCoC4RekPAQQQQAABDwQoADxIEiEigAACCCAQtwAFQNyi9IcAAggggIAHAhQAHiSJEBFAAAEEEIhbgAIgblH6QwABBBBAwAMBCgAPkkSICCCAAAIIxC1AARC3KP0hgAACCCDggQAFgAdJIkQEEEAAAQTiFqAAiFuU/hBAAAEEEPBAgALAgyQRIgIIIIAAAnELUADELUp/CCCAAAIIeCBAAeBBklR3twdREiICCCAwIaB6e6DwQIACwIMkFS5aOfF1mx7ESogIIJBzAfO1wMGFK3KO4Mf0KQA8yJPq65XSm2/yIFJCRACBvAt0vWWjqO6uvDN4MX8KAC/SJNL74d+SwqqLPImWMBFAII8ChUtWSe8H353HqXs5ZwoAT9Km+vpk4E8/Jd1vf5vw+ZonSSNMBHIiYPdSdv/qnTLwx58S1cPn/76kXW3aVdW+BNtKnMt7KrKqb6yVpt620bW66GMnRI9le57eJojAEciRgOrtFXXucnOcUiHTsz442isnytn6aKOY6YxldHL2fzS14ryMzo5pIYAAAgikIcBHAGkoMwYCCCCAAAKOCVAAOJYQwkEAAQQQQCANAQqANJQZAwEEEEAAAccEKAAcSwjhIIAAAgggkIYABUAayoyBAAIIIICAYwIUAI4lhHAQQAABBBBIQ4ACIA1lxkAAAQQQQMAxAQoAxxJCOAgggAACCKQhQAGQhjJjIIAAAggg4JgABYBjCSEcBBBAAAEE0hCgAEhDmTEQQAABBBBwTIACwLGEEA4CCCCAAAJpCFAApKHMGAgggAACCDgmQAHgWEIIBwEEEEAAgTQEKADSUGYMBBBAAAEEHBOgAHAsIYSDAAIIIIBAGgIUAGkoMwYCCCCAAAKOCVAAOJYQwkEAAQQQQCANAQqANJQZAwEEEEAAAccEKAAcSwjhIIAAAgggkIYABUAayoyBAAIIIICAYwIUAI4lhHAQQAABBBBIQ4ACIA1lxkAAAQQQQMAxAQoAxxJCOAgggAACCKQhQAGQhjJjIIAAAggg4JgABYBjCSEcBBBAAAEE0hCgAEhDmTEQQAABBBBwTIACwLGEEA4CCCCAAAJpCFAApKHMGAgggAACCDgmQAHgWEIIBwEEEEAAgTQEKADSUGYMBBBAAAEEHBOgAHAsIYSDAAIIIIBAGgLFNAZhjDgFtMj4i6IqR0TC0Tg7pi8HBbTqFuk6V1TPGtFScDDCs0NSUhddfl6kckyUHj+7AY9kSyDoE911gUj3xWZeKltzy/hsKAA8SrCqvCJy9Osi1cMeRU2o7QhM/TktLhFZ/m6R/ivb6S75dUd3iBz/lqjaYPJjMYIzAo3XaddKkfM+YIoBc8vihQAfAXiRJhOk3egf+l9s/H3JV9xx1k6JOnqfiN3AurqMbhN1xMTIxt/VDCUbV+XQxN8ou3eSxQsBCgAv0mSCPPZ/zC5/dqf6kq5k4tSijj0gomvJdN9Or7pqYnvQ9GA+omLJr0BYFnXC/K1i8UKAAsCHNNl3f+X9PkRKjEkL1IdEje1LepQF96/GnhMxsbEgIGPm+A/2AnnxQqAA8CBNqnbcRMk7Kw9SlUqIuvpqKuMsZBBdPbaQ5rTNtIDZU1Xj9eBDiikAPMiSdnGXrwduWQ1RiXsfAdgj/1kQmBTgb9akhNu3FABu54foEEAAAQQQSESAAiARVjpFAAEEEEDAbQEKALfzQ3QIIIAAAggkIkABkAgrnSKAAAIIIOC2AAWA2/khOgQQQAABBBIRoABIhJVOEUAAAQQQcFuAAsDt/BAdAggggAACiQhQACTCSqcIIIAAAgi4LUAB4HZ+iA4BBBBAAIFEBCgAEmGlUwQQQAABBNwWoABwOz9EhwACCCCAQCICFACJsNIpAggggAACbgtQALidH6JDAAEEEEAgEQEKgERY6RQBBBBAAAG3BSgA3M4P0SGAAAIIIJCIAAVAIqx0igACCCCAgNsCFABu54foEEAAAQQQSESgeGSo/oxWokTroogKlBJbFBTMA+ZWFcwz9rmSMk+IFtPGPm6eV8o+H2jRpq1ZR0nBPG7aimmbSKytdVobl2Bs1ARigjH/NG7tmlP3dePxxkONx3TjycAE/nob+6w7S1A+JaVyxdDXTIjViVttbqVufmz8LNkVKIhWJTO94sStKkp96JTU1LBTUy6amArl8WmvTfNanXqNOhUqwcQqYP/Cnn6Nmtem+fNv/o4WpWpeD2HVrdeo/UvZ+Gtp/gkbWwaz9TK3+vSfUHvb+N36NO5PtJ94XOREPZDjFbuZ68zSiLOxATDRaanbaZjNs9kI6FBrHZqozH1lp1Yzv5u7qtpoKdq0NY+b583D5ta0VaqmTC9F0/IGO9mJ5fSsJ399/QnzyFSj19ue9djUih27UzXz7CmaP0RnLtPDn3Z/8q7dlLq6FExR01V+YUZ4k3HPeJBfMi1g/9Tapd4zLNWaLQDdWZT5Y18svzgjIF6jMzhy8cvka7Rm/mbVHXuNzpWAyZgnb89qd/qJarVPyrWOv6rtu4Fpy5nxTP99rvtm9UY1Yd+5syCAAAIIIIBA7gQoAHKXciaMAAIIIIAAewB4DSCAAAIIIJBLAfYA5DLtTBoBBBBAIO8CFAB5fwUwfwQQQACBXApQAOQy7UwaAQQQQCDvAhQAeX8FMH8EEEAAgVwKUADkMu1MGgEEEEAg7wIUAHl/BTB/BBBAAIFcClAA5DLtTBoBBBBAIO8CFAB5fwUwfwQQQACBXApQAOQy7UwaAQQQQCDvAhQAeX8FMH8EEEAAgVwKUADkMu1MGgEEEEAg7wIUAHl/BTB/BBBAAIFcClAA5DLtTBoBBBBAIO8CxWU94fNa625RqtdgFLWWAe3xtwR2F5SEQZeZjoi5JwVlZuP5UuhaJjJwtahwzPOZEH67Atq+tntWSaFYaLerWNe3McnABvMarcTaL535J6CDXmn8zXLsNRpFsq6VaAnEbBelu6RkcRBG6caJdcwmMTTbxWETTM1MaEwpNa6OHT3m/xbSCV6CQAABBBBAwB8BPgLwJ1dEigACCCCAQGwCFACxUdIRAggggAAC/ghQAPiTKyJFAAEEEEAgNgEKgNgo6QgBBBBAAAF/BCgA/MkVkSKAAAIIIBCbAAVAbJR0hAACCCCAgD8CFAD+5IpIEUAAAQQQiE2AAiA2SjpCAAEEEEDAHwEKAH9yRaQIIIAAAgjEJkABEBslHSGAAAIIIOCPAAWAP7kiUgQQQAABBGIToACIjZKOEEAAAQQQ8EeAAsCfXBEpAggggAACsQlQAMRGSUcIIIAAAgj4I2ALAL4O2J98ESkCCCCAAAKxCARa61osPdEJAggggAACCHghYLb99cC8/6cA8CJdBIkAAggggEA8AqEOdRBqXY2nO3pBAAEEEEAAAS8EtISBroehF8ESJAIIIIAAAgjEIhDWzR6Aap1PAGLRpBMEEEAAAQQ8EaiHdQnC0BwHwIIAAggggAACuRGo1esqMP+UcjNjJooAAggggAACUq/Vg8D802MOBoQDAQQQQAABBHIgYM4AkHq9XrS7/xXHAeQg40wRAQQQQAABI1CrThz71/j8v1KpgIIAAggggAACORCoVCbO/p8oAMYrYq4KlINpM0UEEEAAAQTyK2C39ZNv+qfOABhnL0B+XxHMHAEEEEAgFwIV84Z/cnm9ACiPTz7GLQIIIIAAAghkUKA8/vq2fqoAMEcETu0WyOCcmRICCCCAAAK5FrDv/u22fnKZKgDsA+WxMscCTMpwiwACCCCAQEYE7Gf/Y+XyjNnMKADMRYFkfNrugRkt+QUBBBBAAAEEvBSw2/bp7/7tJGYUAPaBMbMXIOT7gSwFCwIIIIAAAt4L2G263bafuZxVANjdBMMjI2e243cEEEAAAQQQ8FBgZHhk1o/3bQEwcUWAaZOyVwkaGxub9gh3EUAAAQQQQMA3AfvOv1qb9Vt/q7YAGJ5tQo2VTl8taLbneQwBBBBAAAEE3BWoVqvzvZkfmrMAsFMaGh6eq3Jwd8ZEhgACCCCAQM4FauZdv92Gz7WYa/82CoDjczWwj9vPDsw3Bs7XhOcQQAABBBBAwBEBu81ubPznucK/Ejlu9wDsnS9me/Tg4NCQ2F0JLAgggAACCCDgrkDVHMNnt9k6nGfrb8PXeo8pANSuZlOxZwYMDQ0L3xfQTIrnEUAAAQQQ6IyAPdd/2Oz2t9vsZosWtbuoRG9r3nSiK/txQK27Jv19faZuaNY9zyOAAAIIIIBA0gJ2gz86Omou5Pf6F/00GzNQsq1YrBe3VAs1WwO0tEm3FYY9uKC/v0+KxWKzMXgeAQQQQAABBBISsKftj5iN/5lX+WsynFZFtaWx0d+zc+92s/m/sskKZz3d3dUlvX29EgT2UAIWBBBAAAEEEEhDwB6fNzo6FulL/MyG/9m1V6y9tvEW3rz9/5F5YMEFgD0mwP709HRLT3ePBAUKgTQSzxgIIIAAAvkUqJsNv/3ivna+t8d8/v9Dq9fYYgda/qEdynJ5XE4NDsqwOVCwYs4WaOUAhHbGY10EEEAAAQTyJFAxb7btNnbw1GBbG39rplX9q/Z26nP/Pbv2Pmt+v9o+2O5iPxKwxweUSsXGbaFQaLdL1kcAAQQQQCA3AvYzfXu8nT2tr1ozb6ybndbXsozeuu6Kdb9im79+FJ9WXxalP99yH/M0tJ9N2GrF/kwuRVMEBOZHmUMPG/8p8+9U+THZilsEEEAAAQTyI2DP2LN7zRv/mY18aDf85iepRSn1pcm+pzbB+/fv76mO1583oaycfJJbBBBAAAEEEMiGgKk1Dvf196xZvXp149v+po7au/TSS8vmmgB/kY1pMgsEEEAAAQQQmCGg1f+c3Pjbx6cKAPtLT3+P/Qhgv73PggACCCCAAAKZEdjX1VP4q+mzmVEA2MpAK/Xx6Q24jwACCCCAAAKeCwT6k3ZP//RZzCgA7BPr11/+A3PzzemNuI8AAggggAACfgqYg/2+vm7duu+dGf1ZBYBtUOou/mtzw0cBZ2rxOwIIIIAAAn4J7AtKwb+dLeRZCwCzm+CkBPpDZoXXz+ObbW0eQwABBBBAAAFXBcYDrT5w2WWXnZotwFkLANvQ7C540hwP8FFzN5xtRR5DAAEEEEAAAWcFQrPr/yOXb7j8Z3NFOGcBYFcwxwPcby7W84m5VuZxBBBAAAEEEHBRQH/KfOHPP84X2bwFgF1x7fq1XzRVxB+au+YaAiwIIIAAAggg4LCA2WuvP2ku99v0uj5TVwJsNpk9O/d82Fy79yumXalZW55HAAEEEEAAgdQFKua6wh9bt2Hd11oZueUCwHa2e/e+25QObcerWumcNggggAACCCCQisCLSssH125Y+3irozX9CGB6R+vXX/aIVuH15rsEzzqfcHo77iOAAAIIIIBAagLfrtYr1y9k428jW9AegOlT2btz7z1aib2s4Orpj3MfAQQQQAABBNIQUIfMdvjT5oD9+6KMFrkAsIPt3bt3sa7rPzJ1xO+bX5dECYB1EEAAAQQQQGBBAifNdvcvq/Xxz1511VXDC1pzWuO2CoDJfsxXCS+tjldNEaDs1YY4PmAShlsEEEAAAQTiE3jJbGe/VCipL8x1cZ+FDBVLATA5oNY62LPn+TuU1D9ignyHOXHwgsnnuEUAAQQQQACBBQooOWK2pz8Itfy9OQ7vp0qp2C7OF2sBMH1aphhQ+3buuyoMwjuVVlebiwisN59VrDMDrpjejvsIIIAAAggg0LjYzmFzJP8es53crUU9q0K96fIrL99hNvqJXIcnsQJgvmRu3759oE/6Bqqlat987XgOAR8EqtVqz8jQqL3cZo8P8WYgxnL/or43lkqlGV9tmoF5MYUcCpSqpdFRGR1u57P8qGwdKQCiBst6CLgo8MSWJ66UgtruYmxZjUkH4ZUbN27cmdX5MS8E0hBY0HUA0giIMRDwTUAV1KW+xex7vKqOue85JP7OC1AAdD4HROC5gDkiZ43nU/AufCUKc++yRsCuCVAAuJYR4vFPQAl7ANLOGuZpizNeBgUoADKYVKaUroA5PpcCIF1yMadEYZ6yOcNlT4ACIHs5ZUZpC2g+AkibXCnM0zZnvOwJUABkL6fMKG0BdkenLW7HW9OJQRkTgSwJUABkKZvMJXWBLVueOc8Muij1gRlw0dObnz4XBgQQiC5AARDdjjURkGKxzmfRHXodhF0h9h2yZ9hsCFAAZCOPzKJDAoGusyu6Q/Z1jr3okDzDZkWAAiArmWQeHREw33NBAdARefP1KBJi3yF7hs2GAAVANvLILDolwAGAnZK3FQAfAXROn5EzIEABkIEkMoXOCZirALIR6hQ/1wLolDzjZkSAAiAjiWQanRHgfPTOuDdGVXz80kF9hs6AAAVABpLIFDojsHnz5qJoWdWZ0RnVCFzcyAEUCCAQSYACIBIbKyEg0hf0rTYOJSw6JlDs6emhAOsYPwP7LkAB4HsGib9jAqrELuiO4Z8eOAiDNZ2OgfER8FWg6GvgxI1AxwWKXSsLYf1ZUWpZIVBLtciA6nhQ2Q7AGJuD/2W4HuqTovVrOihcmO0ZMzsEkhOgAEjOlp4zLrBsSf+VWss1GZ+mi9MbMEHZn1XmIMwNLgZITAj4IMBHAD5kiRidFNCh5hTADmdGiyIHHc4Bw/srQAHgb+6IvNMCnIbW6QyIhJpjADqfBSLwVIACwNPEEbYTArz77HQauBpgpzPA+B4LUAB4nDxC75zA9u3b7WfQ9quAWTorcP7pXHQ2CkZHwEMBCgAPk0bInRcoFHrZ9dz5NDQiCIIe9sQ4kgvC8EuAAsCvfBGtIwJK8U10jqRCiuTClVQQh2cCFACeJYxw3RAIhDMA3MhEIwr2ADiUDELxR4ACwJ9cEalDApoCwJlscCqgM6kgEM8EKAA8SxjhOiLAJWgdSYQJQ3EqoDvJIBKfBCgAfMoWsTokwEcADiWDjwAcSgah+CNAAeBProjUEQGttTIXpH+DI+EQhpY1jZwggQACCxKgAFgQF40RENm5c+cK49CHhTMCvQd2HLjAmWgIBAFPBCgAPEkUYbojEARda9yJhkisQD2okxNeCggsUIACYIFgNEegwBkAzr0ItOKYDOeSQkDOC1AAOJ8iAnROQAnvNh1Lijktk5w4lhPCcV+AAsD9HBGhYwKcd+5YQhrh8LXALmaFmNwWoABwOz9E56KAZnezg2nhVEAHk0JIbgtQALidH6JzU4Ddze7lhZy4lxMiclxAOR4f4SHglID56tmuUqFrzARF8exUZiRUBelbu3btuFthEQ0C7grwR8zd3BCZgwLmq2ffYMLi/xv3chME1eBi98IiIgTcFeAPmbu5ITIHBYoS8lmzg3mxIYWK3DiaGsJyVIACwNHEEJajApwC6GhiRMy1ANY4GxyBIeCgAAWAg0khJHcFOAXQ3dyYT2bYO+NyeojNOQEKAOdSQkBuC3AKoLv5ITfu5obIXBSgAHAxK8TksgC7md3NDrlxNzdE5qAABYCDSSEkpwXYyLibHnLjbm6IzEEBCgAHk0JIbgrs379/qYnM/rC4KbDsdI7cjI6oEHBMgALAsYQQjrsCtbEa7zDdTU8jslqtxoGAjueI8NwRoABwJxdE4rpAwLcAup4iXeNUQNdzRHzuCFAAuJMLInFcwHzlLO8uHc8RpwI6nyACdEiAAsChZBCK6wJ85azrGTIXA6JIcz1JxOeMAAWAM6kgEA8E1ngQY95DJEd5fwUw/5YFKABapqIhAhwD4PprwPxBowBwPUnE54wABYAzqSAQlwW01vb/Fb5tzuUkmdi0yCWnc+V4pISHQOcFKAA6nwMi8EBg3759F5kwuz0INe8hdj/33HMX5h2B+SPQigAFQCtKtMm9gK5yepkvLwKzB2CNL7ESJwKdFKAA6KQ+Y3sjwCmA3qRKdJ1vBfQnW0TaSQEKgE7qM7Y3AnwNsDepMoFyKqBP2SLWzglQAHTOnpF9ElAcXe5NusiVN6ki0M4KUAB01p/R/RFY40+o+Y7U/FEjV/l+CTD7FgUoAFqEolm+BZRwFUBfXgHmVECuBuhLsoizowIUAB3lZ3AfBF566aVe87nyCh9iJcaGwMpXnn6lDwsEEJhfgAJgfh+eRUDK5bJ9R6mg8EZADS8evsSbaAkUgQ4JUAB0CJ5h/REw55WzS9mfdDUi1bpAzjzLGeGmL0ABkL45I/omUA/W+BZy7uMNuRhQ7l8DADQVoABoSkSDvAtwESD/XgEB1wLwL2lEnLoABUDq5AzonQDnlXuXMnPEBntt/MsaEacswIFNKYMz3OwC9hvcnnrsqTeFou4y794uNFfeK8zeMv1Hu7u6fluUWp7+yIwYVUBrOV6pjH8z6vrxrxfWtASHlA5/8qZb3/SUUiqMfwx6RGBhAhQAC/OidQICTz765J1mg//n5lS7axLoni4RcE3glzoM//3Gt2z8qWuBEU++BCgA8pVv52b75CNP/r5WYjb+4sw7fueQCCiLAnVzZukf3HLrzV/M4uSYkx8CFAB+5CmTUT752JPvNrtqHzCT43WYyQwzqSYCodbhezbetvHbTdrxNAKJCPCHNxFWOm0m8Nhjj/UGurDHtFvVrC3PI5BhgZeL3YV1N95442iG58jUHBXgLABHE5P1sAIdfNDMkY1/1hPN/JoJXFQv19/XrBHPI5CEAAVAEqr02YKAemcLjWiCQPYFAuH/hexn2ckZUgA4mZY8BKU4TzsPaWaOTQXMcTD8v9BUiQZJCFAAJKFKn80FtC42b0QLBHIgoKUrB7Nkig4KUAA4mJRchKTkYC7mySQRaCag5KVmTXgegSQEKACSUKXPpgJa5KGmjWiAQB4ElP6nPEyTObonQAHgXk5yEZEq6K+aiQ7nYrJMEoG5BYbquv61uZ/mGQSSE6AASM6WnucRuOWWW44oLf95niY8hUDmBcyesM/ceuutRzM/USbopAAXAnIyLfkIynwBkHri8afuNYXAR/MxY2aJwHQBde+b3nzTvzJfDGTqABYE0hdgD0D65ox4WsD+4btl483/0vz5+yPzEB8H8MrIi8CQ2eL/Bzb+eUm3u/NkD4C7uclVZI8++uj5BVX4kDJfB2zOi77YTH5RrgCYbNYFhpSSF0OtfhJK9X52+2c93cwPAQQQQAABBBBAAAEEEEAAAQQQQAABBBBAAAEEEEAAAQQQQAABBBBAAAEEEEAAAQQQQAABBBBAAAEEEEAAAQQQQAABBBBAAAEEEEAAAQQQQAABBBBAAAEEEEAAAQQQQAABBBBAAAEEEEAAAQQQQAABBBBAAAEEEEAAAQQQQAABBBBAAAEEEEAAAQQQQAABBBBAAAEEEEAAAQQQQAABBBBAAAEEEEAAAQQQQAABBBBAAAEEEEAAAQQQQAABBBBAAAEEEEAAAQQQQAABBBBAAAEEEEAAAQQQQAABBBBAAAEEEEAAAQQQQAABBBBAAAEEEEAAAQQQQAABBBBAAAEEEEAAAQQQQAABBBBAAAEEZhH4/7LLNo5aX1sgAAAAAElFTkSuQmCC;" vertex="1" parent="1">
          <mxGeometry x="490" y="208" width="62" height="62" as="geometry" />
        </mxCell>
      </root>
    </mxGraphModel>
  </diagram>
</mxfile>
